<svg width="49" height="49" viewBox="0 0 49 49" fill="none" xmlns="http://www.w3.org/2000/svg">
<path d="M24.0312 0.668747C23.8719 0.799999 23.675 1.41875 23.0844 3.6875C22.6813 5.2625 22.3438 6.55625 22.3438 6.56562C22.3438 6.56562 22.0813 6.60312 21.7625 6.64062C20.3281 6.8 18.0125 7.54062 16.3906 8.34687C15.3875 8.85312 13.7 9.95 12.9219 10.6156C12.5469 10.9344 12.3125 11.075 12.2188 11.0281C12.1438 11 11.9 10.9531 11.6844 10.925C11.1406 10.8687 10.8688 11.1406 10.925 11.6844C10.9531 11.9 11 12.1437 11.0281 12.2188C11.075 12.3125 10.9344 12.5469 10.6156 12.9219C9.92188 13.7469 8.9 15.3031 8.38438 16.3344C7.54063 18.0031 6.80938 20.3094 6.64063 21.7531C6.575 22.3344 6.575 22.3437 6.2375 22.4281C6.04063 22.475 5.47813 22.625 4.97188 22.7562C4.45625 22.8875 4.00625 23 3.95 23C3.69688 23 4.175 20.1312 4.7 18.4062C6.10625 13.85 9.05 9.90312 13.0625 7.2125C14.7594 6.07812 17.2344 4.97187 19.2875 4.42812C20.4125 4.1375 20.6562 3.96875 20.6562 3.48125C20.6562 3.15312 20.2906 2.75 19.9813 2.75C19.8594 2.75 19.2969 2.87187 18.725 3.02187C14.825 4.05312 11.2625 6.17188 8.39375 9.1625C4.925 12.8 2.85313 17.3281 2.35625 22.3437L2.25313 23.4594L1.54063 23.6469C0.7625 23.8531 0.5 24.0781 0.5 24.5C0.5 24.9219 0.7625 25.1469 1.54063 25.3531L2.25313 25.5406L2.35625 26.6562C2.88125 32.0187 5.25313 36.8656 9.17188 40.6062C12.8 44.075 17.3375 46.1469 22.3438 46.6437L23.45 46.7469L23.6281 47.4125C23.8156 48.1719 24.0781 48.5 24.4813 48.5C24.9219 48.5 25.1375 48.2469 25.3531 47.4594L25.5406 46.7469L26.6563 46.6437C32.0188 46.1187 36.8656 43.7469 40.6063 39.8281C44.075 36.2 46.1469 31.6625 46.6438 26.6562L46.7469 25.5406L47.4594 25.3531C48.2375 25.1469 48.5 24.9219 48.5 24.5C48.5 24.0781 48.2375 23.8531 47.4594 23.6469L46.7469 23.4594L46.6438 22.3437C45.7344 13.1094 39.1719 5.36562 30.275 3.02187C29.0375 2.70312 28.6906 2.68437 28.4375 2.9375C28.1938 3.18125 28.1844 3.78125 28.4188 3.99687C28.5031 4.07187 29.0094 4.25 29.525 4.38125C34.0531 5.525 38.075 8.16875 40.9156 11.8531C43.2125 14.8344 44.6469 18.35 45.0688 22.0344C45.1625 22.7937 45.1625 23 45.0688 23C45.0031 23 44.5438 22.8875 44.0281 22.7562C43.5219 22.625 42.95 22.475 42.7625 22.4281C42.4625 22.3531 42.4062 22.2969 42.4062 22.1C42.4062 21.5937 42.0031 19.8969 41.6 18.6969C40.9719 16.8312 39.8844 14.7594 39.3688 14.4125C38.9375 14.1312 38.2812 14.4875 38.2812 15.0031C38.2812 15.1437 38.5063 15.6594 38.7875 16.1469C39.0688 16.6437 39.4625 17.4312 39.6688 17.9C40.2031 19.1187 40.9344 21.6875 40.7844 21.8375C40.7281 21.8937 34.5031 20.3187 34.2875 20.1969C34.2219 20.1594 34.9062 18.6219 36.1438 16.0156C37.4563 13.25 38.0938 11.7969 38.0938 11.5906C38.0938 11.1875 37.8125 10.9062 37.4094 10.9062C37.2031 10.9062 35.7406 11.5531 32.9844 12.8562C30.3781 14.0938 28.8406 14.7781 28.8031 14.7125C28.6813 14.4969 27.1063 8.27187 27.1625 8.21562C27.3125 8.06562 29.8813 8.7875 31.1 9.33125C31.5688 9.5375 32.3281 9.9125 32.7875 10.175C33.7438 10.7281 34.0906 10.775 34.4188 10.3906C34.7188 10.0437 34.6813 9.71562 34.3156 9.36875C33.8281 8.90937 31.7188 7.87812 30.3125 7.4C29.0938 6.99687 27.4063 6.59375 26.9 6.59375C26.7688 6.59375 26.6563 6.58437 26.6563 6.56562C26.6563 6.55625 26.3188 5.2625 25.9156 3.6875C25.1188 0.631248 25.0625 0.5 24.5 0.5C24.3594 0.5 24.1438 0.574997 24.0312 0.668747ZM26.5156 12.0312L28.4469 19.475L26.4688 21.4531L24.5 23.4219L24.5094 13.9062C24.5094 8.675 24.5281 4.42812 24.5469 4.48438C24.5656 4.53125 25.4563 7.93437 26.5156 12.0312ZM21.875 8.27187C21.875 8.4125 20.2906 14.4969 20.2156 14.6656C20.15 14.7875 19.6531 14.5812 17.0938 13.3719C15.4156 12.575 14.0094 11.8906 13.9625 11.8438C13.9156 11.7969 14.2531 11.4969 14.7125 11.15C16.3531 9.94062 18.3688 8.98438 20.4219 8.45937C21.5188 8.17812 21.875 8.13125 21.875 8.27187ZM19.7281 16.325C19.7656 16.3625 19.6344 16.9906 19.4469 17.7219L19.1094 19.0625L16.2031 16.1562L13.2969 13.25L16.4844 14.75C18.2375 15.5844 19.7 16.2875 19.7281 16.325ZM34.2406 16.5031C33.4156 18.2469 32.7125 19.7 32.675 19.7281C32.6375 19.7656 32.0094 19.6344 31.2781 19.4469L29.9375 19.1094L32.8156 16.2312C34.4094 14.6375 35.7125 13.3438 35.7219 13.3438C35.7219 13.3438 35.0563 14.7687 34.2406 16.5031ZM13.3719 17.0937C14.2813 19.0156 14.7781 20.1594 14.7125 20.1969C14.4969 20.3187 8.27188 21.8937 8.21563 21.8375C8.13125 21.7531 8.43125 20.3937 8.76875 19.3437C9.0875 18.3406 9.65938 17.075 10.2313 16.0906C10.7938 15.1344 11.75 13.8687 11.8438 13.9625C11.8906 14.0094 12.575 15.4156 13.3719 17.0937ZM21.4531 22.5312L23.4219 24.5L13.9063 24.4906C8.675 24.4812 4.45625 24.4625 4.53125 24.4344C5.08438 24.2844 19.3156 20.5812 19.3906 20.5719C19.4469 20.5625 20.375 21.4437 21.4531 22.5312ZM44.5156 24.5469C44.4688 24.5656 41.0656 25.4562 36.9688 26.5156L29.525 28.4469L27.5469 26.4688L25.5781 24.5L35.0938 24.5094C40.325 24.5094 44.5719 24.5281 44.5156 24.5469ZM24.4813 39.8187L24.4531 44.5531L22.5031 37.0344L20.5531 29.525L22.5031 27.575L24.4531 25.625L24.4813 30.3594C24.4906 32.9656 24.4906 37.2219 24.4813 39.8187ZM4.97188 26.2437C5.47813 26.375 6.04063 26.525 6.2375 26.5719C6.56563 26.6562 6.575 26.6656 6.64063 27.2375C6.74375 28.0812 7.175 29.7594 7.57813 30.8281C8.24375 32.6 9.37813 34.5594 10.5781 36.0125C10.925 36.425 11.075 36.6875 11.0281 36.7812C11 36.8562 10.9531 37.1 10.925 37.3156C10.8688 37.8594 11.1406 38.1312 11.6844 38.075C11.9 38.0469 12.1438 38 12.2188 37.9719C12.3125 37.925 12.575 38.075 12.9875 38.4219C14.4406 39.6219 16.4 40.7562 18.1719 41.4219C19.2406 41.825 20.9188 42.2562 21.7625 42.3594C22.3344 42.425 22.3438 42.4344 22.4281 42.7625C22.475 42.9594 22.625 43.5219 22.7563 44.0281C22.8875 44.5437 23 44.9937 23 45.05C23 45.1906 21.6781 45.0594 20.375 44.7969C16.2781 43.9531 12.8188 42.0875 9.875 39.1344C6.89375 36.1531 5.04688 32.7219 4.20313 28.625C3.94063 27.3219 3.80938 26 3.95 26C4.00625 26 4.45625 26.1125 4.97188 26.2437ZM45.0688 26.9562C44.6469 30.6406 43.2313 34.1187 40.925 37.1469C40.1469 38.1687 38.1875 40.1281 37.1938 40.8781C34.5594 42.875 31.7844 44.1406 28.625 44.7969C27.3219 45.0594 26 45.1906 26 45.05C26 44.9937 26.1125 44.5437 26.2438 44.0281C26.375 43.5219 26.525 42.9594 26.5719 42.7625C26.6563 42.4344 26.6656 42.425 27.2375 42.3594C28.0813 42.2562 29.7594 41.825 30.8281 41.4219C32.6 40.7562 34.5594 39.6219 36.0125 38.4219C36.425 38.075 36.6875 37.925 36.7812 37.9719C36.8563 38 37.1 38.0469 37.3156 38.075C37.8594 38.1312 38.1313 37.8594 38.075 37.3156C38.0469 37.1 38 36.8562 37.9719 36.7812C37.925 36.6875 38.075 36.425 38.4219 36.0125C39.6219 34.5594 40.7563 32.6 41.4219 30.8281C41.825 29.7594 42.2563 28.0812 42.3594 27.2281C42.4156 26.7125 42.4438 26.6469 42.6688 26.5906C42.8094 26.5625 43.3438 26.4219 43.8594 26.2812C45.3031 25.8875 45.2 25.8312 45.0688 26.9562ZM11.4406 27.9219C13.1281 28.3625 14.5813 28.7469 14.6656 28.7844C14.7969 28.85 14.7031 29.1031 14.0375 30.5C13.6063 31.4 12.9406 32.8156 12.5469 33.6312L11.8438 35.1219L11.6469 34.9437C11.2625 34.5969 10.0625 32.6844 9.56563 31.625C9.0125 30.4531 8.675 29.4875 8.375 28.25C8.16875 27.3594 8.15 27.125 8.27188 27.125C8.31875 27.125 9.74375 27.4812 11.4406 27.9219ZM40.8125 27.2844C40.8125 27.5469 40.4563 28.9719 40.1938 29.7969C39.6875 31.3438 38.4688 33.5844 37.4656 34.8312L37.1844 35.1781L35.6844 32.0187C34.8594 30.2844 34.1938 28.8406 34.2125 28.8219C34.2594 28.775 40.4469 27.1437 40.6531 27.1344C40.7469 27.125 40.8125 27.1906 40.8125 27.2844ZM17.9188 29.6L19.0625 29.8906L16.1563 32.7969L13.25 35.7031L14.6938 32.6375C16.5031 28.8219 16.3156 29.1687 16.5594 29.2437C16.6719 29.2812 17.2812 29.4406 17.9188 29.6ZM32.7969 32.8437L35.7031 35.7594L33.5 34.7094C32.2906 34.1375 30.8188 33.4437 30.2375 33.1625C29.5438 32.8344 29.1875 32.6187 29.2156 32.5437C29.2438 32.4781 29.4031 31.8594 29.5719 31.175C29.7406 30.5 29.8813 29.9375 29.8906 29.9375C29.8906 29.9375 31.2031 31.25 32.7969 32.8437ZM21.0781 37.5594C21.5281 39.3031 21.875 40.7562 21.8375 40.7844C21.7531 40.8687 20.4031 40.5687 19.3438 40.2312C17.7031 39.7062 15.4719 38.5156 14.1688 37.4656L13.8219 37.1844L16.9813 35.6844C18.9781 34.7375 20.1594 34.2219 20.1969 34.2875C20.2344 34.3437 20.6281 35.8156 21.0781 37.5594ZM31.9531 35.6562C35.4781 37.325 35.15 37.1281 34.9344 37.3625C34.5969 37.7375 32.6844 38.9375 31.625 39.4437C31.0344 39.7156 30.1438 40.0719 29.6563 40.2312C28.5969 40.5687 27.2469 40.8687 27.1625 40.7844C27.1156 40.7375 28.2125 36.3312 28.6813 34.6531L28.8219 34.1562L29.075 34.2875C29.2156 34.3625 30.5094 34.9719 31.9531 35.6562Z" fill="#004155"/>
</svg>
