<svg width="49" height="48" viewBox="0 0 49 48" fill="none" xmlns="http://www.w3.org/2000/svg">
<g clip-path="url(#clip0_637_16615)">
<mask id="mask0_637_16615" style="mask-type:luminance" maskUnits="userSpaceOnUse" x="0" y="0" width="49" height="48">
<path d="M48.6641 0H0.664062V48H48.6641V0Z" fill="white"/>
</mask>
<g mask="url(#mask0_637_16615)">
<path d="M46.8328 29.9026L43.1075 28.3746C42.7516 28.2288 42.3767 28.1548 41.9933 28.1548C41.9334 28.1548 41.8742 28.1579 41.8153 28.1613C42.1393 26.8264 42.3122 25.4331 42.3122 23.9998C42.3122 22.5236 42.129 21.0897 41.7859 19.7183C41.8382 19.7211 41.8904 19.7241 41.9432 19.7241C42.3338 19.7241 42.715 19.6475 43.0765 19.4964L46.7914 17.9424C48.2925 17.3143 49.0027 15.5823 48.3747 14.0814C47.9144 12.9811 46.8436 12.2701 45.6469 12.2701C45.2563 12.2701 44.8751 12.3467 44.5137 12.4978L40.7988 14.0517C40.3828 14.2257 40.0201 14.4877 39.7298 14.817C38.2427 12.3863 36.184 10.3418 33.7424 8.87102C34.0654 8.58056 34.3267 8.21652 34.4992 7.79576L36.0272 4.07026C36.6445 2.56483 35.9221 0.837862 34.4167 0.220425C34.0608 0.0745508 33.6859 0.000488281 33.3024 0.000488281C32.0965 0.000488281 31.0229 0.718986 30.5669 1.83086L29.0388 5.55639C28.8685 5.97176 28.797 6.41149 28.8235 6.848C27.4891 6.52435 26.0966 6.35155 24.6642 6.35155C23.1887 6.35155 21.7556 6.53465 20.3849 6.87732C20.4075 6.44889 20.3368 6.00899 20.1605 5.58742L18.6066 1.87267C18.1463 0.772424 17.0755 0.0615194 15.8789 0.0615194C15.4883 0.0615194 15.1068 0.138113 14.7457 0.289331C14.0205 0.592611 13.4561 1.16205 13.1564 1.89283C12.8567 2.62342 12.8586 3.42517 13.162 4.15023L14.7159 7.86519C14.8913 8.28413 15.1555 8.64618 15.4811 8.93447C13.0501 10.4218 11.0054 12.4807 9.53473 14.9228C9.24175 14.5954 8.87725 14.3359 8.46011 14.1649L4.73466 12.6369C4.37887 12.491 4.00388 12.417 3.62044 12.417C2.41482 12.417 1.3411 13.1354 0.884914 14.2473C0.882852 14.2519 0.881071 14.2567 0.879102 14.2615C0.271885 15.7635 0.994414 17.4818 2.49525 18.0975L6.22059 19.6251C6.57647 19.7712 6.95157 19.8453 7.33516 19.8453C7.39492 19.8453 7.45387 19.8422 7.51282 19.8387C7.18893 21.1736 7.0159 22.5668 7.0159 24C7.0159 25.4763 7.19918 26.9102 7.54226 28.2817C7.48987 28.279 7.43777 28.2759 7.38486 28.2759C6.9943 28.2759 6.61311 28.3525 6.25162 28.5036L2.53707 30.0577C1.03613 30.6852 0.325697 32.4171 0.953539 33.9185C1.41385 35.0188 2.48466 35.7298 3.68137 35.7298C4.07194 35.7298 4.45313 35.6531 4.81453 35.5021L8.52925 33.948C8.94532 33.7739 9.30807 33.512 9.59859 33.1826C11.0857 35.6133 13.1442 37.6579 15.586 39.1286C15.2628 39.419 15.0016 39.783 14.8291 40.2038L13.301 43.9293C13.0027 44.6565 13.0064 45.4583 13.3111 46.1868C13.6158 46.9154 14.1842 47.4809 14.9115 47.7791C15.2673 47.9251 15.6421 47.9991 16.0258 47.9991C17.2315 47.9991 18.3052 47.2807 18.7613 46.1688L20.2894 42.4434C20.4628 42.0205 20.5304 41.58 20.5047 41.1517C21.8391 41.4753 23.2318 41.6481 24.6642 41.6481C26.1395 41.6481 27.5726 41.4651 28.9433 41.1225C28.9206 41.5509 28.9914 41.9907 29.1677 42.4124L30.7218 46.1269C31.1819 47.2274 32.2525 47.9385 33.4492 47.9385C33.8348 47.9383 34.2115 47.8637 34.5685 47.7164C34.5732 47.7146 34.578 47.7126 34.5826 47.7106C36.0836 47.0829 36.7939 45.3509 36.1662 43.8496L34.6122 40.1347C34.4368 39.7157 34.1727 39.3538 33.8471 39.0654C36.278 37.5781 38.3226 35.5193 39.7933 33.0773C40.0809 33.3983 40.4433 33.6609 40.8681 33.8351L44.5936 35.3631C44.9494 35.509 45.3244 35.583 45.7078 35.583C46.9137 35.583 47.9874 34.8645 48.4435 33.7528C49.0607 32.2468 48.3383 30.5199 46.8328 29.9026ZM7.33516 17.9702C7.19684 17.9702 7.06132 17.9434 6.93213 17.8904L3.20682 16.3628C2.65791 16.1376 2.39438 15.5078 2.61947 14.959C2.62069 14.9562 2.62172 14.9533 2.62285 14.9505C2.78879 14.5562 3.18844 14.2919 3.62044 14.2919C3.75872 14.2919 3.89428 14.3187 4.02328 14.3716L7.74872 15.8996C8.01254 16.0078 8.21924 16.2141 8.33069 16.4808C8.4422 16.7474 8.44408 17.0395 8.33584 17.3034C8.17235 17.7023 7.77026 17.9702 7.33516 17.9702ZM8.38367 31.6331C8.27409 31.9004 8.06886 32.1082 7.80573 32.2183L4.09097 33.7724C3.9601 33.8271 3.82228 33.8548 3.68137 33.8548C3.24273 33.8548 2.85094 33.5958 2.68322 33.1948C2.45438 32.6475 2.71331 32.0162 3.26063 31.7872L6.9751 30.2332C7.10605 30.1784 7.24396 30.1507 7.38486 30.1507C7.82353 30.1507 8.21531 30.4097 8.38302 30.8107C8.49307 31.0737 8.49325 31.3657 8.38367 31.6331ZM30.7735 6.26801L32.3015 2.54251C32.4651 2.14361 32.8673 1.87567 33.3024 1.87567C33.4408 1.87567 33.5763 1.90248 33.7052 1.95536C34.254 2.18045 34.5175 2.81017 34.2925 3.35907L32.7644 7.0846C32.6008 7.48353 32.1987 7.75145 31.7636 7.75145C31.6251 7.75145 31.4896 7.72464 31.3607 7.67178C31.0969 7.56355 30.8901 7.35715 30.7787 7.09051C30.6672 6.82388 30.6653 6.53184 30.7735 6.26801ZM14.8918 3.42677C14.7817 3.1637 14.7815 2.87158 14.8911 2.6043C15.0008 2.33701 15.206 2.12927 15.4692 2.01911C15.6001 1.96426 15.738 1.93661 15.8789 1.93661C16.3175 1.93661 16.7091 2.19564 16.8769 2.59642L18.4307 6.31098C18.6596 6.85836 18.4007 7.49008 17.8534 7.71902C17.7226 7.77375 17.5847 7.8015 17.4438 7.8015C17.0052 7.8015 16.6134 7.54236 16.4456 7.14161L14.8918 3.42677ZM18.5546 41.7319L17.0266 45.4573C16.863 45.8561 16.4608 46.1241 16.0257 46.1241C15.8872 46.1241 15.7518 46.0972 15.6228 46.0443C15.3591 45.9361 15.1523 45.7298 15.0407 45.4632C14.9293 45.1967 14.9274 44.9046 15.0356 44.6407L16.5636 40.9152C16.7271 40.5164 17.1294 40.2484 17.5645 40.2484C17.703 40.2484 17.8386 40.2753 17.9675 40.3281C18.5163 40.5533 18.7797 41.1831 18.5546 41.7319ZM34.4365 44.5729C34.6642 45.1174 34.4092 45.7453 33.8678 45.9771C33.8649 45.9783 33.8619 45.9795 33.8588 45.9808C33.728 46.0356 33.5902 46.0634 33.4493 46.0634C33.0108 46.0634 32.6192 45.8043 32.4513 45.4034L30.8972 41.6888C30.6684 41.1415 30.9274 40.5099 31.4747 40.2809C31.6056 40.2262 31.7435 40.1983 31.8843 40.1983C32.323 40.1983 32.7147 40.4574 32.8825 40.8583L34.4365 44.5729ZM24.6641 39.7731C15.9666 39.7731 8.89065 32.6972 8.89065 23.9998C8.89065 15.3024 15.9666 8.22665 24.6641 8.22665C33.3615 8.22665 40.4372 15.3024 40.4372 23.9998C40.4372 32.6972 33.3615 39.7731 24.6641 39.7731ZM40.9444 16.3667C41.0541 16.0993 41.2593 15.8914 41.5223 15.7814L45.2372 14.2275C45.3682 14.1727 45.5059 14.145 45.6468 14.145C46.0854 14.145 46.4772 14.404 46.6449 14.805C46.8739 15.3522 46.615 15.9837 46.0677 16.2126L42.353 17.7665C42.222 17.8213 42.0842 17.8491 41.9432 17.8491C41.5076 17.8491 41.1184 17.5938 40.9488 17.1978C40.9475 17.1949 40.9465 17.1919 40.9452 17.1891C40.8351 16.9261 40.8348 16.634 40.9444 16.3667ZM46.7085 33.041C46.545 33.4398 46.1427 33.7077 45.7076 33.7077C45.5694 33.7077 45.4338 33.6809 45.3048 33.6281L41.5793 32.1C41.0305 31.8751 40.767 31.2453 40.992 30.6965C41.1557 30.2976 41.5581 30.0296 41.9933 30.0296C42.1315 30.0296 42.2671 30.0564 42.3959 30.1093L46.1214 31.6373C46.6703 31.8623 46.9336 32.492 46.7085 33.041Z" fill="#004155"/>
<path d="M24.6687 10.3787C22.8387 10.3787 21.092 10.7423 19.4963 11.3998C19.4674 11.4087 19.4388 11.4189 19.4104 11.4307C19.3848 11.4415 19.3602 11.4537 19.3359 11.4664C14.4675 13.5454 11.0469 18.3806 11.0469 24.0001C11.0469 25.83 11.4104 27.5764 12.0677 29.1718C12.0767 29.2008 12.087 29.2297 12.0988 29.2582C12.1052 29.2734 12.1138 29.2867 12.1208 29.3013C14.1926 34.1864 19.037 37.6218 24.6687 37.6218C26.5011 37.6218 28.2494 37.2573 29.8467 36.5984C29.8735 36.5899 29.9 36.5806 29.9266 36.5696C29.9496 36.5599 29.9717 36.5487 29.9935 36.5375C34.8661 34.4603 38.2904 29.6226 38.2904 24.0001C38.2905 22.1677 37.9259 20.419 37.2668 18.8217C37.2584 18.7951 37.2492 18.7685 37.2383 18.7423C37.2285 18.7188 37.2171 18.6965 37.2057 18.6743C35.1281 13.8024 30.2909 10.3787 24.6687 10.3787ZM12.922 24.0001C12.922 19.4618 15.5092 15.5169 19.2858 13.5616L20.0098 15.2924C17.8107 16.4673 16.0854 18.4622 15.2768 20.9594C15.1174 21.452 15.3875 21.9807 15.8801 22.1401C15.9759 22.1712 16.0733 22.186 16.169 22.186C16.5645 22.186 16.9324 21.9336 17.0607 21.537C17.6963 19.5738 19.0307 17.9927 20.7373 17.0311L22.3211 20.8168C21.3456 21.5383 20.7114 22.6965 20.7114 24.0001C20.7114 24.2106 20.7284 24.4173 20.7602 24.6191L13.5047 27.6542C13.1272 26.5036 12.922 25.2754 12.922 24.0001ZM24.6688 35.7469C20.1305 35.7468 16.1854 33.1597 14.2302 29.3831L21.4855 26.348C22.2071 27.3236 23.3652 27.9576 24.6689 27.9576C24.8794 27.9576 25.0859 27.9408 25.2877 27.9088L26.8699 31.6912C26.1671 31.8911 25.4279 31.9972 24.6688 31.9972C24.1511 31.9972 23.7313 32.4169 23.7313 32.9347C23.7313 33.4525 24.1511 33.8722 24.6688 33.8722C25.6826 33.8722 26.6668 33.7175 27.5971 33.43L28.3227 35.1645C27.1721 35.5419 25.9441 35.7469 24.6688 35.7469ZM22.5864 24.0001C22.5864 22.8518 23.5207 21.9178 24.6689 21.9178C25.8172 21.9178 26.7512 22.8519 26.7512 24.0001C26.7512 25.1484 25.8171 26.0825 24.6689 26.0825C23.5206 26.0826 22.5864 25.1484 22.5864 24.0001ZM36.4153 24.0001C36.4155 28.5384 33.8283 32.4836 30.0515 34.4389L29.3274 32.7081C31.5266 31.5331 33.2518 29.5383 34.0604 27.041C34.2199 26.5485 33.9498 26.0198 33.4572 25.8604C32.9641 25.7008 32.4358 25.9709 32.2765 26.4635C31.6409 28.4267 30.3065 30.0079 28.6 30.9694L27.0161 27.1835C27.9919 26.4621 28.6259 25.3039 28.6259 24.0001C28.6259 23.7896 28.6089 23.5831 28.5772 23.3814L35.8327 20.3463C36.2102 21.4969 36.4153 22.725 36.4153 24.0001ZM27.8521 21.6525C27.1307 20.6768 25.9725 20.0428 24.6688 20.0428C24.4583 20.0428 24.2516 20.0597 24.0498 20.0915L22.4675 16.3093C23.1704 16.1093 23.9095 16.0034 24.6686 16.0034C25.1864 16.0034 25.6061 15.5837 25.6061 15.0659C25.6061 14.5481 25.1864 14.1284 24.6686 14.1284C23.6548 14.1284 22.6706 14.2831 21.7403 14.5706L21.0147 12.8361C22.1655 12.4586 23.3935 12.2535 24.6688 12.2535C29.207 12.2535 33.152 14.8406 35.1074 18.6172L27.8521 21.6525Z" fill="#004155"/>
<path d="M15.751 23.0311C15.2315 23.0254 14.8064 23.4344 14.7973 23.9521L14.7969 24.0002C14.7969 24.5178 15.2165 24.9375 15.7344 24.9375C16.2522 24.9375 16.6719 24.5178 16.6719 24.0001V23.9848C16.6809 23.4671 16.2686 23.0401 15.751 23.0311Z" fill="#004155"/>
<path d="M33.5736 24.9694C33.5805 24.9696 33.5873 24.9696 33.5942 24.9696C34.1026 24.9696 34.5201 24.563 34.5309 24.0521C34.5313 24.0346 34.5315 24.0173 34.5315 24C34.5315 23.4823 34.1117 23.0625 33.594 23.0625C33.0762 23.0625 32.6565 23.4823 32.6565 24V24.012C32.6453 24.5297 33.056 24.9583 33.5736 24.9694Z" fill="#004155"/>
</g>
</g>
<defs>
<clipPath id="clip0_637_16615">
<rect width="48" height="48" fill="white" transform="translate(0.664062)"/>
</clipPath>
</defs>
</svg>
