<svg width="44" height="49" viewBox="0 0 44 49" fill="none" xmlns="http://www.w3.org/2000/svg">
<path d="M0.710467 0.640823C0.213592 0.912697 0.204217 1.10957 0.663592 2.9752C1.44172 6.13457 1.57297 7.39082 1.44172 10.1564C1.33859 12.2658 1.45109 14.9189 1.70422 16.3439C1.81672 17.0096 1.88234 17.1783 2.09797 17.3471C2.40734 17.6002 2.68859 17.6189 3.06359 17.4221C3.50422 17.1971 3.51359 17.0377 3.25109 14.7971C3.19484 14.3002 3.15734 12.4439 3.17609 10.2971L3.19484 6.64082L2.93234 5.23457C2.78234 4.45645 2.64172 3.70645 2.62297 3.55645L2.56672 3.29395L3.30734 3.79082C5.16359 5.0377 7.36672 6.78145 9.34484 8.5627C9.99172 9.14395 10.6198 9.6502 10.7417 9.69707C11.3136 9.92207 11.9886 9.30332 11.8386 8.70332C11.7448 8.32832 10.048 6.7627 7.84484 5.0002C6.48547 3.92207 6.48547 3.93145 7.37609 4.25957C12.2698 6.03145 16.1511 8.16895 18.7855 10.5314L19.3292 11.0096L18.7667 11.4971C18.4573 11.7596 17.8386 12.3314 17.3886 12.7627C16.948 13.1939 16.5355 13.5408 16.4886 13.5221C16.4417 13.5033 16.1605 13.1846 15.8511 12.8283C14.6323 11.3658 13.9386 10.6439 13.6948 10.5971C13.1323 10.4939 12.6261 10.9252 12.6261 11.4971C12.6261 11.6564 12.9261 12.0783 13.5448 12.8002C14.0417 13.3814 14.6511 14.0939 14.8948 14.3846L15.3261 14.9002L14.8573 15.5096C13.723 16.9627 12.6917 18.6689 11.9136 20.4033C11.1073 22.1752 10.1886 25.2689 9.95422 26.9564C9.92609 27.2096 9.85109 27.4064 9.79484 27.4064C9.73859 27.4064 9.09172 26.8064 8.36047 26.0658C6.82297 24.5189 5.94172 23.2908 5.03234 21.3877C4.72297 20.7314 4.37609 20.1314 4.25422 20.0471C3.82297 19.7471 3.17609 19.9627 2.98859 20.4689C2.86672 20.7877 2.98859 21.1814 3.57922 22.3908C4.82609 24.9314 6.69172 27.2283 8.85734 28.8596L9.71984 29.5158V29.9471C9.71984 32.1033 10.3855 34.8314 11.3323 36.5752L11.698 37.2596L11.2761 38.5439C10.3855 41.2533 9.83234 43.3533 9.28859 46.0158C8.92297 47.8627 8.93234 48.0971 9.44797 48.3596C9.77609 48.5377 9.94484 48.5377 10.273 48.3596C10.6011 48.2002 10.7042 47.9377 10.8917 46.8596C11.2292 45.0033 11.9886 41.9846 12.598 40.1096C12.7855 39.5377 12.9448 39.0596 12.9636 39.0408C12.9823 39.0221 13.2823 39.2658 13.6292 39.5846C16.5448 42.2564 20.7355 43.1377 25.0011 41.9752C27.373 41.3283 29.998 39.9502 32.3605 38.1314C33.5042 37.2596 35.4542 35.3471 36.373 34.2033C37.3573 32.9846 38.4823 31.2596 39.0823 30.0689C39.5323 29.1502 39.5417 29.1221 39.4105 28.8033C39.2323 28.3721 39.0448 28.2314 38.6417 28.2314C38.1823 28.2314 38.023 28.4002 37.3667 29.5908C36.3167 31.5127 35.1261 33.1252 33.6823 34.6064C30.5605 37.8127 26.5948 40.0721 23.0792 40.6346C22.2261 40.7658 20.3417 40.7658 19.5636 40.6252C17.998 40.3533 16.4792 39.6596 15.2698 38.7033C14.4636 38.0471 13.6198 37.1096 13.6855 36.9314C14.5011 34.9064 14.9698 33.7814 15.4292 32.7971L16.0011 31.5783L16.8542 31.5502C17.3323 31.5408 18.1855 31.5877 18.748 31.6721C20.2292 31.8783 20.6136 31.8596 20.8573 31.5971C21.1573 31.2783 21.2042 30.8846 20.9792 30.5283C20.7636 30.1814 20.4355 30.0971 18.8042 29.9377C18.2136 29.8721 17.5573 29.8064 17.3323 29.7877L16.9292 29.7408L17.323 29.0189C18.4292 27.0033 20.9323 23.0096 21.2605 22.7564C21.5323 22.5408 22.5917 22.5221 24.4198 22.7096C25.4136 22.8127 26.2948 22.8689 26.3886 22.8408C26.9698 22.6346 27.1667 21.9221 26.7636 21.4533C26.5198 21.1814 26.2011 21.1158 23.9417 20.9096L22.648 20.7971L23.6136 19.5689C25.4417 17.2439 26.5948 15.9783 26.9605 15.8752C27.7761 15.6408 29.2855 15.5564 30.4386 15.6783C31.7042 15.8189 32.023 15.7533 32.2105 15.3502C32.4636 14.7877 32.173 14.2439 31.5167 14.0846C31.3105 14.0377 30.5792 13.9721 29.8948 13.9346L28.648 13.8783L30.0542 12.4533C31.348 11.1596 31.4698 11.0002 31.4698 10.7002C31.4698 10.2314 31.0948 9.8752 30.6167 9.8752C30.2792 9.8752 30.1573 9.95957 29.0511 10.9908C28.3948 11.6096 27.2042 12.8189 26.4073 13.6814C25.6105 14.5533 24.7573 15.4627 24.523 15.7158L24.0917 16.1846L23.848 15.7627C23.5386 15.2283 22.9198 14.6564 22.3573 14.3846C21.9636 14.1971 21.8698 14.1877 21.5792 14.2814C21.2605 14.3846 20.9698 14.7596 20.9698 15.0689C20.9698 15.3689 21.1948 15.6689 21.6448 15.9596C22.1698 16.3064 22.6105 16.9346 22.7042 17.4689C22.7605 17.8158 22.7323 17.8721 22.0761 18.7064C21.223 19.7752 19.6105 21.9877 18.8136 23.1783C18.298 23.9471 18.2136 24.0408 18.1292 23.8814C17.7448 23.1596 16.5917 22.2502 16.0855 22.2502C15.4948 22.2502 15.1105 22.7658 15.2698 23.3564C15.3261 23.5814 15.4855 23.7502 15.8698 24.0033C16.4511 24.3877 16.7792 24.8752 16.9386 25.5596L17.0323 26.0096L16.273 27.3408C15.3823 28.9158 13.6855 32.3471 13.0386 33.8939C12.7855 34.5033 12.5511 35.0002 12.523 35.0002C12.4292 35.0002 11.8855 33.3033 11.7261 32.4971C11.5198 31.4752 11.4448 29.0471 11.5855 27.9127C11.9605 24.8471 13.1323 21.4158 14.7073 18.8002C18.2698 12.8658 24.7105 8.50645 35.4542 4.75645C36.3823 4.4377 37.1511 4.1752 37.1605 4.19395C37.1698 4.20332 36.7761 4.5127 36.2698 4.87832C34.7042 6.0127 32.773 7.63457 32.6792 7.8877C32.4823 8.4127 32.9042 9.03145 33.4573 9.03145C33.7105 9.03145 33.9823 8.8627 34.8448 8.17832C35.4355 7.70957 36.4292 6.94082 37.048 6.47207C38.3136 5.50645 41.3136 3.47207 41.3792 3.52832C41.398 3.55645 41.3136 4.0252 41.1823 4.5877C40.498 7.59707 40.2261 10.2783 40.3761 12.6127C40.6573 16.9533 40.3948 20.5252 39.5417 24.0127C39.2417 25.2221 39.2511 25.4377 39.5886 25.7283C39.8792 25.9814 40.1605 26.0189 40.5073 25.8596C40.8823 25.6814 40.9386 25.5596 41.3042 24.0783C42.148 20.6471 42.2698 18.8189 42.148 11.6096C42.1198 9.5752 42.1386 8.99395 42.2792 8.09395C42.523 6.5752 42.8511 5.02832 43.3386 3.10645C43.7417 1.53145 43.7605 1.4377 43.6198 1.16582C43.4511 0.847073 43.2073 0.687698 42.898 0.687698C42.6355 0.687698 40.0198 1.4377 37.6105 2.20645C30.9542 4.3252 25.8355 6.62207 21.7761 9.29395L20.7636 9.96895L20.2198 9.47207C16.6105 6.1252 11.3042 3.49082 3.46672 1.14707C2.26672 0.790825 1.20734 0.500198 1.12297 0.500198C1.02922 0.509575 0.841717 0.565823 0.710467 0.640823Z" fill="#004155"/>
</svg>
