<svg width="49" height="49" viewBox="0 0 49 49" fill="none" xmlns="http://www.w3.org/2000/svg">
<g clip-path="url(#clip0_1653_17363)">
<path fill-rule="evenodd" clip-rule="evenodd" d="M40.6462 0.5C37.3438 0.5 34.5511 2.7728 33.7442 5.82416L32.8558 5.41136C32.6973 5.33768 32.5246 5.2995 32.3498 5.2995C32.1751 5.2995 32.0024 5.33768 31.8439 5.41136L17.1497 12.2374L2.45544 5.41184C2.2726 5.32693 2.07131 5.28945 1.87016 5.30286C1.66901 5.31627 1.47448 5.38015 1.30453 5.48858C1.13458 5.59702 0.994694 5.74652 0.897775 5.92329C0.800856 6.10006 0.750034 6.2984 0.75 6.5V40.2378C0.749947 40.4666 0.815301 40.6906 0.93836 40.8835C1.06142 41.0764 1.23705 41.23 1.44456 41.3264L16.6442 48.3867C16.8027 48.4604 16.9754 48.4986 17.1502 48.4986C17.3249 48.4986 17.4976 48.4604 17.6561 48.3867L32.3503 41.5611L47.0446 48.3867C47.8399 48.7558 48.75 48.1755 48.75 47.299V13.5613C48.7501 13.3325 48.6847 13.1084 48.5616 12.9156C48.4386 12.7227 48.2629 12.569 48.0554 12.4726L46.505 11.7517L46.9903 10.9251C47.1007 10.725 47.1886 10.5118 47.2639 10.2939C47.6115 9.44676 47.7902 8.53985 47.79 7.62416C47.79 3.7088 44.573 0.5 40.6462 0.5ZM40.6462 3.83744C42.7606 3.83744 44.442 5.51552 44.442 7.62416C44.442 9.73232 42.7606 11.409 40.6462 11.409C38.5318 11.409 36.8503 9.73232 36.8503 7.62416C36.8503 5.51552 38.5318 3.83744 40.6462 3.83744ZM32.8865 8.072L33.5474 8.37968C33.6764 9.57909 34.1101 10.7255 34.8074 11.7099L39.7745 20.2971C40.4705 21.2062 40.9332 21.0334 41.5116 20.2491L45.283 13.8301L46.35 14.3264V45.4184L33.0646 39.247L32.9561 20.2026C33.1519 20.2448 33.3473 20.2856 33.5436 20.3322L33.9852 18.4645C33.6397 18.3828 33.2927 18.3071 32.9446 18.2374L32.887 8.072H32.8865ZM31.4474 8.24192L31.5026 18.0032C31.0069 17.9352 30.5083 17.8902 30.0084 17.8683L29.9374 19.7864C30.4596 19.8056 30.9862 19.8622 31.5142 19.939L31.6246 39.2514L17.8601 45.6464L17.683 14.6365L31.4474 8.24192ZM3.15 8.38064L16.242 14.4622L16.4201 45.6368L3.15 39.4717V8.38064ZM27.8906 17.9994C27.2297 18.1179 26.5534 18.3296 25.9236 18.6958C25.1703 19.132 24.5508 19.7662 24.1322 20.5294L25.8132 21.4568C26.0636 21.0008 26.4329 20.6211 26.8817 20.3581L26.8846 20.3562L26.8874 20.3542C27.2748 20.1286 27.7361 19.977 28.23 19.8886L27.8906 17.9994ZM35.8903 18.9742L35.3465 20.8146C36.5479 21.1698 37.7378 21.5778 38.921 22.0194L39.5926 20.2203C38.3772 19.7672 37.1446 19.3448 35.8903 18.9742ZM23.4094 22.6203L23.395 22.6962L23.3935 22.7029C23.154 24.0618 23.1794 25.399 23.2332 26.6701L25.1513 26.5885C25.099 25.3554 25.0879 24.1621 25.2842 23.0422L25.2958 22.9822L23.4094 22.6203ZM25.2655 28.4811L23.3503 28.6107C23.4367 29.8918 23.5289 31.1475 23.5255 32.3787L25.4455 32.3835C25.4494 31.0539 25.3519 29.7541 25.2655 28.4811ZM23.43 34.1883C23.3772 34.6458 23.2985 35.0907 23.1833 35.5179L23.1823 35.5203L23.1814 35.5242C23.0134 36.165 22.7306 36.7582 22.3361 37.2229L23.7986 38.4661C24.4169 37.7389 24.809 36.883 25.037 36.0171L25.038 36.0142C25.182 35.4786 25.2756 34.939 25.337 34.4062L23.43 34.1883ZM7.22136 36.0594L6.35928 37.7749C7.54968 38.3734 8.78088 38.8683 10.0207 39.2965L10.6471 37.4816C9.46872 37.075 8.31816 36.6104 7.22136 36.0594ZM12.4226 38.0336L11.9119 39.8845C13.182 40.2354 14.4876 40.5142 15.822 40.6645L16.0361 38.7565C14.826 38.6206 13.6193 38.3643 12.4226 38.0336ZM21.1303 38.169C20.1742 38.6586 19.0198 38.8395 17.8327 38.8539L17.8567 40.7739C19.217 40.7576 20.6714 40.5608 22.0049 39.8778L21.1303 38.169Z" fill="#004155"/>
</g>
<defs>
<clipPath id="clip0_1653_17363">
<rect width="48" height="48" fill="white" transform="translate(0.75 0.5)"/>
</clipPath>
</defs>
</svg>
