<svg width="49" height="49" viewBox="0 0 49 49" fill="none" xmlns="http://www.w3.org/2000/svg">
<g clip-path="url(#clip0_601_14097)">
<path d="M24.5751 2.74699L24.5751 2.74702L16.7538 5.1055L10.3199 3.06639L10.3198 3.06634C8.53821 2.50374 6.87376 1.98565 5.62879 1.60348C5.00634 1.41241 4.48851 1.25525 4.11324 1.14345C3.74463 1.03365 3.50104 0.963711 3.43895 0.952423L3.43493 0.951691L3.43492 0.951748C2.96721 0.879791 2.44404 1.00891 1.98457 1.25886C1.52429 1.50925 1.11177 1.8895 0.870564 2.34158L24.5751 2.74699ZM24.5751 2.74699C26.741 2.09536 28.7311 1.50232 30.1927 1.07098C30.9235 0.85532 31.5223 0.680027 31.9451 0.558033C32.1564 0.497051 32.3241 0.449284 32.4423 0.416416C32.5013 0.400009 32.5487 0.38715 32.5831 0.378178C32.6003 0.373714 32.6151 0.370007 32.6269 0.367252L32.6273 0.367157C32.6353 0.365299 32.6521 0.361378 32.6673 0.359993L32.6673 0.359917L32.6721 0.359634C32.6952 0.358276 32.7181 0.361816 32.7298 0.363697C32.7453 0.366215 32.7633 0.369823 32.7828 0.374111C32.8218 0.382729 32.8729 0.395443 32.9343 0.411636C33.0575 0.444115 33.2275 0.492039 33.4371 0.553032C33.8567 0.675106 34.4384 0.850632 35.1281 1.06237C36.5078 1.4859 38.3217 2.05501 40.1396 2.63283C41.9574 3.21066 43.7796 3.79734 45.1756 4.25603C45.8736 4.48536 46.4655 4.68285 46.8972 4.83131C47.113 4.90551 47.2895 4.96771 47.4195 5.01565C47.541 5.06047 47.637 5.09806 47.68 5.12273L24.5751 2.74699ZM0.707995 42.4269C0.698629 42.3925 0.692862 42.3422 0.688214 42.2873C0.683205 42.2282 0.678582 42.1505 0.674267 42.0537C0.665628 41.8598 0.658019 41.5846 0.651347 41.2182C0.637996 40.4851 0.628326 39.383 0.62188 37.8284C0.608987 34.7189 0.608988 29.7966 0.618363 22.3904L0.618363 22.3904L0.646488 2.79667L0.646542 2.75908L0.664314 2.72596L0.870385 2.34192L48.6465 6.6125L48.7912 6.57304C48.7912 6.5731 48.7912 6.57317 48.7913 6.57324C48.8006 6.60764 48.8064 6.65783 48.811 6.71267C48.816 6.77184 48.8206 6.84954 48.825 6.94635C48.8336 7.14016 48.8412 7.41538 48.8479 7.7818C48.8612 8.51488 48.8709 9.61703 48.8773 11.1716C48.8902 14.2811 48.8902 19.2034 48.8809 26.6096L48.8527 46.2033L48.8527 46.2409L48.8349 46.274L48.6287 46.6584L48.6286 46.6586C48.3832 47.1143 47.9761 47.4947 47.5197 47.7445C47.064 47.9938 46.5456 48.1201 46.0739 48.0483L46.0739 48.0484L46.0684 48.0474C46.0094 48.0361 45.7682 47.9664 45.4005 47.8565C45.0265 47.7447 44.5093 47.5876 43.8868 47.3965C42.6419 47.0144 40.9752 46.4963 39.1889 45.9337L39.1887 45.9336L32.7454 43.8945L24.8772 46.2624L24.877 46.2624C22.7018 46.9141 20.7048 47.5071 19.2408 47.9384C18.5089 48.1541 17.9101 48.3293 17.4889 48.4513C17.2784 48.5123 17.112 48.56 16.9954 48.5928C16.9372 48.6092 16.8909 48.622 16.8577 48.6309C16.8411 48.6354 16.8271 48.639 16.8162 48.6417L16.8153 48.6419C16.8083 48.6436 16.7925 48.6475 16.7787 48.6491L16.7704 48.65H16.7621C16.7415 48.65 16.7207 48.6461 16.7098 48.644C16.6952 48.6413 16.6781 48.6374 16.6592 48.6329C16.6212 48.6238 16.571 48.6105 16.5103 48.5938C16.3885 48.5602 16.2196 48.5112 16.0108 48.4491C15.5932 48.3249 15.013 48.1472 14.3245 47.9335C12.9475 47.5061 11.1357 46.9338 9.32078 46.3542C7.5059 45.7747 5.6876 45.1877 4.29766 44.7309C3.60276 44.5026 3.01449 44.3066 2.58711 44.1603C2.37352 44.0872 2.19943 44.0263 2.07206 43.9798C2.00846 43.9566 1.95565 43.9367 1.91502 43.9204C1.87861 43.9059 1.84291 43.8908 1.81922 43.8773C1.30548 43.5851 0.868205 43.0175 0.707995 42.4269ZM0.707995 42.4269C0.708004 42.4269 0.708014 42.4269 0.708023 42.427L0.852738 42.3875M0.707995 42.4269C0.707986 42.4268 0.707976 42.4268 0.707967 42.4268L0.852738 42.3875M0.852738 42.3875C0.768363 42.0781 0.749613 37.2031 0.768363 22.3906L0.852738 42.3875ZM31.8184 11.8895V27.0125V42.192L31.1559 42.394C30.9755 42.4489 30.3154 42.6467 29.355 42.9346C28.0214 43.3342 26.1087 43.9075 24.0972 44.5125C20.9398 45.4564 18.2327 46.2682 17.7327 46.4204C17.7228 46.3624 17.7129 46.2661 17.7053 46.1102C17.6833 45.6614 17.6809 44.7992 17.6809 43.1656V39.8251L17.9105 39.7888L17.9121 39.7885C18.2963 39.7237 18.5305 39.6794 18.69 39.6193C18.8672 39.5525 18.9557 39.4651 19.0547 39.34L19.0559 39.3385C19.3496 38.9578 19.3462 38.469 18.9968 38.1288C18.8929 38.0201 18.7919 37.943 18.643 37.8994C18.5037 37.8586 18.3313 37.85 18.0934 37.85H17.6809V22.3438V6.80823L17.9774 6.71858L17.9777 6.7185C18.1165 6.67624 19.5036 6.25953 21.4672 5.66957C22.5478 5.34492 23.803 4.96782 25.1209 4.57178C26.9771 4.01398 28.6716 3.5054 29.9079 3.1351C30.526 2.94995 31.0296 2.79939 31.3815 2.69454C31.5472 2.64514 31.6793 2.60592 31.7737 2.57801C31.7755 2.61099 31.7772 2.64864 31.7789 2.69088C31.7868 2.88464 31.7938 3.16713 31.7996 3.51774C31.8113 4.2186 31.8184 5.18803 31.8184 6.25625V9.99011L31.2809 10.0349L31.2784 10.0351C30.8959 10.0734 30.242 10.1871 29.8228 10.2919C29.2854 10.424 28.8981 10.5973 28.698 10.8523C28.5936 10.9854 28.5429 11.1372 28.5462 11.304C28.5495 11.4668 28.6038 11.6356 28.6944 11.8094C28.754 11.9258 28.825 12.027 28.9187 12.105C29.0142 12.1844 29.1258 12.2336 29.2567 12.2564C29.5078 12.3 29.8365 12.2465 30.2805 12.1297M31.8184 11.8895L30.2815 12.1294C30.2812 12.1295 30.2809 12.1296 30.2805 12.1297M31.8184 11.8895L31.3943 11.9366L31.3943 11.9366L31.3905 11.937C31.0725 11.9642 30.575 12.0562 30.2805 12.1297M31.8184 11.8895L30.2805 12.1297M15.7871 46.3998V46.5575L15.2152 46.3719C14.9262 46.2845 13.4704 45.8259 11.6155 45.2415C10.8837 45.011 10.0898 44.7609 9.28086 44.5063C2.95095 42.5143 2.61963 42.423 2.52512 42.221C2.51199 42.1929 2.50343 42.1627 2.48399 42.125L2.6169 3.13528C2.61606 3.13745 2.61461 3.1415 2.61277 3.14797C2.60767 3.16586 2.60152 3.1951 2.59515 3.24154C2.58241 3.3344 2.57073 3.48094 2.56045 3.71218C2.53994 4.17355 2.52559 4.95581 2.51562 6.28433C2.49571 8.94026 2.49336 13.77 2.49336 22.5594C2.49336 30.983 2.49805 35.8152 2.51797 38.5708C2.52793 39.9489 2.54169 40.806 2.5605 41.3327C2.56992 41.5964 2.58052 41.7747 2.59223 41.8932C2.59809 41.9526 2.60399 41.9944 2.60957 42.0231C2.61446 42.0483 2.61799 42.0573 2.61788 42.0573C2.61786 42.0574 2.61768 42.057 2.61733 42.0563C2.63079 42.0824 2.64007 42.1053 2.647 42.123C2.64838 42.1265 2.6496 42.1296 2.6507 42.1324C2.65574 42.1453 2.65827 42.1518 2.66144 42.1584L2.6617 42.1589C2.6648 42.1655 2.66834 42.1729 2.68886 42.1881C2.74849 42.2324 2.89369 42.3008 3.28834 42.4393C3.9682 42.6779 5.32547 43.1048 8.08292 43.9721C8.46912 44.0936 8.88278 44.2237 9.32589 44.3632L9.3259 44.3632C10.136 44.6181 10.9308 44.8685 11.6631 45.0992C13.5168 45.6832 14.9705 46.1412 15.2586 46.2283L15.2587 46.2283L15.2616 46.2292L15.7871 46.3998ZM15.7871 46.3998V43.1469V39.8058L15.6677 39.7771L15.6677 39.7771L15.6652 39.7765C15.3214 39.6876 15.1133 39.3798 15.0506 39.0678C14.988 38.7561 15.0606 38.3915 15.3376 38.1731C15.4157 38.1107 15.5012 38.0563 15.5776 38.0168C15.6159 37.997 15.6539 37.9799 15.6892 37.9673C15.6901 37.967 15.691 37.9667 15.6919 37.9664C15.6929 37.9595 15.6938 37.952 15.6948 37.9436C15.7053 37.8565 15.715 37.7132 15.7237 37.4943C15.7408 37.0581 15.7531 36.3372 15.7613 35.2005C15.7777 32.9278 15.7777 29.0004 15.7684 22.3815C15.7684 22.3815 15.7684 22.3815 15.7684 22.3815L15.7404 6.77866L9.65779 4.85249L15.7871 46.3998ZM2.61709 3.13481C2.61704 3.13494 2.617 3.13509 2.61694 3.13523L2.61709 3.13481ZM2.61709 3.13481C2.77167 2.91092 3.00287 2.81564 3.2507 2.85948C3.2524 2.85991 3.25591 2.86081 3.26182 2.86242L3.29575 2.87197C3.32419 2.88015 3.36301 2.89161 3.41188 2.90624C3.50956 2.93549 3.64603 2.97701 3.81709 3.02949C4.15914 3.13443 4.6385 3.28289 5.22028 3.46393C6.3837 3.82597 7.95609 4.31807 9.65745 4.85238L2.61709 3.13481ZM17.7493 46.4857C17.7494 46.4857 17.7492 46.4853 17.7487 46.4845L17.7493 46.4857ZM17.6561 46.4439C17.6562 46.4439 17.6564 46.4438 17.6565 46.4438C17.6555 46.444 17.655 46.4441 17.655 46.4442L17.6561 46.4439ZM34.0557 2.70387L33.7121 2.59136V6.26563V10.0045L34.1238 10.0542L34.1247 10.0543C34.5834 10.1123 35.1518 10.2607 35.6332 10.4295C35.8744 10.5141 36.097 10.6049 36.2755 10.6938C36.3647 10.7382 36.4449 10.7831 36.5117 10.8276C36.5767 10.871 36.637 10.9191 36.6793 10.9719L36.6809 10.974C36.9747 11.3549 36.9712 11.8439 36.6214 12.1841C36.4654 12.3449 36.2749 12.4357 36.0504 12.4538C35.8303 12.4716 35.5859 12.4191 35.3169 12.3116C35.1431 12.2449 34.7812 12.1414 34.4304 12.0537C34.2561 12.0101 34.0872 11.9711 33.9494 11.9431C33.8881 11.9307 33.8356 11.921 33.7928 11.914C33.7927 11.9158 33.7925 11.9176 33.7923 11.9194C33.7833 12.0232 33.775 12.1878 33.7677 12.4272C33.7531 12.9051 33.7426 13.6705 33.7355 14.8189C33.7215 17.1151 33.7215 20.9371 33.7309 27.0403L33.7588 42.2212L40.0104 44.1945C42.2087 44.8882 43.8154 45.3847 44.8921 45.703C45.4307 45.8623 45.8354 45.9765 46.1146 46.0485C46.2545 46.0846 46.3609 46.1095 46.436 46.1242C46.4738 46.1315 46.5013 46.1359 46.52 46.1379C46.5248 46.1384 46.5285 46.1387 46.5312 46.1389C46.5643 46.1288 46.618 46.1012 46.6816 46.0555C46.7477 46.008 46.8103 45.9512 46.8526 45.9014C46.866 45.8847 46.8748 45.8734 46.8856 45.8339C46.8995 45.7834 46.9141 45.6939 46.9272 45.5207C46.9531 45.1763 46.9707 44.5374 46.9824 43.3025C47.0059 40.8354 47.0059 36.0084 47.0059 26.45C47.0059 18.0217 47.0012 13.1871 46.9813 10.4304C46.9713 9.05167 46.9575 8.19431 46.9387 7.66742C46.9293 7.40365 46.9187 7.22529 46.907 7.10678C46.9011 7.04745 46.8952 7.00563 46.8896 6.97687C46.884 6.94795 46.8802 6.94037 46.8816 6.94322C46.8681 6.91693 46.8589 6.89391 46.8521 6.87613C46.8504 6.87176 46.849 6.868 46.8477 6.8647C46.8432 6.8529 46.841 6.84703 46.838 6.84076L46.8377 6.83994C46.8351 6.83438 46.8319 6.82745 46.8118 6.81259C46.7514 6.76804 46.603 6.69872 46.1982 6.55723C45.5047 6.31485 44.1208 5.87999 41.3133 4.9978C40.9022 4.86861 40.4605 4.72982 39.986 4.58064C37.0321 3.65519 34.3606 2.81163 34.0575 2.70451C34.0569 2.70429 34.0563 2.70408 34.0557 2.70387ZM46.5215 46.1415L46.5221 46.1413L46.5215 46.1415Z" fill="#004155" stroke="#004155" stroke-width="0.3"/>
<path d="M26.3821 12.2121L26.3821 12.2121L26.3836 12.2107C26.6419 11.9763 26.8822 11.8225 27.1237 11.7932C27.3791 11.7623 27.5981 11.8734 27.7998 12.0751L27.7998 12.0751L27.8011 12.0765C28.0064 12.287 28.1128 12.5249 28.0893 12.7909C28.0665 13.0489 27.9235 13.3057 27.6935 13.5651L27.6935 13.5651L27.692 13.5667C27.5008 13.7762 27.2055 14.1543 27.0397 14.3937C26.95 14.528 26.8436 14.6566 26.7441 14.7586C26.6941 14.8098 26.6445 14.8557 26.5983 14.8929C26.5542 14.9284 26.5054 14.9623 26.4577 14.9822L26.4577 14.9822L26.453 14.984C26.1513 15.0979 25.8283 15.0302 25.585 14.863C25.3415 14.6958 25.1625 14.4183 25.1625 14.0937C25.1625 13.9759 25.2145 13.8303 25.2822 13.6869C25.3528 13.5373 25.4514 13.3679 25.566 13.1952C25.7948 12.8503 26.0951 12.4797 26.3821 12.2121Z" fill="#004155" stroke="#004155" stroke-width="0.3"/>
<path d="M24.3774 16.6355L24.3774 16.6354L24.3814 16.6314C24.5543 16.4585 24.7633 16.3812 25.0312 16.3812C25.4475 16.3812 25.8093 16.6612 25.9504 17.0521L25.9507 17.052L25.9532 17.0608C25.9616 17.0892 25.964 17.1208 25.9651 17.1436C25.9663 17.17 25.9664 17.2008 25.9657 17.2343C25.9643 17.3017 25.9594 17.3869 25.9522 17.4832C25.9376 17.6762 25.9127 17.9199 25.8833 18.1662C25.8538 18.4126 25.8195 18.6632 25.786 18.87C25.7536 19.0699 25.7193 19.2462 25.6871 19.3313L25.6871 19.3313L25.6853 19.3358C25.5618 19.6321 25.2388 19.7831 24.9407 19.8129C24.6421 19.8427 24.2952 19.7587 24.1113 19.4952C24.0604 19.4222 24.027 19.3275 24.0038 19.2289C23.9801 19.1279 23.9645 19.0114 23.9555 18.8866C23.9375 18.637 23.945 18.343 23.9725 18.0522C24 17.7613 24.0481 17.4688 24.113 17.2222C24.1757 16.984 24.2608 16.7613 24.3774 16.6355Z" fill="#004155" stroke="#004155" stroke-width="0.3"/>
<path d="M23.8314 23.3137L23.8314 23.3133C23.8128 22.6297 23.8072 22.2258 23.8433 21.9656C23.8619 21.8319 23.8926 21.7255 23.9443 21.6338C23.996 21.5421 24.0629 21.4755 24.137 21.414C24.3211 21.2523 24.5361 21.1689 24.7579 21.1718C24.9797 21.1746 25.1954 21.2635 25.3821 21.4235L25.3847 21.4258C25.4466 21.4788 25.5088 21.5321 25.5571 21.5978C25.6101 21.6699 25.6419 21.7497 25.6615 21.8527C25.697 22.039 25.697 22.3361 25.697 22.8725C25.697 22.8836 25.697 22.8948 25.697 22.9061C25.697 22.9174 25.697 22.9286 25.697 22.9397C25.697 23.4761 25.697 23.7733 25.6615 23.9596C25.6419 24.0626 25.6101 24.1424 25.5571 24.2144C25.5088 24.2802 25.4466 24.3335 25.3847 24.3865L25.3821 24.3888L25.3821 24.3888L25.3808 24.3899C25.1851 24.5539 24.9618 24.6431 24.7374 24.6417C24.5124 24.6402 24.2998 24.5475 24.1288 24.372C24.014 24.2621 23.9366 24.1595 23.8925 23.9905C23.8522 23.8361 23.8407 23.6282 23.8314 23.3137Z" fill="#004155" stroke="#004155" stroke-width="0.3"/>
<path d="M24.1251 26.1967L24.125 26.1966L24.1305 26.1922C24.209 26.1293 24.3023 26.0697 24.3915 26.0251C24.4742 25.9838 24.576 25.9437 24.6648 25.9437C24.8325 25.9437 25.0344 26.0178 25.1961 26.1062C25.2794 26.1517 25.3587 26.2045 25.4242 26.2605C25.4866 26.314 25.549 26.3809 25.5812 26.4573L25.5813 26.4573L25.5836 26.4635C25.6018 26.5128 25.6132 26.5789 25.6214 26.6462C25.63 26.717 25.6364 26.8017 25.6409 26.8948C25.6501 27.0811 25.6521 27.3076 25.648 27.5366C25.6438 27.7658 25.6335 27.9995 25.6175 28.2004C25.6018 28.3976 25.58 28.5745 25.5501 28.6835L25.5501 28.6835L25.5497 28.6849C25.4545 29.018 25.2433 29.2622 24.9741 29.371C24.7034 29.4805 24.3925 29.4451 24.1196 29.2542C24.0259 29.1891 23.9443 29.1165 23.8801 29.022C23.8156 28.927 23.774 28.8181 23.7488 28.6873C23.6999 28.434 23.7092 28.0767 23.7464 27.5365L23.7464 27.5364C23.7788 27.0687 23.8028 26.7939 23.852 26.6113C23.8779 26.5151 23.9121 26.4386 23.9608 26.3698C24.0081 26.3031 24.065 26.2496 24.1251 26.1967Z" fill="#004155" stroke="#004155" stroke-width="0.3"/>
<path d="M24.4745 33.9408C24.205 34.227 23.8123 34.2666 23.497 34.1506C23.1817 34.0346 22.9125 33.7504 22.9125 33.3594C22.9125 33.2419 22.942 33.0537 22.9839 32.8462C23.0266 32.6344 23.0851 32.3897 23.1484 32.1524C23.2117 31.9153 23.2804 31.6836 23.3438 31.4981C23.3754 31.4056 23.4064 31.3227 23.4353 31.2557C23.462 31.194 23.4935 31.1296 23.5295 31.0873L23.5294 31.0873L23.5309 31.0857C23.6093 30.996 23.7587 30.8779 23.8954 30.821L23.8959 30.8208C24.1732 30.7062 24.4957 30.7898 24.7354 30.9448C24.9741 31.0992 25.1813 31.3577 25.1813 31.6532L25.1812 31.6562C25.1786 31.7894 25.1457 31.9834 25.0987 32.1945C25.051 32.4087 24.9864 32.6505 24.9158 32.8838C24.8453 33.1168 24.768 33.3435 24.6946 33.5269C24.6579 33.6185 24.6215 33.7013 24.5866 33.7694C24.5535 33.8339 24.516 33.8972 24.4745 33.9408ZM24.4745 33.9408C24.4746 33.9406 24.4748 33.9404 24.4749 33.9403L24.3656 33.8376L24.474 33.9412C24.4742 33.9411 24.4743 33.9409 24.4745 33.9408Z" fill="#004155" stroke="#004155" stroke-width="0.3"/>
<path d="M21.7616 35.6109L21.7616 35.6108L21.7647 35.6082C22.0138 35.3938 22.3543 35.3631 22.6391 35.4508C22.9236 35.5384 23.1849 35.7548 23.2558 36.0737L23.2558 36.0737L23.2562 36.0755C23.3057 36.3122 23.279 36.5262 23.1503 36.7675C23.027 36.9987 22.8097 37.2555 22.4859 37.5887C22.2312 37.8526 22.0622 38.0185 21.9139 38.1151C21.7509 38.2214 21.614 38.2438 21.4406 38.2438C20.9197 38.2438 20.475 37.8505 20.475 37.3438C20.475 37.201 20.5198 37.0665 20.6114 36.9147C20.7011 36.7661 20.8403 36.5933 21.0382 36.3719L21.0381 36.3719L21.0392 36.3708C21.3282 36.0538 21.6521 35.7104 21.7616 35.6109Z" fill="#004155" stroke="#004155" stroke-width="0.3"/>
<path d="M37.7396 14.151L37.7396 14.151L37.7384 14.1495C37.4756 13.8186 37.3309 13.4947 37.3451 13.1971C37.3599 12.8869 37.5446 12.6441 37.85 12.4806C37.9833 12.4075 38.119 12.3615 38.261 12.3574C38.4047 12.3532 38.5427 12.3924 38.6793 12.4706C38.9436 12.622 39.2153 12.9283 39.5435 13.3878C39.9425 13.9463 40.189 14.3829 40.2665 14.7366C40.3061 14.9175 40.3034 15.0845 40.2481 15.2373C40.1929 15.3897 40.0905 15.5138 39.9547 15.618C39.6844 15.8347 39.3903 15.9047 39.0967 15.791C38.8168 15.6828 38.5675 15.4184 38.3454 15.0418L38.3454 15.0418L38.3435 15.0385C38.2072 14.7932 37.9403 14.3974 37.7396 14.151Z" fill="#004155" stroke="#004155" stroke-width="0.3"/>
<path d="M41.4519 21.1154L41.4519 21.1154L41.4512 21.1161C41.2309 21.3471 40.9468 21.4587 40.6698 21.4388C40.3919 21.4188 40.1337 21.2673 39.9686 20.9984C39.9345 20.9447 39.9096 20.871 39.8896 20.7947C39.8684 20.7138 39.849 20.6149 39.8315 20.5024C39.7966 20.277 39.7681 19.9884 39.7491 19.6619L39.7479 19.6423C39.7165 19.1441 39.6989 18.8648 39.722 18.6849C39.7347 18.5859 39.7604 18.5074 39.806 18.4345C39.8485 18.3667 39.905 18.31 39.9616 18.2534C40.3371 17.8779 40.9409 17.8731 41.3019 18.2567L41.3019 18.2566L41.3027 18.2575C41.4478 18.4143 41.5395 18.6436 41.5968 18.952C41.6543 19.2619 41.6801 19.6687 41.6801 20.197C41.6801 20.4411 41.6711 20.6202 41.6389 20.7612C41.6047 20.9108 41.5448 21.0167 41.4519 21.1154Z" fill="#004155" stroke="#004155" stroke-width="0.3"/>
<path d="M40.1033 23.0721L40.1033 23.0721L40.1047 23.0707C40.3019 22.8787 40.5276 22.7652 40.7616 22.7564C40.9973 22.7476 41.2189 22.846 41.4025 23.0342C41.459 23.0884 41.5135 23.1439 41.5565 23.2143C41.6014 23.2879 41.6288 23.3693 41.6463 23.4716C41.6795 23.6656 41.6813 23.9679 41.6813 24.5C41.6813 25.0322 41.6795 25.3345 41.6463 25.5285C41.6288 25.6308 41.6014 25.7121 41.5565 25.7858C41.5135 25.8562 41.459 25.9117 41.4025 25.9659C41.2189 26.1541 40.9973 26.2525 40.7616 26.2437C40.5276 26.2349 40.3019 26.1214 40.1047 25.9294L40.1047 25.9294L40.1033 25.928C40.0371 25.8618 39.9758 25.7999 39.9282 25.7302C39.8775 25.6557 39.845 25.5766 39.8245 25.4756C39.7875 25.2931 39.7875 25.0182 39.7875 24.5323C39.7875 24.5217 39.7875 24.5109 39.7875 24.5C39.7875 24.4892 39.7875 24.4784 39.7875 24.4678C39.7875 23.9819 39.7875 23.707 39.8245 23.5245C39.845 23.4235 39.8775 23.3444 39.9282 23.2699C39.9758 23.2002 40.0371 23.1383 40.1033 23.0721Z" fill="#004155" stroke="#004155" stroke-width="0.3"/>
<path d="M41.6812 28.9233L41.6813 28.9233V28.9251C41.6813 29.0977 41.6807 29.2336 41.675 29.3422C41.6694 29.4505 41.6583 29.5413 41.6335 29.6213C41.58 29.7931 41.4695 29.8867 41.3278 30.0056C41.1265 30.1751 40.8984 30.2624 40.6649 30.2417C40.4321 30.2211 40.2184 30.0953 40.0403 29.8866C39.9398 29.7751 39.8715 29.667 39.8328 29.5079C39.7964 29.3582 39.7875 29.1681 39.7875 28.897C39.7875 28.5993 39.7909 28.4045 39.8343 28.2533C39.8819 28.0877 39.974 27.9828 40.1033 27.8535C40.2606 27.6962 40.4251 27.5896 40.6093 27.5564C40.7953 27.5229 40.9774 27.5683 41.1606 27.6675C41.3607 27.7703 41.5032 27.887 41.5845 28.0977C41.659 28.2908 41.6766 28.5521 41.6812 28.9233Z" fill="#004155" stroke="#004155" stroke-width="0.3"/>
<path d="M37.1501 29.2697L37.1517 29.269C37.2332 29.2282 37.3325 29.1985 37.4285 29.1825C37.5231 29.1667 37.6281 29.162 37.7189 29.1815L37.719 29.1811L37.7287 29.1839C37.7695 29.1956 37.8121 29.2214 37.8454 29.2433C37.8836 29.2684 37.9287 29.3014 37.9792 29.3406C38.0804 29.4192 38.2092 29.5276 38.3576 29.6588C38.6545 29.9213 39.0341 30.2797 39.4343 30.6847C39.4345 30.6849 39.4346 30.685 39.4348 30.6852L40.734 31.9757L42.0346 30.6752C42.7522 29.9575 43.1909 29.539 43.5054 29.3318C43.6652 29.2265 43.8079 29.1653 43.9506 29.1551C44.0961 29.1447 44.2206 29.1887 44.3389 29.2518C44.5136 29.3443 44.648 29.4543 44.7378 29.6016C44.8275 29.7486 44.8636 29.9177 44.8687 30.1117L44.8688 30.1117V30.1156C44.8688 30.2036 44.8576 30.2898 44.8144 30.3898C44.7732 30.4853 44.7057 30.5867 44.6044 30.7117C44.403 30.9601 44.0404 31.3343 43.4006 31.9834L43.4002 31.9839L42.0802 33.3125L43.4002 34.6412L43.4002 34.6412C44.022 35.2677 44.3841 35.6437 44.5901 35.8967C44.798 36.152 44.8688 36.3075 44.8688 36.4906C44.8688 37.0034 44.437 37.4 43.9125 37.4C43.8222 37.4 43.7327 37.3936 43.6306 37.3553C43.5315 37.3181 43.4303 37.2546 43.307 37.1564C43.0631 36.9623 42.6973 36.6032 42.0441 35.9499C42.044 35.9499 42.044 35.9499 42.0439 35.9498L40.7347 34.6493L39.4248 35.9592C38.776 36.6081 38.4081 36.9692 38.1612 37.1677C38.0364 37.268 37.9342 37.3338 37.8351 37.3738C37.7329 37.4152 37.6431 37.4255 37.5512 37.4281L37.5512 37.4281L37.5501 37.4281C37.0328 37.4393 36.6 37.0134 36.6 36.4813C36.6 36.3007 36.6778 36.1419 36.886 35.8881C37.0941 35.6342 37.4559 35.2585 38.0685 34.6412L38.0686 34.6412L39.3886 33.3125L38.1248 32.0401L38.1246 32.0399C37.6784 31.5889 37.3266 31.216 37.0798 30.9325C36.9566 30.7909 36.8579 30.6697 36.7862 30.571C36.7192 30.4787 36.6622 30.3883 36.6424 30.3132L36.6424 30.3132L36.642 30.3114C36.5384 29.8971 36.769 29.4658 37.1501 29.2697Z" fill="#004155" stroke="#004155" stroke-width="0.3"/>
<path d="M3.82481 13.8915L3.82485 13.8921C4.02587 16.0458 5.21051 18.2887 7.23255 20.3579L7.23264 20.358C7.66802 20.8028 7.98339 21.0933 8.24195 21.2594C8.50841 21.4306 8.73095 21.48 8.96895 21.4208M3.82481 13.8915L8.93358 21.275M3.82481 13.8915C3.58369 11.2103 5.37861 8.83063 7.99089 8.41441C9.71344 8.13384 11.6451 8.905 12.6545 10.2832L3.82481 13.8915ZM8.96895 21.4208C8.96929 21.4207 8.96962 21.4206 8.96996 21.4205L8.93358 21.275M8.96895 21.4208C8.96861 21.4208 8.96828 21.4209 8.96794 21.421L8.93358 21.275M8.96895 21.4208C9.03234 21.4056 9.10105 21.3705 9.16713 21.3302C9.23642 21.2878 9.31449 21.2325 9.39833 21.1676C9.5662 21.0377 9.76465 20.8639 9.97418 20.6656C10.3933 20.269 10.8643 19.7672 11.2347 19.3066M8.93358 21.275C9.25233 21.2 10.3867 20.1219 11.118 19.2125M11.2347 19.3066C11.2347 19.3067 11.2346 19.3067 11.2346 19.3068L11.118 19.2125M11.2347 19.3066C12.8334 17.3296 13.6584 15.3288 13.6586 13.3912L11.118 19.2125M11.2347 19.3066C11.2348 19.3066 11.2348 19.3065 11.2349 19.3065L11.118 19.2125M9.79348 10.4572L9.79303 10.4571C8.27085 9.91982 6.72819 10.5533 6.02121 11.9851L6.02087 11.9858C5.87532 12.2769 5.80687 12.4316 5.77139 12.6121C5.73509 12.7968 5.73197 13.0149 5.7367 13.4357C5.74136 13.799 5.75533 14.0476 5.79555 14.2855C5.83568 14.523 5.90286 14.7552 6.01882 15.0845L6.01882 15.0845L6.01923 15.0857C6.4707 16.4033 7.47007 17.9583 8.47566 18.9362L8.47567 18.9362L8.47715 18.9377L8.77589 19.2364L9.35474 18.5703L9.35488 18.5702C10.5542 17.1942 11.234 16.0138 11.5826 14.748C11.7095 14.2765 11.7645 13.7362 11.7473 13.2376C11.7301 12.7355 11.6404 12.2924 11.4912 12.0069L11.4907 12.0058C11.0934 11.2294 10.5307 10.7148 9.79348 10.4572Z" fill="#004155" stroke="#004155" stroke-width="0.3"/>
<path d="M9.39568 13.928L9.39569 13.928L9.39426 13.9294C9.19705 14.1214 8.97136 14.2349 8.73743 14.2437C8.50147 14.2525 8.2797 14.1539 8.09591 13.9654C7.62892 13.5078 7.74572 12.7897 8.31747 12.481C8.5005 12.379 8.68763 12.3381 8.8769 12.3724C9.06402 12.4063 9.23502 12.5104 9.39393 12.6641L9.39395 12.6641L9.39568 12.6659C9.58871 12.8589 9.70681 13.0683 9.70681 13.2969C9.70681 13.5256 9.58871 13.735 9.39568 13.928Z" fill="#004155" stroke="#004155" stroke-width="0.3"/>
<path d="M9.39669 25.928L9.3967 25.928L9.39527 25.9294C9.19806 26.1214 8.97237 26.2349 8.73843 26.2437C8.50271 26.2525 8.28113 26.1541 8.09745 25.9659C8.04099 25.9117 7.98649 25.8562 7.94352 25.7858C7.89862 25.7121 7.87122 25.6308 7.85371 25.5285C7.82053 25.3345 7.81875 25.0322 7.81875 24.5C7.81875 23.9679 7.82053 23.6656 7.85371 23.4716C7.87122 23.3693 7.89862 23.2879 7.94352 23.2143C7.98649 23.1439 8.04099 23.0884 8.09745 23.0342C8.28113 22.846 8.50271 22.7476 8.73843 22.7564C8.97237 22.7652 9.19806 22.8787 9.39527 23.0707L9.39528 23.0707L9.39669 23.0721C9.46287 23.1383 9.52425 23.2002 9.57176 23.2699C9.6225 23.3444 9.65504 23.4235 9.67552 23.5245C9.71253 23.707 9.71252 23.9819 9.7125 24.4678C9.7125 24.4784 9.7125 24.4892 9.7125 24.5C9.7125 24.5109 9.7125 24.5217 9.7125 24.5323C9.71252 25.0182 9.71253 25.2931 9.67552 25.4756C9.65504 25.5766 9.6225 25.6557 9.57176 25.7302C9.52425 25.7999 9.46287 25.8618 9.39669 25.928Z" fill="#004155" stroke="#004155" stroke-width="0.3"/>
<path d="M7.8378 29.3042L7.83778 29.3037C7.82393 28.7403 7.82423 28.3961 7.88629 28.1664C7.91942 28.0437 7.97116 27.9476 8.04881 27.8654C8.12313 27.7868 8.21541 27.7275 8.31621 27.6699C8.49634 27.5663 8.68424 27.5256 8.87442 27.5598C9.06217 27.5935 9.2356 27.6972 9.39518 27.8516L9.39519 27.8516L9.39693 27.8533L9.39812 27.8545C9.46328 27.9197 9.52488 27.9813 9.5724 28.0518C9.62364 28.1277 9.65586 28.2091 9.67606 28.3143C9.71276 28.5054 9.71275 28.8006 9.71274 29.3332L9.71274 29.3657L9.71274 29.3977C9.71275 29.9169 9.71276 30.2087 9.67985 30.3898C9.66178 30.4892 9.63206 30.568 9.58032 30.6377C9.53199 30.7027 9.47005 30.7512 9.41097 30.7966C9.01027 31.1103 8.47178 31.0969 8.13143 30.7339L8.13143 30.7339L8.13029 30.7326C8.07617 30.6736 8.02664 30.6144 7.98669 30.5415C7.94616 30.4674 7.91926 30.3863 7.90013 30.2854C7.86338 30.0915 7.85172 29.8007 7.8378 29.3042Z" fill="#004155" stroke="#004155" stroke-width="0.3"/>
<path d="M8.60331 32.6345L8.6033 32.6344L8.60495 32.6328C8.76912 32.4736 8.9331 32.3642 9.12644 32.3366C9.31889 32.3091 9.51156 32.3668 9.72397 32.4754C9.84898 32.538 9.94567 32.6192 10.026 32.7477C10.1022 32.8696 10.1607 33.0296 10.2222 33.2426L10.2222 33.2426L10.2225 33.2437C10.306 33.5406 10.4547 34.005 10.5559 34.2717L10.5559 34.2717L10.5564 34.2731C10.6722 34.5881 10.7405 34.8149 10.7319 35.0077C10.7226 35.217 10.6252 35.3664 10.4823 35.5291C10.1132 35.9641 9.48096 35.964 9.11174 35.5389L9.11174 35.5389L9.11081 35.5378C9.07249 35.4928 9.03365 35.4275 8.99647 35.3567C8.95793 35.2834 8.91631 35.1947 8.87349 35.0965C8.78777 34.8999 8.69478 34.6597 8.60897 34.4171C8.52316 34.1744 8.44378 33.9272 8.38563 33.7164C8.32935 33.5124 8.2875 33.3241 8.2875 33.2093C8.2875 33.1578 8.30181 33.1057 8.31828 33.0614C8.33559 33.0148 8.35945 32.9658 8.38717 32.9177C8.44242 32.8216 8.51824 32.7195 8.60331 32.6345Z" fill="#004155" stroke="#004155" stroke-width="0.3"/>
<path d="M12.9042 39.0343L12.9042 39.0344L12.9001 39.0355C12.8008 39.0623 12.6824 39.0471 12.5684 39.0178C12.4494 38.9872 12.3134 38.9352 12.1681 38.8671C11.8773 38.7308 11.5361 38.5238 11.1969 38.2707C10.8554 38.0204 10.6275 37.7591 10.5612 37.4778C10.4914 37.1819 10.609 36.9087 10.8519 36.6659C10.938 36.5798 11.0436 36.5034 11.1451 36.448C11.2412 36.3956 11.3553 36.35 11.4548 36.35C11.5119 36.35 11.5759 36.3678 11.6332 36.3877C11.6947 36.409 11.7652 36.4389 11.8407 36.4745C11.992 36.5457 12.1722 36.6437 12.3564 36.7531C12.7227 36.9705 13.1197 37.2415 13.3466 37.4486L13.3466 37.4486L13.3482 37.4501C13.6218 37.7073 13.7081 38.0484 13.6193 38.3578C13.5311 38.6653 13.2757 38.9229 12.9042 39.0343Z" fill="#004155" stroke="#004155" stroke-width="0.3"/>
</g>
<defs>
<clipPath id="clip0_601_14097">
<rect width="48" height="48" fill="white" transform="translate(0.75 0.5)"/>
</clipPath>
</defs>
</svg>
