<svg width="47" height="49" viewBox="0 0 47 49" fill="none" xmlns="http://www.w3.org/2000/svg">
<path d="M22.45 2.58128L22.4219 4.67191L17.7719 4.71878C13.825 4.75628 13.0938 4.7844 12.9531 4.90628C12.5688 5.22503 12.5313 5.5344 12.5313 8.28128V10.9063H11.8094C10.8531 10.9063 10.0656 11.0375 9.5875 11.2907C9.025 11.5719 8.35938 12.275 8.10625 12.8188C7.89063 13.2969 7.89063 13.3063 7.84375 18.725L7.79688 24.1625L4.95625 25.4375C3.29688 26.1875 2.0125 26.8157 1.87188 26.9563C1.675 27.1532 1.62813 27.2938 1.6375 27.6125C1.64688 27.875 2.73438 31.2782 4.69375 37.1563C6.38125 42.1813 7.75 46.325 7.75 46.3625C7.75 46.4563 6.76563 46.3438 6.11875 46.1844C5.81875 46.1094 5.15313 45.8469 4.65625 45.5938C2.88438 44.7032 1.79688 44.375 0.625 44.375H0.0625V45.4063V46.4375H0.5125C1.2625 46.4375 2.11563 46.7 3.4375 47.3282C4.13125 47.6657 4.94688 48.0219 5.24688 48.125C6.53125 48.5563 8.69688 48.6032 10.0938 48.2188C10.4781 48.1063 11.4062 47.7313 12.1563 47.375C13.7594 46.6157 14.4063 46.4375 15.6719 46.4375C16.9469 46.4375 17.5844 46.6157 19.2812 47.4125C20.9313 48.2 21.6156 48.3969 22.9656 48.4719C24.775 48.575 25.9844 48.2938 27.9438 47.3094C29.2563 46.6532 30.0906 46.4375 31.3188 46.4375C32.6031 46.4375 33.2406 46.6157 34.8438 47.375C35.5938 47.7313 36.5219 48.1063 36.9062 48.2188C38.3031 48.6032 40.4688 48.5563 41.7531 48.125C42.0531 48.0219 42.8688 47.6657 43.5625 47.3282C44.8844 46.7 45.7375 46.4375 46.4969 46.4375H46.9375V45.4063V44.375H46.375C45.2031 44.375 44.1156 44.7032 42.3438 45.5938C41.8469 45.8469 41.1813 46.1094 40.8813 46.1844C40.2344 46.3438 39.25 46.4563 39.25 46.3625C39.25 46.325 40.6188 42.1813 42.3063 37.1563C44.2656 31.2782 45.3531 27.875 45.3625 27.6125C45.3719 27.2938 45.325 27.1532 45.1281 26.9563C44.9875 26.8157 43.7031 26.1875 42.0438 25.4375L39.2031 24.1625L39.1562 18.725C39.1094 13.3063 39.1094 13.2969 38.8938 12.8188C38.6406 12.275 37.975 11.5719 37.4125 11.2907C36.9344 11.0375 36.1469 10.9063 35.2 10.9063H34.4688V8.28128C34.4688 5.5344 34.4313 5.22503 34.0469 4.90628C33.9062 4.7844 33.175 4.75628 29.2281 4.71878L24.5781 4.67191L24.55 2.58128L24.5313 0.500031H23.5H22.4688L22.45 2.58128ZM32.4062 8.84378V10.9063H23.5H14.5938V8.84378V6.78128H23.5H32.4062V8.84378ZM36.6344 13.25C36.7844 13.3625 36.9438 13.5875 37 13.7938C37.15 14.3375 37.1313 23.225 36.9813 23.1594C36.9156 23.1313 33.8969 21.7813 30.2875 20.15C26.6688 18.5188 23.6125 17.1875 23.5 17.1875C23.3875 17.1875 20.3313 18.5188 16.7125 20.15C13.1031 21.7813 10.0844 23.1313 10.0281 23.1594C9.93438 23.1969 9.90625 22.2594 9.90625 18.6782C9.90625 15.9782 9.94375 14.0094 10 13.8125C10.0469 13.6344 10.2063 13.3907 10.3469 13.2782L10.6094 13.0625H23.4813C36.3063 13.0625 36.3625 13.0625 36.6344 13.25ZM22.45 21.0969L22.4219 22.2782L13.5719 26.3469C8.70625 28.5782 4.7125 30.3969 4.69375 30.3782C4.6375 30.3313 3.90625 28.2219 3.925 28.2032C3.98125 28.1469 22.3375 19.9063 22.4031 19.9063C22.4406 19.9063 22.4594 20.4407 22.45 21.0969ZM33.85 24.0407C38.9125 26.3094 43.0563 28.1844 43.075 28.2032C43.0938 28.2219 42.3625 30.3313 42.3063 30.3782C42.2875 30.3969 38.2938 28.5782 33.4281 26.3469L24.5781 22.2782L24.55 21.0969C24.5406 20.4407 24.5594 19.9063 24.5875 19.9063C24.625 19.9063 28.7969 21.7625 33.85 24.0407ZM22.4688 30.8282V37.0625H23.5H24.5313V30.8188C24.5313 25.8594 24.5594 24.5844 24.6531 24.6219C24.8781 24.7063 40.9938 32.1219 41.3313 32.2907L41.6688 32.4688L39.4094 39.2657C37.7406 44.2532 37.1031 46.0625 37 46.0625C36.925 46.0625 36.4844 45.8657 36.0156 45.6219C34.0563 44.6094 33.1281 44.3657 31.2719 44.3657C29.5188 44.3657 28.7594 44.5719 26.7719 45.5563C25.4688 46.2032 24.8313 46.3625 23.5469 46.3719C22.2531 46.3813 21.4375 46.1844 20.3313 45.6219C18.4188 44.6188 17.4625 44.3657 15.6719 44.3657C13.8813 44.3657 13.0094 44.6 11.0125 45.6032C10.5063 45.8563 10.0469 46.0625 9.98125 46.0625C9.90625 46.0625 9.00625 43.5125 7.59063 39.2657L5.32188 32.4594L5.99688 32.1313C7.05625 31.6157 22.3188 24.6032 22.4031 24.6032C22.4406 24.5938 22.4688 27.3969 22.4688 30.8282Z" fill="#004155"/>
<path d="M16.1875 8.84375V9.875H17.2188H18.25V8.84375V7.8125H17.2188H16.1875V8.84375Z" fill="#004155"/>
<path d="M19.2812 8.84375V9.875H20.3594H21.4375V8.84375V7.8125H20.3594H19.2812V8.84375Z" fill="#004155"/>
<path d="M22.4688 8.84375V9.875H23.5H24.5312V8.84375V7.8125H23.5H22.4688V8.84375Z" fill="#004155"/>
<path d="M25.5625 8.84375V9.875H26.6406H27.7188V8.84375V7.8125H26.6406H25.5625V8.84375Z" fill="#004155"/>
<path d="M28.75 8.84375V9.875H29.7812H30.8125V8.84375V7.8125H29.7812H28.75V8.84375Z" fill="#004155"/>
<path d="M12.0625 15.6406V16.7188H23.5H34.9375V15.6406V14.5625H23.5H12.0625V15.6406Z" fill="#004155"/>
<path d="M12.0625 18.7812V19.8125H13.0938H14.125V18.7812V17.75H13.0938H12.0625V18.7812Z" fill="#004155"/>
<path d="M32.875 18.7812V19.8125H33.9062H34.9375V18.7812V17.75H33.9062H32.875V18.7812Z" fill="#004155"/>
</svg>
