<svg width="48" height="48" viewBox="0 0 48 48" fill="none" xmlns="http://www.w3.org/2000/svg">
<g clip-path="url(#clip0_637_16636)">
<path d="M44.8388 30.922C44.3117 31.2264 43.7111 31.3873 43.1021 31.3873C41.8651 31.3873 40.7124 30.7218 40.094 29.6505C40.0582 29.5884 40.0148 29.5327 39.967 29.4814C40.1345 28.5427 40.2197 27.5905 40.2197 26.6343C40.2197 24.7678 39.9016 22.9745 39.3188 21.3042L41.3867 20.4478C41.8651 20.2497 42.0922 19.7013 41.894 19.223C41.696 18.7445 41.1474 18.5174 40.6693 18.7156L38.5999 19.5728C37.0065 16.2922 34.3394 13.6259 31.0582 12.0337L32.543 8.44924C32.7411 7.97093 32.5138 7.4225 32.0356 7.22442C31.5573 7.02633 31.0089 7.25345 30.8107 7.73175L29.3264 11.3152C27.6578 10.7336 25.8663 10.4164 24.0019 10.4164C22.1355 10.4164 20.3422 10.7343 18.672 11.3172L17.8153 9.24914C17.6171 8.77072 17.0687 8.54366 16.5904 8.74174C16.112 8.93995 15.8849 9.48826 16.0831 9.96668L16.9404 12.0362C13.6597 13.6296 10.9933 16.2966 9.40114 19.5779L5.81691 18.0933C5.33841 17.8951 4.79006 18.1223 4.59206 18.6007C4.39397 19.0791 4.62113 19.6274 5.09944 19.8255L8.68278 21.3096C8.10105 22.9783 7.78378 24.7698 7.78378 26.6343C7.78378 27.5906 7.86883 28.543 8.03619 29.4816C7.98854 29.5328 7.9451 29.5884 7.90922 29.6505C7.29055 30.7218 6.1379 31.3873 4.90088 31.3873C4.29178 31.3873 3.69132 31.2264 3.16435 30.922C2.71594 30.6631 2.14266 30.8166 1.88363 31.2649C1.62469 31.7133 1.77825 32.2867 2.22657 32.5456C3.03825 33.0145 3.96301 33.2623 4.90088 33.2623C6.35168 33.2623 7.727 32.6679 8.72083 31.6558C9.71496 32.668 11.0903 33.2624 12.5411 33.2624C13.9921 33.2624 15.3673 32.6682 16.3613 31.656C17.3552 32.6682 18.7306 33.2624 20.1814 33.2624C21.6322 33.2624 23.0074 32.6682 24.0015 31.656C24.9956 32.668 26.371 33.2624 27.8217 33.2624C29.2725 33.2624 30.6478 32.668 31.6418 31.6559C32.6358 32.668 34.011 33.2624 35.4618 33.2624C36.9128 33.2624 38.2881 32.668 39.2823 31.6557C40.2762 32.6679 41.6515 33.2623 43.1022 33.2623C44.0399 33.2623 44.9646 33.0145 45.7764 32.5457C46.2249 32.2868 46.3785 31.7134 46.1196 31.265C45.8607 30.8167 45.2875 30.6631 44.8388 30.922ZM37.8232 30.4577C37.1889 31.0448 36.3476 31.3874 35.4618 31.3874C34.2246 31.3874 33.0722 30.722 32.4539 29.6508C32.2865 29.3607 31.9769 29.182 31.6421 29.182C31.307 29.182 30.9975 29.3607 30.8302 29.6507C30.2116 30.722 29.0587 31.3874 27.8217 31.3874C26.5847 31.3874 25.432 30.722 24.8133 29.6508C24.6459 29.3607 24.3363 29.1821 24.0014 29.1821C23.6665 29.1821 23.357 29.3608 23.1896 29.6509C22.5711 30.722 21.4184 31.3874 20.1814 31.3874C18.9442 31.3874 17.7915 30.722 17.1731 29.6507C17.0057 29.3607 16.6961 29.182 16.3611 29.182C16.0262 29.182 15.7167 29.3607 15.5492 29.6508C14.931 30.722 13.7783 31.3874 12.5411 31.3874C11.6553 31.3874 10.8139 31.0449 10.1799 30.4577C9.83525 29.2123 9.65841 27.9276 9.65841 26.6343C9.65841 18.7256 16.0929 12.2914 24.0016 12.2914C31.9103 12.2914 38.3446 18.7256 38.3446 26.6343C38.3448 27.9271 38.1679 29.2119 37.8232 30.4577Z" fill="#004155"/>
<path d="M20.9911 36.6395C21.2499 36.1911 21.0963 35.6177 20.6478 35.3589C20.1996 35.1001 19.6262 35.2537 19.3672 35.7021C18.7487 36.7735 17.596 37.439 16.3591 37.439C15.1219 37.439 13.9693 36.7735 13.3508 35.7021C13.1834 35.412 12.8738 35.2334 12.5389 35.2334C12.204 35.2334 11.8944 35.412 11.727 35.7022C11.1086 36.7733 9.95595 37.4388 8.7189 37.4388C7.48178 37.4388 6.32902 36.7733 5.71048 35.7021C5.45154 35.2536 4.87826 35.1 4.42985 35.359C3.98145 35.6178 3.82779 36.1912 4.08673 36.6396C5.03904 38.2891 6.81412 39.3138 8.7189 39.3138C10.1697 39.3138 11.545 38.7194 12.5389 37.7074C13.533 38.7195 14.9083 39.314 16.3591 39.314C18.2638 39.314 20.0388 38.2892 20.9911 36.6395Z" fill="#004155"/>
<path d="M43.5697 35.359C43.1215 35.1002 42.548 35.2538 42.2891 35.7022C41.6706 36.7736 40.518 37.4391 39.2811 37.4391C38.044 37.4391 36.8912 36.7735 36.2724 35.7021C36.1049 35.412 35.7954 35.2334 35.4605 35.2334C35.1255 35.2334 34.816 35.4121 34.6486 35.7022C34.0303 36.7733 32.8778 37.4388 31.6408 37.4388C30.4036 37.4388 29.2509 36.7733 28.6324 35.7021C28.3734 35.2536 27.8002 35.1 27.3517 35.359C26.9033 35.6178 26.7497 36.1912 27.0086 36.6396C27.9609 38.2891 29.736 39.3138 31.6408 39.3138C33.0916 39.3138 34.4669 38.7194 35.4607 37.7073C36.4548 38.7196 37.8303 39.314 39.2811 39.314C41.1857 39.314 42.9605 38.2892 43.9131 36.6395C44.1718 36.1912 44.0181 35.6178 43.5697 35.359Z" fill="#004155"/>
<path d="M32.1089 41.4106C31.6603 41.1517 31.087 41.3053 30.8283 41.7537C30.2096 42.8252 29.0569 43.4907 27.8199 43.4907C26.583 43.4907 25.4303 42.8252 24.8118 41.7538C24.6442 41.4637 24.3348 41.285 23.9998 41.285C23.6649 41.285 23.3553 41.4637 23.1879 41.7538C22.5694 42.825 21.4166 43.4905 20.1795 43.4905C18.9425 43.4905 17.79 42.8249 17.1714 41.7536C16.9125 41.3052 16.3391 41.1515 15.8908 41.4104C15.4424 41.6692 15.2888 42.2426 15.5476 42.691C16.5 44.3407 18.2749 45.3655 20.1795 45.3655C21.6303 45.3655 23.0057 44.7711 23.9997 43.759C24.9938 44.7712 26.3693 45.3657 27.8199 45.3657C29.7245 45.3657 31.4995 44.3409 32.452 42.6913C32.7109 42.2428 32.5573 41.6695 32.1089 41.4106Z" fill="#004155"/>
<path d="M5.01985 26.6345C5.01985 26.1167 4.60003 25.697 4.08234 25.697H0.937499C0.419719 25.697 0 26.1167 0 26.6345C0 27.1523 0.419719 27.5721 0.937499 27.5721H4.08234C4.60003 27.5721 5.01985 27.1523 5.01985 26.6345Z" fill="#004155"/>
<path d="M9.24843 13.2134C9.43142 13.3965 9.67153 13.488 9.91136 13.488C10.1511 13.488 10.3912 13.3965 10.5742 13.2134C10.9403 12.8473 10.9403 12.2537 10.5742 11.8875L8.35048 9.66377C7.98427 9.29762 7.39065 9.29762 7.02457 9.66377C6.65848 10.0299 6.65848 10.6235 7.02457 10.9896L9.24843 13.2134Z" fill="#004155"/>
<path d="M24 7.65412C24.5177 7.65412 24.9375 7.23441 24.9375 6.7166V3.57178C24.9375 3.054 24.5177 2.63428 24 2.63428C23.4822 2.63428 23.0625 3.054 23.0625 3.57178V6.7166C23.0626 7.23441 23.4822 7.65412 24 7.65412Z" fill="#004155"/>
<path d="M38.0858 13.488C38.3258 13.488 38.5657 13.3965 38.7488 13.2134L40.9726 10.9896C41.3386 10.6235 41.3386 10.0299 40.9726 9.66377C40.6064 9.29762 40.0128 9.29762 39.6468 9.66377L37.423 11.8875C37.0569 12.2536 37.0569 12.8472 37.423 13.2134C37.6061 13.3965 37.8458 13.488 38.0858 13.488Z" fill="#004155"/>
<path d="M47.0667 25.697H43.9219C43.4041 25.697 42.9844 26.1167 42.9844 26.6345C42.9844 27.1523 43.4041 27.5721 43.9219 27.5721H47.0667C47.5845 27.5721 48.0042 27.1523 48.0042 26.6345C48.0042 26.1167 47.5846 25.697 47.0667 25.697Z" fill="#004155"/>
<path d="M32.3459 6.46898C32.4629 6.51722 32.5839 6.54005 32.703 6.54005C33.0714 6.54005 33.4209 6.32147 33.57 5.95977L33.5785 5.93934C33.776 5.46077 33.5481 4.91261 33.0694 4.71517C32.5904 4.51764 32.0427 4.74564 31.8451 5.22424L31.8366 5.24467C31.6393 5.72336 31.8673 6.27142 32.3459 6.46898Z" fill="#004155"/>
<path d="M2.59855 18.7877L2.61918 18.7962C2.73533 18.8436 2.85552 18.8661 2.97365 18.8661C3.34302 18.8661 3.69327 18.6462 3.84177 18.2831C4.03771 17.8039 3.80812 17.2565 3.32877 17.0605L3.30814 17.0521C2.82909 16.8563 2.28158 17.0858 2.08555 17.5651C1.88971 18.0444 2.1193 18.5917 2.59855 18.7877Z" fill="#004155"/>
</g>
<defs>
<clipPath id="clip0_637_16636">
<rect width="48" height="48" fill="white"/>
</clipPath>
</defs>
</svg>
