<svg width="48" height="49" viewBox="0 0 48 49" fill="none" xmlns="http://www.w3.org/2000/svg">
<mask id="path-1-outside-1_601_14202" maskUnits="userSpaceOnUse" x="0.140625" y="-0.50708" width="48" height="50" fill="black">
<rect fill="white" x="0.140625" y="-0.50708" width="48" height="50"/>
<path d="M32.5938 0.63129C31.0281 1.08129 29.8938 2.30942 29.5938 3.86567C29.4719 4.54066 29.4719 5.83442 29.6031 6.22816C29.7531 6.66879 30.1094 7.12817 30.4469 7.29692L30.7188 7.44691V9.35942V11.2719L28.2625 11.3L25.7969 11.3282L25.1969 11.6563C24.8125 11.8625 24.4656 12.1438 24.2406 12.4344C23.6219 13.2125 23.5938 13.4188 23.5938 17.2063V20.5625H21.3438H19.0938V19.8782C19.0938 17.75 17.9313 16.3719 16.0469 16.2688C15.4375 16.2407 15.1938 16.2688 14.7625 16.4375C14.0688 16.7 13.3938 17.3094 13.0469 17.9938C12.8031 18.4813 12.7656 18.6594 12.7281 19.55L12.7 20.5625H9.76562C7.27188 20.5625 6.75625 20.5907 6.34375 20.7219C5.70625 20.9282 5.03125 21.5375 4.74063 22.175L4.51563 22.6719L4.4875 27.3969C4.46875 30.7157 4.4875 32.2063 4.5625 32.3844C4.66563 32.6188 4.99375 32.8438 5.25625 32.8438C5.32188 32.8438 5.49063 32.7594 5.63125 32.6469C5.875 32.4594 5.875 32.45 5.875 31.1469C5.875 30.4344 5.88438 29.8438 5.90313 29.8438C5.9125 29.8438 6.12813 29.9094 6.38125 29.9844C6.63438 30.0594 7.13125 30.125 7.4875 30.125H8.125V30.4907C8.125 30.8 8.0875 30.875 7.87188 30.9594C7.55313 31.0719 7.36563 31.2219 7.15938 31.5313C6.925 31.8782 6.93438 33.1625 7.1875 33.5657C7.55313 34.175 7.66563 34.2032 9.925 34.2313C11.8 34.2594 11.9875 34.25 12.3906 34.0719C12.9906 33.8094 13.2344 33.275 13.1594 32.3469C13.1125 31.5782 12.9344 31.2875 12.3625 31.0157C12.0063 30.8469 11.9688 30.8 11.9688 30.4813V30.125L15.8781 30.1438L19.7969 30.1719L19.825 30.5C19.8531 30.8 19.825 30.8469 19.5344 30.95C19.3656 31.0063 19.1031 31.1938 18.9438 31.3532C18.6906 31.6157 18.6719 31.7 18.6438 32.45C18.625 33.1344 18.6438 33.3125 18.8031 33.5657C19.1875 34.175 19.2906 34.2032 21.5781 34.2313C23.575 34.2594 23.65 34.25 24.0531 34.0438C24.6531 33.7344 24.8313 33.3594 24.7938 32.45C24.7563 31.6063 24.5875 31.2969 23.9875 31.0157C23.6313 30.8469 23.5938 30.8 23.5938 30.4813V30.125H24.325C24.7188 30.1157 25.2156 30.0594 25.4219 29.9844C25.6281 29.9094 25.8063 29.8438 25.825 29.8438C25.8344 29.8438 25.8438 33.5 25.8438 37.9625C25.8438 46.8407 25.8719 46.4469 25.3 46.8594C25.0563 47.0469 24.8781 47.0469 16 47.075C7.525 47.0938 6.93438 47.0844 6.63438 46.9344C6.45625 46.8407 6.22188 46.6438 6.11875 46.5032C5.92188 46.2407 5.92188 46.1282 5.89375 40.6719L5.86563 35.1032L5.62188 34.9063C5.05 34.4563 4.46875 34.8688 4.46875 35.7313V36.0969L3.775 36.1532C2.65938 36.2375 1.87188 36.7532 1.40313 37.7L1.14062 38.2344V40.8594V43.4844L1.38438 44C1.8625 45.0313 2.725 45.5938 3.82188 45.5938H4.45L4.51563 46.0344C4.61875 46.7657 4.91875 47.3469 5.425 47.7969C6.25938 48.5469 5.6875 48.5094 16.1031 48.4813L25.3281 48.4532L25.825 48.1719C26.6219 47.7313 27.1 47.0469 27.2313 46.1375C27.2875 45.6875 27.325 45.6407 27.5594 45.6125C27.8031 45.5844 27.8125 45.5938 27.8125 46.0907C27.8125 47.1313 28.2156 47.8532 29.0031 48.2563C29.5938 48.5469 30.5594 48.3875 31.075 47.9094C31.4969 47.525 31.6094 47.1875 31.6563 46.2032L31.7031 45.2657L35.4813 45.2375L39.25 45.2188V46.0907C39.25 47.15 39.4563 47.6375 40.0844 48.0782C40.4406 48.3313 40.5625 48.3594 41.1625 48.3594C42.0344 48.3594 42.4844 48.0969 42.85 47.3657C43.0563 46.9438 43.0938 46.7469 43.0938 46.0532V45.2375L44.1531 45.2C45.0063 45.1719 45.2875 45.125 45.6438 44.9563C46.5531 44.5063 47.1531 43.6625 47.3219 42.575C47.3781 42.2094 47.3969 38.1032 47.3875 31.8782L47.3594 21.7625L47.0969 21.5375C46.7781 21.2657 46.5719 21.2563 46.2438 21.5094L46 21.6969V31.9344C46 37.7469 45.9625 42.3313 45.9062 42.5375C45.8031 42.9875 45.5688 43.325 45.1562 43.6063L44.8469 43.8125H37.7125H30.5781L30.6063 41.1688C30.6438 38.2438 30.6063 37.9907 30.1 37.2407L29.7813 36.7907L29.7625 25.8594L29.7344 14.9188L29.5094 14.7407C29.2281 14.5063 28.7969 14.5157 28.5625 14.75C28.375 14.9375 28.375 15.0594 28.375 25.5313V36.125H27.8125H27.2594L27.2313 29.3L27.2031 22.4844L26.9125 21.9688C26.575 21.3688 25.9844 20.8813 25.4125 20.7313L25 20.6188V17.2438V13.8782L25.2344 13.475C25.3844 13.2125 25.6 13.0157 25.8719 12.8844C26.275 12.6875 26.3313 12.6875 35.4625 12.6875H44.65L45.0625 12.8938C45.5688 13.1563 45.8125 13.475 45.9156 14.0094C45.9531 14.2344 45.9906 15.4625 46 16.7375V19.0532L46.2438 19.2407C46.5719 19.4938 46.7781 19.4844 47.0969 19.2125L47.3594 18.9875V16.325V13.6719L47.0875 13.0907C46.7781 12.4157 46.2063 11.8344 45.55 11.5344C45.1375 11.3469 44.9406 11.3282 42.6531 11.3L40.1875 11.2719V9.35004C40.1875 8.14067 40.225 7.43754 40.2812 7.43754C40.4875 7.43754 41.125 6.74379 41.2656 6.35942C41.5 5.75004 41.425 3.83754 41.1344 3.10629C40.7406 2.08442 39.8313 1.17504 38.8094 0.762543C38.2938 0.565666 38.1344 0.546917 35.6406 0.528168C33.7281 0.518791 32.9031 0.546917 32.5938 0.63129ZM38.575 2.23442C39.1281 2.53442 39.4375 2.85316 39.7469 3.44379C39.9062 3.75317 39.9531 4.03442 39.9813 4.87817C40.0188 5.91879 40.0188 5.91879 39.775 6.07817C39.55 6.22816 39.5125 6.22816 39.2969 6.08754C39.0813 5.94691 39.0625 5.88129 39.0625 5.20629C39.0625 4.25004 38.9313 3.80942 38.5094 3.39692C37.9938 2.88129 37.6656 2.82504 35.2281 2.86254C33.2031 2.89067 33.0906 2.90004 32.7625 3.10629C32.125 3.50004 31.9938 3.79066 31.9375 4.93442C31.8906 5.79692 31.8531 5.97504 31.7031 6.08754C31.4594 6.26567 31.3188 6.25629 31.0844 6.02192C30.8969 5.83442 30.8875 5.74067 30.925 4.85942C30.9719 3.75317 31.1594 3.26567 31.7594 2.66566C32.4625 1.96254 32.7531 1.90629 35.5938 1.93442L38.0781 1.95317L38.575 2.23442ZM37.4875 4.36254C37.6094 4.45629 37.6469 4.69067 37.675 5.43129C37.7031 6.48129 37.8531 6.82817 38.4719 7.25004L38.7812 7.46567V9.36879V11.2813H35.4531H32.125V9.37817V7.46567L32.4719 7.24067C33.0438 6.87504 33.2688 6.35004 33.325 5.29066C33.3531 4.78442 33.4188 4.36254 33.475 4.32504C33.6625 4.19379 37.3188 4.24067 37.4875 4.36254ZM16.5906 17.7875C16.9938 17.9469 17.4625 18.5 17.5844 18.9407C17.6406 19.1375 17.6875 19.5782 17.6875 19.925V20.5625H15.9063H14.125V19.7844C14.1344 18.6875 14.3688 18.2 15.1094 17.8157C15.4563 17.6282 16.1875 17.6188 16.5906 17.7875ZM8.125 25.3438V28.7188H7.49688C6.78438 28.7188 6.38125 28.5407 6.09063 28.0907C5.94063 27.8657 5.92188 27.5844 5.92188 25.3344C5.92188 22.9438 5.93125 22.8125 6.11875 22.5594C6.40938 22.1563 6.86875 21.9688 7.54375 21.9688H8.125V25.3438ZM10.5625 26.4219V30.875H10.0469H9.53125V26.4219V21.9688H10.0469H10.5625V26.4219ZM19.825 25.3625L19.8438 28.7188H15.9063H11.9688V25.3438V21.9688L15.8875 21.9875L19.7969 22.0157L19.825 25.3625ZM22.1875 26.4219V30.875H21.7188H21.25V26.4219V21.9688H21.7188H22.1875V26.4219ZM25.1969 22.175C25.8156 22.5219 25.8438 22.6719 25.8438 25.3625C25.8438 27.4813 25.825 27.7719 25.675 28.0532C25.4219 28.5219 24.9906 28.7188 24.2313 28.7188H23.5938V25.3438V21.9688H24.2125C24.6719 21.9688 24.925 22.025 25.1969 22.175ZM11.7625 32.5344L11.7344 32.7969L10.075 32.825L8.40625 32.8438V32.5625V32.2813H10.1031H11.7906L11.7625 32.5344ZM23.4062 32.5625V32.8438H21.7188H20.0312V32.5625V32.2813H21.7188H23.4062V32.5625ZM4.46875 40.8594V44.1875H3.89688C3.35313 44.1875 3.29688 44.1688 2.96875 43.8313C2.50938 43.3813 2.47188 43.0813 2.51875 40.4844C2.54688 38.7125 2.56563 38.4875 2.73438 38.1875C2.97813 37.775 3.45625 37.5313 4.02813 37.5313H4.46875V40.8594ZM28.5438 37.7188C28.7125 37.8219 28.9281 38.0375 29.0313 38.2063C29.2 38.4969 29.2188 38.6844 29.2188 40.8407C29.2188 43.4282 29.1719 43.6719 28.6375 44C28.4219 44.1313 28.1688 44.1875 27.7938 44.1875H27.25V40.8594V37.5313H27.7469C28.0656 37.5313 28.3375 37.5969 28.5438 37.7188ZM30.25 45.9969C30.25 46.85 30.175 47 29.7719 47C29.3781 47 29.2188 46.6907 29.2188 45.9594C29.2188 45.6219 29.2469 45.3125 29.2844 45.2844C29.3125 45.2469 29.5469 45.2188 29.8 45.2188H30.25V45.9969ZM41.6875 45.9407C41.6875 46.7282 41.5563 47 41.1625 47C40.7688 47 40.6562 46.7657 40.6562 45.9594V45.2188H41.1719H41.6875V45.9407Z"/>
</mask>
<path d="M32.5938 0.63129C31.0281 1.08129 29.8938 2.30942 29.5938 3.86567C29.4719 4.54066 29.4719 5.83442 29.6031 6.22816C29.7531 6.66879 30.1094 7.12817 30.4469 7.29692L30.7188 7.44691V9.35942V11.2719L28.2625 11.3L25.7969 11.3282L25.1969 11.6563C24.8125 11.8625 24.4656 12.1438 24.2406 12.4344C23.6219 13.2125 23.5938 13.4188 23.5938 17.2063V20.5625H21.3438H19.0938V19.8782C19.0938 17.75 17.9313 16.3719 16.0469 16.2688C15.4375 16.2407 15.1938 16.2688 14.7625 16.4375C14.0688 16.7 13.3938 17.3094 13.0469 17.9938C12.8031 18.4813 12.7656 18.6594 12.7281 19.55L12.7 20.5625H9.76562C7.27188 20.5625 6.75625 20.5907 6.34375 20.7219C5.70625 20.9282 5.03125 21.5375 4.74063 22.175L4.51563 22.6719L4.4875 27.3969C4.46875 30.7157 4.4875 32.2063 4.5625 32.3844C4.66563 32.6188 4.99375 32.8438 5.25625 32.8438C5.32188 32.8438 5.49063 32.7594 5.63125 32.6469C5.875 32.4594 5.875 32.45 5.875 31.1469C5.875 30.4344 5.88438 29.8438 5.90313 29.8438C5.9125 29.8438 6.12813 29.9094 6.38125 29.9844C6.63438 30.0594 7.13125 30.125 7.4875 30.125H8.125V30.4907C8.125 30.8 8.0875 30.875 7.87188 30.9594C7.55313 31.0719 7.36563 31.2219 7.15938 31.5313C6.925 31.8782 6.93438 33.1625 7.1875 33.5657C7.55313 34.175 7.66563 34.2032 9.925 34.2313C11.8 34.2594 11.9875 34.25 12.3906 34.0719C12.9906 33.8094 13.2344 33.275 13.1594 32.3469C13.1125 31.5782 12.9344 31.2875 12.3625 31.0157C12.0063 30.8469 11.9688 30.8 11.9688 30.4813V30.125L15.8781 30.1438L19.7969 30.1719L19.825 30.5C19.8531 30.8 19.825 30.8469 19.5344 30.95C19.3656 31.0063 19.1031 31.1938 18.9438 31.3532C18.6906 31.6157 18.6719 31.7 18.6438 32.45C18.625 33.1344 18.6438 33.3125 18.8031 33.5657C19.1875 34.175 19.2906 34.2032 21.5781 34.2313C23.575 34.2594 23.65 34.25 24.0531 34.0438C24.6531 33.7344 24.8313 33.3594 24.7938 32.45C24.7563 31.6063 24.5875 31.2969 23.9875 31.0157C23.6313 30.8469 23.5938 30.8 23.5938 30.4813V30.125H24.325C24.7188 30.1157 25.2156 30.0594 25.4219 29.9844C25.6281 29.9094 25.8063 29.8438 25.825 29.8438C25.8344 29.8438 25.8438 33.5 25.8438 37.9625C25.8438 46.8407 25.8719 46.4469 25.3 46.8594C25.0563 47.0469 24.8781 47.0469 16 47.075C7.525 47.0938 6.93438 47.0844 6.63438 46.9344C6.45625 46.8407 6.22188 46.6438 6.11875 46.5032C5.92188 46.2407 5.92188 46.1282 5.89375 40.6719L5.86563 35.1032L5.62188 34.9063C5.05 34.4563 4.46875 34.8688 4.46875 35.7313V36.0969L3.775 36.1532C2.65938 36.2375 1.87188 36.7532 1.40313 37.7L1.14062 38.2344V40.8594V43.4844L1.38438 44C1.8625 45.0313 2.725 45.5938 3.82188 45.5938H4.45L4.51563 46.0344C4.61875 46.7657 4.91875 47.3469 5.425 47.7969C6.25938 48.5469 5.6875 48.5094 16.1031 48.4813L25.3281 48.4532L25.825 48.1719C26.6219 47.7313 27.1 47.0469 27.2313 46.1375C27.2875 45.6875 27.325 45.6407 27.5594 45.6125C27.8031 45.5844 27.8125 45.5938 27.8125 46.0907C27.8125 47.1313 28.2156 47.8532 29.0031 48.2563C29.5938 48.5469 30.5594 48.3875 31.075 47.9094C31.4969 47.525 31.6094 47.1875 31.6563 46.2032L31.7031 45.2657L35.4813 45.2375L39.25 45.2188V46.0907C39.25 47.15 39.4563 47.6375 40.0844 48.0782C40.4406 48.3313 40.5625 48.3594 41.1625 48.3594C42.0344 48.3594 42.4844 48.0969 42.85 47.3657C43.0563 46.9438 43.0938 46.7469 43.0938 46.0532V45.2375L44.1531 45.2C45.0063 45.1719 45.2875 45.125 45.6438 44.9563C46.5531 44.5063 47.1531 43.6625 47.3219 42.575C47.3781 42.2094 47.3969 38.1032 47.3875 31.8782L47.3594 21.7625L47.0969 21.5375C46.7781 21.2657 46.5719 21.2563 46.2438 21.5094L46 21.6969V31.9344C46 37.7469 45.9625 42.3313 45.9062 42.5375C45.8031 42.9875 45.5688 43.325 45.1562 43.6063L44.8469 43.8125H37.7125H30.5781L30.6063 41.1688C30.6438 38.2438 30.6063 37.9907 30.1 37.2407L29.7813 36.7907L29.7625 25.8594L29.7344 14.9188L29.5094 14.7407C29.2281 14.5063 28.7969 14.5157 28.5625 14.75C28.375 14.9375 28.375 15.0594 28.375 25.5313V36.125H27.8125H27.2594L27.2313 29.3L27.2031 22.4844L26.9125 21.9688C26.575 21.3688 25.9844 20.8813 25.4125 20.7313L25 20.6188V17.2438V13.8782L25.2344 13.475C25.3844 13.2125 25.6 13.0157 25.8719 12.8844C26.275 12.6875 26.3313 12.6875 35.4625 12.6875H44.65L45.0625 12.8938C45.5688 13.1563 45.8125 13.475 45.9156 14.0094C45.9531 14.2344 45.9906 15.4625 46 16.7375V19.0532L46.2438 19.2407C46.5719 19.4938 46.7781 19.4844 47.0969 19.2125L47.3594 18.9875V16.325V13.6719L47.0875 13.0907C46.7781 12.4157 46.2063 11.8344 45.55 11.5344C45.1375 11.3469 44.9406 11.3282 42.6531 11.3L40.1875 11.2719V9.35004C40.1875 8.14067 40.225 7.43754 40.2812 7.43754C40.4875 7.43754 41.125 6.74379 41.2656 6.35942C41.5 5.75004 41.425 3.83754 41.1344 3.10629C40.7406 2.08442 39.8313 1.17504 38.8094 0.762543C38.2938 0.565666 38.1344 0.546917 35.6406 0.528168C33.7281 0.518791 32.9031 0.546917 32.5938 0.63129ZM38.575 2.23442C39.1281 2.53442 39.4375 2.85316 39.7469 3.44379C39.9062 3.75317 39.9531 4.03442 39.9813 4.87817C40.0188 5.91879 40.0188 5.91879 39.775 6.07817C39.55 6.22816 39.5125 6.22816 39.2969 6.08754C39.0813 5.94691 39.0625 5.88129 39.0625 5.20629C39.0625 4.25004 38.9313 3.80942 38.5094 3.39692C37.9938 2.88129 37.6656 2.82504 35.2281 2.86254C33.2031 2.89067 33.0906 2.90004 32.7625 3.10629C32.125 3.50004 31.9938 3.79066 31.9375 4.93442C31.8906 5.79692 31.8531 5.97504 31.7031 6.08754C31.4594 6.26567 31.3188 6.25629 31.0844 6.02192C30.8969 5.83442 30.8875 5.74067 30.925 4.85942C30.9719 3.75317 31.1594 3.26567 31.7594 2.66566C32.4625 1.96254 32.7531 1.90629 35.5938 1.93442L38.0781 1.95317L38.575 2.23442ZM37.4875 4.36254C37.6094 4.45629 37.6469 4.69067 37.675 5.43129C37.7031 6.48129 37.8531 6.82817 38.4719 7.25004L38.7812 7.46567V9.36879V11.2813H35.4531H32.125V9.37817V7.46567L32.4719 7.24067C33.0438 6.87504 33.2688 6.35004 33.325 5.29066C33.3531 4.78442 33.4188 4.36254 33.475 4.32504C33.6625 4.19379 37.3188 4.24067 37.4875 4.36254ZM16.5906 17.7875C16.9938 17.9469 17.4625 18.5 17.5844 18.9407C17.6406 19.1375 17.6875 19.5782 17.6875 19.925V20.5625H15.9063H14.125V19.7844C14.1344 18.6875 14.3688 18.2 15.1094 17.8157C15.4563 17.6282 16.1875 17.6188 16.5906 17.7875ZM8.125 25.3438V28.7188H7.49688C6.78438 28.7188 6.38125 28.5407 6.09063 28.0907C5.94063 27.8657 5.92188 27.5844 5.92188 25.3344C5.92188 22.9438 5.93125 22.8125 6.11875 22.5594C6.40938 22.1563 6.86875 21.9688 7.54375 21.9688H8.125V25.3438ZM10.5625 26.4219V30.875H10.0469H9.53125V26.4219V21.9688H10.0469H10.5625V26.4219ZM19.825 25.3625L19.8438 28.7188H15.9063H11.9688V25.3438V21.9688L15.8875 21.9875L19.7969 22.0157L19.825 25.3625ZM22.1875 26.4219V30.875H21.7188H21.25V26.4219V21.9688H21.7188H22.1875V26.4219ZM25.1969 22.175C25.8156 22.5219 25.8438 22.6719 25.8438 25.3625C25.8438 27.4813 25.825 27.7719 25.675 28.0532C25.4219 28.5219 24.9906 28.7188 24.2313 28.7188H23.5938V25.3438V21.9688H24.2125C24.6719 21.9688 24.925 22.025 25.1969 22.175ZM11.7625 32.5344L11.7344 32.7969L10.075 32.825L8.40625 32.8438V32.5625V32.2813H10.1031H11.7906L11.7625 32.5344ZM23.4062 32.5625V32.8438H21.7188H20.0312V32.5625V32.2813H21.7188H23.4062V32.5625ZM4.46875 40.8594V44.1875H3.89688C3.35313 44.1875 3.29688 44.1688 2.96875 43.8313C2.50938 43.3813 2.47188 43.0813 2.51875 40.4844C2.54688 38.7125 2.56563 38.4875 2.73438 38.1875C2.97813 37.775 3.45625 37.5313 4.02813 37.5313H4.46875V40.8594ZM28.5438 37.7188C28.7125 37.8219 28.9281 38.0375 29.0313 38.2063C29.2 38.4969 29.2188 38.6844 29.2188 40.8407C29.2188 43.4282 29.1719 43.6719 28.6375 44C28.4219 44.1313 28.1688 44.1875 27.7938 44.1875H27.25V40.8594V37.5313H27.7469C28.0656 37.5313 28.3375 37.5969 28.5438 37.7188ZM30.25 45.9969C30.25 46.85 30.175 47 29.7719 47C29.3781 47 29.2188 46.6907 29.2188 45.9594C29.2188 45.6219 29.2469 45.3125 29.2844 45.2844C29.3125 45.2469 29.5469 45.2188 29.8 45.2188H30.25V45.9969ZM41.6875 45.9407C41.6875 46.7282 41.5563 47 41.1625 47C40.7688 47 40.6562 46.7657 40.6562 45.9594V45.2188H41.1719H41.6875V45.9407Z" fill="#004155"/>
<path d="M32.5938 0.63129C31.0281 1.08129 29.8938 2.30942 29.5938 3.86567C29.4719 4.54066 29.4719 5.83442 29.6031 6.22816C29.7531 6.66879 30.1094 7.12817 30.4469 7.29692L30.7188 7.44691V9.35942V11.2719L28.2625 11.3L25.7969 11.3282L25.1969 11.6563C24.8125 11.8625 24.4656 12.1438 24.2406 12.4344C23.6219 13.2125 23.5938 13.4188 23.5938 17.2063V20.5625H21.3438H19.0938V19.8782C19.0938 17.75 17.9313 16.3719 16.0469 16.2688C15.4375 16.2407 15.1938 16.2688 14.7625 16.4375C14.0688 16.7 13.3938 17.3094 13.0469 17.9938C12.8031 18.4813 12.7656 18.6594 12.7281 19.55L12.7 20.5625H9.76562C7.27188 20.5625 6.75625 20.5907 6.34375 20.7219C5.70625 20.9282 5.03125 21.5375 4.74063 22.175L4.51563 22.6719L4.4875 27.3969C4.46875 30.7157 4.4875 32.2063 4.5625 32.3844C4.66563 32.6188 4.99375 32.8438 5.25625 32.8438C5.32188 32.8438 5.49063 32.7594 5.63125 32.6469C5.875 32.4594 5.875 32.45 5.875 31.1469C5.875 30.4344 5.88438 29.8438 5.90313 29.8438C5.9125 29.8438 6.12813 29.9094 6.38125 29.9844C6.63438 30.0594 7.13125 30.125 7.4875 30.125H8.125V30.4907C8.125 30.8 8.0875 30.875 7.87188 30.9594C7.55313 31.0719 7.36563 31.2219 7.15938 31.5313C6.925 31.8782 6.93438 33.1625 7.1875 33.5657C7.55313 34.175 7.66563 34.2032 9.925 34.2313C11.8 34.2594 11.9875 34.25 12.3906 34.0719C12.9906 33.8094 13.2344 33.275 13.1594 32.3469C13.1125 31.5782 12.9344 31.2875 12.3625 31.0157C12.0063 30.8469 11.9688 30.8 11.9688 30.4813V30.125L15.8781 30.1438L19.7969 30.1719L19.825 30.5C19.8531 30.8 19.825 30.8469 19.5344 30.95C19.3656 31.0063 19.1031 31.1938 18.9438 31.3532C18.6906 31.6157 18.6719 31.7 18.6438 32.45C18.625 33.1344 18.6438 33.3125 18.8031 33.5657C19.1875 34.175 19.2906 34.2032 21.5781 34.2313C23.575 34.2594 23.65 34.25 24.0531 34.0438C24.6531 33.7344 24.8313 33.3594 24.7938 32.45C24.7563 31.6063 24.5875 31.2969 23.9875 31.0157C23.6313 30.8469 23.5938 30.8 23.5938 30.4813V30.125H24.325C24.7188 30.1157 25.2156 30.0594 25.4219 29.9844C25.6281 29.9094 25.8063 29.8438 25.825 29.8438C25.8344 29.8438 25.8438 33.5 25.8438 37.9625C25.8438 46.8407 25.8719 46.4469 25.3 46.8594C25.0563 47.0469 24.8781 47.0469 16 47.075C7.525 47.0938 6.93438 47.0844 6.63438 46.9344C6.45625 46.8407 6.22188 46.6438 6.11875 46.5032C5.92188 46.2407 5.92188 46.1282 5.89375 40.6719L5.86563 35.1032L5.62188 34.9063C5.05 34.4563 4.46875 34.8688 4.46875 35.7313V36.0969L3.775 36.1532C2.65938 36.2375 1.87188 36.7532 1.40313 37.7L1.14062 38.2344V40.8594V43.4844L1.38438 44C1.8625 45.0313 2.725 45.5938 3.82188 45.5938H4.45L4.51563 46.0344C4.61875 46.7657 4.91875 47.3469 5.425 47.7969C6.25938 48.5469 5.6875 48.5094 16.1031 48.4813L25.3281 48.4532L25.825 48.1719C26.6219 47.7313 27.1 47.0469 27.2313 46.1375C27.2875 45.6875 27.325 45.6407 27.5594 45.6125C27.8031 45.5844 27.8125 45.5938 27.8125 46.0907C27.8125 47.1313 28.2156 47.8532 29.0031 48.2563C29.5938 48.5469 30.5594 48.3875 31.075 47.9094C31.4969 47.525 31.6094 47.1875 31.6563 46.2032L31.7031 45.2657L35.4813 45.2375L39.25 45.2188V46.0907C39.25 47.15 39.4563 47.6375 40.0844 48.0782C40.4406 48.3313 40.5625 48.3594 41.1625 48.3594C42.0344 48.3594 42.4844 48.0969 42.85 47.3657C43.0563 46.9438 43.0938 46.7469 43.0938 46.0532V45.2375L44.1531 45.2C45.0063 45.1719 45.2875 45.125 45.6438 44.9563C46.5531 44.5063 47.1531 43.6625 47.3219 42.575C47.3781 42.2094 47.3969 38.1032 47.3875 31.8782L47.3594 21.7625L47.0969 21.5375C46.7781 21.2657 46.5719 21.2563 46.2438 21.5094L46 21.6969V31.9344C46 37.7469 45.9625 42.3313 45.9062 42.5375C45.8031 42.9875 45.5688 43.325 45.1562 43.6063L44.8469 43.8125H37.7125H30.5781L30.6063 41.1688C30.6438 38.2438 30.6063 37.9907 30.1 37.2407L29.7813 36.7907L29.7625 25.8594L29.7344 14.9188L29.5094 14.7407C29.2281 14.5063 28.7969 14.5157 28.5625 14.75C28.375 14.9375 28.375 15.0594 28.375 25.5313V36.125H27.8125H27.2594L27.2313 29.3L27.2031 22.4844L26.9125 21.9688C26.575 21.3688 25.9844 20.8813 25.4125 20.7313L25 20.6188V17.2438V13.8782L25.2344 13.475C25.3844 13.2125 25.6 13.0157 25.8719 12.8844C26.275 12.6875 26.3313 12.6875 35.4625 12.6875H44.65L45.0625 12.8938C45.5688 13.1563 45.8125 13.475 45.9156 14.0094C45.9531 14.2344 45.9906 15.4625 46 16.7375V19.0532L46.2438 19.2407C46.5719 19.4938 46.7781 19.4844 47.0969 19.2125L47.3594 18.9875V16.325V13.6719L47.0875 13.0907C46.7781 12.4157 46.2063 11.8344 45.55 11.5344C45.1375 11.3469 44.9406 11.3282 42.6531 11.3L40.1875 11.2719V9.35004C40.1875 8.14067 40.225 7.43754 40.2812 7.43754C40.4875 7.43754 41.125 6.74379 41.2656 6.35942C41.5 5.75004 41.425 3.83754 41.1344 3.10629C40.7406 2.08442 39.8313 1.17504 38.8094 0.762543C38.2938 0.565666 38.1344 0.546917 35.6406 0.528168C33.7281 0.518791 32.9031 0.546917 32.5938 0.63129ZM38.575 2.23442C39.1281 2.53442 39.4375 2.85316 39.7469 3.44379C39.9062 3.75317 39.9531 4.03442 39.9813 4.87817C40.0188 5.91879 40.0188 5.91879 39.775 6.07817C39.55 6.22816 39.5125 6.22816 39.2969 6.08754C39.0813 5.94691 39.0625 5.88129 39.0625 5.20629C39.0625 4.25004 38.9313 3.80942 38.5094 3.39692C37.9938 2.88129 37.6656 2.82504 35.2281 2.86254C33.2031 2.89067 33.0906 2.90004 32.7625 3.10629C32.125 3.50004 31.9938 3.79066 31.9375 4.93442C31.8906 5.79692 31.8531 5.97504 31.7031 6.08754C31.4594 6.26567 31.3188 6.25629 31.0844 6.02192C30.8969 5.83442 30.8875 5.74067 30.925 4.85942C30.9719 3.75317 31.1594 3.26567 31.7594 2.66566C32.4625 1.96254 32.7531 1.90629 35.5938 1.93442L38.0781 1.95317L38.575 2.23442ZM37.4875 4.36254C37.6094 4.45629 37.6469 4.69067 37.675 5.43129C37.7031 6.48129 37.8531 6.82817 38.4719 7.25004L38.7812 7.46567V9.36879V11.2813H35.4531H32.125V9.37817V7.46567L32.4719 7.24067C33.0438 6.87504 33.2688 6.35004 33.325 5.29066C33.3531 4.78442 33.4188 4.36254 33.475 4.32504C33.6625 4.19379 37.3188 4.24067 37.4875 4.36254ZM16.5906 17.7875C16.9938 17.9469 17.4625 18.5 17.5844 18.9407C17.6406 19.1375 17.6875 19.5782 17.6875 19.925V20.5625H15.9063H14.125V19.7844C14.1344 18.6875 14.3688 18.2 15.1094 17.8157C15.4563 17.6282 16.1875 17.6188 16.5906 17.7875ZM8.125 25.3438V28.7188H7.49688C6.78438 28.7188 6.38125 28.5407 6.09063 28.0907C5.94063 27.8657 5.92188 27.5844 5.92188 25.3344C5.92188 22.9438 5.93125 22.8125 6.11875 22.5594C6.40938 22.1563 6.86875 21.9688 7.54375 21.9688H8.125V25.3438ZM10.5625 26.4219V30.875H10.0469H9.53125V26.4219V21.9688H10.0469H10.5625V26.4219ZM19.825 25.3625L19.8438 28.7188H15.9063H11.9688V25.3438V21.9688L15.8875 21.9875L19.7969 22.0157L19.825 25.3625ZM22.1875 26.4219V30.875H21.7188H21.25V26.4219V21.9688H21.7188H22.1875V26.4219ZM25.1969 22.175C25.8156 22.5219 25.8438 22.6719 25.8438 25.3625C25.8438 27.4813 25.825 27.7719 25.675 28.0532C25.4219 28.5219 24.9906 28.7188 24.2313 28.7188H23.5938V25.3438V21.9688H24.2125C24.6719 21.9688 24.925 22.025 25.1969 22.175ZM11.7625 32.5344L11.7344 32.7969L10.075 32.825L8.40625 32.8438V32.5625V32.2813H10.1031H11.7906L11.7625 32.5344ZM23.4062 32.5625V32.8438H21.7188H20.0312V32.5625V32.2813H21.7188H23.4062V32.5625ZM4.46875 40.8594V44.1875H3.89688C3.35313 44.1875 3.29688 44.1688 2.96875 43.8313C2.50938 43.3813 2.47188 43.0813 2.51875 40.4844C2.54688 38.7125 2.56563 38.4875 2.73438 38.1875C2.97813 37.775 3.45625 37.5313 4.02813 37.5313H4.46875V40.8594ZM28.5438 37.7188C28.7125 37.8219 28.9281 38.0375 29.0313 38.2063C29.2 38.4969 29.2188 38.6844 29.2188 40.8407C29.2188 43.4282 29.1719 43.6719 28.6375 44C28.4219 44.1313 28.1688 44.1875 27.7938 44.1875H27.25V40.8594V37.5313H27.7469C28.0656 37.5313 28.3375 37.5969 28.5438 37.7188ZM30.25 45.9969C30.25 46.85 30.175 47 29.7719 47C29.3781 47 29.2188 46.6907 29.2188 45.9594C29.2188 45.6219 29.2469 45.3125 29.2844 45.2844C29.3125 45.2469 29.5469 45.2188 29.8 45.2188H30.25V45.9969ZM41.6875 45.9407C41.6875 46.7282 41.5563 47 41.1625 47C40.7688 47 40.6562 46.7657 40.6562 45.9594V45.2188H41.1719H41.6875V45.9407Z" stroke="#004155" stroke-width="0.6" mask="url(#path-1-outside-1_601_14202)"/>
<path d="M32.4906 14.9189V14.8463L32.5475 14.8013L32.7711 14.6242C33.1053 14.3471 33.6238 14.3493 33.9186 14.6441C33.9492 14.6747 33.9855 14.7142 34.014 14.787C34.0393 14.8513 34.0563 14.936 34.07 15.0566C34.0973 15.2988 34.1148 15.7307 34.1265 16.5398C34.15 18.1615 34.15 21.3262 34.15 27.5901V27.5939V27.5977C34.15 33.8615 34.15 37.0262 34.1265 38.648C34.1148 39.457 34.0973 39.889 34.07 40.1312C34.0563 40.2517 34.0393 40.3365 34.014 40.4008C33.9855 40.4736 33.9492 40.5131 33.9186 40.5437C33.6238 40.8384 33.1053 40.8407 32.7711 40.5635L32.5475 40.3865L32.4906 40.3414V40.2689V27.5939V14.9189Z" fill="#004155" stroke="#004155" stroke-width="0.3"/>
<path d="M36.9847 14.7143L36.9853 14.7136C37.2897 14.3273 37.8331 14.316 38.1988 14.6588C38.199 14.6591 38.1993 14.6593 38.1996 14.6596L38.4136 14.855L38.4625 14.8996V14.9658V27.5845V40.1939V40.2541L38.4209 40.2976L38.2159 40.5119C37.8726 40.8878 37.2962 40.8657 36.9857 40.4747L36.9857 40.4747L36.9847 40.4735L36.7878 40.2204L36.7562 40.1798V40.1283V27.5939V15.0595V15.0081L36.7878 14.9674L36.9847 14.7143L36.9847 14.7143Z" fill="#004155" stroke="#004155" stroke-width="0.3"/>
<path d="M41.0687 14.9939V14.9337L41.1104 14.8902L41.3153 14.6759C41.6587 14.2999 42.2351 14.322 42.5456 14.7131L42.5465 14.7143L42.7434 14.9674L42.775 15.008V15.0595V27.6126V40.1657V40.2297L42.7289 40.2739L42.4964 40.4971C42.3324 40.6656 42.1309 40.7598 41.9202 40.7657C41.7089 40.7716 41.5031 40.6883 41.3326 40.529L41.1176 40.3328L41.0687 40.2881V40.222V27.6032V14.9939Z" fill="#004155" stroke="#004155" stroke-width="0.3"/>
<path d="M22.1969 44.4783C21.9719 44.5439 19.7969 44.5626 15.6625 44.5439L9.46563 44.5158L22.1969 44.4783ZM22.1969 44.4783C22.675 44.3376 23.0219 44.0283 23.2281 43.5876L22.1969 44.4783ZM9.3731 44.6338L9.02687 44.3625L8.60313 36.8751C8.83751 36.5001 8.99688 36.3595 9.39063 36.172L9.32572 36.0368C9.32586 36.0367 9.326 36.0367 9.32614 36.0366C9.41333 35.9949 9.55094 35.9719 9.76422 35.9548C9.98538 35.9371 10.311 35.9248 10.792 35.9166C11.7548 35.9001 13.3525 35.9001 16.0098 35.9095C16.0099 35.9095 16.0099 35.9095 16.0099 35.9095L22.3473 35.9283L22.3989 35.9284L22.4394 35.9602L22.7852 36.2312C22.9557 36.3597 23.1024 36.4775 23.2157 36.6355C23.3314 36.7968 23.4054 36.9895 23.4543 37.2598C23.5499 37.7887 23.5563 38.6641 23.5563 40.297C23.5563 41.6079 23.5516 42.3486 23.5267 42.8048C23.5016 43.265 23.4553 43.4526 23.3644 43.6503L23.364 43.6512C23.1402 44.1294 22.76 44.469 22.2392 44.6222L22.2389 44.6223C22.1931 44.6356 22.1186 44.6437 22.0324 44.6503C21.9405 44.6572 21.8186 44.6634 21.6677 44.6687C21.3656 44.6795 20.9419 44.6874 20.3972 44.6927C19.3074 44.7033 17.7292 44.7033 15.6618 44.6939L9.46495 44.6658L9.41355 44.6655L9.3731 44.6338ZM10.0044 37.5956C10.0044 37.5956 10.0043 37.5962 10.0041 37.5976L10.0044 37.5956ZM9.9984 37.6645C9.99601 37.7047 9.99378 37.7583 9.99173 37.8246C9.98709 37.975 9.98359 38.1859 9.98125 38.4421C9.97657 38.9543 9.97657 39.6448 9.98125 40.3895C9.98125 40.3896 9.98125 40.3897 9.98125 40.3898L10.0078 42.9602L15.8035 42.9876C15.8035 42.9876 15.8036 42.9876 15.8037 42.9876C17.9786 42.9923 19.4704 42.99 20.4312 42.9771C20.9119 42.9707 21.2578 42.9616 21.4894 42.9496C21.6055 42.9436 21.6902 42.937 21.7477 42.9299C21.7594 42.9285 21.7695 42.9271 21.7782 42.9258C21.7826 42.9104 21.7875 42.8889 21.7924 42.8591C21.8067 42.7726 21.8179 42.6376 21.8255 42.4291C21.8406 42.0135 21.8406 41.3303 21.8313 40.2139L21.8047 37.6338L15.9244 37.6064C15.9244 37.6064 15.9243 37.6064 15.9243 37.6064L9.9984 37.6645ZM21.8156 42.9182C21.8155 42.9182 21.8148 42.9184 21.8134 42.9189L21.8156 42.9182Z" fill="#004155" stroke="#004155" stroke-width="0.3"/>
</svg>
