<svg width="40" height="40" viewBox="0 0 40 40" fill="none" xmlns="http://www.w3.org/2000/svg">
<rect width="40" height="40" rx="4" fill="white" fill-opacity="0.5"/>
<path d="M26.0018 18C26.7929 18 27.5663 17.7654 28.2241 17.3259C28.8819 16.8864 29.3946 16.2616 29.6973 15.5307C30.0001 14.7998 30.0793 13.9956 29.9249 13.2196C29.7706 12.4437 29.3896 11.731 28.8302 11.1716C28.2708 10.6122 27.5581 10.2312 26.7822 10.0769C26.0062 9.92252 25.202 10.0017 24.4711 10.3045C23.7402 10.6072 23.1154 11.1199 22.6759 11.7777C22.2364 12.4355 22.0018 13.2089 22.0018 14C22.0018 15.0609 22.4232 16.0783 23.1734 16.8284C23.9235 17.5786 24.9409 18 26.0018 18ZM26.0018 12C26.3974 12 26.784 12.1173 27.1129 12.3371C27.4418 12.5568 27.6982 12.8692 27.8496 13.2346C28.0009 13.6001 28.0405 14.0022 27.9634 14.3902C27.8862 14.7781 27.6957 15.1345 27.416 15.4142C27.1363 15.6939 26.7799 15.8844 26.392 15.9616C26.004 16.0387 25.6019 15.9991 25.2364 15.8478C24.871 15.6964 24.5586 15.44 24.3389 15.1111C24.1191 14.7822 24.0018 14.3956 24.0018 14C24.0018 13.4696 24.2125 12.9609 24.5876 12.5858C24.9627 12.2107 25.4714 12 26.0018 12ZM24.8518 20.47C24.7621 20.3253 24.637 20.2059 24.4882 20.1231C24.3395 20.0402 24.172 19.9968 24.0018 19.9968C23.8316 19.9968 23.6641 20.0402 23.5154 20.1231C23.3666 20.2059 23.2415 20.3253 23.1518 20.47L22.1518 22.1L18.8618 16.5C18.7733 16.3508 18.6474 16.2272 18.4966 16.1413C18.3458 16.0554 18.1753 16.0103 18.0018 16.0103C17.8283 16.0103 17.6578 16.0554 17.507 16.1413C17.3562 16.2272 17.2303 16.3508 17.1418 16.5L10.1418 28.5C10.0543 28.6516 10.0081 28.8235 10.0078 28.9985C10.0075 29.1735 10.0532 29.3456 10.1403 29.4974C10.2273 29.6492 10.3527 29.7756 10.5039 29.8638C10.6551 29.952 10.8268 29.9989 11.0018 30H29.0018C29.1805 30.0004 29.356 29.9528 29.5101 29.8624C29.6642 29.7719 29.7912 29.6418 29.878 29.4856C29.9647 29.3295 30.0081 29.1529 30.0035 28.9743C29.9989 28.7956 29.9465 28.6215 29.8518 28.47L24.8518 20.47ZM18.4518 28H12.7418L18.0018 19L20.9418 24L19.6918 26L18.4518 28ZM20.8018 28L22.2918 25.63L23.0018 24.57L24.0018 22.89L27.2018 28H20.8018Z" fill="#1F677D"/>
</svg>
