<svg width="130" height="45" viewBox="0 0 130 45" fill="none" xmlns="http://www.w3.org/2000/svg">
<path d="M73.236 24.0256C73.1951 23.8658 73.1394 23.7098 73.0614 23.5613C72.9872 23.4238 72.8906 23.3013 72.7717 23.1973C72.6566 23.0933 72.5192 23.0116 72.3743 22.9596C72.1997 22.9001 72.0177 22.8741 71.8357 22.8778C71.3083 22.8593 70.818 23.1193 70.532 23.5613C70.3983 23.7804 70.3017 24.0218 70.246 24.2707C70.116 24.8056 70.116 25.359 70.246 25.8938C70.3017 26.1427 70.3983 26.3841 70.532 26.5996C70.8143 27.0416 71.3083 27.2978 71.8357 27.2867C72.0326 27.2867 72.2257 27.2458 72.4077 27.1678C72.5749 27.0898 72.7197 26.9821 72.8386 26.8447C72.9612 26.7036 73.0614 26.5401 73.1246 26.3618C73.1989 26.1687 73.2397 25.9756 73.2583 25.7713H74.2129C74.198 26.0981 74.1237 26.4176 73.9937 26.7221C73.8823 26.997 73.7151 27.2496 73.5034 27.4613C73.288 27.6693 73.0354 27.829 72.7606 27.933C72.4634 28.0481 72.1477 28.1076 71.832 28.1038C71.442 28.1113 71.0557 28.0258 70.7066 27.8661C70.3797 27.7138 70.0937 27.491 69.8634 27.2161C69.6294 26.9301 69.4512 26.6033 69.3323 26.2504C69.0872 25.489 69.0872 24.6681 69.3323 23.9104C69.4474 23.5576 69.6257 23.2307 69.8634 22.9484C70.3463 22.3653 71.0669 22.031 71.8283 22.0496C72.1254 22.0496 72.4226 22.0904 72.7123 22.1833C72.976 22.265 73.2249 22.3987 73.444 22.5696C73.6557 22.7404 73.8303 22.9521 73.9566 23.1898C74.0903 23.4498 74.172 23.7321 74.198 24.0256H73.2249H73.236Z" fill="white"/>
<path d="M75.109 22.1863H77.7796C78.2773 22.1455 78.7713 22.2941 79.165 22.5986C79.4807 22.8958 79.6516 23.3192 79.6256 23.7538C79.633 23.9841 79.5921 24.2181 79.5104 24.4372C79.4361 24.6006 79.3433 24.7492 79.2207 24.8755C79.1353 24.9721 79.0313 25.0538 78.9161 25.1132C78.8121 25.1615 78.7379 25.1912 78.6896 25.2098V25.2283C78.7824 25.2395 78.8753 25.2692 78.9607 25.3063C79.0647 25.3546 79.1576 25.4252 79.2319 25.5143C79.321 25.6221 79.3916 25.7483 79.4361 25.8858C79.503 26.0715 79.529 26.2683 79.5216 26.4615C79.5178 26.7698 79.5439 27.0818 79.5959 27.3901C79.6219 27.6055 79.6999 27.8061 79.8261 27.9806H78.7898C78.7156 27.8581 78.6747 27.7169 78.6598 27.5721C78.645 27.4198 78.6376 27.2749 78.6376 27.1338C78.645 26.9035 78.6264 26.6769 78.593 26.4503C78.5707 26.2795 78.5113 26.1161 78.4184 25.9712C78.3404 25.8412 78.2178 25.7409 78.0767 25.6815C77.9021 25.6146 77.7127 25.5886 77.527 25.5961H76.0821V27.9769H75.1016L75.109 22.1863ZM76.097 24.8161H77.7053C77.9616 24.8346 78.2179 24.7492 78.4184 24.5858C78.593 24.4001 78.6784 24.1512 78.6561 23.8949C78.6636 23.7389 78.6339 23.5866 78.5781 23.4455C78.5336 23.3378 78.463 23.2449 78.3627 23.1743C78.2698 23.1075 78.1621 23.0629 78.047 23.0443C77.9319 23.0221 77.8093 23.0146 77.683 23.0146H76.0933V24.8161H76.097Z" fill="white"/>
<path d="M80.5592 22.1875H81.5398V25.5601C81.5398 25.7495 81.5472 25.9464 81.5658 26.1469C81.5807 26.3364 81.6364 26.5221 81.7218 26.6892C81.8147 26.8489 81.9521 26.9826 82.1118 27.0718C82.5835 27.2761 83.1184 27.2761 83.5901 27.0718C83.7573 26.9789 83.8947 26.8415 83.9838 26.6818C84.0693 26.5146 84.125 26.3289 84.1398 26.1395C84.1584 25.9426 84.1695 25.7458 84.1658 25.5489V22.1875H85.1464V25.8906C85.1538 26.2212 85.0981 26.5518 84.983 26.8601C84.8827 27.1238 84.723 27.3615 84.515 27.5584C84.307 27.7478 84.0618 27.8889 83.7944 27.9706C83.1778 28.1564 82.5241 28.1564 81.915 27.9706C81.6438 27.8889 81.395 27.7441 81.1907 27.5584C80.9827 27.3615 80.823 27.1275 80.7227 26.8601C80.6075 26.5518 80.5518 26.2212 80.5592 25.8906V22.1875Z" fill="white"/>
<path d="M86.2793 22.1875H87.2599V27.9669H86.2793V22.1875Z" fill="white"/>
<path d="M89.1094 26.0397C89.102 26.2403 89.1429 26.4372 89.2209 26.6192C89.2914 26.7714 89.3954 26.9014 89.5291 27.0054C89.6591 27.1057 89.8114 27.18 89.9786 27.2246C90.1569 27.2729 90.3426 27.2989 90.5283 27.2952C90.714 27.2989 90.8997 27.2729 91.0743 27.2172C91.208 27.1726 91.3306 27.1094 91.442 27.0129C91.5349 26.9386 91.6054 26.8383 91.65 26.7269C91.6909 26.6266 91.7131 26.5189 91.7131 26.4074C91.728 26.2292 91.676 26.0546 91.572 25.9172C91.4866 25.8206 91.3751 25.7426 91.2563 25.6906C91.026 25.6126 90.7994 25.5383 90.558 25.4789C90.298 25.412 89.9711 25.3266 89.5849 25.2189C89.3731 25.1632 89.1726 25.0777 88.9869 24.9626C88.8383 24.8697 88.712 24.7472 88.6043 24.6097C88.5151 24.4872 88.4446 24.346 88.4037 24.1974C88.3629 24.0489 88.3443 23.9003 88.3443 23.748C88.3406 23.4843 88.4 23.2243 88.5226 22.9903C88.634 22.7786 88.7937 22.5966 88.9869 22.4517C89.1874 22.3106 89.4066 22.2103 89.648 22.1472C89.8857 22.0803 90.142 22.0469 90.3871 22.0469C90.6694 22.0469 90.9443 22.0877 91.2154 22.1657C91.4643 22.24 91.6946 22.3589 91.8989 22.5186C92.0957 22.6746 92.2554 22.8714 92.3669 23.0943C92.482 23.3469 92.5414 23.6217 92.5303 23.8966H91.5497C91.5571 23.5883 91.4197 23.2986 91.1783 23.1092C90.9331 22.9494 90.636 22.8677 90.3389 22.8789C90.22 22.8789 90.1049 22.89 89.986 22.916C89.8671 22.942 89.7594 22.9792 89.6591 23.0386C89.5589 23.0943 89.4697 23.176 89.4103 23.2689C89.3397 23.3766 89.31 23.5029 89.3137 23.6329C89.3063 23.8112 89.3731 23.9894 89.4994 24.1157C89.6369 24.2383 89.8003 24.3312 89.9823 24.3794L90.22 24.4463L90.7029 24.58L91.2266 24.7174L91.5906 24.8177C91.7614 24.8734 91.9249 24.9552 92.0697 25.0592C92.2034 25.1557 92.3149 25.2783 92.4114 25.412C92.5006 25.542 92.5711 25.6832 92.6194 25.8354C92.8163 26.5226 92.56 27.2617 91.988 27.6814C91.7689 27.8263 91.5311 27.934 91.2749 28.0009C91.0111 28.0677 90.7326 28.1012 90.4577 28.1012C90.1531 28.1012 89.8523 28.0603 89.5589 27.9786C89.2914 27.9043 89.0426 27.778 88.8271 27.6072C88.608 27.4326 88.4409 27.2134 88.322 26.9609C88.192 26.6712 88.1214 26.3517 88.1251 26.0323H89.0983L89.1094 26.0397Z" fill="white"/>
<path d="M93.5332 22.1875H97.5669V23.0529H94.5063V24.5758H97.3292V25.4041H94.5063V27.0978H97.6115V27.9595H93.5332V22.1949V22.1875Z" fill="white"/>
<path d="M100.643 22.1875H101.623V27.0904H104.468V27.9521H100.646L100.643 22.1875Z" fill="white"/>
<path d="M105.133 22.1875H106.121V27.9669H105.14V22.1875H105.133Z" fill="white"/>
<path d="M107.273 22.1875H108.305L110.861 26.4478V22.1875H111.793V27.9669H110.757L108.212 23.7104H108.186V27.9632H107.258V22.1986L107.273 22.1875Z" fill="white"/>
<path d="M112.963 22.1875H117V23.0529H113.94V24.5758H116.763V25.4041H113.94V27.0978H117.037V27.9595H112.963V22.1949V22.1875Z" fill="white"/>
<path d="M118.538 26.0393C118.53 26.2399 118.567 26.4331 118.645 26.6151C118.72 26.7673 118.82 26.8973 118.95 27.0013C119.087 27.1016 119.24 27.1759 119.399 27.2205C119.581 27.2688 119.771 27.2948 119.953 27.2911C120.138 27.2948 120.328 27.2688 120.499 27.2131C120.636 27.1685 120.759 27.1053 120.87 27.0088C120.959 26.9345 121.03 26.8342 121.074 26.7228C121.119 26.6225 121.141 26.5148 121.141 26.4033C121.156 26.2251 121.104 26.0505 120.996 25.9131C120.911 25.8165 120.8 25.7385 120.677 25.6865C120.45 25.6085 120.22 25.5342 119.986 25.4748C119.726 25.4079 119.399 25.3225 119.013 25.2148C118.798 25.1591 118.597 25.0736 118.411 24.9585C118.266 24.8656 118.136 24.7431 118.029 24.6056C117.94 24.4831 117.873 24.3419 117.828 24.1933C117.791 24.0448 117.769 23.8962 117.769 23.7439C117.761 23.4802 117.824 23.2202 117.947 22.9862C118.058 22.7745 118.218 22.5925 118.415 22.4476C118.612 22.3065 118.835 22.2025 119.072 22.1393C119.314 22.0725 119.563 22.0391 119.815 22.0391C120.094 22.0391 120.372 22.0762 120.644 22.1579C120.889 22.2322 121.123 22.3511 121.327 22.5108C121.524 22.6668 121.684 22.8636 121.791 23.0865C121.91 23.3353 121.973 23.6102 121.966 23.8851H120.985C120.993 23.5805 120.855 23.2871 120.614 23.0976C120.369 22.9379 120.072 22.8562 119.774 22.8673C119.656 22.8673 119.54 22.8785 119.422 22.9045C119.303 22.9305 119.195 22.9676 119.091 23.0271C118.994 23.0828 118.905 23.1645 118.846 23.2573C118.775 23.3651 118.742 23.4913 118.749 23.6213C118.738 23.7996 118.809 23.9742 118.931 24.1005C119.069 24.2268 119.236 24.3159 119.418 24.3605L119.663 24.4348L120.142 24.5648L120.666 24.7059L121.03 24.8062C121.204 24.8619 121.364 24.9399 121.509 25.0476C121.639 25.1405 121.754 25.2668 121.851 25.3968C121.94 25.5268 122.01 25.6716 122.055 25.8239C122.256 26.5073 122.003 27.2465 121.424 27.6662C121.208 27.8148 120.967 27.9225 120.714 27.9856C120.447 28.0525 120.172 28.0859 119.901 28.0859C119.596 28.0859 119.292 28.0451 119.002 27.9633C118.734 27.8891 118.482 27.7665 118.263 27.5919C118.051 27.4173 117.876 27.2019 117.761 26.9493C117.631 26.6559 117.564 26.3402 117.564 26.0208H118.545L118.538 26.0393Z" fill="white"/>
<path d="M69.4688 30.4785H70.453V36.2617H69.4688V30.4785Z" fill="white"/>
<path d="M71.5938 30.4785H72.6412L75.1966 34.7351V30.4785H76.1363V36.2617H75.1L72.5558 32.0088H72.5298V36.2617H71.6012V30.4785H71.5938Z" fill="white"/>
<path d="M76.7557 30.4785H81.2908V31.3402H79.5042V36.2431H78.5237V31.3402H76.752L76.7557 30.4785Z" fill="white"/>
<path d="M81.9336 30.4785H85.9673V31.3402H82.9142V32.8557H85.7333V33.6839H82.9142V35.3739H86.0119V36.2357H81.9336V30.4785Z" fill="white"/>
<path d="M86.865 30.4784H89.5356C90.0333 30.4412 90.5273 30.5861 90.921 30.8907C91.2405 31.1878 91.4076 31.6075 91.3816 32.0458C91.389 32.2761 91.3482 32.5101 91.2628 32.7292C91.1959 32.8889 91.0956 33.0412 90.9768 33.1638C90.8913 33.2641 90.7836 33.3458 90.6685 33.4015C90.5682 33.4535 90.4939 33.4832 90.4456 33.5018C90.5385 33.5167 90.6313 33.5427 90.7168 33.5798C90.817 33.6318 90.9136 33.6987 90.9842 33.7878C91.077 33.8955 91.1476 34.0218 91.1959 34.1592C91.2553 34.3449 91.2813 34.5418 91.2739 34.7349C91.2739 35.0469 91.2999 35.3552 91.3519 35.6635C91.3742 35.8789 91.4522 36.0832 91.5822 36.2578H90.5496C90.4753 36.1278 90.4345 35.9904 90.4196 35.8455C90.4085 35.6932 90.401 35.5484 90.401 35.4072C90.4048 35.1769 90.3899 34.9504 90.3528 34.7201C90.3305 34.5529 90.2748 34.3895 90.1782 34.2409C90.1002 34.1146 89.9813 34.0144 89.8402 33.9549C89.6619 33.8881 89.4725 33.8621 89.2868 33.8658H87.8456V36.2504H86.8613L86.865 30.4784ZM87.8419 33.1118H89.4502C89.7065 33.1266 89.9628 33.0449 90.1596 32.8815C90.3342 32.6921 90.4196 32.4469 90.401 32.1869C90.4085 32.0347 90.3788 31.8787 90.323 31.7375C90.2822 31.6298 90.2042 31.5369 90.1113 31.4626C90.0185 31.3958 89.9108 31.3549 89.7956 31.3364C89.6768 31.3141 89.5579 31.3029 89.4316 31.3029H87.8419V33.1155V33.1118Z" fill="white"/>
<path d="M92.3371 30.4785H93.3697L95.9251 34.7351V30.4785H96.8574V36.2617H95.8248L93.2768 32.0088H93.2545V36.2617H92.3223V30.4785H92.3371Z" fill="white"/>
<path d="M99.5238 30.4785H100.564L102.718 36.2617H101.671L101.143 34.7314H98.911L98.3835 36.2617H97.377L99.5238 30.4785ZM99.1784 33.9588H100.891L100.066 31.4739H100.044L99.1784 33.9588Z" fill="white"/>
<path d="M102.002 30.4785H106.526V31.3402H104.747V36.2431H103.774V31.3402H102.002V30.4785Z" fill="white"/>
<path d="M107.176 30.4785H108.156V36.2617H107.176V30.4785Z" fill="white"/>
<path d="M111.734 30.3403C112.491 30.3255 113.212 30.6597 113.698 31.2392C113.929 31.5252 114.111 31.852 114.23 32.2049C114.471 32.9663 114.471 33.7872 114.23 34.5486C114.114 34.8977 113.932 35.2246 113.698 35.5069C113.468 35.7818 113.182 36.0083 112.855 36.1606C112.138 36.48 111.321 36.48 110.608 36.1606C110.281 36.0083 109.999 35.7818 109.765 35.5069C109.531 35.2246 109.353 34.8977 109.234 34.5486C108.992 33.7872 108.992 32.9663 109.234 32.2049C109.349 31.852 109.527 31.5252 109.765 31.2392C110.255 30.6597 110.976 30.3255 111.734 30.3403ZM111.734 31.1649C111.21 31.15 110.716 31.41 110.434 31.852C110.296 32.0712 110.203 32.3126 110.144 32.5577C110.014 33.0926 110.014 33.646 110.144 34.1809C110.203 34.4297 110.296 34.6712 110.434 34.8866C110.905 35.6035 111.871 35.8003 112.584 35.3286C112.762 35.2135 112.911 35.0649 113.022 34.8866C113.16 34.6675 113.256 34.4297 113.312 34.1809C113.442 33.646 113.442 33.0926 113.312 32.5577C113.256 32.3126 113.16 32.0712 113.022 31.852C112.748 31.4137 112.257 31.15 111.734 31.1649Z" fill="white"/>
<path d="M115.266 30.4785H116.294L118.85 34.7351V30.4785H119.782V36.2617H118.761L116.205 32.0088V36.2617H115.269L115.266 30.4785Z" fill="white"/>
<path d="M122.457 30.4785H123.494L125.648 36.2617H124.597L124.073 34.7314H121.841L121.313 36.2617H120.307L122.457 30.4785ZM122.108 33.9588H123.813L122.977 31.4739H122.951L122.108 33.9588Z" fill="white"/>
<path d="M126.182 30.4785H127.162V35.3777H130.011V36.2431H126.185L126.182 30.4785Z" fill="white"/>
<path d="M70.9515 38.5781H71.9915L74.1458 44.3613H73.0984L72.571 42.831H70.335L69.8113 44.3613H68.8047L70.9515 38.5781ZM70.6061 42.0547H72.3147L71.4901 39.5661H71.4641L70.6061 42.0547Z" fill="white"/>
<path d="M75.3222 42.4462C75.3147 42.6468 75.3519 42.8436 75.4299 43.0256C75.5005 43.1742 75.6045 43.3042 75.7345 43.4082C75.8719 43.5085 76.0242 43.5865 76.1839 43.6311C76.3659 43.6756 76.5553 43.7016 76.7373 43.6979C76.923 43.6979 77.1125 43.6645 77.2833 43.6051C77.4207 43.5605 77.5433 43.4974 77.6547 43.4082C77.7476 43.3302 77.8182 43.2299 77.8627 43.1185C77.9036 43.0182 77.9259 42.9068 77.9259 42.7991C77.9407 42.6245 77.8887 42.4462 77.781 42.3051C77.6956 42.2122 77.5842 42.1305 77.4653 42.0859C77.235 42.0005 77.0085 41.9262 76.7708 41.8668C76.5182 41.7999 76.195 41.7145 75.8087 41.6068C75.5933 41.5548 75.3928 41.4694 75.2107 41.3542C75.0585 41.2651 74.9285 41.1462 74.8207 41.0088C74.7353 40.8862 74.661 40.7451 74.6239 40.6002C74.583 40.4516 74.5645 40.3031 74.5645 40.1508C74.557 39.8908 74.6165 39.6271 74.739 39.3931C74.8542 39.1851 75.0139 39.0068 75.207 38.8619C75.4076 38.7208 75.6267 38.6131 75.8645 38.5499C76.1059 38.4794 76.3585 38.4534 76.6073 38.4534C76.8859 38.4496 77.1645 38.4905 77.4356 38.5685C77.6845 38.6428 77.9147 38.7616 78.119 38.9214C78.3122 39.0774 78.4719 39.2742 78.587 39.4971C78.7022 39.7422 78.7653 40.0208 78.7579 40.2956H77.7773C77.781 39.9911 77.6473 39.6976 77.4059 39.5045C77.157 39.3448 76.8636 39.2668 76.5665 39.2742C76.4513 39.2779 76.3325 39.2891 76.2136 39.3151C76.0985 39.3374 75.9833 39.3782 75.883 39.4339C75.7865 39.4934 75.701 39.5714 75.6379 39.6642C75.5599 39.7719 75.519 39.9056 75.5227 40.0431C75.5116 40.2251 75.5822 40.3996 75.7047 40.5259C75.8422 40.6485 76.0093 40.7414 76.1876 40.7859L76.4365 40.8565L76.9156 40.9865L77.4393 41.1314L77.8033 41.2316C77.9779 41.2836 78.1376 41.3654 78.2825 41.4694C78.4125 41.5696 78.5276 41.6885 78.6242 41.8222C78.7096 41.9522 78.7839 42.0934 78.8285 42.2456C79.029 42.9328 78.7765 43.6682 78.197 44.0879C77.9779 44.2402 77.7402 44.3479 77.4876 44.4111C77.2202 44.4816 76.9453 44.5114 76.6705 44.5076C76.3659 44.5114 76.065 44.4705 75.7716 44.3888C75.5079 44.3145 75.2516 44.1882 75.0362 44.0136C74.8245 43.8428 74.6499 43.6236 74.5347 43.3748C74.4047 43.0814 74.3379 42.7656 74.3379 42.4462H75.3222Z" fill="white"/>
<path d="M80.395 42.446C80.3875 42.6466 80.4284 42.8434 80.5064 43.0254C80.577 43.174 80.6773 43.304 80.811 43.408C80.9447 43.512 81.097 43.5863 81.2604 43.6309C81.4424 43.6754 81.6281 43.7015 81.8138 43.6977C81.9958 43.7052 82.1853 43.6755 82.3561 43.6197C82.4935 43.5789 82.6161 43.512 82.7275 43.4192C82.8204 43.3412 82.891 43.2446 82.9318 43.1332C82.9764 43.0292 82.9987 42.9215 82.9987 42.81C83.0135 42.6355 82.9615 42.4609 82.8538 42.3235C82.7684 42.2232 82.657 42.1489 82.5381 42.0969C82.3078 42.0152 82.0813 41.9446 81.8435 41.8852C81.5835 41.8146 81.2567 41.7292 80.8704 41.6215C80.655 41.5657 80.4581 41.4803 80.2687 41.3652C80.1201 41.2723 79.9901 41.146 79.8824 41.0049C79.7933 40.8823 79.7227 40.7412 79.6818 40.5963C79.641 40.4477 79.6224 40.2992 79.6224 40.1469C79.6187 39.8869 79.6781 39.6232 79.8007 39.3892C79.9121 39.1812 80.0718 39.0029 80.265 38.858C80.4655 38.7169 80.6847 38.6092 80.9261 38.546C81.1638 38.4755 81.4201 38.4495 81.6652 38.4495C81.9475 38.4457 82.2224 38.4866 82.4935 38.5646C82.7424 38.6389 82.9727 38.7577 83.177 38.9174C83.3738 39.0734 83.5335 39.2703 83.645 39.4932C83.7638 39.7383 83.8233 40.0169 83.8158 40.2917H82.8353C82.8427 39.9872 82.7052 39.6937 82.4675 39.5006C82.2187 39.3409 81.9252 39.2629 81.6281 39.2703C81.5092 39.274 81.3904 39.2852 81.2715 39.3112C81.1601 39.3334 81.045 39.3743 80.9447 39.43C80.8444 39.4857 80.759 39.5675 80.6995 39.6603C80.629 39.768 80.5993 39.8906 80.5993 40.0243C80.5918 40.2063 80.6587 40.3809 80.7887 40.5072C80.9261 40.6297 81.0895 40.7226 81.2678 40.7672L81.513 40.8377L81.9958 40.9677L82.5195 41.1126L82.8835 41.2129C83.0544 41.2649 83.2178 41.3466 83.3627 41.4506C83.4964 41.5509 83.6078 41.6697 83.7044 41.8035C83.7935 41.9335 83.8641 42.0746 83.9124 42.2269C84.1092 42.9177 83.853 43.6494 83.281 44.0692C83.0618 44.2214 82.8204 44.3292 82.5678 44.3923C82.3041 44.4629 82.0255 44.4926 81.7507 44.4889C81.4461 44.4926 81.1453 44.4517 80.8518 44.3737C80.5844 44.2957 80.3355 44.1694 80.1201 43.9986C79.901 43.824 79.7338 43.6049 79.615 43.356C79.485 43.0626 79.4144 42.7469 79.4181 42.4275H80.4024V42.4423H80.395V42.446Z" fill="white"/>
<path d="M87.2083 38.448C87.9698 38.4294 88.6903 38.76 89.1732 39.3469C89.4072 39.6291 89.5855 39.956 89.7043 40.3052C89.9495 41.0666 89.9495 41.8874 89.7043 42.6489C89.5892 43.0017 89.4109 43.3286 89.1732 43.6146C88.9429 43.8894 88.6569 44.1086 88.33 44.2646C87.6169 44.584 86.7998 44.584 86.0829 44.2646C85.7598 44.1086 85.4738 43.8894 85.2398 43.6146C85.0095 43.3286 84.8275 43.0017 84.7123 42.6489C84.4709 41.8874 84.4709 41.0666 84.7123 40.3052C84.8237 39.956 85.0058 39.6291 85.2398 39.3469C85.7263 38.76 86.4506 38.4294 87.2083 38.448ZM87.2083 39.2763C86.6846 39.254 86.1943 39.514 85.9083 39.9597C85.7746 40.1789 85.678 40.4166 85.6186 40.6654C85.4886 41.2003 85.4886 41.7537 85.6186 42.2886C85.678 42.5374 85.7746 42.7789 85.9083 42.998C86.38 43.7111 87.3458 43.9117 88.0626 43.4363C88.2372 43.3249 88.3895 43.1726 88.5046 42.998C88.6346 42.7751 88.7349 42.5374 88.7906 42.2886C88.9206 41.7537 88.9206 41.2003 88.7906 40.6654C88.7349 40.4166 88.6346 40.1751 88.5046 39.9597C88.2223 39.5177 87.7283 39.2614 87.2083 39.2763Z" fill="white"/>
<path d="M94.5463 40.4292C94.5092 40.2695 94.4534 40.1172 94.3754 39.9686C94.3012 39.8312 94.2046 39.7086 94.0894 39.6046C93.9706 39.5006 93.8332 39.4189 93.6846 39.3669C93.51 39.3038 93.3243 39.2778 93.1423 39.2778C92.6186 39.2592 92.1283 39.5192 91.8423 39.9612C91.7049 40.1841 91.612 40.4218 91.5526 40.6706C91.4226 41.2055 91.4226 41.7589 91.5526 42.2901C91.612 42.5426 91.7049 42.7841 91.8423 42.9995C92.1246 43.4415 92.6186 43.7015 93.1423 43.6829C93.3392 43.6904 93.536 43.6458 93.718 43.5678C93.8814 43.4898 94.0263 43.3784 94.1489 43.2446C94.2714 43.1035 94.368 42.9401 94.4349 42.7618C94.5129 42.5686 94.5574 42.3718 94.5834 42.1638H95.5343C95.5194 42.4906 95.4489 42.8138 95.3189 43.1109C95.2 43.3858 95.0329 43.6421 94.8212 43.8501C94.6094 44.0581 94.3569 44.2289 94.082 44.3366C93.7886 44.4518 93.4729 44.5075 93.1534 44.5038C92.7672 44.5112 92.3809 44.4295 92.028 44.2661C91.7012 44.1138 91.4189 43.8872 91.1849 43.6124C90.9509 43.3301 90.7726 43.0032 90.6537 42.6504C90.4123 41.8926 90.4123 41.0718 90.6537 40.3104C90.7689 39.9575 90.9472 39.6306 91.1849 39.3446C91.6714 38.7652 92.392 38.4309 93.1497 38.4458C93.4469 38.4458 93.7477 38.4904 94.0337 38.5795C94.2974 38.6612 94.55 38.7949 94.7654 38.9658C94.9772 39.1404 95.1517 39.3521 95.278 39.5861C95.4117 39.8424 95.4972 40.1284 95.5194 40.4218H94.5389V40.4292H94.5463Z" fill="white"/>
<path d="M96.4336 38.5781H97.4142V44.3613H96.4336V38.5781Z" fill="white"/>
<path d="M100.208 38.5781H101.251L103.402 44.3613H102.354L101.827 42.831H99.5947L99.071 44.3613H98.0645L100.208 38.5781ZM99.8659 42.0547H101.571L100.735 39.5587H100.709L99.8659 42.0547Z" fill="white"/>
<path d="M102.785 38.5781H107.313V39.4436H105.541V44.3427H104.557V39.4473H102.785V38.5781Z" fill="white"/>
<path d="M108.062 38.5781H109.043V44.3613H108.062V38.5781Z" fill="white"/>
<path d="M112.713 38.448C113.467 38.4294 114.191 38.76 114.678 39.3469C114.908 39.6291 115.09 39.956 115.205 40.3052C115.447 41.0666 115.447 41.8874 115.205 42.6489C115.094 43.0017 114.912 43.3286 114.678 43.6146C114.447 43.8894 114.154 44.1086 113.831 44.2646C113.118 44.584 112.297 44.584 111.587 44.2646C111.261 44.1086 110.975 43.8894 110.744 43.6146C110.507 43.3286 110.328 43.0017 110.213 42.6489C109.968 41.8874 109.968 41.0666 110.213 40.3052C110.325 39.956 110.503 39.6291 110.744 39.3469C111.227 38.76 111.951 38.4294 112.713 38.448ZM112.713 39.2763C112.185 39.254 111.691 39.514 111.409 39.9597C111.275 40.1789 111.175 40.4166 111.123 40.6654C110.993 41.2003 110.993 41.7537 111.123 42.2886C111.175 42.5374 111.275 42.7789 111.409 42.998C111.881 43.7111 112.847 43.9117 113.56 43.4363C113.738 43.3249 113.887 43.1726 114.002 42.998C114.139 42.7751 114.232 42.5374 114.291 42.2886C114.421 41.7537 114.421 41.2003 114.291 40.6654C114.232 40.4166 114.139 40.1751 114.002 39.9597C113.719 39.5177 113.229 39.2614 112.713 39.2763Z" fill="white"/>
<path d="M116.355 38.5781H117.388L119.951 42.8421V38.5781H120.883V44.3613H119.85L117.302 40.1084H117.28V44.3613H116.348L116.355 38.5781Z" fill="white"/>
<path d="M35.6602 22.0684H41.2204V44.3615H35.6602V22.0684Z" fill="white"/>
<path d="M20.1797 22.0684H25.7585V39.6704H34.4648V44.3615H20.1797V22.0684Z" fill="white"/>
<path d="M15.2397 29.3449C14.5563 27.4358 12.7697 26.1469 10.7454 26.0949C7.77029 26.0949 5.40429 28.1118 5.40429 32.9589C5.40429 36.1309 6.67829 39.8192 10.9311 39.8192C12.3909 39.8192 14.5154 38.7272 15.366 36.7846L19.6411 38.8535C17.7877 42.2224 14.5711 44.3655 10.9311 44.3655C4.03371 44.3618 0 39.0318 0 32.9589C0 26.8861 3.76629 21.5449 10.504 21.5449C14.7531 21.5449 17.5463 23.6101 19.552 27.1944L15.2397 29.3449Z" fill="white"/>
<path d="M50.8155 34.1172L51.655 35.3652L49.1738 37.1332V36.0338L50.8155 34.1172Z" fill="white"/>
<path d="M49.9239 22.0645H43.1008L43.0859 44.3465H48.6611L48.6797 30.1245L58.5299 44.4245L66.2854 44.417L49.9239 22.0645Z" fill="white"/>
<path d="M56.8847 30.7231L56.9144 30.6933C63.8973 24.7059 70.1113 17.8791 75.4301 10.3725C71.9424 8.23306 64.525 8.03992 64.525 8.03992C47.4244 7.4642 28.0173 15.2456 16.6367 21.7159L16.8187 21.9611C21.4096 19.6879 34.2684 13.8751 47.9519 13.3959C47.9519 13.3959 53.0739 13.1805 56.2496 14.7665C56.2496 14.7665 60.1867 16.3896 58.7976 21.5413C58.025 24.0522 56.855 26.4256 55.3396 28.5725L55.321 28.6022L56.8847 30.7231Z" fill="white"/>
<path d="M15.69 21.2659L15.5488 21.0765C15.5488 21.0765 15.9425 20.6976 16.4514 20.2444C20.4294 16.7902 24.6897 13.6702 29.1877 10.9216C36.4528 6.47188 43.6548 3.63416 48.7508 2.80216C49.6794 2.66473 50.6154 2.58302 51.5551 2.56073C51.5551 2.56073 56.0383 2.49388 56.0345 4.89702C56.0568 5.36502 55.9157 5.82559 55.6371 6.19702C55.6371 6.19702 55.0986 5.21273 54.1774 4.96759C53.0965 4.67788 49.1891 3.9053 37.9423 7.76073C36.2708 8.34759 34.6403 9.0533 33.0691 9.86673C31.2157 10.8213 29.3065 11.8539 27.4717 12.9347C26.8291 13.3136 26.1977 13.737 25.5774 14.1084C23.1854 15.5459 21.0831 17.1059 19.4748 18.2907C17.4283 19.795 15.69 21.2659 15.69 21.2659Z" fill="white"/>
<path d="M43.5498 2.93249C43.5498 2.93249 42.4541 -0.896936 31.8944 4.94935C27.883 7.17421 24.7481 9.84849 22.0107 12.2999C19.3253 14.7142 16.7995 17.3031 14.4521 20.0479L14.2812 19.8176C14.2812 19.8176 18.315 14.3205 23.4147 9.81135C28.169 5.61792 30.1004 4.45906 33.7255 2.43106C38.0861 0.00192133 44.5155 -1.07894 43.5498 2.93249Z" fill="white"/>
<path d="M29.178 3.61316C23.1089 2.19059 12.7498 19.4212 12.7498 19.4212L12.5938 19.2094C13.8677 16.6503 15.2978 14.1729 16.8726 11.7883C19.3946 8.00716 22.8415 4.78316 24.5017 3.86202C29.5755 1.02059 29.178 3.61316 29.178 3.61316Z" fill="white"/>
</svg>
