<svg width="130" height="29" viewBox="0 0 130 29" fill="none" xmlns="http://www.w3.org/2000/svg">
<g clip-path="url(#clip0_614_14296)">
<mask id="mask0_614_14296" style="mask-type:luminance" maskUnits="userSpaceOnUse" x="-56" y="-8" width="186" height="37">
<path d="M129.835 -7.11719H-55.4102V28.0551H129.835V-7.11719Z" fill="white"/>
</mask>
<g mask="url(#mask0_614_14296)">
<mask id="mask1_614_14296" style="mask-type:luminance" maskUnits="userSpaceOnUse" x="-1" y="1" width="43" height="19">
<path d="M41.797 19.6828C39.2289 17.2975 38.872 13.3559 38.9412 9.99053C39.0052 7.03258 39.0549 4.07643 39.0904 1.12207H-0.0800781V19.6936H41.813L41.797 19.6828Z" fill="white"/>
</mask>
<g mask="url(#mask1_614_14296)">
<mask id="mask2_614_14296" style="mask-type:luminance" maskUnits="userSpaceOnUse" x="-1" y="1" width="43" height="19">
<path d="M41.8076 1.12793H-0.0800781V19.6941H41.8076V1.12793Z" fill="white"/>
</mask>
<g mask="url(#mask2_614_14296)">
<rect width="44" height="20" transform="matrix(1 0 0 -1 -1 19.5005)" fill="white"/>
</g>
</g>
<path d="M55.6223 18.2452C54.237 19.4657 52.3172 20.076 49.8629 20.076C47.3801 20.076 45.4514 19.4729 44.0928 18.2613C42.7342 17.0498 42.0469 15.176 42.0469 12.6452V1.10596H46.0854V12.6452C46.0849 13.1416 46.1277 13.6371 46.2133 14.126C46.2874 14.6061 46.4806 15.0594 46.775 15.4436C47.0695 15.8278 47.4554 16.1303 47.8969 16.3229C48.5198 16.5807 49.1903 16.7 49.8629 16.6729C51.2836 16.6729 52.2782 16.348 52.8465 15.6983C53.4148 15.0485 53.6883 14.0308 53.667 12.6452V1.10596H57.7055V12.6452C57.7055 15.158 57.0111 17.0247 55.6223 18.2452Z" fill="white"/>
<path d="M64.2642 15.0895C64.4738 15.5045 64.7767 15.8641 65.1486 16.1395C65.5416 16.4185 65.9824 16.6211 66.4486 16.7372C66.9536 16.8672 67.4727 16.9323 67.9937 16.9311C68.3808 16.9307 68.7674 16.9001 69.1499 16.8395C69.5506 16.7829 69.9404 16.6648 70.306 16.4895C70.6578 16.3259 70.9663 16.0805 71.2064 15.7734C71.4567 15.4439 71.5849 15.0362 71.5687 14.6211C71.5787 14.3951 71.5417 14.1696 71.46 13.959C71.3783 13.7485 71.2538 13.5576 71.0945 13.3988C70.7311 13.0591 70.3059 12.7939 69.8425 12.618C69.2736 12.3961 68.6896 12.2161 68.0949 12.0795C67.4449 11.9234 66.7843 11.7511 66.1183 11.5411C65.4364 11.3716 64.7655 11.1594 64.1097 10.9057C63.4837 10.6678 62.8951 10.3395 62.3622 9.93106C61.8034 9.50595 61.3549 8.95026 61.0552 8.31162C60.7555 7.67298 60.6135 6.97042 60.6413 6.26414C60.6286 5.39832 60.8457 4.54488 61.2699 3.7926C61.6691 3.09772 62.2148 2.50023 62.8683 2.0426C63.5376 1.56366 64.2865 1.20986 65.0794 0.997981C65.8838 0.778881 66.713 0.666654 67.5462 0.664135C68.4773 0.660849 69.4055 0.769301 70.3113 0.987212C71.1565 1.19293 71.9555 1.55832 72.6662 2.06413C73.3472 2.54457 73.9059 3.18118 74.2966 3.92183C74.7235 4.7694 74.9324 5.71196 74.904 6.6626H70.9933C70.977 6.18333 70.8589 5.71321 70.647 5.28414C70.4649 4.93418 70.1947 4.63888 69.8638 4.42798C69.5203 4.21369 69.1412 4.06409 68.7449 3.98644C68.2921 3.89721 67.8317 3.85392 67.3703 3.85721C67.0409 3.85633 66.7123 3.89063 66.39 3.95952C66.0743 4.02441 65.7728 4.14664 65.5003 4.32029C65.2429 4.49344 65.0205 4.71456 64.8449 4.97183C64.6645 5.26919 64.5754 5.61403 64.5892 5.9626C64.5761 6.27073 64.6481 6.57647 64.797 6.84567C64.9958 7.10504 65.2611 7.30433 65.5642 7.42183C66.1042 7.66281 66.6639 7.85559 67.2371 7.99798L70.0236 8.72491C70.3699 8.7949 70.8441 8.91875 71.4515 9.10183C72.0944 9.3011 72.7048 9.59503 73.263 9.97414C73.8855 10.3993 74.415 10.9491 74.8187 11.5895C75.2828 12.3597 75.5108 13.2516 75.474 14.1526C75.4824 14.9666 75.317 15.7729 74.9892 16.5164C74.6584 17.2519 74.16 17.8977 73.5347 18.4011C72.8245 18.9659 72.0118 19.3848 71.1425 19.6341C70.0692 19.9466 68.9559 20.0954 67.8392 20.0757C66.8451 20.0788 65.8548 19.9521 64.8929 19.6988C63.9872 19.4686 63.1324 19.0686 62.3728 18.5195C61.6447 17.9798 61.0517 17.2754 60.6413 16.4626C60.1919 15.5437 59.9794 14.5251 60.0232 13.5011H63.9339C63.9133 14.0592 64.0286 14.6138 64.2695 15.1164L64.2642 15.0895Z" fill="white"/>
<path d="M76.4258 4.53596V1.10596H91.4717V4.53596H85.968V19.6613H81.9295V4.53596H76.4258Z" fill="white"/>
<path d="M97.089 12.7362C97.2576 13.4451 97.5499 14.1179 97.9522 14.7231C98.3467 15.3122 98.8746 15.7976 99.4919 16.1393C100.214 16.4913 101.005 16.6741 101.807 16.6741C102.608 16.6741 103.4 16.4913 104.122 16.1393C104.741 15.7976 105.27 15.3123 105.667 14.7231C106.07 14.1188 106.36 13.4456 106.525 12.7362C106.707 11.991 106.798 11.2261 106.796 10.4585C106.798 9.66249 106.707 8.86905 106.525 8.09466C106.362 7.36782 106.072 6.67651 105.667 6.05389C105.274 5.45889 104.744 4.96923 104.122 4.62697C103.4 4.27495 102.608 4.09212 101.807 4.09212C101.005 4.09212 100.214 4.27495 99.4919 4.62697C98.8718 4.96941 98.3433 5.45912 97.9522 6.05389C97.5476 6.67738 97.2554 7.36829 97.089 8.09466C96.9067 8.86905 96.8155 9.66249 96.8173 10.4585C96.8158 11.2261 96.907 11.991 97.089 12.7362ZM93.3968 6.60312C93.7851 5.46183 94.3875 4.40692 95.171 3.4962C95.9624 2.59982 96.9392 1.89025 98.0321 1.41774C100.467 0.412837 103.195 0.412837 105.63 1.41774C106.71 1.89537 107.676 2.60454 108.459 3.4962C109.246 4.40419 109.849 5.45988 110.233 6.60312C110.642 7.84562 110.84 9.14916 110.819 10.4585C110.827 11.7413 110.618 13.0161 110.201 14.2277C109.815 15.354 109.212 16.3918 108.427 17.2808C107.639 18.1578 106.674 18.8538 105.598 19.3216C103.159 20.3051 100.439 20.3051 98.0001 19.3216C96.9171 18.8568 95.9465 18.1606 95.155 17.2808C94.3733 16.389 93.7707 15.3521 93.3808 14.2277C92.9656 13.0158 92.7584 11.741 92.7681 10.4585C92.7554 9.14763 92.9626 7.84405 93.3808 6.60312H93.3968Z" fill="white"/>
<path d="M122.971 12.489L120.659 5.6775H120.606L118.213 12.489H122.971ZM122.742 1.10596L129.61 19.6613H125.417L124.026 15.5313H117.164L115.72 19.6613H111.66L118.586 1.10596H122.742Z" fill="white"/>
<path d="M7.19729 5.14893V9.28431H6.29688V5.14893H7.19729Z" fill="#004155"/>
<path d="M8.88141 5.14893L10.5917 7.922H10.6023V5.14893H11.4441V9.28431H10.5437L8.83879 6.51662H8.82813V9.28431H7.98633V5.14893H8.88141Z" fill="#004155"/>
<path d="M11.9121 5.91354V5.14893H15.2633V5.91354H14.0379V9.28431H13.1375V5.91354H11.9121Z" fill="#004155"/>
<path d="M18.7959 5.14893V5.91354H16.6328V6.802H18.6148V7.50739H16.6328V8.5197H18.8439V9.28431H15.7324V5.14893H18.7959Z" fill="#004155"/>
<path d="M21.8696 9.2513C21.6851 9.33398 21.4853 9.37618 21.2835 9.37514C20.9932 9.38018 20.7049 9.32521 20.4364 9.2136C20.1951 9.10858 19.9789 8.95251 19.8024 8.75591C19.6285 8.55783 19.4946 8.32737 19.4081 8.07745C19.3151 7.80556 19.2683 7.51974 19.2696 7.23207C19.2679 6.94085 19.3147 6.65142 19.4081 6.37591C19.4932 6.12051 19.6272 5.8845 19.8024 5.6813C19.9786 5.483 20.1948 5.32511 20.4364 5.21822C20.7121 5.09884 21.0103 5.04187 21.3101 5.0513C21.5164 5.05103 21.7214 5.08374 21.9175 5.14822C22.1107 5.20764 22.2913 5.30256 22.4503 5.42822C22.6102 5.55316 22.7441 5.70868 22.8446 5.88591C22.9508 6.078 23.0144 6.29113 23.031 6.51053H22.1733C22.1393 6.29874 22.0293 6.10704 21.8642 5.97207C21.7084 5.86056 21.5224 5.80038 21.3315 5.79976C21.1465 5.79005 20.9625 5.83097 20.7987 5.91822C20.6596 5.99433 20.5407 6.10333 20.4524 6.23591C20.365 6.3754 20.3003 6.52809 20.2606 6.68822C20.2216 6.865 20.202 7.04557 20.202 7.22668C20.2021 7.39712 20.2218 7.56697 20.2606 7.73284C20.3003 7.89127 20.365 8.04219 20.4524 8.17976C20.5344 8.31006 20.6458 8.41892 20.7774 8.49745C20.9412 8.5847 21.1252 8.62563 21.3101 8.61591C21.5594 8.63175 21.8052 8.55087 21.9974 8.38976C22.1724 8.21392 22.2735 7.97671 22.2798 7.72745H21.3741V7.04899H23.095V9.2836H22.5249L22.429 8.81514C22.2934 9.00628 22.1094 9.15695 21.8962 9.2513H21.8696Z" fill="#004155"/>
<path d="M25.6837 7.01743C25.8491 7.02965 26.0134 6.98193 26.1472 6.88281C26.2029 6.82262 26.2455 6.75123 26.2721 6.6733C26.2987 6.59536 26.3088 6.51264 26.3017 6.43051C26.3097 6.35077 26.2999 6.27023 26.2732 6.19478C26.2465 6.11932 26.2034 6.05085 26.1472 5.99435C26.0141 5.89333 25.8497 5.84368 25.6837 5.85435H24.698V7.01743H25.6837ZM26.0033 5.14897C26.1727 5.14762 26.3409 5.17868 26.4988 5.24051C26.641 5.29487 26.7699 5.37932 26.8771 5.4882C26.983 5.58856 27.065 5.71192 27.1169 5.84897C27.1727 5.98937 27.2016 6.1392 27.2021 6.29051C27.2067 6.51063 27.1534 6.72803 27.0476 6.92051C26.9324 7.10909 26.7579 7.25318 26.5521 7.32974C26.6543 7.35316 26.7493 7.40119 26.8291 7.46974C26.9007 7.53388 26.9602 7.61048 27.005 7.69589C27.0528 7.78528 27.087 7.88151 27.1062 7.98128C27.1279 8.08419 27.1422 8.18857 27.1488 8.29358C27.1488 8.3582 27.1488 8.43897 27.1488 8.52512C27.1488 8.61128 27.1488 8.7082 27.1488 8.79974C27.1592 8.88864 27.1752 8.97677 27.1968 9.06358C27.2117 9.13934 27.2426 9.21096 27.2873 9.27358H26.3869C26.334 9.12282 26.3034 8.96495 26.2964 8.80512C26.2964 8.62205 26.2964 8.44974 26.2484 8.26666C26.2344 8.09151 26.1653 7.92547 26.0513 7.79281C25.9843 7.73664 25.907 7.6944 25.8238 7.66853C25.7405 7.64265 25.6531 7.63365 25.5664 7.64205H24.666V9.25743H23.7656V5.14897H26.0033Z" fill="#004155"/>
<path d="M28.834 5.14893V9.28431H27.9336V5.14893H28.834Z" fill="#004155"/>
<path d="M29.3008 5.91354V5.14893H32.6573V5.91354H31.4319V9.28431H30.5315V5.91354H29.3008Z" fill="#004155"/>
<path d="M32.6855 5.14893H33.6925L34.6515 6.78585L35.5999 5.14893H36.6069L35.0884 7.70123V9.28431H34.188V7.67431L32.6855 5.14893Z" fill="#004155"/>
<path d="M3.36525 11.353V15.4884H2.46484V11.353H3.36525Z" fill="#004155"/>
<path d="M5.04991 11.353L6.76016 14.1315H6.77081V11.353H7.61262V15.4884H6.71754L5.01262 12.7207H5.00196V15.4884H4.16016V11.353H5.04991Z" fill="#004155"/>
<path d="M9.67969 12.1176V11.353H13.0309V12.1176H11.8055V15.4884H10.9051V12.1176H9.67969Z" fill="#004155"/>
<path d="M14.2829 13.9485C14.318 14.1069 14.3831 14.2568 14.4747 14.3901C14.5611 14.5224 14.6782 14.6315 14.8157 14.7078C14.9771 14.7857 15.1537 14.8261 15.3325 14.8261C15.5114 14.8261 15.6879 14.7857 15.8493 14.7078C15.9869 14.6315 16.1039 14.5224 16.1903 14.3901C16.2814 14.2559 16.3481 14.1063 16.3874 13.9485C16.4256 13.7825 16.4453 13.6128 16.446 13.4424C16.4467 13.2612 16.427 13.0806 16.3874 12.9039C16.3493 12.7407 16.2825 12.5857 16.1903 12.4462C16.1023 12.3152 15.9857 12.2065 15.8493 12.1285C15.6879 12.0506 15.5114 12.0102 15.3325 12.0102C15.1537 12.0102 14.9771 12.0506 14.8157 12.1285C14.6794 12.2065 14.5627 12.3152 14.4747 12.4462C14.3821 12.5848 14.317 12.7402 14.2829 12.9039C14.2406 13.0801 14.2209 13.2611 14.2243 13.4424C14.2224 13.6129 14.2421 13.783 14.2829 13.9485ZM13.4571 12.5808C13.5453 12.3257 13.6809 12.0899 13.8567 11.8862C14.0329 11.6879 14.2491 11.53 14.4907 11.4231C15.0322 11.2007 15.6382 11.2007 16.1796 11.4231C16.4204 11.5314 16.6364 11.6891 16.8137 11.8862C16.9877 12.0902 17.1216 12.326 17.2079 12.5808C17.3017 12.8581 17.3485 13.1494 17.3464 13.4424C17.3482 13.7283 17.3013 14.0124 17.2079 14.2824C17.1227 14.5345 16.9887 14.767 16.8137 14.9662C16.6374 15.1618 16.421 15.3161 16.1796 15.4185C15.6382 15.6409 15.0322 15.6409 14.4907 15.4185C14.2462 15.3165 14.0277 15.1601 13.8514 14.9608C13.6747 14.7619 13.5389 14.5294 13.4518 14.277C13.3602 14.0067 13.3151 13.7226 13.3186 13.437C13.3148 13.1443 13.3598 12.853 13.4518 12.5754L13.4571 12.5808Z" fill="#004155"/>
<path d="M20.9641 15.1761C20.6014 15.4654 20.1467 15.6109 19.6854 15.5853C19.2202 15.6161 18.7604 15.4702 18.3961 15.1761C18.2348 15.014 18.1107 14.8181 18.0325 14.6023C17.9542 14.3864 17.9237 14.1559 17.9432 13.9269V11.353H18.8383V13.9269C18.8381 14.0372 18.8488 14.1472 18.8703 14.2553C18.884 14.3631 18.9257 14.4652 18.9912 14.5512C19.0568 14.6373 19.1437 14.7043 19.2432 14.7453C19.3829 14.8051 19.5339 14.8326 19.6854 14.8261C19.8048 14.8397 19.9257 14.8271 20.0397 14.789C20.1538 14.7508 20.2583 14.6882 20.3461 14.6053C20.4866 14.409 20.5527 14.1683 20.5325 13.9269V11.353H21.433V13.9269C21.4515 14.1572 21.419 14.3888 21.3379 14.6049C21.2568 14.821 21.1291 15.0161 20.9641 15.1761Z" fill="#004155"/>
<path d="M24.0911 13.2269C24.2572 13.2376 24.4216 13.1879 24.5547 13.0869C24.6107 13.0269 24.6534 12.9556 24.6801 12.8776C24.7067 12.7996 24.7166 12.7168 24.7092 12.6346C24.7172 12.5549 24.7074 12.4743 24.6807 12.3989C24.654 12.3234 24.6109 12.255 24.5547 12.1985C24.4209 12.0993 24.2566 12.0516 24.0911 12.0638H23.1055V13.2269H24.0911ZM24.4108 11.3531C24.5802 11.3517 24.7483 11.3828 24.9063 11.4446C25.0465 11.5027 25.1748 11.5867 25.2846 11.6923C25.3893 11.7937 25.4711 11.9168 25.5243 12.0531C25.5822 12.1929 25.6112 12.3431 25.6096 12.4946C25.6149 12.7165 25.5615 12.9358 25.4551 13.13C25.3409 13.3183 25.1659 13.4609 24.9596 13.5338C25.0601 13.5617 25.1543 13.6092 25.2366 13.6738C25.3067 13.7394 25.366 13.8157 25.4125 13.9C25.4612 13.9909 25.4953 14.089 25.5137 14.1908C25.5361 14.2936 25.5503 14.398 25.5563 14.5031C25.5563 14.5677 25.5563 14.6431 25.5563 14.7346C25.5563 14.8261 25.5563 14.9123 25.5563 15.0038C25.5662 15.0928 25.5822 15.181 25.6043 15.2677C25.6168 15.3442 25.6479 15.4163 25.6948 15.4777H24.8264C24.7734 15.3269 24.7429 15.169 24.7358 15.0092C24.7275 14.8289 24.7098 14.6492 24.6825 14.4708C24.6735 14.2938 24.6059 14.1251 24.4907 13.9915C24.3524 13.8798 24.177 13.8258 24.0006 13.8408H23.1055V15.4561H22.2051V11.3531H24.4108Z" fill="#004155"/>
<path d="M27.2403 11.353V15.4884H26.3398V11.353H27.2403Z" fill="#004155"/>
<path d="M28.7219 14.4699C28.7665 14.5646 28.8344 14.6462 28.919 14.7068C29.0053 14.769 29.1032 14.813 29.2067 14.8361C29.3194 14.8684 29.4359 14.8847 29.553 14.8845C29.6382 14.8894 29.7236 14.8894 29.8088 14.8845C29.8989 14.869 29.9866 14.8419 30.0698 14.8038C30.1463 14.7673 30.2136 14.7139 30.267 14.6476C30.3219 14.5731 30.35 14.482 30.3469 14.3891C30.3496 14.3383 30.3415 14.2875 30.3231 14.2401C30.3047 14.1927 30.2765 14.1499 30.2403 14.1145C30.1603 14.039 30.0661 13.9804 29.9633 13.9422C29.8368 13.8914 29.7068 13.85 29.5743 13.8184L29.1321 13.7053C28.9806 13.6668 28.8312 13.6201 28.6846 13.5653C28.5455 13.5101 28.4147 13.4358 28.2957 13.3445C28.1713 13.2493 28.0715 13.1252 28.0047 12.9828C27.9379 12.8403 27.9061 12.6836 27.912 12.5261C27.911 12.3381 27.9568 12.1529 28.0452 11.9876C28.1346 11.8336 28.2543 11.6998 28.3969 11.5945C28.5491 11.4917 28.7163 11.4135 28.8924 11.363C29.0662 11.3155 29.2452 11.2902 29.4252 11.2876C29.6334 11.2878 29.8409 11.3131 30.0432 11.363C30.234 11.4043 30.415 11.483 30.576 11.5945C30.7291 11.7016 30.8551 11.8436 30.9436 12.0091C31.0361 12.2 31.0818 12.4105 31.0768 12.623H30.2084C30.2064 12.5163 30.1809 12.4115 30.1338 12.3161C30.0919 12.2378 30.0315 12.1711 29.9579 12.1222C29.8821 12.0725 29.7968 12.0395 29.7075 12.0253C29.6076 12.0047 29.5058 11.9957 29.4039 11.9984H29.1854L28.9883 12.0791L28.8391 12.2245C28.7996 12.291 28.781 12.3679 28.7858 12.4453C28.7809 12.5127 28.7957 12.5801 28.8284 12.6391C28.8739 12.7028 28.9369 12.7515 29.0096 12.7791C29.13 12.833 29.2548 12.8763 29.3825 12.9084L30.0059 13.0699L30.3202 13.1507C30.4633 13.1963 30.5996 13.2616 30.7252 13.3445C30.8637 13.4397 30.9815 13.5625 31.0715 13.7053C31.1781 13.8755 31.2302 14.0748 31.2207 14.2761C31.2247 14.4618 31.1864 14.6461 31.1088 14.8145C31.0385 14.9792 30.9286 15.1236 30.7891 15.2345C30.6308 15.3601 30.4499 15.4534 30.2563 15.5091C30.0182 15.5827 29.77 15.6172 29.5211 15.6114C29.3 15.61 29.0799 15.5811 28.8657 15.5253C28.6725 15.474 28.4914 15.3843 28.3329 15.2614C28.1682 15.1433 28.0347 14.9861 27.944 14.8038C27.8454 14.5995 27.7978 14.374 27.8055 14.1468H28.6793C28.6744 14.268 28.7001 14.3884 28.7539 14.4968L28.7219 14.4699Z" fill="#004155"/>
<path d="M33.0166 11.353L33.9756 14.2015H33.9863L34.892 11.353H36.16V15.4884H35.3182V12.5592H35.3076L34.3006 15.4884H33.608L32.6064 12.5915H32.5957V15.4884H31.7539V11.353H33.0166Z" fill="#004155"/>
<path d="M3.6322 26.4827C3.19768 26.7863 2.68196 26.9489 2.15372 26.9489C1.62547 26.9489 1.10976 26.7863 0.675234 26.4827C0.487436 26.2962 0.342402 26.0703 0.250349 25.8209C0.158295 25.5716 0.121461 25.3049 0.142447 25.0396V22.0889H1.17606V25.045C1.1759 25.1731 1.18659 25.301 1.20802 25.4273C1.22847 25.5462 1.27589 25.6586 1.34655 25.7558C1.42466 25.8567 1.525 25.9378 1.63958 25.9927C1.80859 26.0613 1.99064 26.0907 2.17237 26.0789C2.30952 26.0955 2.4486 26.0819 2.5801 26.0392C2.71159 25.9964 2.8324 25.9255 2.93425 25.8312C3.09507 25.6029 3.17058 25.3243 3.14737 25.045V22.0889H4.18097V25.045C4.20264 25.3095 4.16611 25.5756 4.07399 25.8242C3.98188 26.0728 3.83646 26.2977 3.64819 26.4827H3.6322Z" fill="white"/>
<path d="M5.85921 23.4027V23.8819C5.965 23.6932 6.1247 23.5412 6.31741 23.4458C6.50627 23.3518 6.71429 23.3038 6.92478 23.3058C7.13581 23.3001 7.34587 23.3367 7.54282 23.4134C7.69284 23.4709 7.82389 23.5698 7.9211 23.6988C8.01987 23.8305 8.08732 23.9835 8.11823 24.1458C8.15643 24.3371 8.17429 24.5321 8.1715 24.7273V26.8488H7.2338V24.8996C7.24751 24.6801 7.20338 24.4609 7.10593 24.2642C7.05157 24.1922 6.98011 24.1352 6.89815 24.0985C6.8162 24.0617 6.7264 24.0465 6.63708 24.0542C6.5365 24.0476 6.43581 24.0652 6.34321 24.1054C6.25062 24.1457 6.16875 24.2074 6.10429 24.2858C5.96965 24.5123 5.90994 24.7764 5.9338 25.0396V26.8488H4.99609V23.4027H5.85921Z" fill="white"/>
<path d="M9.82886 23.4032V26.8494H8.89648V23.4032H9.82886ZM8.89648 22.8647V22.0894H9.82886V22.8701L8.89648 22.8647Z" fill="white"/>
<path d="M12.4456 23.403V24.033H11.7583V25.7291C11.7449 25.8431 11.7733 25.9581 11.8382 26.0522C11.9312 26.1133 12.0423 26.14 12.1526 26.1276H12.3018H12.4456V26.8653C12.3569 26.8713 12.2679 26.8713 12.1792 26.8653H11.8968C11.7577 26.8657 11.6187 26.8549 11.4813 26.833C11.3614 26.8148 11.2459 26.7746 11.1403 26.7145C11.0397 26.6596 10.9579 26.5751 10.9059 26.4722C10.8431 26.3416 10.8138 26.1972 10.8206 26.0522V24.033H10.2559V23.403H10.8206V22.3691H11.7583V23.403H12.4456Z" fill="white"/>
<path d="M14.9492 24.2047C14.8792 24.1365 14.7952 24.0847 14.7031 24.053C14.611 24.0214 14.5131 24.0107 14.4164 24.0217C14.2895 24.015 14.1631 24.0409 14.0488 24.097C13.9565 24.1419 13.8748 24.2062 13.809 24.2855C13.7521 24.3577 13.7088 24.4398 13.6812 24.5278C13.6612 24.602 13.647 24.6776 13.6386 24.754H15.1623C15.1338 24.5564 15.0528 24.3703 14.9279 24.2155L14.9492 24.2047ZM13.8836 26.0194C14.034 26.1377 14.2163 26.2072 14.4065 26.2187C14.5967 26.2302 14.7859 26.1833 14.9492 26.084C15.0649 26.0136 15.1533 25.9053 15.1996 25.777H16.0254C15.9382 26.1303 15.7354 26.4433 15.45 26.6655C15.1529 26.8514 14.8083 26.945 14.459 26.9347C14.2111 26.9389 13.9648 26.8931 13.7345 26.8001C13.5323 26.7192 13.3504 26.5942 13.2017 26.434C13.0474 26.2687 12.9294 26.0723 12.8554 25.8578C12.7695 25.6236 12.7279 25.3752 12.7328 25.1255C12.7314 24.8813 12.7729 24.6389 12.8554 24.4094C12.9338 24.1945 13.0554 23.9984 13.2123 23.8332C13.3628 23.6697 13.5439 23.5379 13.7451 23.4455C13.9696 23.3511 14.2106 23.3035 14.4537 23.3055C14.7177 23.3002 14.9791 23.3593 15.2156 23.4778C15.4265 23.5857 15.609 23.7426 15.7484 23.9355C15.8895 24.1313 15.9926 24.3524 16.0521 24.587C16.1112 24.8372 16.1328 25.095 16.116 25.3517H13.6545C13.6449 25.5964 13.7288 25.8355 13.889 26.0194H13.8836Z" fill="white"/>
<path d="M19.057 24.7058C19.0328 24.5814 18.9858 24.4627 18.9185 24.3558C18.8549 24.2583 18.7713 24.1756 18.6734 24.1135C18.5558 24.0493 18.4234 24.0177 18.2898 24.0219C18.1546 24.0185 18.0207 24.05 17.9009 24.1135C17.7978 24.173 17.7116 24.2583 17.6505 24.3612C17.5843 24.4687 17.5374 24.5872 17.5119 24.7112C17.4796 24.8451 17.4635 24.9825 17.464 25.1204C17.4642 25.2547 17.4803 25.3885 17.5119 25.5189C17.5401 25.6454 17.5906 25.7658 17.6611 25.8743C17.7267 25.9782 17.814 26.0664 17.9169 26.1327C18.0299 26.1992 18.159 26.2327 18.2898 26.2296C18.4258 26.2341 18.5604 26.2005 18.6787 26.1327C18.7792 26.0716 18.8633 25.9865 18.9238 25.885C18.9886 25.7735 19.0337 25.6514 19.057 25.5243C19.0831 25.3895 19.0956 25.2524 19.0943 25.115C19.0959 24.9777 19.0834 24.8405 19.057 24.7058ZM19.0943 26.4073C18.9914 26.5853 18.8345 26.7251 18.6468 26.8058C18.4572 26.8902 18.2519 26.9325 18.0447 26.9296C17.8124 26.9333 17.5824 26.8817 17.3734 26.7789C17.1833 26.6835 17.0188 26.5431 16.8939 26.3696C16.7643 26.1936 16.6685 25.9945 16.6115 25.7827C16.5473 25.5569 16.515 25.3231 16.5156 25.0881C16.515 24.862 16.5473 24.637 16.6115 24.4204C16.6686 24.2136 16.7645 24.0198 16.8939 23.8496C17.0193 23.6836 17.1794 23.5476 17.3628 23.4512C17.5682 23.3491 17.7945 23.2974 18.0234 23.3004C18.223 23.2989 18.4202 23.345 18.5988 23.435C18.7805 23.5131 18.9333 23.6468 19.0357 23.8173V22.0889H19.9734V26.8489H19.0837V26.4073H19.0943Z" fill="white"/>
<path d="M23.4418 25.6753C23.4973 25.7812 23.5756 25.8732 23.6709 25.9445C23.7702 26.016 23.8824 26.0672 24.0012 26.0953C24.1312 26.1324 24.2657 26.1505 24.4008 26.1491C24.499 26.1477 24.597 26.1387 24.6938 26.1222C24.7969 26.1084 24.8974 26.0793 24.9922 26.0361C25.0818 25.9917 25.1601 25.9272 25.2213 25.8476C25.2882 25.7642 25.3224 25.6587 25.3172 25.5514C25.3185 25.4937 25.3083 25.4364 25.2873 25.3827C25.2662 25.3291 25.2347 25.2802 25.1946 25.2391C25.1026 25.1515 24.9938 25.0837 24.875 25.0399C24.7297 24.9813 24.58 24.9345 24.4274 24.8999C24.2569 24.8622 24.0918 24.8191 23.8947 24.7653C23.7136 24.7238 23.5356 24.6698 23.3619 24.6037C23.2008 24.5453 23.0498 24.4617 22.9143 24.3561C22.7804 24.2527 22.6711 24.1202 22.5947 23.9684C22.5082 23.8027 22.4659 23.6171 22.4721 23.4299C22.465 23.2078 22.5184 22.988 22.6266 22.7945C22.7293 22.6172 22.8672 22.4632 23.0315 22.3422C23.2035 22.2223 23.3945 22.133 23.5963 22.0784C23.8028 22.021 24.0161 21.992 24.2303 21.9922C24.4688 21.9913 24.7066 22.0184 24.9389 22.073C25.1541 22.1249 25.3582 22.2162 25.541 22.3422C25.716 22.4669 25.8601 22.631 25.9619 22.8214C26.07 23.0401 26.1231 23.2824 26.1164 23.5268H25.1147C25.1115 23.403 25.0806 23.2814 25.0242 23.1714C24.9775 23.0825 24.9098 23.0067 24.827 22.9507C24.7387 22.8956 24.6412 22.8573 24.5393 22.8376C24.4216 22.8152 24.3021 22.8044 24.1824 22.8053C24.0999 22.8036 24.0175 22.8126 23.9373 22.8322C23.8559 22.8481 23.7782 22.8791 23.7082 22.9237L23.5377 23.0907C23.4922 23.1668 23.47 23.2549 23.4737 23.3437C23.4698 23.4227 23.4883 23.5012 23.527 23.5699C23.5778 23.6445 23.6505 23.701 23.7348 23.7314C23.8725 23.7923 24.0151 23.8409 24.161 23.8768L24.875 24.0653C24.9993 24.0902 25.1221 24.1226 25.2426 24.1622C25.4079 24.2101 25.5644 24.2847 25.7061 24.383C25.8648 24.4914 26.0006 24.6305 26.1057 24.7922C26.2251 24.9895 26.2844 25.218 26.2762 25.4491C26.2782 25.659 26.2346 25.8667 26.1483 26.0576C26.064 26.2468 25.9361 26.413 25.7754 26.5422C25.593 26.6853 25.3849 26.7913 25.1627 26.8545C24.8875 26.9349 24.6019 26.973 24.3156 26.9676C24.0624 26.9672 23.8103 26.9365 23.5643 26.8761C23.3309 26.8147 23.1106 26.7107 22.9143 26.5691C22.7248 26.4297 22.5728 26.2446 22.4721 26.0307C22.3549 25.7958 22.2998 25.5342 22.3123 25.2714H23.3139C23.3089 25.4128 23.3381 25.5533 23.3992 25.6807L23.4418 25.6753Z" fill="white"/>
<path d="M28.6898 23.403V24.033H28.0025V25.7291C27.989 25.8431 28.0175 25.9581 28.0824 26.0522C28.1757 26.1125 28.2865 26.1391 28.3967 26.1276H28.5512H28.6898V26.8653C28.6011 26.8713 28.5121 26.8713 28.4234 26.8653H28.141C28.0036 26.8659 27.8664 26.8551 27.7307 26.833C27.609 26.8157 27.4915 26.7755 27.3844 26.7145C27.2845 26.6604 27.2042 26.5756 27.1553 26.4722C27.0907 26.3421 27.0596 26.1977 27.0648 26.0522V24.033H26.5V23.403H27.0648V22.3691H28.0025V23.403H28.6898Z" fill="white"/>
<path d="M31.1135 25.2456L30.9217 25.2941L30.7086 25.3264L30.4848 25.3641L30.277 25.4125L30.0959 25.5041L29.9733 25.6494C29.9407 25.7181 29.9261 25.7941 29.9307 25.8702C29.9272 25.9427 29.9418 26.015 29.9733 26.0802L30.1012 26.2202L30.2823 26.2848H30.5008C30.65 26.2923 30.7987 26.2608 30.9323 26.1933C31.0253 26.1415 31.1027 26.0652 31.1561 25.9725C31.2003 25.8906 31.2292 25.8012 31.2414 25.7087C31.2414 25.6171 31.2414 25.5471 31.2414 25.4933V25.1379L31.0922 25.2241L31.1135 25.2456ZM29.2647 23.9102C29.3598 23.7657 29.4853 23.6444 29.6323 23.5548C29.7896 23.4641 29.9606 23.4004 30.1385 23.3664C30.3226 23.328 30.51 23.3082 30.6979 23.3071C30.8761 23.3087 31.054 23.3213 31.2307 23.3448C31.3968 23.3688 31.5585 23.4178 31.7102 23.4902C31.8532 23.555 31.9764 23.6573 32.0672 23.7864C32.1664 23.9335 32.215 24.1094 32.2057 24.2871V26.0802C32.1973 26.2291 32.1973 26.3783 32.2057 26.5271C32.2151 26.6404 32.2478 26.7504 32.3016 26.8502H31.3479L31.3053 26.6833V26.5164C31.1595 26.6703 30.9755 26.7819 30.7725 26.8394C30.5726 26.9035 30.3642 26.9362 30.1545 26.9364C29.9995 26.9374 29.8451 26.9156 29.6963 26.8717C29.5625 26.8373 29.4372 26.7749 29.3287 26.6887C29.2226 26.601 29.1371 26.4907 29.0782 26.3656C29.0171 26.2211 28.988 26.0649 28.993 25.9079C28.9863 25.7404 29.0211 25.5738 29.0942 25.4233C29.1579 25.3027 29.2493 25.1993 29.3606 25.1217C29.4735 25.0452 29.5975 24.987 29.7283 24.9494C29.8651 24.913 30.0038 24.8842 30.1438 24.8633C30.2877 24.8633 30.4262 24.8202 30.5594 24.8094C30.6813 24.798 30.8024 24.7782 30.9217 24.7502C31.0127 24.7295 31.0981 24.6891 31.1721 24.6317C31.2037 24.605 31.2284 24.571 31.2442 24.5326C31.2599 24.4941 31.2663 24.4524 31.2627 24.411C31.2658 24.3269 31.2474 24.2435 31.2094 24.1687L31.0762 24.0233L30.8897 23.9587C30.8117 23.9531 30.7333 23.9531 30.6553 23.9587C30.5008 23.9489 30.3473 23.9905 30.2184 24.0771C30.1613 24.1265 30.1151 24.1875 30.083 24.2562C30.0508 24.3249 30.0334 24.3996 30.0319 24.4756H29.0996C29.1033 24.284 29.1606 24.0973 29.2647 23.9371V23.9102Z" fill="white"/>
<path d="M34.7952 23.403V24.033H34.0973V25.7291C34.0839 25.8431 34.1123 25.9581 34.1772 26.0522C34.2705 26.1125 34.3813 26.1391 34.4915 26.1276H34.646H34.7846V26.8653C34.6959 26.8713 34.6069 26.8713 34.5182 26.8653H34.2358C34.0984 26.8659 33.9612 26.8551 33.8256 26.833C33.7038 26.8157 33.5864 26.7755 33.4792 26.7145C33.3793 26.6604 33.2991 26.5756 33.2501 26.4722C33.1855 26.3421 33.1544 26.1977 33.1596 26.0522V24.033H32.6055V23.403H33.1702V22.3691H34.0973V23.403H34.7952Z" fill="white"/>
<path d="M37.2944 24.2048C37.2244 24.1366 37.1404 24.0848 37.0483 24.0531C36.9562 24.0215 36.8583 24.0108 36.7616 24.0218C36.6463 24.0148 36.5309 24.035 36.4245 24.0807C36.3182 24.1265 36.2239 24.1967 36.1489 24.2856C36.0915 24.3567 36.0498 24.4393 36.0264 24.5279C36.0038 24.6015 35.9896 24.6773 35.9838 24.7541H37.5075C37.4768 24.5571 37.396 24.3716 37.2731 24.2156L37.2944 24.2048ZM36.2288 26.0195C36.3828 26.1434 36.571 26.2161 36.7675 26.2277C36.964 26.2393 37.1592 26.1891 37.3264 26.0841C37.4407 26.0121 37.5287 25.9043 37.5768 25.7772H38.3973C38.315 26.1312 38.1135 26.4453 37.8272 26.6656C37.5317 26.8507 37.1891 26.9443 36.8416 26.9348C36.5935 26.94 36.347 26.8942 36.117 26.8002C35.9145 26.72 35.7325 26.5949 35.5842 26.4341C35.4299 26.2688 35.3119 26.0725 35.2379 25.8579C35.1545 25.6231 35.113 25.3751 35.1153 25.1256C35.113 24.8809 35.1563 24.6379 35.2432 24.4095C35.3178 24.194 35.4378 23.9974 35.5948 23.8333C35.7457 23.6702 35.9267 23.5385 36.1276 23.4456C36.352 23.3508 36.5931 23.3032 36.8362 23.3056C37.0986 23.2994 37.3584 23.3586 37.5928 23.4779C37.8043 23.5848 37.9871 23.7418 38.1256 23.9356C38.2671 24.1305 38.3685 24.352 38.4239 24.5872C38.4883 24.8365 38.5099 25.0951 38.4879 25.3518H36.0157C36.0046 25.5958 36.0866 25.8348 36.2448 26.0195H36.2288Z" fill="white"/>
<path d="M39.8138 25.9934L39.9789 26.1711C40.0459 26.2201 40.122 26.2549 40.2027 26.2734C40.2899 26.295 40.3793 26.3059 40.4691 26.3057H40.6769L40.874 26.2303L41.0232 26.1011C41.0663 26.0398 41.0887 25.9662 41.0871 25.8911C41.0871 25.7457 40.9912 25.638 40.8047 25.568C40.549 25.479 40.2873 25.4089 40.0215 25.358L39.622 25.2449C39.4994 25.2058 39.3829 25.1496 39.2757 25.078C39.1763 25.0126 39.094 24.9239 39.0359 24.8195C38.9686 24.7039 38.9353 24.5713 38.94 24.4372C38.9354 24.2495 38.9795 24.0639 39.0679 23.8987C39.1537 23.7617 39.2706 23.6473 39.4088 23.5649C39.5564 23.4813 39.7166 23.423 39.883 23.3926C40.2349 23.3229 40.5968 23.3229 40.9486 23.3926C41.1122 23.4267 41.269 23.4886 41.4121 23.5757C41.5492 23.6596 41.6657 23.7737 41.7531 23.9095C41.851 24.0723 41.9061 24.2576 41.9129 24.448H41.0232C41.0251 24.3728 41.0068 24.2986 40.9702 24.2331C40.9336 24.1677 40.8801 24.1135 40.8154 24.0764C40.6815 24.0092 40.5334 23.976 40.3838 23.9795H40.2134L40.0429 24.0226L39.9576 24.1141L39.9043 24.2811C39.9036 24.3206 39.9113 24.3598 39.9269 24.3961C39.9426 24.4323 39.9658 24.4647 39.9949 24.4911C40.0661 24.5489 40.1475 24.5928 40.2347 24.6203C40.3467 24.6567 40.4605 24.6872 40.5757 24.7118C40.7035 24.7118 40.8314 24.7657 40.9646 24.798C41.0978 24.8303 41.2363 24.868 41.3642 24.9111C41.4881 24.9516 41.6049 25.0116 41.7105 25.0887C41.8196 25.1617 41.9079 25.2622 41.9668 25.3802C42.0257 25.4983 42.053 25.6298 42.0461 25.7618C42.0548 25.9609 42.0087 26.1585 41.9129 26.3326C41.8243 26.4812 41.7042 26.6081 41.5613 26.7041C41.407 26.7981 41.2374 26.8637 41.0605 26.898C40.8728 26.9366 40.6819 26.9564 40.4904 26.9572C40.2951 26.9573 40.1003 26.9356 39.9097 26.8926C39.7325 26.8592 39.5628 26.7935 39.4088 26.6987C39.2614 26.6047 39.1375 26.4775 39.0465 26.3272C38.9447 26.1524 38.8896 25.9539 38.8867 25.7511H39.7765C39.7751 25.8431 39.7971 25.9339 39.8404 26.0149L39.8138 25.9934Z" fill="white"/>
<path d="M44.1289 22.9666V22.0889H47.9863V22.9666H46.5744V26.8489H45.5408V22.9666H44.1289Z" fill="white"/>
<path d="M48.5671 25.5291C48.5932 25.6546 48.64 25.7747 48.7056 25.8845C48.7651 25.9886 48.8517 26.0743 48.956 26.1322C49.0788 26.1959 49.2149 26.2292 49.353 26.2292C49.491 26.2292 49.6271 26.1959 49.7499 26.1322C49.8572 26.0746 49.9473 25.9891 50.0109 25.8845C50.0749 25.7744 50.1199 25.6543 50.1441 25.5291C50.1702 25.3961 50.1828 25.2608 50.1814 25.1252C50.1822 24.9897 50.1697 24.8544 50.1441 24.7214C50.1217 24.5957 50.0766 24.4752 50.0109 24.366C49.9458 24.2627 49.856 24.1775 49.7499 24.1183C49.6271 24.0545 49.491 24.0213 49.353 24.0213C49.2149 24.0213 49.0788 24.0545 48.956 24.1183C48.8529 24.1778 48.7667 24.2631 48.7056 24.366C48.6382 24.4749 48.5913 24.5953 48.5671 24.7214C48.5415 24.8544 48.529 24.9897 48.5298 25.1252C48.5285 25.2608 48.541 25.3961 48.5671 25.5291ZM47.7146 24.3768C47.7925 24.1632 47.9142 23.9687 48.0716 23.806C48.2208 23.6463 48.4026 23.5214 48.6044 23.4398C49.073 23.2603 49.5903 23.2603 50.0589 23.4398C50.2707 23.517 50.462 23.6423 50.6183 23.806C50.7758 23.9687 50.8974 24.1632 50.9753 24.3768C51.0587 24.6172 51.1001 24.8705 51.0978 25.1252C51.1006 25.38 51.0591 25.6334 50.9753 25.8737C50.8955 26.0863 50.7741 26.2804 50.6183 26.4445C50.4651 26.6005 50.282 26.7232 50.0802 26.8052C49.6104 26.9776 49.0955 26.9776 48.6257 26.8052C48.4262 26.7219 48.245 26.5993 48.0929 26.4445C47.9372 26.2804 47.8158 26.0863 47.736 25.8737C47.6522 25.6334 47.6107 25.38 47.6134 25.1252C47.6111 24.8705 47.6526 24.6172 47.736 24.3768H47.7146Z" fill="white"/>
<path d="M54.0339 26.85V26.3653C53.9281 26.554 53.7684 26.7061 53.5757 26.8015C53.3938 26.8875 53.1958 26.9333 52.995 26.9361C52.7843 26.9435 52.5743 26.9088 52.377 26.8338C52.2269 26.7763 52.0959 26.6774 51.9987 26.5484C51.9037 26.4165 51.8366 26.2662 51.8016 26.1069C51.7636 25.9137 51.7458 25.7169 51.7483 25.52V23.4038H52.686V25.3477C52.6718 25.5672 52.7159 25.7866 52.8139 25.983C52.8682 26.0551 52.9397 26.1121 53.0216 26.1488C53.1036 26.1855 53.1934 26.2007 53.2827 26.193C53.3828 26.1994 53.4829 26.1823 53.5753 26.1431C53.6678 26.1039 53.75 26.0436 53.8155 25.9669C53.9492 25.7379 54.0088 25.4725 53.986 25.2077V23.4038H54.9237V26.85H54.0339Z" fill="white"/>
<path d="M56.5274 23.4021V24.0375C56.5735 23.9306 56.6345 23.8308 56.7085 23.7413C56.7833 23.6532 56.8693 23.5753 56.9642 23.5098C57.0606 23.4467 57.1644 23.396 57.2733 23.359C57.3856 23.3245 57.5022 23.3064 57.6196 23.3052L57.822 23.3375V24.2206H57.6622H57.4864C57.3362 24.2158 57.1869 24.2452 57.0495 24.3067C56.9361 24.3611 56.8374 24.4424 56.7618 24.5436C56.6882 24.649 56.6358 24.7679 56.6073 24.8936C56.5762 25.035 56.5619 25.1796 56.5647 25.3244V26.8806H55.627V23.4344L56.5274 23.4021Z" fill="white"/>
<path d="M61.0357 25.0726C61.0793 25.2528 61.1532 25.424 61.2542 25.5788C61.3565 25.7314 61.4935 25.8569 61.6538 25.9449C61.8386 26.0335 62.0406 26.0795 62.2452 26.0795C62.4497 26.0795 62.6517 26.0335 62.8366 25.9449C62.9968 25.8569 63.1338 25.7314 63.2361 25.5788C63.3372 25.424 63.4111 25.2528 63.4546 25.0726C63.5022 24.8807 63.5254 24.6835 63.5238 24.4857C63.5251 24.2826 63.5018 24.0801 63.4546 23.8826C63.4146 23.6913 63.3406 23.5088 63.2361 23.3442C63.1362 23.1895 62.9986 23.0634 62.8366 22.978C62.6527 22.8859 62.4503 22.838 62.2452 22.838C62.04 22.838 61.8376 22.8859 61.6538 22.978C61.4917 23.0634 61.3541 23.1895 61.2542 23.3442C61.1497 23.5088 61.0757 23.6913 61.0357 23.8826C60.9885 24.0801 60.9652 24.2826 60.9665 24.4857C60.9649 24.6835 60.9882 24.8807 61.0357 25.0726ZM60.0874 23.5003C60.1874 23.2071 60.343 22.9364 60.5456 22.7034C60.7461 22.4712 60.9955 22.2872 61.2755 22.1649C61.5813 22.0311 61.9119 21.965 62.2452 21.9711C62.58 21.9655 62.9123 22.0316 63.2202 22.1649C63.4978 22.2887 63.7451 22.4725 63.9448 22.7034C64.1473 22.9364 64.3029 23.2071 64.4029 23.5003C64.5102 23.8173 64.5625 24.1507 64.5575 24.4857C64.5625 24.8154 64.5102 25.1435 64.4029 25.4549C64.3028 25.7553 64.1433 26.0319 63.9341 26.268C63.7351 26.4996 63.4876 26.6835 63.2095 26.8065C62.9013 26.938 62.569 27.0022 62.2345 26.9949C61.9017 27.0027 61.5711 26.9385 61.2648 26.8065C60.9844 26.685 60.7348 26.5009 60.5349 26.268C60.3326 26.0389 60.1769 25.7718 60.0767 25.4819C59.9695 25.1704 59.9172 24.8424 59.9222 24.5126C59.9172 24.1776 59.9694 23.8443 60.0767 23.5272L60.0874 23.5003Z" fill="white"/>
<path d="M67.2744 26.1326C67.3762 26.0737 67.4622 25.9905 67.5248 25.8903C67.5904 25.783 67.6356 25.6643 67.658 25.5403C67.6857 25.4057 67.7 25.2686 67.7007 25.1311C67.7005 24.995 67.6844 24.8594 67.6527 24.7272C67.6285 24.6012 67.5816 24.4807 67.5142 24.3718C67.4484 24.2695 67.3611 24.1831 67.2584 24.1188C67.1413 24.0551 67.0105 24.0218 66.8775 24.0218C66.7445 24.0218 66.6137 24.0551 66.4966 24.1188C66.3946 24.1797 66.3086 24.2647 66.2461 24.3664C66.1788 24.4753 66.1318 24.5958 66.1076 24.7218C66.0818 24.8567 66.0693 24.9937 66.0703 25.1311C66.0684 25.2687 66.0827 25.4061 66.1129 25.5403C66.1372 25.6647 66.1841 25.7834 66.2515 25.8903C66.3148 25.9919 66.4028 26.0753 66.5072 26.1326C66.6216 26.2006 66.7528 26.2342 66.8855 26.2295C67.0215 26.2339 67.1561 26.2004 67.2744 26.1326ZM66.065 23.4026V23.8441C66.1645 23.6648 66.3174 23.5216 66.5019 23.4349C66.6814 23.3479 66.8782 23.3037 67.0773 23.3057C67.3174 23.2994 67.5553 23.353 67.7699 23.4618C67.9592 23.5584 68.1248 23.6964 68.2548 23.8657C68.3844 24.0437 68.4802 24.2446 68.5371 24.458C68.5976 24.6863 68.628 24.9216 68.6277 25.158C68.6279 25.3837 68.5974 25.6083 68.5371 25.8257C68.477 26.0213 68.3812 26.204 68.2548 26.3641C68.1243 26.5389 67.9539 26.6791 67.7581 26.7729C67.5623 26.8667 67.347 26.9112 67.1306 26.9026C66.9291 26.9054 66.73 26.8592 66.5498 26.768C66.3702 26.6845 66.2171 26.5521 66.1076 26.3857V28.0011H65.1699V23.4026H66.065Z" fill="white"/>
<path d="M71.2538 24.2048C71.1838 24.1366 71.0997 24.0848 71.0076 24.0531C70.9155 24.0215 70.8177 24.0108 70.721 24.0218C70.5925 24.0158 70.4644 24.0417 70.348 24.0972C70.2582 24.1436 70.1786 24.2076 70.1136 24.2856C70.0567 24.3578 70.0133 24.4399 69.9857 24.5279C69.9658 24.6021 69.9515 24.6777 69.9431 24.7541H71.4669C71.4384 24.5565 71.3574 24.3704 71.2325 24.2156L71.2538 24.2048ZM70.1882 26.0195C70.341 26.1437 70.5283 26.2166 70.7241 26.2282C70.9199 26.2398 71.1143 26.1894 71.2804 26.0841C71.3961 26.0137 71.4845 25.9054 71.5308 25.7772H72.3566C72.261 26.135 72.0466 26.4487 71.7493 26.6656C71.4521 26.8515 71.1076 26.9451 70.7583 26.9348C70.5103 26.9396 70.2638 26.8938 70.0337 26.8002C69.8319 26.7187 69.6501 26.5938 69.5009 26.4341C69.3467 26.2688 69.2287 26.0725 69.1546 25.8579C69.0731 25.6227 69.0334 25.3748 69.0374 25.1256C69.0333 24.8812 69.0749 24.6383 69.1599 24.4095C69.2384 24.1946 69.3599 23.9985 69.5169 23.8333C69.6674 23.6698 69.8485 23.538 70.0497 23.4456C70.274 23.3508 70.5151 23.3032 70.7583 23.3056C71.0206 23.2994 71.2805 23.3586 71.5148 23.4779C71.7264 23.5848 71.9092 23.7418 72.0476 23.9356C72.1891 24.1305 72.2906 24.352 72.346 24.5872C72.4095 24.8366 72.4329 25.0948 72.4153 25.3518H69.9538C69.9441 25.5965 70.0281 25.8356 70.1882 26.0195Z" fill="white"/>
<path d="M73.8713 23.4021V24.0375C73.9174 23.9306 73.9784 23.8308 74.0524 23.7413C74.1273 23.6532 74.2132 23.5753 74.3082 23.5098C74.4045 23.4467 74.5084 23.396 74.6172 23.359C74.7295 23.3245 74.8461 23.3064 74.9635 23.3052L75.166 23.3375V24.2206H75.0061H74.8303C74.6801 24.2152 74.5306 24.2447 74.3934 24.3067C74.28 24.3611 74.1813 24.4424 74.1057 24.5436C74.0322 24.649 73.9797 24.7679 73.9512 24.8936C73.9201 25.035 73.9058 25.1796 73.9086 25.3244V26.8806H72.9922V23.4344L73.8713 23.4021Z" fill="white"/>
<path d="M77.5188 25.2436L77.327 25.2921L77.1139 25.3244L76.8901 25.3621L76.6823 25.4106L76.5011 25.5021L76.3786 25.6475C76.3492 25.7172 76.3347 25.7924 76.336 25.8683C76.335 25.9405 76.3496 26.0122 76.3786 26.0783L76.5065 26.2183L76.7196 26.2667H76.9327C77.082 26.2742 77.2306 26.2427 77.3643 26.1752C77.4573 26.1234 77.5346 26.0471 77.588 25.9544C77.6338 25.8727 77.6645 25.7833 77.6786 25.6906C77.6826 25.6188 77.6826 25.5469 77.6786 25.4752V25.1198L77.5294 25.2059L77.5188 25.2436ZM75.654 23.9083C75.7491 23.7638 75.8746 23.6424 76.0216 23.5529C76.1792 23.463 76.3501 23.3993 76.5278 23.3644C76.7119 23.3261 76.8993 23.3062 77.0872 23.3052C77.2654 23.3066 77.4434 23.3192 77.62 23.3429C77.7878 23.3669 77.9512 23.4159 78.1048 23.4883C78.2455 23.5545 78.3666 23.6566 78.4565 23.7844C78.5575 23.9308 78.6081 24.1068 78.6003 24.2852V26.0783C78.592 26.2271 78.592 26.3763 78.6003 26.5252C78.6123 26.6379 78.6449 26.7474 78.6962 26.8483H77.7852L77.7425 26.6813L77.7159 26.5144C77.5701 26.6684 77.3861 26.7799 77.1831 26.8375C76.9833 26.9019 76.7748 26.9346 76.5651 26.9344C76.4101 26.9354 76.2557 26.9137 76.1069 26.8698C75.9731 26.8353 75.8478 26.773 75.7393 26.6867C75.6334 26.6002 75.5493 26.4895 75.4942 26.3636C75.431 26.2148 75.3984 26.0545 75.3984 25.8925C75.3984 25.7305 75.431 25.5702 75.4942 25.4213C75.5579 25.3008 75.6492 25.1974 75.7606 25.1198C75.8734 25.0432 75.9975 24.9851 76.1282 24.9475C76.2667 24.9105 76.4073 24.8817 76.5491 24.8613C76.6876 24.8613 76.8262 24.8183 76.9647 24.8075C77.0865 24.7951 77.2075 24.7754 77.327 24.7483C77.4171 24.7252 77.5021 24.685 77.5774 24.6298C77.6073 24.602 77.6306 24.5677 77.6453 24.5294C77.6601 24.4911 77.666 24.45 77.6626 24.409C77.6685 24.3247 77.65 24.2406 77.6093 24.1667L77.4815 24.0213L77.2897 23.9567C77.2116 23.9509 77.1333 23.9509 77.0553 23.9567C76.9007 23.9469 76.7473 23.9885 76.6184 24.0752C76.5622 24.125 76.517 24.1863 76.4858 24.2549C76.4546 24.3236 76.4381 24.3981 76.4372 24.4736H75.4995C75.5063 24.2825 75.5633 24.0967 75.6647 23.9352L75.654 23.9083Z" fill="white"/>
<path d="M81.2015 23.403V24.033H80.5142V25.7291C80.5008 25.8431 80.5292 25.9581 80.5941 26.0522C80.6874 26.1125 80.7982 26.1391 80.9084 26.1276H81.0629H81.2015V26.8653C81.1146 26.8713 81.0273 26.8713 80.9404 26.8653H80.6527C80.5153 26.8659 80.3781 26.8551 80.2425 26.833C80.1224 26.8158 80.0066 26.7756 79.9015 26.7145C79.7996 26.6614 79.7173 26.5764 79.667 26.4722C79.6024 26.3421 79.5713 26.1977 79.5765 26.0522V24.033H79.0117V23.403H79.5765V22.3691H80.5142V23.403H81.2015Z" fill="white"/>
<path d="M82.5214 25.5294C82.5456 25.6546 82.5907 25.7748 82.6546 25.8848C82.7175 25.9881 82.8055 26.0733 82.9103 26.1325C83.03 26.2018 83.1667 26.2354 83.3046 26.2294C83.4439 26.2339 83.582 26.2004 83.7041 26.1325C83.8089 26.0733 83.8969 25.9881 83.9599 25.8848C84.0261 25.7759 84.0713 25.6553 84.0931 25.5294C84.121 25.3966 84.1353 25.2613 84.1357 25.1256C84.1347 24.9899 84.1204 24.8546 84.0931 24.7217C84.0732 24.5953 84.0278 24.4744 83.9599 24.3663C83.8954 24.2644 83.8077 24.1794 83.7041 24.1186C83.582 24.0507 83.4439 24.0172 83.3046 24.0217C83.1667 24.0157 83.03 24.0493 82.9103 24.1186C82.8067 24.1794 82.7191 24.2644 82.6546 24.3663C82.5889 24.4755 82.5438 24.596 82.5214 24.7217C82.4914 24.8542 82.4771 24.9897 82.4787 25.1256C82.4765 25.2614 82.4908 25.3971 82.5214 25.5294ZM81.6689 24.3771C81.7468 24.1636 81.8684 23.9691 82.0259 23.8063C82.1732 23.6444 82.3555 23.5191 82.5587 23.4402C82.7887 23.3462 83.0352 23.3004 83.2833 23.3056C83.533 23.3014 83.781 23.3472 84.0132 23.4402C84.215 23.5217 84.3968 23.6467 84.546 23.8063C84.7034 23.9691 84.825 24.1636 84.9029 24.3771C85.0732 24.8612 85.0732 25.3899 84.9029 25.874C84.8231 26.0866 84.7017 26.2807 84.546 26.4448C84.3938 26.5996 84.2127 26.7223 84.0132 26.8056C83.78 26.8943 83.5324 26.9381 83.2833 26.9348C83.0429 26.9364 82.8044 26.8926 82.58 26.8056C82.3791 26.7247 82.1976 26.6018 82.0472 26.4448C81.8914 26.2807 81.77 26.0866 81.6902 25.874C81.5199 25.3899 81.5199 24.8612 81.6902 24.3771H81.6689Z" fill="white"/>
<path d="M86.5717 23.4021V24.0375C86.6159 23.9307 86.6752 23.831 86.7476 23.7413C86.8243 23.6531 86.9121 23.5752 87.0086 23.5098C87.1044 23.4457 87.2084 23.395 87.3177 23.359C87.4282 23.3245 87.543 23.3064 87.6586 23.3052L87.8664 23.3375V24.2206H87.7066H87.5254C87.3769 24.2151 87.2292 24.2446 87.0939 24.3067C86.9805 24.3611 86.8818 24.4424 86.8062 24.5436C86.7283 24.6465 86.6754 24.7664 86.6517 24.8936C86.6188 25.0348 86.6027 25.1794 86.6037 25.3244V26.8806H85.666V23.4344L86.5717 23.4021Z" fill="white"/>
<path d="M89.0338 25.993L89.1936 26.1707C89.2626 26.2197 89.3404 26.2545 89.4227 26.273C89.5098 26.2951 89.5993 26.3059 89.6891 26.3053H89.8969L90.094 26.2299L90.2432 26.1007C90.2825 26.0379 90.3029 25.965 90.3018 25.8907C90.3018 25.7453 90.2112 25.6376 90.0194 25.5676C89.7656 25.4786 89.5056 25.4084 89.2416 25.3576C89.103 25.3253 88.9699 25.2876 88.842 25.2445C88.719 25.2064 88.6023 25.1502 88.4957 25.0776C88.396 25.0109 88.3123 24.9226 88.2506 24.8191C88.1877 24.702 88.1565 24.5701 88.16 24.4368C88.1555 24.2492 88.1995 24.0635 88.2879 23.8984C88.3707 23.7589 88.4883 23.6438 88.6289 23.5645C88.776 23.48 88.9364 23.4218 89.103 23.3922C89.2787 23.3584 89.457 23.3404 89.6358 23.3384C89.8147 23.3398 89.993 23.3579 90.1686 23.3922C90.3328 23.4244 90.4899 23.4864 90.6321 23.5753C90.7704 23.6577 90.8873 23.7721 90.9731 23.9091C91.0711 24.0719 91.1261 24.2573 91.133 24.4476H90.2539C90.2569 24.3729 90.2397 24.2988 90.204 24.2333C90.1683 24.1678 90.1155 24.1134 90.0514 24.0761C89.9156 24.0088 89.7657 23.9756 89.6145 23.9791H89.444L89.2735 24.0222L89.1457 24.1191L89.0924 24.2861C89.0911 24.3262 89.0992 24.3661 89.1158 24.4025C89.1325 24.439 89.1573 24.471 89.1883 24.4961C89.2581 24.556 89.3399 24.6001 89.4281 24.6253C89.5399 24.6623 89.6537 24.6929 89.769 24.7168C89.8969 24.7168 90.0248 24.7707 90.158 24.803C90.2912 24.8353 90.4244 24.873 90.5522 24.9161C90.6782 24.9555 90.797 25.0155 90.9039 25.0938C91.0037 25.1631 91.0859 25.2554 91.1436 25.363C91.2108 25.4865 91.244 25.626 91.2395 25.7668C91.2466 25.9664 91.1986 26.164 91.101 26.3376C91.0124 26.4862 90.8923 26.6131 90.7494 26.7091C90.5974 26.804 90.4294 26.8697 90.2539 26.903C90.0662 26.9416 89.8753 26.9615 89.6838 26.9622C89.4884 26.9629 89.2936 26.9412 89.103 26.8976C88.9242 26.8643 88.7527 26.7986 88.5969 26.7038C88.4508 26.6081 88.3271 26.4813 88.2346 26.3322C88.1322 26.1579 88.0788 25.9587 88.0801 25.7561H88.9752C88.9738 25.8481 88.9958 25.9389 89.0391 26.0199L89.0338 25.993Z" fill="white"/>
<path d="M96.1253 25.0073L95.5285 23.2627L94.9158 25.0073H96.1253ZM96.0667 22.0889L97.8249 26.8489H96.7593L96.4077 25.7719H94.6441L94.2765 26.8489H93.2109L94.9904 22.0889H96.0667Z" fill="white"/>
<path d="M98.9221 25.993L99.0872 26.1707C99.1542 26.2197 99.2304 26.2545 99.311 26.273C99.3982 26.2947 99.4876 26.3055 99.5774 26.3053H99.7852L99.9823 26.2299L100.132 26.1007C100.173 26.0389 100.194 25.9653 100.19 25.8907C100.19 25.7453 100.1 25.6376 99.9131 25.5676C99.6571 25.4794 99.3954 25.4093 99.1299 25.3576C98.9913 25.3253 98.8635 25.2876 98.7303 25.2445C98.6077 25.2054 98.4912 25.1492 98.384 25.0776C98.2843 25.0109 98.2006 24.9226 98.1389 24.8191C98.076 24.702 98.0448 24.5701 98.0483 24.4368C98.0438 24.2492 98.0878 24.0635 98.1762 23.8984C98.262 23.7614 98.3789 23.6469 98.5172 23.5645C98.6643 23.48 98.8247 23.4218 98.9913 23.3922C99.167 23.3584 99.3453 23.3404 99.5241 23.3384C99.703 23.3398 99.8813 23.3578 100.057 23.3922C100.222 23.4254 100.381 23.4873 100.526 23.5753C100.662 23.6579 100.778 23.7724 100.861 23.9091C100.959 24.0724 101.016 24.2572 101.027 24.4476H100.163C100.164 24.3727 100.146 24.2988 100.109 24.2336C100.073 24.1684 100.02 24.114 99.9557 24.0761C99.8217 24.0089 99.6736 23.9756 99.5241 23.9791H99.3536L99.1831 24.0222L99.0553 24.1191L99.002 24.2861C99.0012 24.3256 99.009 24.3648 99.0246 24.4011C99.0402 24.4373 99.0634 24.4697 99.0926 24.4961C99.1638 24.5539 99.2451 24.5978 99.3323 24.6253C99.4444 24.6617 99.5582 24.6922 99.6733 24.7168C99.8012 24.7168 99.9344 24.7707 100.062 24.803C100.19 24.8353 100.334 24.873 100.462 24.9161C100.586 24.9567 100.703 25.0166 100.808 25.0938C100.917 25.1667 101.006 25.2672 101.064 25.3852C101.123 25.5033 101.151 25.6348 101.144 25.7668C101.152 25.9659 101.106 26.1635 101.011 26.3376C100.922 26.4877 100.799 26.6149 100.654 26.7091C100.502 26.804 100.334 26.8697 100.158 26.903C99.9705 26.9416 99.7796 26.9615 99.5881 26.9622C99.3927 26.9623 99.198 26.9406 99.0073 26.8976C98.8287 26.8633 98.6574 26.7977 98.5012 26.7038C98.3562 26.6067 98.2328 26.4802 98.1389 26.3322C98.0389 26.1569 97.9857 25.9584 97.9844 25.7561H98.8741C98.8728 25.8481 98.8948 25.9389 98.9381 26.0199L98.9221 25.993Z" fill="white"/>
<path d="M102.464 25.993L102.624 26.1707C102.693 26.2197 102.771 26.2545 102.853 26.273C102.94 26.2947 103.03 26.3055 103.12 26.3053H103.327L103.525 26.2299L103.674 26.1007C103.713 26.0379 103.733 25.965 103.732 25.8907C103.732 25.7453 103.642 25.6376 103.45 25.5676C103.196 25.4793 102.936 25.4091 102.672 25.3576C102.534 25.3253 102.4 25.2876 102.273 25.2445C102.15 25.2054 102.033 25.1492 101.926 25.0776C101.827 25.0109 101.743 24.9226 101.681 24.8191C101.618 24.702 101.587 24.5701 101.591 24.4368C101.586 24.2492 101.63 24.0635 101.718 23.8984C101.801 23.7589 101.919 23.6438 102.059 23.5645C102.207 23.48 102.367 23.4218 102.534 23.3922C102.709 23.3584 102.888 23.3404 103.066 23.3384C103.245 23.3398 103.424 23.3579 103.599 23.3922C103.763 23.4254 103.92 23.4873 104.063 23.5753C104.201 23.6577 104.318 23.7721 104.404 23.9091C104.502 24.0719 104.557 24.2573 104.564 24.4476H103.674C103.677 24.3729 103.66 24.2988 103.624 24.2333C103.588 24.1678 103.535 24.1134 103.471 24.0761C103.336 24.0082 103.186 23.9749 103.034 23.9791H102.864L102.693 24.0222L102.571 24.1191L102.512 24.2861C102.511 24.3262 102.519 24.3661 102.536 24.4025C102.552 24.439 102.577 24.471 102.608 24.4961C102.679 24.555 102.76 24.5989 102.848 24.6253C102.96 24.6617 103.074 24.6922 103.189 24.7168C103.317 24.7168 103.445 24.7707 103.578 24.803L103.977 24.9161C104.101 24.9567 104.218 25.0166 104.324 25.0938C104.424 25.1631 104.506 25.2554 104.564 25.363C104.631 25.4865 104.664 25.626 104.659 25.7668C104.667 25.9664 104.619 26.164 104.521 26.3376C104.432 26.4862 104.312 26.6131 104.169 26.7091C104.017 26.804 103.849 26.8697 103.674 26.903C103.486 26.9416 103.295 26.9615 103.104 26.9622C102.908 26.9629 102.714 26.9412 102.523 26.8976C102.344 26.8643 102.173 26.7986 102.017 26.7038C101.872 26.6067 101.748 26.4802 101.655 26.3322C101.552 26.1579 101.499 25.9587 101.5 25.7561H102.39C102.388 25.8481 102.41 25.9389 102.454 26.0199L102.464 25.993Z" fill="white"/>
<path d="M106.087 25.5294C106.111 25.6546 106.156 25.7747 106.22 25.8847C106.283 25.988 106.371 26.0733 106.475 26.1324C106.595 26.2009 106.732 26.2345 106.87 26.2294C107.009 26.2344 107.147 26.2009 107.269 26.1324C107.374 26.0733 107.462 25.988 107.525 25.8847C107.591 25.7758 107.636 25.6553 107.658 25.5294C107.689 25.397 107.703 25.2614 107.701 25.1255C107.703 24.9897 107.688 24.8541 107.658 24.7217C107.638 24.5952 107.593 24.4743 107.525 24.3663C107.461 24.2643 107.373 24.1794 107.269 24.1186C107.147 24.0502 107.009 24.0166 106.87 24.0217C106.741 24.016 106.613 24.0449 106.499 24.1054C106.385 24.1659 106.288 24.2559 106.22 24.3663C106.154 24.4755 106.109 24.5959 106.087 24.7217C106.059 24.8545 106.045 24.9898 106.044 25.1255C106.044 25.2612 106.059 25.3966 106.087 25.5294ZM105.234 24.377C105.312 24.1635 105.434 23.969 105.591 23.8063C105.74 23.6466 105.922 23.5216 106.124 23.4401C106.354 23.3466 106.6 23.3008 106.848 23.3055C107.098 23.3008 107.346 23.3466 107.578 23.4401C107.79 23.5173 107.981 23.6426 108.138 23.8063C108.292 23.9703 108.412 24.1645 108.489 24.377C108.66 24.8612 108.66 25.3898 108.489 25.874C108.409 26.0852 108.29 26.279 108.138 26.4447C107.991 26.5984 107.815 26.721 107.621 26.8055C107.388 26.8946 107.14 26.9384 106.891 26.9347C106.644 26.9385 106.398 26.8947 106.166 26.8055C105.967 26.7222 105.786 26.5996 105.634 26.4447C105.478 26.2807 105.357 26.0865 105.277 25.874C105.113 25.3886 105.113 24.8624 105.277 24.377H105.234Z" fill="white"/>
<path d="M110.873 24.023C110.741 24.0174 110.611 24.0531 110.5 24.1253C110.398 24.1937 110.313 24.2838 110.249 24.3891C110.189 24.5025 110.144 24.624 110.116 24.7499C110.091 24.8794 110.078 25.011 110.079 25.143C110.078 25.2696 110.091 25.3959 110.116 25.5199C110.14 25.6427 110.183 25.7608 110.244 25.8699C110.301 25.9641 110.377 26.0445 110.468 26.1054C110.559 26.1663 110.662 26.2061 110.77 26.2221C110.878 26.238 110.988 26.2297 111.092 26.1977C111.197 26.1656 111.293 26.1107 111.374 26.0368C111.509 25.8897 111.588 25.6989 111.597 25.4984H112.503C112.489 25.7046 112.435 25.906 112.344 26.0908C112.252 26.2757 112.125 26.4404 111.97 26.5753C111.653 26.824 111.258 26.9518 110.857 26.9361C110.616 26.9398 110.377 26.894 110.154 26.8014C109.953 26.7205 109.771 26.5975 109.621 26.4407C109.47 26.2857 109.351 26.1029 109.269 25.9022C109.186 25.6747 109.145 25.4339 109.147 25.1914C109.144 24.9393 109.182 24.6883 109.259 24.4484C109.331 24.2296 109.447 24.0281 109.599 23.8561C109.749 23.6897 109.93 23.556 110.132 23.463C110.367 23.3666 110.619 23.319 110.873 23.323C111.069 23.3227 111.265 23.3499 111.454 23.4038C111.634 23.4535 111.803 23.5356 111.954 23.6461C112.101 23.757 112.224 23.8961 112.317 24.0553C112.412 24.2325 112.465 24.4298 112.471 24.6314H111.565C111.56 24.546 111.538 24.4624 111.5 24.3859C111.462 24.3094 111.409 24.2414 111.344 24.1861C111.279 24.1307 111.204 24.0892 111.123 24.064C111.042 24.0387 110.957 24.0303 110.873 24.0391V24.023Z" fill="white"/>
<path d="M114.016 23.4027V26.8489H113.057V23.4027H114.016ZM113.078 22.8643V22.0889H114.016V22.8696L113.078 22.8643Z" fill="white"/>
<path d="M116.706 25.2436L116.514 25.2921L116.301 25.3244L116.078 25.3621L115.87 25.4106L115.694 25.5021L115.571 25.6475C115.537 25.7157 115.52 25.7917 115.523 25.8683C115.522 25.9412 115.538 26.0135 115.571 26.0783L115.694 26.2183L115.88 26.2829H116.094C116.243 26.2904 116.391 26.2589 116.525 26.1913C116.618 26.1396 116.695 26.0633 116.749 25.9706C116.795 25.8889 116.825 25.7995 116.839 25.7067C116.843 25.635 116.843 25.5631 116.839 25.4913V25.1359L116.69 25.2221L116.706 25.2436ZM114.858 23.9083C114.953 23.7638 115.078 23.6424 115.225 23.5529C115.391 23.4602 115.571 23.3965 115.758 23.3644C115.933 23.3278 116.112 23.308 116.291 23.3052C116.469 23.3066 116.647 23.3192 116.823 23.3429C116.991 23.3669 117.155 23.4159 117.308 23.4883C117.45 23.5559 117.572 23.6576 117.665 23.7844C117.762 23.9325 117.811 24.1077 117.804 24.2852V26.0783C117.802 26.2277 117.81 26.3771 117.83 26.5252C117.836 26.6384 117.867 26.7489 117.921 26.8483H116.973L116.93 26.6813L116.903 26.5144C116.758 26.6684 116.574 26.7799 116.371 26.8375C116.171 26.9019 115.962 26.9346 115.753 26.9344C115.599 26.9356 115.447 26.9138 115.3 26.8698C115.164 26.8365 115.037 26.7741 114.927 26.6867C114.822 26.5987 114.739 26.4884 114.682 26.3636C114.619 26.2148 114.586 26.0545 114.586 25.8925C114.586 25.7305 114.619 25.5702 114.682 25.4213C114.745 25.3008 114.837 25.1974 114.948 25.1198C115.061 25.0432 115.185 24.9851 115.316 24.9475C115.454 24.9105 115.595 24.8817 115.737 24.8613C115.875 24.8613 116.014 24.8183 116.152 24.8075C116.274 24.7951 116.395 24.7754 116.514 24.7483C116.605 24.7265 116.69 24.6861 116.765 24.6298C116.796 24.6028 116.82 24.5686 116.835 24.5301C116.85 24.4916 116.855 24.4501 116.85 24.409C116.855 24.3255 116.838 24.2421 116.802 24.1667L116.669 24.0213L116.477 23.9567C116.399 23.9508 116.321 23.9508 116.243 23.9567C116.088 23.9469 115.935 23.9885 115.806 24.0752C115.75 24.125 115.705 24.1863 115.673 24.2549C115.642 24.3236 115.626 24.3981 115.625 24.4736H114.687C114.691 24.282 114.748 24.0954 114.852 23.9352L114.858 23.9083Z" fill="white"/>
<path d="M120.408 23.403V24.033H119.721V25.7291C119.708 25.8431 119.736 25.9581 119.801 26.0522C119.896 26.1129 120.009 26.1395 120.121 26.1276H120.27H120.408V26.8653C120.322 26.8713 120.234 26.8713 120.147 26.8653H119.865C119.726 26.8661 119.587 26.8553 119.449 26.833C119.329 26.8158 119.214 26.7756 119.108 26.7145C119.008 26.6596 118.926 26.5751 118.874 26.4722C118.811 26.3416 118.782 26.1972 118.789 26.0522V24.033H118.219V23.403H118.789V22.3691H119.721V23.403H120.408Z" fill="white"/>
<path d="M121.799 23.4027V26.8489H120.861V23.4027H121.799ZM120.861 22.8643V22.0889H121.799V22.8696L120.861 22.8643Z" fill="white"/>
<path d="M123.409 25.5293C123.433 25.6545 123.478 25.7746 123.542 25.8847C123.605 25.9879 123.693 26.0732 123.798 26.1324C123.921 26.1961 124.057 26.2294 124.195 26.2294C124.333 26.2294 124.469 26.1961 124.592 26.1324C124.698 26.0734 124.788 25.9881 124.853 25.8847C124.915 25.7736 124.96 25.6538 124.986 25.5293C125.012 25.3963 125.025 25.261 125.023 25.1254C125.024 24.9899 125.012 24.8546 124.986 24.7216C124.961 24.5965 124.916 24.4765 124.853 24.3662C124.782 24.2558 124.684 24.1659 124.568 24.1055C124.452 24.0451 124.323 24.0162 124.192 24.0216C124.063 24.0159 123.935 24.0448 123.821 24.1053C123.707 24.1658 123.611 24.2559 123.542 24.3662C123.477 24.4754 123.431 24.5959 123.409 24.7216C123.383 24.8546 123.371 24.9899 123.372 25.1254C123.37 25.261 123.383 25.3963 123.409 25.5293ZM122.541 24.377C122.619 24.1634 122.74 23.9689 122.898 23.8062C123.047 23.6465 123.229 23.5216 123.43 23.44C123.661 23.3471 123.907 23.3013 124.155 23.3054C124.405 23.3013 124.653 23.347 124.885 23.44C125.087 23.5208 125.269 23.6458 125.418 23.8062C125.574 23.9687 125.694 24.1634 125.769 24.377C125.94 24.8611 125.94 25.3898 125.769 25.8739C125.691 26.0862 125.572 26.2803 125.418 26.4447C125.266 26.6001 125.085 26.7228 124.885 26.8054C124.652 26.8941 124.404 26.938 124.155 26.9347C123.908 26.9379 123.662 26.8941 123.43 26.8054C123.231 26.7221 123.05 26.5995 122.898 26.4447C122.742 26.2806 122.62 26.0865 122.541 25.8739C122.457 25.6336 122.415 25.3802 122.418 25.1254C122.416 24.8707 122.457 24.6174 122.541 24.377Z" fill="white"/>
<path d="M127.458 23.4027V23.8819C127.564 23.6932 127.724 23.5412 127.916 23.4458C128.097 23.3558 128.296 23.308 128.497 23.3058C128.708 23.3001 128.918 23.3367 129.115 23.4134C129.265 23.4709 129.396 23.5698 129.494 23.6988C129.592 23.8305 129.66 23.9835 129.691 24.1458C129.729 24.3371 129.747 24.5321 129.744 24.7273V26.8488H128.828V24.8996C128.841 24.6801 128.797 24.4609 128.7 24.2642C128.645 24.1922 128.574 24.1352 128.492 24.0985C128.41 24.0617 128.32 24.0465 128.231 24.0542C128.13 24.0476 128.03 24.0652 127.937 24.1054C127.844 24.1457 127.762 24.2074 127.698 24.2858C127.563 24.5123 127.504 24.7764 127.528 25.0396V26.8488H126.59V23.4027H127.458Z" fill="white"/>
</g>
</g>
<defs>
<clipPath id="clip0_614_14296">
<rect width="130" height="28" fill="white" transform="translate(0 0.5)"/>
</clipPath>
</defs>
</svg>
