<svg width="100" height="93" viewBox="0 0 100 93" fill="none" xmlns="http://www.w3.org/2000/svg">
<g clip-path="url(#clip0_614_14248)">
<path d="M46.631 22.3147L43.7734 22.3672L44.828 79.8061L47.6855 79.7536L46.631 22.3147Z" fill="white"/>
<path d="M53.0418 80.2491L51.7383 78.6992C51.7769 78.6703 55.4268 75.5803 59.0284 70.1125C62.321 65.1164 66.2509 57.0398 66.2509 46.9417C66.2509 38.9037 64.2328 32.9161 62.5334 29.2965C60.6892 25.3786 58.8256 23.3282 58.8063 23.3089L60.9016 21.374C60.9885 21.4703 63.0258 23.6844 65.0536 27.9585C66.8978 31.8572 69.0993 38.3069 69.0993 46.9417C69.0993 51.7357 68.2786 56.5007 66.6757 61.1022C65.3915 64.7794 63.6052 68.3605 61.3554 71.7586C58.3525 76.2926 55.3688 79.2479 54.1426 80.3646C53.8046 80.6726 53.0418 80.2491 53.0418 80.2491Z" fill="white"/>
<path d="M38.4724 80.2106C37.1592 78.9784 34.3011 76.1001 31.4334 71.7586C29.1932 68.3701 27.3973 64.7794 26.113 61.1022C24.5005 56.4911 23.6895 51.7261 23.6895 46.9417C23.6895 38.3165 25.891 31.8572 27.7352 27.9585C29.7629 23.6844 31.8003 21.4607 31.8872 21.374L33.9825 23.3089L32.9397 22.3367L33.9921 23.2993C33.9728 23.3186 32.1093 25.369 30.265 29.2869C28.5656 32.9064 26.5476 38.9037 26.5476 46.9417C26.5476 57.0302 30.4774 65.1067 33.7701 70.1125C37.3716 75.5706 41.0215 78.6703 41.0601 78.6992L39.7759 80.2298C39.7663 80.2202 38.9069 80.6149 38.4724 80.2106Z" fill="white"/>
<path d="M6.95653 47.3555L7.11103 49.2711C7.17862 50.1182 7.01447 50.7825 6.62824 51.2734C6.24201 51.7547 5.68198 52.0243 4.93848 52.0917L0.477527 52.4575L0.390625 51.4082L5.18953 51.0135C5.48886 50.9846 5.73991 50.9172 5.93302 50.8113C6.12614 50.7055 6.28063 50.5707 6.38685 50.407C6.50271 50.253 6.5703 50.0701 6.60893 49.8776C6.63789 49.6851 6.64755 49.4925 6.6379 49.3096L6.4834 47.394L6.95653 47.3555Z" fill="white" stroke="white" stroke-miterlimit="10"/>
<path d="M7.01368 45.7761V46.8254L0.148438 46.8061L0.158093 45.7568L7.01368 45.7761Z" fill="white" stroke="white" stroke-miterlimit="10"/>
<path d="M7.00315 39.25C7.07074 39.404 7.12868 39.5773 7.17696 39.7698C7.22523 39.9624 7.26386 40.1549 7.29282 40.3474C7.32179 40.54 7.3411 40.7325 7.35076 40.925C7.36041 41.1175 7.35076 41.2812 7.3411 41.4256C7.28317 41.9358 7.15764 42.4171 6.96453 42.8503C6.77141 43.2835 6.50105 43.6589 6.18241 43.967C5.85412 44.275 5.46789 44.506 5.02372 44.6504C4.57956 44.8045 4.07746 44.843 3.52708 44.7852C2.98636 44.7274 2.51323 44.583 2.11734 44.3424C1.7118 44.1114 1.38351 43.8129 1.1228 43.4568C0.862096 43.1006 0.678636 42.7059 0.572423 42.2535C0.46621 41.8106 0.437243 41.3486 0.485521 40.8576C0.524144 40.4726 0.611046 40.0779 0.726915 39.664C0.842784 39.25 1.00693 38.8457 1.19039 38.4414C1.27729 38.4703 1.40282 38.4992 1.54765 38.5377C1.70215 38.5762 1.82767 38.6051 1.94354 38.6436C1.86629 38.7783 1.78905 38.9035 1.70215 39.0286C1.61524 39.1538 1.52834 39.2982 1.4511 39.4618C1.37385 39.6255 1.28695 39.8276 1.21936 40.0586C1.14211 40.2897 1.08418 40.5688 1.02624 40.8961C0.98762 41.2716 1.01659 41.6277 1.1228 41.9358C1.22901 42.2535 1.39316 42.5326 1.60559 42.7637C1.81801 42.9947 2.08838 43.1872 2.40702 43.3316C2.72566 43.476 3.07326 43.5723 3.45949 43.6108C3.90366 43.6589 4.3092 43.63 4.68577 43.5338C5.06235 43.4375 5.4003 43.2739 5.68997 43.0524C5.97964 42.831 6.22104 42.5423 6.4045 42.1957C6.58795 41.8492 6.70382 41.4641 6.7521 41.0213C6.79073 40.7036 6.77141 40.3763 6.70382 40.0586C6.63623 39.7313 6.52036 39.4233 6.35622 39.1056L7.00315 39.25Z" fill="white" stroke="white" stroke-miterlimit="10"/>
<path d="M8.86847 34.3894L8.39534 36.2569C8.18291 37.0752 7.80634 37.6528 7.28493 37.9897C6.76352 38.317 6.13589 38.394 5.42137 38.2111L1.08594 37.1041L2.21566 32.6855L2.69845 32.8107L1.97427 35.6312C1.95495 35.7756 1.96461 35.9008 2.00323 35.9874C2.04186 36.0837 2.10945 36.1607 2.21566 36.2281C2.31222 36.2954 2.4474 36.3532 2.6212 36.4013C2.79501 36.4495 2.99778 36.5072 3.23917 36.565L4.22406 36.8153L4.84202 34.4087L5.24757 34.5146L4.6296 36.9212L5.97175 37.2581C6.26142 37.3351 6.52212 37.3447 6.74421 37.3062C6.95663 37.2677 7.14975 37.1907 7.30424 37.0752C7.45873 36.9597 7.58426 36.8153 7.68081 36.6516C7.77737 36.4783 7.84496 36.3051 7.89324 36.1222L8.36637 34.2547L8.86847 34.3894Z" fill="white" stroke="white" stroke-miterlimit="10"/>
<path d="M9.37979 32.9541L8.9839 33.9264L4.87055 32.261C4.185 31.9819 3.72152 31.5487 3.49944 30.9615C3.27736 30.3743 3.32563 29.6812 3.65393 28.8725C3.80842 28.4971 4.00154 28.1794 4.22362 27.9195C4.4457 27.6596 4.69675 27.4671 4.97677 27.3419C5.25678 27.2072 5.54646 27.1494 5.8651 27.1494C6.18374 27.1494 6.51203 27.2264 6.85964 27.3612L10.973 29.0266L10.5771 29.9988L6.20305 28.2276C5.92303 28.1121 5.66233 28.0639 5.44024 28.0735C5.21816 28.0832 5.01539 28.1313 4.84159 28.2276C4.66778 28.3238 4.52295 28.449 4.40708 28.603C4.29121 28.7666 4.19465 28.9303 4.13672 29.1036C4.05947 29.2768 4.01119 29.4597 3.98223 29.6523C3.96291 29.8448 3.97257 30.0373 4.0305 30.2202C4.08844 30.4031 4.19465 30.586 4.34914 30.7497C4.50364 30.9133 4.71606 31.0577 5.00573 31.1636L9.37979 32.9541Z" fill="white" stroke="white" stroke-miterlimit="10"/>
<path d="M5.98076 24.9732C5.93248 24.5304 6.05801 24.0009 6.35734 23.3944C6.58907 22.9901 6.84012 22.634 7.09117 22.3259C7.35188 22.0179 7.65121 21.7195 8.01812 21.4307C8.19193 21.5847 8.40435 21.758 8.64575 21.9409C8.50091 22.0179 8.35608 22.0949 8.23055 22.1815C8.10503 22.2585 7.9795 22.3644 7.84432 22.4703C7.70914 22.5858 7.57396 22.7206 7.42912 22.8843C7.28429 23.0479 7.11048 23.2501 6.91737 23.4811C6.84012 23.6351 6.78219 23.7988 6.73391 23.9624C6.68563 24.1261 6.66632 24.2801 6.68563 24.4341C6.69529 24.5881 6.73391 24.7229 6.81116 24.848C6.87875 24.9732 6.99461 25.0791 7.13945 25.1561C7.22635 25.2042 7.33257 25.2331 7.45809 25.2235C7.58362 25.2138 7.7188 25.185 7.86363 25.1368C8.00847 25.0887 8.1533 25.0213 8.3078 24.9347C8.45263 24.848 8.59747 24.7421 8.7423 24.6363L9.91065 23.7506C10.1038 23.6062 10.2969 23.5003 10.49 23.4426C10.6928 23.3752 10.8859 23.3463 11.0693 23.3367C11.2528 23.3367 11.4363 23.3559 11.6101 23.4137C11.7839 23.4715 11.9384 23.5388 12.0735 23.6255C12.3149 23.7795 12.4887 23.9528 12.6239 24.1646C12.7591 24.3763 12.8363 24.6074 12.875 24.8577C12.9136 25.1079 12.8943 25.3679 12.8363 25.6374C12.7784 25.9069 12.6722 26.1765 12.5177 26.4364C12.3053 26.8022 12.0639 27.1295 11.7839 27.4375C11.5038 27.7456 11.2045 28.044 10.8955 28.3328C10.8086 28.2558 10.7121 28.1788 10.6059 28.0921C10.49 28.0055 10.3838 27.9189 10.2679 27.8226C10.461 27.7552 10.6348 27.6782 10.7893 27.5723C10.9438 27.4664 11.0983 27.3509 11.2238 27.2258C11.359 27.1006 11.4845 26.9562 11.6101 26.7926C11.7259 26.6289 11.8515 26.4556 11.9673 26.2727C12.0542 26.1187 12.1315 25.9551 12.1798 25.801C12.228 25.647 12.257 25.493 12.2473 25.3582C12.2377 25.2138 12.1991 25.0887 12.1122 24.9636C12.0253 24.8384 11.8997 24.7229 11.7163 24.6266C11.639 24.5881 11.5425 24.5496 11.4266 24.5111C11.3107 24.4726 11.1756 24.4534 11.0404 24.4534C10.9052 24.4534 10.77 24.463 10.6155 24.5015C10.4707 24.54 10.3258 24.617 10.1907 24.7229L9.02232 25.7144C8.62644 26.0513 8.24021 26.2439 7.85398 26.292C7.4774 26.3498 7.13945 26.2824 6.84012 26.0995C6.30906 25.801 6.02904 25.416 5.98076 24.9732Z" fill="white" stroke="white" stroke-miterlimit="10"/>
<path d="M16.6681 20.5261L15.4998 22.0567C14.9783 22.7306 14.4087 23.1156 13.8003 23.2119C13.192 23.3082 12.5837 23.1445 12.0044 22.6921L8.44141 19.9871L11.2126 16.3579L11.6085 16.666L9.84149 18.9763C9.76424 19.1014 9.72562 19.2169 9.72562 19.3228C9.72562 19.4287 9.75459 19.525 9.82218 19.6309C9.88977 19.7271 9.98633 19.833 10.1215 19.9486C10.2567 20.0641 10.4305 20.1892 10.6236 20.3432L11.4347 20.9593L12.9506 18.9763L13.2886 19.2266L11.7726 21.2L12.8734 22.0375C13.1148 22.2204 13.3465 22.3359 13.559 22.384C13.7714 22.4322 13.9838 22.4322 14.1673 22.3937C14.3604 22.3552 14.5245 22.2685 14.679 22.153C14.8335 22.0279 14.9687 21.8931 15.0846 21.7487L16.2529 20.2181L16.6681 20.5261Z" fill="white" stroke="white" stroke-miterlimit="10"/>
<path d="M19.0154 15.1543C19.2182 15.5586 19.3437 15.9629 19.3823 16.3672C19.4209 16.7619 19.392 17.147 19.2761 17.5128C19.1699 17.8786 18.9671 18.1866 18.6871 18.4465C18.6581 18.485 18.6099 18.5235 18.5616 18.5717C18.5133 18.6198 18.4361 18.6968 18.3202 18.8123C18.2043 18.9278 18.0402 19.0915 17.8278 19.3033C17.625 19.5054 17.3353 19.7942 16.9684 20.1504L12.1309 15.3083L13.4537 13.9991C13.8303 13.6237 14.2262 13.3445 14.6317 13.1616C15.0372 12.9787 15.4428 12.8921 15.8483 12.8921C16.2539 12.9017 16.6594 12.998 17.0553 13.1809C17.4512 13.3734 17.8374 13.6429 18.2043 14.0088C18.5326 14.3649 18.8126 14.75 19.0154 15.1543ZM13.5116 14.8559C13.473 14.9136 13.4537 14.9714 13.4634 15.0388C13.5309 15.1928 13.6758 15.395 13.9172 15.6356L16.3794 18.1C16.6304 18.3503 16.8332 18.5428 16.9877 18.6776C17.1422 18.8123 17.287 18.8797 17.4319 18.8797C17.8181 18.6102 18.1078 18.3406 18.3009 18.0807C18.494 17.8112 18.6195 17.5609 18.6775 17.3106C18.7354 17.0603 18.7257 16.8293 18.6678 16.5886C18.6099 16.3576 18.5133 16.1362 18.3974 15.9244C18.2719 15.7126 18.1367 15.5201 17.9726 15.3468C17.8084 15.1639 17.6539 15.0003 17.5091 14.8559C16.8525 14.2013 16.2056 13.8547 15.5587 13.8066C14.9117 13.7681 14.2841 14.0376 13.6951 14.6345C13.6082 14.7211 13.5503 14.7981 13.5116 14.8559Z" fill="white" stroke="white" stroke-miterlimit="10"/>
<path d="M22.8482 7.42549L26.1311 12.6334L25.2428 13.1917L21.9598 7.97419L19.9901 9.216L19.6328 8.62878L24.4414 5.61572L24.8083 6.19331L22.8482 7.42549Z" fill="white" stroke="white" stroke-miterlimit="10"/>
<path d="M22.8482 7.42549L26.1311 12.6334L25.2428 13.1917L21.9598 7.97419L19.9901 9.216L19.6328 8.62878L24.4414 5.61572L24.8083 6.19331L22.8482 7.42549Z" fill="white"/>
<path d="M32.7953 7.88692C32.7857 7.54037 32.6988 7.20345 32.5346 6.83765L31.7042 4.9605C31.5497 4.60432 31.347 4.29628 31.1056 4.05562C30.8642 3.81496 30.5745 3.63206 30.2655 3.52617C29.9469 3.42028 29.6089 3.38177 29.242 3.41065C28.8848 3.43953 28.4985 3.53579 28.1123 3.70907C27.2723 4.07487 26.7122 4.57544 26.4419 5.20116C26.1715 5.82687 26.2005 6.51035 26.5191 7.23233L27.3495 9.10948C27.6681 9.83146 28.1606 10.3128 28.7979 10.5438C29.0393 10.6304 29.2903 10.669 29.5607 10.669C30.0048 10.669 30.4973 10.5534 31.0187 10.3224C31.4049 10.1491 31.7429 9.93735 32.0036 9.69669C32.2739 9.4464 32.4767 9.16723 32.6022 8.86882C32.7471 8.56077 32.805 8.23347 32.7953 7.88692ZM31.5497 8.94583C31.4628 9.1191 31.3373 9.2635 31.1828 9.38864C31.0283 9.51378 30.8642 9.61005 30.6904 9.67743C30.5166 9.75444 30.3428 9.8122 30.14 9.84108C29.9469 9.86996 29.7538 9.86033 29.5703 9.8122C29.3772 9.76407 29.2034 9.66781 29.0296 9.51378C28.8655 9.36939 28.7206 9.15761 28.5951 8.87844L27.5426 6.48147C27.4171 6.2023 27.3592 5.95202 27.3688 5.73061C27.3688 5.5092 27.4171 5.30705 27.5136 5.13377C27.6005 4.9605 27.7261 4.8161 27.8806 4.69096C28.0351 4.56582 28.1992 4.46955 28.373 4.40217C28.5468 4.32516 28.7303 4.2674 28.9234 4.22889C29.1165 4.20001 29.3096 4.20964 29.5027 4.25777C29.6958 4.3059 29.8697 4.41179 30.0435 4.55619C30.2173 4.71021 30.3621 4.92199 30.4876 5.20116L31.5401 7.59813C31.6656 7.8773 31.7236 8.12758 31.7236 8.35862C31.6849 8.58002 31.6463 8.77255 31.5497 8.94583Z" fill="white" stroke="white" stroke-miterlimit="10"/>
<path d="M36.2893 1.1963L37.3032 0.926758L38.4619 5.20088C38.655 5.91323 38.5874 6.53895 38.2591 7.07802C37.9308 7.60748 37.3418 7.99253 36.5018 8.21394C36.1059 8.31983 35.7293 8.36796 35.3914 8.33908C35.0534 8.31983 34.7444 8.23319 34.4741 8.0888C34.2037 7.95403 33.972 7.75187 33.7789 7.50159C33.5857 7.2513 33.4506 6.94325 33.354 6.58708L32.1953 2.31296L33.2092 2.04342L34.4451 6.58708C34.5223 6.8855 34.6382 7.11653 34.7831 7.2898C34.9279 7.46308 35.092 7.58822 35.2658 7.66523C35.4493 7.74225 35.6328 7.78075 35.8355 7.78075C36.0383 7.78075 36.2218 7.75187 36.4052 7.69411C36.5887 7.64598 36.7625 7.5786 36.9363 7.48233C37.1101 7.38607 37.2453 7.2513 37.3611 7.09728C37.477 6.94325 37.5543 6.75073 37.5929 6.52932C37.6315 6.30791 37.6122 6.048 37.5253 5.75921L36.2893 1.1963Z" fill="white" stroke="white" stroke-miterlimit="10"/>
<path d="M36.2893 1.1963L37.3032 0.926758L38.4619 5.20088C38.655 5.91323 38.5874 6.53895 38.2591 7.07802C37.9308 7.60748 37.3418 7.99253 36.5018 8.21394C36.1059 8.31983 35.7293 8.36796 35.3914 8.33908C35.0534 8.31983 34.7444 8.23319 34.4741 8.0888C34.2037 7.95403 33.972 7.75187 33.7789 7.50159C33.5857 7.2513 33.4506 6.94325 33.354 6.58708L32.1953 2.31296L33.2092 2.04342L34.4451 6.58708C34.5223 6.8855 34.6382 7.11653 34.7831 7.2898C34.9279 7.46308 35.092 7.58822 35.2658 7.66523C35.4493 7.74225 35.6328 7.78075 35.8355 7.78075C36.0383 7.78075 36.2218 7.75187 36.4052 7.69411C36.5887 7.64598 36.7625 7.5786 36.9363 7.48233C37.1101 7.38607 37.2453 7.2513 37.3611 7.09728C37.477 6.94325 37.5543 6.75073 37.5929 6.52932C37.6315 6.30791 37.6122 6.048 37.5253 5.75921L36.2893 1.1963Z" fill="white"/>
<path d="M44.2846 6.82805L44.2749 6.75104C44.2653 6.67403 44.2556 6.59701 44.2459 6.51038V6.47187C44.2363 6.36598 44.2266 6.26972 44.217 6.19271C44.2073 6.14457 44.2073 6.10607 44.2073 6.07719C44.2073 6.05794 44.2073 6.04831 44.2073 6.04831C44.1784 5.8269 44.1397 5.63438 44.0721 5.47073C44.0046 5.29745 43.9273 5.15306 43.8307 5.02791C43.7342 4.90277 43.6087 4.79688 43.4735 4.71024C43.4542 4.70062 43.4349 4.68136 43.4156 4.67174C43.8018 4.46958 44.1108 4.20967 44.3328 3.87275C44.6225 3.42993 44.7384 2.89085 44.6998 2.26514V2.24588C44.5839 1.50465 44.2459 0.927068 43.7149 0.551639C43.1838 0.17621 42.4886 0.0318138 41.6389 0.128078C40.7506 0.233968 40.0843 0.532386 39.6402 1.02333C39.196 1.5239 39.0029 2.14962 39.0608 2.91011L39.6112 7.62704L41.0306 7.46339L40.7216 4.78725C40.8182 4.83538 40.9244 4.87389 41.0209 4.9124C41.243 4.98941 41.4458 5.03754 41.6292 5.06642C41.8417 5.12418 42.0155 5.18193 42.1506 5.22044C42.2762 5.26857 42.3727 5.3167 42.4596 5.37446C42.5272 5.43222 42.5852 5.49961 42.6238 5.58624C42.6721 5.69213 42.7107 5.83653 42.7493 6.0098C42.7493 6.05794 42.759 6.12532 42.7686 6.20233L42.7783 6.28897C42.7879 6.39486 42.7976 6.50075 42.8169 6.60664C42.8266 6.71253 42.8362 6.8088 42.8459 6.89543C42.8555 6.97244 42.8555 7.00132 42.8555 7.01095L42.7976 7.26124L44.3425 7.08796L44.3039 6.89543C44.2942 6.85693 44.2942 6.8473 44.2846 6.82805ZM43.039 7.02058C43.039 7.00132 43.039 6.94357 43.0293 6.85693C43.0197 6.77029 43.01 6.6644 43.0004 6.55851C42.9907 6.44299 42.9714 6.3371 42.9617 6.22159C42.9521 6.10607 42.9424 6.01943 42.9328 5.96167C42.8941 5.75952 42.8459 5.6055 42.7879 5.48998C42.73 5.37446 42.6624 5.2782 42.5658 5.20119C42.4693 5.1338 42.3534 5.06642 42.2086 5.01829C42.0637 4.97015 41.8803 4.9124 41.6582 4.85464C41.4844 4.83538 41.2913 4.78725 41.0692 4.71024C40.8568 4.63323 40.654 4.52734 40.4705 4.39257L40.8085 7.27086L39.7657 7.39601L39.2443 2.8716C39.1863 2.16887 39.3601 1.59129 39.7753 1.12922C40.1809 0.667156 40.8085 0.397617 41.6485 0.301353C42.45 0.214715 43.0969 0.339858 43.5894 0.696035C44.0818 1.05221 44.3908 1.57204 44.497 2.26514C44.5356 2.85235 44.4294 3.34329 44.159 3.75723C43.8887 4.17116 43.4928 4.45995 42.9424 4.65248C43.0969 4.71024 43.2321 4.78725 43.3576 4.86426C43.4735 4.94128 43.5797 5.03754 43.6666 5.14343C43.7535 5.24932 43.8211 5.38409 43.879 5.53811C43.937 5.69213 43.9756 5.86541 44.0046 6.07719C44.0046 6.08682 44.0142 6.13495 44.0239 6.22159C44.0335 6.30822 44.0432 6.40449 44.0528 6.50075C44.0625 6.60664 44.0721 6.69328 44.0818 6.77992C44.0915 6.86655 44.0915 6.91469 44.1011 6.91469L43.039 7.02058Z" fill="white"/>
<path d="M44.0632 6.4807C44.0535 6.37481 44.0439 6.28817 44.0342 6.20154C44.0245 6.1149 44.0245 6.06677 44.0149 6.05714C43.9859 5.85499 43.9473 5.67208 43.8894 5.51806C43.8314 5.36404 43.7542 5.2389 43.6769 5.12338C43.59 5.01749 43.4838 4.92122 43.368 4.84421C43.2521 4.7672 43.1072 4.69982 42.9528 4.63243C43.4935 4.44953 43.899 4.15111 44.1694 3.73718C44.4301 3.32324 44.546 2.8323 44.5073 2.24509C44.3915 1.55199 44.0921 1.02253 43.5997 0.675985C43.1072 0.319808 42.4603 0.194665 41.6589 0.281302C40.8188 0.377566 40.1912 0.656732 39.7857 1.10917C39.3801 1.57124 39.1967 2.14882 39.2546 2.85155L39.776 7.37596L40.8188 7.25081L40.4809 4.39177C40.6643 4.52654 40.8575 4.63243 41.0795 4.70944C41.292 4.78646 41.4947 4.83459 41.6685 4.85384C41.8906 4.9116 42.0741 4.96936 42.2189 5.01749C42.3638 5.06562 42.4796 5.13301 42.5762 5.20039C42.6727 5.2774 42.7403 5.36404 42.7983 5.48918C42.8562 5.6047 42.9045 5.76835 42.9431 5.96088C42.9528 6.01863 42.9624 6.10527 42.9721 6.22079C42.9817 6.32668 43.001 6.44219 43.0107 6.55771C43.0203 6.6636 43.03 6.76949 43.0397 6.85613C43.0493 6.94277 43.0493 7.00053 43.0493 7.01978L44.1211 6.89464C44.1211 6.89464 44.1114 6.8465 44.1018 6.75987C44.0825 6.68285 44.0728 6.58659 44.0632 6.4807ZM42.6245 4.15111C42.441 4.2185 42.2479 4.26663 42.0644 4.27626C41.881 4.30514 41.6975 4.30514 41.514 4.27626C41.3306 4.24738 41.1568 4.18962 40.9926 4.09335C40.8285 3.99709 40.6933 3.86232 40.5678 3.68905C40.4423 3.51577 40.365 3.29436 40.3167 3.0152L40.2685 2.56276C40.2298 2.26434 40.2491 2.00443 40.3264 1.79265C40.394 1.58087 40.5002 1.40759 40.6354 1.26319C40.7706 1.12843 40.9347 1.02253 41.1182 0.945524C41.3016 0.868512 41.4851 0.830007 41.6685 0.810754C41.852 0.781875 42.0451 0.781875 42.2479 0.810754C42.441 0.839633 42.6245 0.897391 42.7886 1.00328C42.9528 1.10917 43.0976 1.25357 43.2135 1.4461C43.3293 1.63862 43.4066 1.88891 43.4452 2.18733L43.4838 2.505C43.5224 2.80342 43.5031 3.06333 43.4355 3.28474C43.3679 3.50614 43.2617 3.67942 43.1266 3.81419C42.9721 3.97784 42.8079 4.08373 42.6245 4.15111Z" fill="white" stroke="white" stroke-miterlimit="10"/>
<path d="M54.7226 1.95703C54.6357 1.6201 54.4812 1.33131 54.2591 1.0714C54.0467 0.821113 53.7667 0.618959 53.4384 0.45531C53.1101 0.301288 52.7335 0.195398 52.3087 0.147266C51.401 0.0413758 50.6575 0.195398 50.1168 0.59008C49.5664 0.994389 49.2478 1.60085 49.1512 2.38059L48.9098 4.42138C48.8133 5.21075 48.9967 5.86534 49.4409 6.38517C49.8754 6.89537 50.561 7.21304 51.4686 7.31893C51.6328 7.33818 51.7873 7.34781 51.9417 7.34781C52.1928 7.34781 52.4245 7.31893 52.637 7.2708C52.9942 7.19379 53.3129 7.04939 53.5832 6.85686C53.8536 6.66433 54.0757 6.41405 54.2398 6.106C54.3943 5.80759 54.5005 5.46103 54.5488 5.06635L54.7805 3.02556C54.8288 2.65013 54.8095 2.29395 54.7226 1.95703ZM54.5971 3.01593L54.3557 5.05673C54.3074 5.42253 54.2205 5.74983 54.066 6.02899C53.9212 6.30816 53.7184 6.53919 53.4674 6.71247C53.2163 6.89537 52.9266 7.02051 52.5983 7.09752C52.2604 7.17453 51.8935 7.18416 51.4879 7.13603C50.6189 7.03976 49.9816 6.75097 49.5761 6.26965C49.1705 5.78833 49.0064 5.18187 49.0933 4.45026L49.3347 2.40947C49.4216 1.66824 49.7209 1.11953 50.223 0.744102C50.7251 0.368673 51.4203 0.233903 52.2797 0.330167C52.6852 0.378299 53.0425 0.474563 53.3515 0.628586C53.6605 0.772982 53.9115 0.965509 54.1143 1.19654C54.3171 1.42758 54.4522 1.69711 54.5391 2.00516C54.6164 2.3132 54.6357 2.65013 54.5971 3.01593Z" fill="white"/>
<path d="M54.1139 1.20594C53.9111 0.974908 53.6601 0.78238 53.3511 0.637984C53.0421 0.493588 52.6849 0.387698 52.2793 0.339566C51.4103 0.243302 50.7247 0.378072 50.2226 0.753501C49.7205 1.12893 49.4212 1.67764 49.3343 2.41887L49.0929 4.45966C49.006 5.2009 49.1702 5.79773 49.5757 6.27905C49.9813 6.76037 50.6185 7.04916 51.4875 7.14543C51.8931 7.19356 52.26 7.17431 52.598 7.10692C52.9359 7.02991 53.2256 6.90477 53.467 6.72187C53.718 6.53896 53.9111 6.31756 54.0656 6.03839C54.2105 5.75923 54.307 5.43193 54.3553 5.06613L54.587 3.02533C54.6353 2.65953 54.6064 2.3226 54.5291 2.01456C54.4615 1.70651 54.3167 1.43698 54.1139 1.20594ZM53.5828 2.62102L53.2835 5.22015C53.2449 5.51857 53.1676 5.76885 53.0518 5.96138C52.9359 6.15391 52.7911 6.30793 52.6269 6.4042C52.4628 6.51009 52.2793 6.56784 52.0862 6.59672C51.8931 6.6256 51.7 6.6256 51.5165 6.59672C51.3234 6.57747 51.1399 6.53896 50.9661 6.46195C50.7827 6.39457 50.6282 6.28868 50.4834 6.14428C50.3482 6.00951 50.242 5.82661 50.1744 5.61483C50.1068 5.40305 50.0875 5.14314 50.1261 4.84472L50.4254 2.24559C50.464 1.94717 50.5316 1.69689 50.6572 1.50436C50.773 1.31183 50.9179 1.16744 51.082 1.06155C51.2462 0.955656 51.4296 0.888271 51.6227 0.859391C51.8158 0.830512 52.009 0.830512 52.1924 0.859391C52.3855 0.878644 52.569 0.91715 52.7525 0.984535C52.9359 1.05192 53.1001 1.15781 53.2352 1.29258C53.3704 1.42735 53.4766 1.61025 53.5442 1.82203C53.6022 2.05306 53.6215 2.31298 53.5828 2.62102Z" fill="white" stroke="white" stroke-miterlimit="10"/>
<path d="M60.96 2.64966C60.6028 2.10096 60.0138 1.7159 59.193 1.4945C58.3337 1.26346 57.5998 1.29234 57.0108 1.59076C56.4122 1.88918 55.997 2.39938 55.7749 3.13098L54.5293 7.72277L55.9101 8.0982L56.5763 5.62422C56.9143 5.89376 57.3584 6.10554 57.8992 6.24994C58.7199 6.47134 59.4344 6.43284 60.0138 6.14404C60.6028 5.84563 61.0083 5.33543 61.24 4.61345V4.5942C61.4042 3.86259 61.3076 3.20799 60.96 2.64966ZM61.0566 4.55569C60.8442 5.22954 60.4676 5.70123 59.9269 5.97077C59.3861 6.24031 58.7295 6.27881 57.9474 6.06703C57.3005 5.89376 56.8081 5.62422 56.4701 5.26804L55.7652 7.85754L54.7514 7.588L55.9487 3.17912C56.1515 2.50527 56.5377 2.03357 57.0881 1.75441C57.6384 1.48487 58.324 1.45599 59.1351 1.6774C59.9075 1.88918 60.4676 2.24535 60.7959 2.75555C61.1242 3.26575 61.2111 3.86259 61.0566 4.55569Z" fill="white"/>
<path d="M59.1357 1.67801C58.3149 1.45661 57.6294 1.48548 57.0886 1.75502C56.5383 2.02456 56.1617 2.50588 55.9493 3.17973L54.752 7.58862L55.7658 7.85816L56.4707 5.26866C56.8086 5.62483 57.3011 5.88475 57.948 6.06765C58.7205 6.27943 59.3867 6.24092 59.9274 5.97138C60.4682 5.70185 60.8447 5.23015 61.0572 4.5563C61.2117 3.8632 61.1248 3.26637 60.7965 2.75617C60.4682 2.24597 59.9178 1.88979 59.1357 1.67801ZM60.0819 4.12312L60.0047 4.43116C59.9274 4.71995 59.8116 4.96061 59.6667 5.13389C59.5219 5.30716 59.3577 5.43231 59.1839 5.50932C59.0101 5.58633 58.817 5.62483 58.6239 5.62483C58.4211 5.62483 58.2377 5.59595 58.0542 5.5382C57.8804 5.49969 57.7066 5.43231 57.5425 5.33604C57.3783 5.2494 57.2335 5.12426 57.1273 4.97987C57.0114 4.83547 56.9342 4.65257 56.8859 4.45041C56.8376 4.24826 56.8473 4.0076 56.9052 3.72843L57.0211 3.28562C57.0983 2.9872 57.2142 2.75617 57.359 2.58289C57.5038 2.40962 57.668 2.28448 57.8418 2.20746C58.0253 2.13045 58.2087 2.09195 58.4018 2.09195C58.5949 2.09195 58.7881 2.12083 58.9619 2.16896C59.1453 2.20746 59.3288 2.28447 59.4929 2.38074C59.6667 2.477 59.8116 2.60215 59.9274 2.76579C60.0433 2.91982 60.1205 3.11234 60.1592 3.33375C60.1881 3.57441 60.1688 3.83432 60.0819 4.12312Z" fill="white" stroke="white" stroke-miterlimit="10"/>
<path d="M64.6097 10.9968L62.833 10.246C62.0509 9.90903 61.5392 9.45659 61.2881 8.88864C61.0371 8.32068 61.0564 7.69496 61.3461 7.02112L63.0937 2.91064L67.3036 4.69153L67.1105 5.15359L64.4262 4.01768C64.2814 3.97917 64.1655 3.96955 64.069 3.99843C63.9724 4.01768 63.8759 4.07544 63.7986 4.16208C63.7214 4.24871 63.6441 4.37386 63.5669 4.53751C63.4896 4.70115 63.4027 4.89368 63.3062 5.12472L62.9103 6.05848L65.2084 7.03074L65.0442 7.4158L62.7461 6.44353L62.2054 7.71422C62.0895 7.99338 62.0316 8.24367 62.0413 8.46508C62.0509 8.68648 62.0992 8.88864 62.1861 9.05228C62.273 9.22556 62.3985 9.36996 62.553 9.48547C62.7075 9.60099 62.8717 9.69725 63.0455 9.77426L64.8221 10.5251L64.6097 10.9968Z" fill="white" stroke="white" stroke-miterlimit="10"/>
<path d="M64.6097 10.9968L62.833 10.246C62.0509 9.90903 61.5392 9.45659 61.2881 8.88864C61.0371 8.32068 61.0564 7.69496 61.3461 7.02112L63.0937 2.91064L67.3036 4.69153L67.1105 5.15359L64.4262 4.01768C64.2814 3.97917 64.1655 3.96955 64.069 3.99843C63.9724 4.01768 63.8759 4.07544 63.7986 4.16208C63.7214 4.24871 63.6441 4.37386 63.5669 4.53751C63.4896 4.70115 63.4027 4.89368 63.3062 5.12472L62.9103 6.05848L65.2084 7.03074L65.0442 7.4158L62.7461 6.44353L62.2054 7.71422C62.0895 7.99338 62.0316 8.24367 62.0413 8.46508C62.0509 8.68648 62.0992 8.88864 62.1861 9.05228C62.273 9.22556 62.3985 9.36996 62.553 9.48547C62.7075 9.60099 62.8717 9.69725 63.0455 9.77426L64.8221 10.5251L64.6097 10.9968Z" fill="white"/>
<path d="M72.451 8.18594C72.2579 7.56023 71.7944 7.03078 71.0702 6.58796C70.3074 6.13552 69.5929 5.96225 68.9459 6.08739C68.2893 6.21253 67.7486 6.59759 67.3334 7.23293L64.8809 11.3049L66.1071 12.0365L67.4976 9.72617C67.5458 9.82243 67.6038 9.9187 67.6617 10.0053C67.7872 10.1979 67.9224 10.3615 68.0576 10.4963C68.1928 10.6696 68.299 10.814 68.3762 10.9391C68.4438 11.0546 68.5018 11.1509 68.5211 11.2471C68.5404 11.3338 68.5404 11.4108 68.5211 11.5167C68.4921 11.6322 68.4438 11.767 68.3666 11.9306C68.3376 11.9787 68.2893 12.0558 68.2314 12.152C68.1831 12.229 68.1348 12.3157 68.0866 12.3927L68.0576 12.4312C67.9997 12.5274 67.9514 12.6045 67.9031 12.6815C67.8645 12.7392 67.8452 12.7681 67.8355 12.7777L67.6327 12.9414L68.9556 13.7307L69.0521 13.5671C69.0521 13.5575 69.0811 13.519 69.1197 13.4516C69.168 13.3746 69.2163 13.2976 69.2646 13.2109C69.3032 13.1532 69.3418 13.0858 69.3708 13.0376L69.4577 12.8933C69.4673 12.874 69.477 12.8547 69.4867 12.8451C69.5929 12.6622 69.6798 12.4793 69.7377 12.306C69.786 12.1328 69.8149 11.9691 69.8149 11.8055C69.8149 11.6418 69.786 11.4878 69.728 11.3338C69.7184 11.3145 69.7087 11.2856 69.7087 11.2664C70.1336 11.3434 70.5488 11.3145 70.9254 11.1798C71.4275 10.9969 71.8523 10.6503 72.1903 10.1305L72.1999 10.1208C72.5572 9.46625 72.6441 8.81166 72.451 8.18594ZM72.0261 10.0342C71.7075 10.5252 71.3116 10.8525 70.8578 11.0161C70.3943 11.1798 69.8922 11.1701 69.3515 10.9872C69.4384 11.1316 69.506 11.2664 69.5446 11.4012C69.5929 11.5359 69.6122 11.6707 69.6218 11.8055C69.6218 11.9402 69.6025 12.0943 69.5542 12.2483C69.506 12.4023 69.4287 12.5756 69.3225 12.7489C69.3128 12.7585 69.2935 12.8066 69.2453 12.874C69.197 12.9414 69.1487 13.028 69.1004 13.1147C69.0521 13.2013 69.0039 13.2879 68.9556 13.3553C68.917 13.4323 68.888 13.4708 68.888 13.4708L67.961 12.9221C67.9804 12.9125 68.0093 12.8644 68.0576 12.7874C68.1059 12.7104 68.1638 12.6237 68.2121 12.5371C68.27 12.4408 68.328 12.3445 68.3859 12.2483C68.4438 12.152 68.4921 12.075 68.5211 12.0269C68.608 11.844 68.6659 11.69 68.6949 11.5648C68.7238 11.4397 68.7238 11.3145 68.6949 11.199C68.6659 11.0835 68.608 10.968 68.5211 10.8332C68.4342 10.7081 68.328 10.554 68.1831 10.3711C68.0576 10.246 67.9321 10.092 67.8065 9.89944C67.681 9.70691 67.5845 9.50476 67.5265 9.28335L66.0395 11.7766L65.1416 11.2375L67.4879 7.3292C67.8741 6.73236 68.3666 6.38581 68.9749 6.27029C69.5736 6.15478 70.2398 6.31842 70.9736 6.75161C71.6592 7.16555 72.0937 7.65649 72.2772 8.2437C72.4413 8.82129 72.3641 9.41812 72.0261 10.0342Z" fill="white"/>
<path d="M70.9629 6.75212C70.2388 6.31893 69.5725 6.15528 68.9642 6.2708C68.3559 6.38632 67.8634 6.74249 67.4772 7.3297L65.1309 11.238L66.0288 11.7771L67.5255 9.29349C67.5834 9.51489 67.68 9.71705 67.8055 9.90958C67.931 10.1021 68.0566 10.2561 68.1821 10.3813C68.3173 10.5642 68.4331 10.7182 68.52 10.8433C68.6069 10.9685 68.6552 11.0936 68.6938 11.2091C68.7228 11.3247 68.7228 11.4402 68.6938 11.5749C68.6649 11.7001 68.6069 11.8541 68.52 12.037C68.4911 12.0948 68.4428 12.1622 68.3848 12.2584C68.3269 12.3547 68.269 12.4509 68.211 12.5472C68.1531 12.6435 68.1048 12.7301 68.0566 12.7975C68.0083 12.8745 67.9793 12.9226 67.96 12.9323L68.8869 13.481C68.8869 13.481 68.9159 13.4328 68.9545 13.3655C69.0028 13.2981 69.0511 13.2114 69.0994 13.1248C69.1573 13.0382 69.2056 12.9515 69.2442 12.8841C69.2828 12.8071 69.3118 12.7686 69.3215 12.759C69.4277 12.5857 69.5049 12.4124 69.5532 12.2584C69.6015 12.1044 69.6208 11.96 69.6208 11.8156C69.6208 11.6808 69.5918 11.5364 69.5435 11.4113C69.4953 11.2765 69.4277 11.1418 69.3504 10.9974C69.8911 11.1803 70.3932 11.1899 70.8567 11.0262C71.3202 10.8626 71.7064 10.5353 72.0251 10.0443C72.363 9.42826 72.4403 8.82179 72.2665 8.24421C72.083 7.657 71.6581 7.16605 70.9629 6.75212ZM71.4843 8.62927C71.4554 8.85067 71.3685 9.10096 71.214 9.36087L71.0498 9.63041C70.8953 9.89032 70.7215 10.0829 70.5381 10.2176C70.3546 10.3428 70.1615 10.4198 69.9684 10.4487C69.7753 10.4775 69.5822 10.4583 69.389 10.4005C69.1959 10.3428 69.0221 10.2658 68.8676 10.1599C68.7035 10.0732 68.5587 9.95771 68.4235 9.82294C68.2883 9.68817 68.1917 9.53415 68.1145 9.3705C68.0469 9.19722 68.0179 9.00469 68.0276 8.79291C68.0372 8.58113 68.1048 8.3501 68.24 8.10944L68.4718 7.71476C68.6262 7.45485 68.8 7.26232 68.9835 7.13717C69.167 7.01203 69.3601 6.93502 69.5532 6.90614C69.7463 6.87726 69.9394 6.89651 70.1229 6.94465C70.316 6.99278 70.4898 7.06979 70.6443 7.17568C70.8084 7.27194 70.9629 7.38746 71.0981 7.52223C71.2333 7.66663 71.3395 7.82065 71.4071 8.00355C71.4843 8.2057 71.5037 8.40786 71.4843 8.62927Z" fill="white" stroke="white" stroke-miterlimit="10"/>
<path d="M77.8191 12.4216C77.7708 12.0943 77.6549 11.767 77.4618 11.459C77.2783 11.1509 77.008 10.8621 76.6797 10.583C75.9748 10.0054 75.27 9.72623 74.594 9.77436C73.9085 9.81287 73.3098 10.1498 72.8077 10.7659L72.4022 11.2568C72.1125 11.613 71.8422 11.9307 71.6008 12.2195C71.2628 12.6334 70.9731 12.98 70.7414 13.2591C70.529 13.5094 70.3455 13.7308 70.2103 13.8945C70.0462 14.0966 69.9883 14.1447 69.9786 14.1544L69.8145 14.2988L70.9635 15.2422L72.8946 12.8933L75.0672 14.6742L74.9417 14.8186C74.7872 15.0015 74.6423 15.1844 74.4975 15.3577L74.2271 15.685C74.1113 15.8197 74.0147 15.9449 73.9181 16.0604C73.7926 16.2144 73.6768 16.3492 73.5802 16.4647L73.474 16.5995C73.3195 16.7824 73.2712 16.8305 73.2616 16.8401L73.1071 16.9845L74.2464 17.9183L77.1914 14.3373C77.4425 14.0389 77.6163 13.7212 77.7225 13.3939C77.8384 13.0858 77.8674 12.7489 77.8191 12.4216ZM77.5487 13.3458C77.4522 13.6442 77.2783 13.9426 77.0466 14.2314L74.2271 17.668L73.4064 16.9942C73.445 16.9653 73.5223 16.869 73.6381 16.7342C73.754 16.5899 73.9085 16.4069 74.0823 16.1952C74.2561 15.9834 74.4492 15.7427 74.6713 15.4828C74.8934 15.2133 75.1251 14.9341 75.3569 14.6549L72.8946 12.6334L70.9635 14.9822L70.1331 14.2988C70.1717 14.2699 70.249 14.1736 70.3841 14.0196C70.5097 13.8656 70.6931 13.6538 70.9152 13.3746C71.1469 13.0955 71.4366 12.7489 71.7746 12.335C72.1125 11.921 72.5181 11.4397 72.9815 10.8814C73.4547 10.3038 74.0051 10.0054 74.6327 9.96689C75.2603 9.92839 75.9072 10.1883 76.5831 10.737C76.9018 10.9969 77.1432 11.2665 77.3266 11.5649C77.5004 11.8537 77.6163 12.1521 77.6549 12.4505C77.6742 12.7489 77.6453 13.0473 77.5487 13.3458Z" fill="white"/>
<path d="M77.3068 11.5553C77.133 11.2665 76.882 10.9874 76.5633 10.7275C75.8874 10.1787 75.2405 9.91884 74.6129 9.95734C73.9852 9.99585 73.4349 10.3039 72.9617 10.8718C72.4983 11.4302 72.1024 11.9115 71.7548 12.3254C71.4168 12.7394 71.1271 13.0859 70.8954 13.3651C70.6637 13.6443 70.4899 13.856 70.3643 14.0101C70.2388 14.1641 70.1519 14.2507 70.1133 14.2892L70.9437 14.9727L72.8748 12.6239L75.337 14.6454C75.1053 14.9342 74.8736 15.2037 74.6515 15.4733C74.4391 15.7332 74.2363 15.9738 74.0625 16.1856C73.8887 16.3974 73.7438 16.5707 73.6183 16.7247C73.5024 16.8691 73.4252 16.9557 73.3866 16.9846L74.2073 17.6585L77.0268 14.2218C77.2585 13.933 77.4323 13.6443 77.5289 13.3362C77.6255 13.0378 77.6544 12.7297 77.6158 12.4313C77.5868 12.1425 77.4806 11.8441 77.3068 11.5553ZM76.7951 12.6624C76.7371 12.8838 76.6116 13.1052 76.4185 13.3458L75.6074 14.3277L73.1452 12.3062L73.9563 11.3243C74.1494 11.0933 74.3522 10.92 74.5549 10.8237C74.7577 10.7275 74.9605 10.6793 75.1536 10.6793C75.3467 10.6793 75.5302 10.7275 75.7136 10.8045C75.8971 10.8815 76.0516 10.9874 76.1964 11.1125C76.3412 11.228 76.4764 11.3628 76.5923 11.5264C76.7082 11.6805 76.7854 11.8634 76.8337 12.0463C76.8626 12.2388 76.853 12.4506 76.7951 12.6624Z" fill="white" stroke="white" stroke-miterlimit="10"/>
<path d="M81.2661 16.2234L76.6892 20.3531L75.9844 19.5734L80.5612 15.4436L79.0066 13.7301L79.5087 13.2681L83.3227 17.4748L82.8206 17.9272L81.2661 16.2234Z" fill="white" stroke="white" stroke-miterlimit="10"/>
<path d="M81.2661 16.2234L76.6892 20.3531L75.9844 19.5734L80.5612 15.4436L79.0066 13.7301L79.5087 13.2681L83.3227 17.4748L82.8206 17.9272L81.2661 16.2234Z" fill="white"/>
<path d="M86.337 21.8169C86.2501 21.4704 86.0859 21.1142 85.8445 20.758C85.3328 19.9975 84.7438 19.5354 84.0872 19.3718C83.4306 19.2178 82.7547 19.3622 82.0884 19.7954L80.3794 20.9313C79.7131 21.3741 79.3269 21.9324 79.211 22.6063C79.1048 23.2705 79.3076 23.9925 79.8097 24.753C80.0414 25.1091 80.3118 25.3979 80.6015 25.6193C80.8911 25.8407 81.2098 25.9948 81.5284 26.0718C81.6926 26.1103 81.8664 26.1392 82.0402 26.1392C82.1947 26.1392 82.3588 26.1199 82.5229 26.091C82.8512 26.0236 83.1892 25.8696 83.5175 25.6578L85.2266 24.5219C85.5549 24.3005 85.8156 24.0502 86.0183 23.7807C86.2114 23.5015 86.337 23.1839 86.3949 22.8566C86.4528 22.5196 86.4335 22.1731 86.337 21.8169ZM86.2114 22.818C86.1632 23.1165 86.0473 23.3956 85.8638 23.6555C85.6804 23.9155 85.439 24.1465 85.13 24.3486L83.4209 25.4846C83.1119 25.6867 82.803 25.8311 82.494 25.8889C82.185 25.9563 81.876 25.9563 81.5863 25.8792C81.287 25.8119 81.007 25.6675 80.727 25.4653C80.4566 25.2632 80.2056 24.984 79.9738 24.6471C79.491 23.9251 79.2979 23.2512 79.4041 22.6351C79.5104 22.0191 79.8676 21.4992 80.4856 21.0949L82.1946 19.959C82.8126 19.5547 83.4306 19.4199 84.0389 19.5643C84.6569 19.7087 85.1976 20.1419 85.6804 20.8639C85.9025 21.2008 86.057 21.5377 86.1439 21.865C86.2404 22.202 86.2597 22.51 86.2114 22.818Z" fill="white"/>
<path d="M85.6874 20.8645C85.2046 20.1426 84.6639 19.7094 84.0459 19.565C83.4376 19.4206 82.8196 19.5553 82.2016 19.9597L80.4926 21.0956C79.8746 21.5095 79.5077 22.0197 79.4111 22.6358C79.3049 23.2519 79.498 23.9257 79.9808 24.6477C80.2029 24.9846 80.454 25.2542 80.734 25.466C81.0043 25.6681 81.294 25.8125 81.5933 25.8799C81.8927 25.9569 82.192 25.9569 82.501 25.8895C82.81 25.8221 83.1189 25.6874 83.4279 25.4852L85.137 24.3493C85.446 24.1471 85.697 23.9161 85.8708 23.6562C86.0543 23.3963 86.1702 23.1171 86.2184 22.8187C86.2667 22.5203 86.2474 22.2026 86.1605 21.8657C86.0639 21.5384 85.9095 21.2015 85.6874 20.8645ZM85.5522 22.2026C85.5329 22.3951 85.4653 22.5877 85.3494 22.7802C85.2335 22.9727 85.0404 23.1556 84.7894 23.3193L82.6072 24.7632C82.3561 24.9269 82.1147 25.0328 81.8927 25.0713C81.6706 25.1098 81.4678 25.0905 81.2747 25.0328C81.0912 24.975 80.9174 24.8787 80.7726 24.744C80.6278 24.6092 80.5022 24.4648 80.4057 24.3012C80.2995 24.1471 80.2126 23.9739 80.145 23.791C80.087 23.6081 80.0581 23.4155 80.0774 23.223C80.0967 23.0305 80.1643 22.8379 80.2802 22.6454C80.396 22.4529 80.5795 22.27 80.8402 22.1063L83.0224 20.6624C83.2734 20.4987 83.5148 20.3928 83.7369 20.364C83.959 20.3255 84.1618 20.3447 84.3452 20.4025C84.5287 20.4602 84.6928 20.5565 84.8473 20.6816C84.9922 20.8068 85.1177 20.9512 85.2142 21.1148C85.3204 21.2688 85.4074 21.4421 85.4749 21.625C85.5425 21.8175 85.5618 22.0101 85.5522 22.2026Z" fill="white" stroke="white" stroke-miterlimit="10"/>
<path d="M89.2709 26.8886C88.8944 26.08 88.4019 25.5409 87.7936 25.281C87.1853 25.0114 86.519 25.0307 85.8142 25.3291L81.498 27.3314L82.0967 28.631L84.5493 27.495C84.53 27.6009 84.5203 27.7068 84.5203 27.8223C84.5203 28.063 84.53 28.2748 84.5686 28.4481C84.5782 28.6695 84.5879 28.8524 84.5782 28.9871C84.5782 29.1219 84.5589 29.2374 84.53 29.3241C84.501 29.4011 84.4527 29.4781 84.3755 29.5455C84.2886 29.6225 84.1534 29.7187 84.0085 29.8054C83.9506 29.8343 83.8734 29.8631 83.7768 29.9113C83.6802 29.9594 83.574 30.0075 83.4678 30.0557C83.3713 30.1038 83.2844 30.1423 83.1975 30.1712C83.1299 30.2001 83.1009 30.2097 83.0912 30.2097L82.8209 30.2193L83.3906 31.4515L83.4775 31.6248L83.6513 31.5381C83.6609 31.5381 83.6996 31.5189 83.7671 31.4804L84.1437 31.3071C84.192 31.2878 84.2403 31.259 84.2789 31.2397L84.3562 31.2012C84.3755 31.1916 84.3948 31.182 84.4044 31.182C84.6072 31.0857 84.781 30.9894 84.9162 30.8739C85.061 30.7584 85.1769 30.6333 85.2638 30.4985C85.3507 30.3637 85.4183 30.2193 85.4569 30.0653C85.4666 30.046 85.4666 30.0172 85.4762 29.9979C85.7852 30.306 86.1425 30.5081 86.5287 30.614C87.0405 30.7488 87.5908 30.691 88.1702 30.4504L88.1798 30.4407C88.8557 30.0942 89.2902 29.6032 89.4834 28.9775C89.7151 28.3614 89.6282 27.6491 89.2709 26.8886ZM89.3385 28.9294C89.1551 29.507 88.7495 29.9594 88.1219 30.2867C87.5812 30.5081 87.0694 30.5562 86.5963 30.4407C86.1232 30.3156 85.708 30.0268 85.37 29.5743C85.3604 29.738 85.3314 29.892 85.3024 30.0268C85.2638 30.1616 85.2059 30.2867 85.1286 30.4022C85.0514 30.5177 84.9452 30.6236 84.8196 30.7295C84.6941 30.8354 84.5396 30.9317 84.3465 31.0183C84.3368 31.0279 84.2886 31.0472 84.2113 31.0761C84.1341 31.1146 84.0472 31.1531 83.9506 31.1916C83.8541 31.2397 83.7671 31.2782 83.6899 31.3071C83.6127 31.3456 83.574 31.3649 83.5644 31.3649L83.1106 30.3926C83.1299 30.3926 83.1782 30.3733 83.2651 30.3348C83.352 30.2963 83.4389 30.2578 83.5451 30.2097C83.6513 30.1616 83.7478 30.1134 83.8541 30.0653C83.9603 30.0172 84.0375 29.9787 84.0954 29.9498C84.2692 29.8535 84.4044 29.7573 84.501 29.6706C84.5975 29.584 84.6651 29.4781 84.7038 29.3722C84.7424 29.2567 84.7617 29.1315 84.7713 28.9775C84.7713 28.8235 84.7714 28.6406 84.7617 28.4096C84.7231 28.2363 84.7134 28.0341 84.7134 27.8127C84.7134 27.5817 84.752 27.3603 84.8293 27.1485L82.1933 28.3614L81.7491 27.4084L85.8914 25.4928C86.5383 25.2136 87.1467 25.204 87.7164 25.4446C88.2764 25.6853 88.7399 26.1955 89.0971 26.9656C89.4351 27.6876 89.5123 28.3422 89.3385 28.9294Z" fill="white"/>
<path d="M87.7173 25.4459C87.1572 25.2052 86.5489 25.2149 85.8923 25.494L81.75 27.4097L82.1942 28.3627L84.8302 27.1401C84.7529 27.3519 84.7143 27.5733 84.7143 27.8044C84.7143 28.0354 84.724 28.2375 84.7626 28.4012C84.7723 28.6322 84.7819 28.8247 84.7722 28.9691C84.7722 29.1232 84.7529 29.2579 84.7047 29.3638C84.666 29.4793 84.5984 29.5756 84.5019 29.6622C84.4053 29.7489 84.2701 29.8451 84.0963 29.9414C84.0384 29.9703 83.9612 30.0088 83.855 30.0569C83.7584 30.1051 83.6522 30.1532 83.546 30.2013C83.4494 30.2495 83.3529 30.288 83.266 30.3265C83.1791 30.365 83.1308 30.3842 83.1115 30.3842L83.5653 31.3565C83.5749 31.3565 83.6136 31.3372 83.6908 31.2987C83.768 31.2602 83.855 31.2217 83.9515 31.1832C84.0481 31.1447 84.135 31.0966 84.2122 31.0677C84.2895 31.0292 84.3377 31.0099 84.3474 31.0099C84.5405 30.9233 84.695 30.827 84.8205 30.7211C84.9461 30.6153 85.0523 30.5094 85.1295 30.3939C85.2068 30.2783 85.2647 30.1532 85.3033 30.0184C85.3419 29.8837 85.3612 29.7296 85.3709 29.566C85.7185 30.0184 86.1241 30.3168 86.5972 30.4324C87.0703 30.5575 87.5724 30.5094 88.1228 30.2783C88.7504 29.951 89.156 29.4986 89.3394 28.921C89.5229 28.3434 89.4456 27.6888 89.098 26.9572C88.7408 26.1967 88.2869 25.6962 87.7173 25.4459ZM88.7601 28.2664C88.7118 28.4589 88.6152 28.6322 88.4704 28.8055C88.3256 28.9788 88.1131 29.1328 87.8331 29.2579L87.5434 29.3927C87.2634 29.5178 87.0124 29.5852 86.7903 29.5852C86.5586 29.5852 86.3654 29.5467 86.1916 29.4601C86.0178 29.3735 85.8633 29.2579 85.7378 29.1039C85.6123 28.9499 85.5157 28.7862 85.4385 28.613C85.3516 28.4493 85.2937 28.276 85.2647 28.0931C85.2261 27.9102 85.2261 27.7273 85.2743 27.5444C85.313 27.3615 85.3999 27.1883 85.5254 27.015C85.6509 26.8417 85.844 26.6973 86.0854 26.5722L86.5006 26.3796C86.7806 26.2545 87.0317 26.1871 87.2538 26.1871C87.4759 26.1871 87.6786 26.2256 87.8524 26.3219C88.0262 26.4085 88.1807 26.524 88.3062 26.6781C88.4318 26.8225 88.5283 26.9861 88.6056 27.1594C88.6925 27.3327 88.7504 27.5059 88.789 27.7081C88.8083 27.891 88.8083 28.0835 88.7601 28.2664Z" fill="white" stroke="white" stroke-miterlimit="10"/>
<path fill-rule="evenodd" clip-rule="evenodd" d="M28.0924 18.9661C27.9282 14.3935 35.8073 10.4082 45.6755 10.0617C55.5437 9.71512 63.6738 13.1517 63.838 17.7243C64.0021 22.2968 56.123 26.2821 46.2548 26.6287C36.3867 26.9656 28.2565 23.5386 28.0924 18.9661ZM37.6805 15.7605C37.6129 13.6619 41.2145 11.8426 45.7238 11.6885C50.2427 11.5345 53.9601 13.1036 54.0374 15.1925C54.1146 17.2815 50.513 19.1105 45.9941 19.2645C41.4752 19.4282 37.7578 17.859 37.6805 15.7605Z" fill="white" stroke="white" stroke-miterlimit="10"/>
<path d="M91.5591 43.611C84.6842 52.3903 64.3009 63.297 48.002 63.8649C26.5566 64.6158 10.6439 56.1253 10.2963 46.1909C10.2094 43.7361 10.7405 41.5509 11.7929 39.6064C14.709 48.068 29.2312 54.1423 48.562 53.4684C62.3215 52.9871 78.9873 45.0838 87.9768 36.9495L83.1007 34.5141L99.6506 30.9619L94.0696 48.3761L91.5591 43.611Z" fill="white" stroke="white" stroke-miterlimit="10"/>
<path d="M23.8422 19.4376C18.2902 22.3929 14.93 26.3205 15.0748 30.5368C15.3645 38.9503 29.5584 45.2845 46.7553 44.6876C63.9619 44.0908 77.6634 36.7844 77.3737 28.3709C77.2289 24.1931 73.7431 20.5446 68.0656 17.9937C69.9484 19.5339 71.0299 21.334 71.0975 23.2785C71.3196 29.6608 60.3313 35.2249 46.5526 35.7062C32.7738 36.1875 21.4283 31.4032 21.2062 25.0113C21.1483 23.009 21.9883 21.1319 23.8422 19.4376Z" fill="white" stroke="white" stroke-miterlimit="10"/>
<path d="M81.2082 55.8257C80.8702 66.8575 66.3963 75.2903 48.3207 75.916C31.0949 76.5128 16.6402 69.8128 14.3711 59.6666C19.2376 65.8756 32.437 70.1016 47.751 69.5625C64.0982 69.0042 77.7128 62.9973 81.2082 55.8257Z" fill="white" stroke="white" stroke-miterlimit="10"/>
<path d="M66.6087 74.4814C62.9106 78.3224 56.0743 81.0466 48.1759 81.3258C40.152 81.605 33.055 79.2946 29.1348 75.6077C33.7888 77.8603 40.6251 79.2176 48.089 78.9577C55.6012 78.6978 62.1188 77.0709 66.6087 74.4814Z" fill="white" stroke="white" stroke-miterlimit="10"/>
<path d="M36.2512 91.7032L34.0207 90.9427L34.069 90.6443C34.0979 90.4325 34.0593 90.2207 33.9338 90.0089L32.6592 87.7852L31.375 90.0282L29.1445 89.2677L33.2096 82.6929L37.0912 84.0213L36.2512 91.7032ZM34.4842 88.0451L35.1408 83.4919L32.8041 87.4676L34.4842 88.0451Z" fill="white"/>
<path d="M47.0091 87.8145L44.8076 87.5642L44.8559 87.131C44.8849 86.9192 44.8173 86.7363 44.6821 86.5823L43.2627 85.0517L42.5289 91.3378C42.5095 91.511 42.5965 91.665 42.7896 91.7998C42.9634 91.9153 43.1758 91.9923 43.4365 92.0212C43.6779 92.0501 43.8807 92.0212 44.0545 91.9538C44.2283 91.8768 44.3248 91.7421 44.3441 91.5495L44.5083 90.1922L46.7195 90.4425C46.6132 91.3474 46.5843 91.6458 46.6229 91.3474C46.565 91.7324 46.4877 92.0309 46.3622 92.2234C46.1401 92.5699 45.6959 92.7625 45.0394 92.8106C44.6917 92.8395 44.1896 92.8202 43.5331 92.7432C43.4751 92.7336 43.3399 92.724 43.1565 92.6951C42.9537 92.6758 42.7992 92.6662 42.6834 92.6469C40.897 92.4448 40.0666 91.8383 40.1825 90.8372L40.7039 86.409C40.7715 85.8218 41.0033 85.4175 41.4088 85.1865C41.7371 84.994 42.2392 84.9169 42.9247 84.9458C43.0599 84.9458 43.562 85.0036 44.431 85.0999C45.5704 85.225 46.3332 85.4175 46.7195 85.6678C47.0767 85.8988 47.2312 86.2069 47.1829 86.5919L47.0091 87.8145Z" fill="white"/>
<path d="M54.945 85.9366L51.411 86.3024L52.8497 87.3228C53.0814 87.4961 53.2166 87.7079 53.2359 87.9678L53.709 92.5885L51.3917 92.8291L50.7254 86.3698L48.8425 86.5623L48.7363 85.5227L54.8291 84.897L54.945 85.9366Z" fill="white"/>
<path d="M65.0548 90.0674L62.8146 90.8087L62.6698 90.5391C62.5636 90.3466 62.3994 90.2118 62.1774 90.1156L59.8117 89.1144L60.1496 91.6847L57.9095 92.4163L57.166 84.7344L61.0669 83.4541L65.0548 90.0674ZM61.4339 88.2288L59.1937 84.1953L59.7441 88.7775L61.4339 88.2288Z" fill="white"/>
</g>
<defs>
<clipPath id="clip0_614_14248">
<rect width="100" height="93" fill="white"/>
</clipPath>
</defs>
</svg>
