<svg width="100" height="97" viewBox="0 0 100 97" fill="none" xmlns="http://www.w3.org/2000/svg">
<path d="M49.4346 8.96097C50.0579 9.44455 50.8983 9.54885 51.6631 9.473C52.343 9.40662 53.0418 9.08424 53.3912 8.46791C53.7595 7.86107 53.7028 7.12148 53.7595 6.43878C53.7972 5.31992 53.9011 4.20105 53.9106 3.0727C53.5801 3.0727 53.2401 3.06322 52.9096 3.04426C52.8246 4.52343 52.7585 6.00261 52.6735 7.48179C52.6641 7.95589 52.4752 8.48688 52.0409 8.73341C51.4271 9.08424 50.5772 9.01786 50.0484 8.53429C49.6801 8.17397 49.6518 7.62402 49.6896 7.14044C49.7651 5.71816 49.8407 4.29587 49.9068 2.87358C49.7274 2.85462 49.5385 2.83565 49.3591 2.82617H48.8869C48.8114 4.24846 48.7359 5.67075 48.6698 7.08355C48.6225 7.7947 48.8681 8.53429 49.4346 8.96097Z" fill="white"/>
<path d="M42.6821 9.85139C43.0126 9.82294 43.3431 9.7945 43.6736 9.75657C43.6263 8.85579 43.4941 7.95501 43.4186 7.05422C43.7585 7.2249 44.0985 7.38609 44.4762 7.45246C44.8822 7.56625 45.3922 7.66107 45.5716 8.09724C45.7415 8.55237 45.7321 9.04543 45.7888 9.529C46.1287 9.51004 46.4686 9.47211 46.8086 9.44367C46.7519 8.95061 46.7614 8.43858 46.5725 7.96449C46.4403 7.62314 46.1193 7.41454 45.8076 7.25334C46.1948 7.09215 46.5631 6.87407 46.8275 6.5422C47.3563 5.88795 47.3563 4.93028 47.0069 4.19069C46.6669 3.48902 45.9021 3.0813 45.1466 3.07182C44.2685 3.03389 43.3053 3.23301 42.6915 3.90623C42.2666 4.36136 42.1533 5.01561 42.2288 5.61297C42.3799 7.0163 42.5121 8.43858 42.6821 9.85139ZM43.2109 4.84494C43.2392 4.17172 43.853 3.67866 44.4951 3.62177C44.9295 3.56488 45.4205 3.61229 45.751 3.94416C46.1759 4.33291 46.2231 4.94924 46.242 5.48971C46.2609 6.03018 45.9398 6.56116 45.4299 6.7508C44.7784 7.00681 43.8813 6.9594 43.4658 6.31463C43.2203 5.87847 43.2109 5.338 43.2109 4.84494Z" fill="white"/>
<path d="M56.7619 10.2879C57.404 10.4301 58.1405 10.4016 58.6788 9.98444C59.3115 9.50087 59.5003 8.54319 59.1415 7.84153C58.9149 7.35795 58.4522 7.08298 58.0272 6.79852C57.489 6.40028 56.8563 6.06841 56.5164 5.46157C56.2897 5.11074 56.5258 4.64612 56.8752 4.49441C57.2246 4.33322 57.6306 4.31426 57.9895 4.447C58.641 4.68405 59.2737 4.99696 59.7553 5.4995C59.8591 5.25297 59.9536 5.01592 60.048 4.76939C59.0848 4.12462 57.9234 3.68845 56.7524 3.79275C55.676 3.86861 55.0811 5.27193 55.6382 6.15375C56.082 6.90282 56.9507 7.19676 57.6212 7.68034C58.2066 8.00272 58.4049 8.82765 58.0933 9.40605C57.9422 9.68102 57.6117 9.81377 57.3096 9.81377C56.4125 9.74739 55.5154 9.38708 54.9205 8.68542C54.8355 8.92247 54.6184 9.18796 54.7128 9.44397C55.3549 9.80429 56.0348 10.1172 56.7619 10.2879Z" fill="white"/>
<path d="M36.9411 11.1886C37.2811 11.1507 37.6116 11.0559 37.9421 10.9611C37.7438 10.1551 37.5266 9.34916 37.3472 8.53371C38.2253 8.67594 39.1602 8.52423 39.9156 8.04065C40.3972 7.72775 40.7749 7.21573 40.841 6.63733C40.926 5.8693 40.6616 5.03489 40.0478 4.55131C39.5096 4.13411 38.7919 4.06773 38.1498 4.17203C37.4699 4.2953 36.79 4.55131 36.3179 5.07281C35.8835 5.53743 35.7324 6.22961 35.8646 6.84593C36.2235 8.29667 36.5823 9.73792 36.9411 11.1886ZM36.8656 5.62277C37.0355 5.14867 37.5077 4.87369 37.9704 4.75043C38.4142 4.62716 38.9336 4.68406 39.2924 5.00644C39.6701 5.34779 39.774 5.87878 39.8684 6.35287C39.9628 6.81749 39.8023 7.33899 39.4246 7.62345C38.9902 7.95532 38.4048 8.07858 37.876 7.97428C37.4321 7.87946 37.0922 7.50018 36.9883 7.0735C36.8656 6.60888 36.6767 6.09686 36.8656 5.62277Z" fill="white"/>
<path d="M30.5939 10.4394C31.1227 10.7238 31.7554 10.7238 32.3314 10.5721C32.6242 11.1505 32.8508 11.7668 33.1057 12.3642C33.153 12.459 33.1718 12.6202 33.3135 12.6202C33.6062 12.5254 33.8895 12.3831 34.1728 12.2599C33.9178 11.6056 33.6157 10.9703 33.3607 10.3161C33.2663 10.1549 33.4646 10.079 33.559 9.9937C33.965 9.69976 34.2861 9.28256 34.4089 8.7895C34.5222 8.28696 34.4466 7.74649 34.2389 7.27239C33.9745 6.66555 33.7384 6.04923 33.4551 5.44238C33.1435 5.57513 32.8319 5.69839 32.5297 5.85959C32.8225 6.54228 33.1057 7.22498 33.3985 7.90768C33.5684 8.28696 33.6629 8.73261 33.474 9.12137C33.1907 9.73769 32.4825 10.0601 31.831 10.0506C31.321 10.0411 30.8961 9.65235 30.7073 9.2067C30.4429 8.59038 30.1785 7.96457 29.9141 7.33877C29.8574 7.24395 29.848 7.09224 29.7346 7.04483C29.423 7.13965 29.1303 7.30084 28.8281 7.4241C29.0831 8.04043 29.3475 8.65675 29.6024 9.27308C29.8007 9.73769 30.1218 10.1928 30.5939 10.4394Z" fill="white"/>
<path d="M64.5137 12.7258C64.8158 12.8775 65.1275 13.0198 65.4391 13.1525C66.2606 11.3794 67.0349 9.57783 67.8281 7.79523C68.4891 8.08917 69.1501 8.39259 69.8206 8.68653C69.9339 8.48741 70.0189 8.27881 70.0944 8.07021C68.4608 7.33062 66.8366 6.57206 65.1747 5.87988C65.0236 6.05056 64.9764 6.27812 64.8914 6.48673C65.5524 6.7617 66.1945 7.08409 66.8555 7.3401C66.8083 7.64352 66.6478 7.90901 66.525 8.18399C65.8546 9.7011 65.1841 11.2182 64.5137 12.7258Z" fill="white"/>
<path d="M25.2599 15.1333C26.0342 15.5979 27.0163 15.6264 27.8661 15.3609C28.8765 15.0574 29.7452 14.3368 30.2929 13.4455C30.2646 13.2085 30.1041 13.0188 30.0002 12.8102C29.7736 13.199 29.5469 13.5877 29.207 13.8817C28.4705 14.5359 27.394 14.8773 26.4497 14.517C25.4771 14.1567 24.7877 13.2369 24.5517 12.2413C24.3722 11.5112 24.58 10.6863 25.1371 10.1743C25.8737 9.51052 26.8841 9.21658 27.8567 9.21658C27.7717 8.98902 27.6961 8.75197 27.5734 8.54337C27.2051 8.53389 26.8557 8.69508 26.5158 8.79938C25.3921 9.18814 24.2873 9.8898 23.8151 11.0371C23.173 12.5068 23.9095 14.3368 25.2599 15.1333Z" fill="white"/>
<path d="M68.9892 14.9902C69.4519 14.2601 69.9051 13.53 70.3962 12.8189C70.4151 12.8284 70.4528 12.8378 70.4717 12.8378C70.6795 13.4637 71.246 13.8809 71.4632 14.5067C71.5765 15.1609 71.0005 15.654 70.7267 16.185C71.01 16.3746 71.2932 16.5642 71.586 16.7444C71.8409 16.3272 72.1714 15.9479 72.3131 15.4738C72.4358 15.1135 72.3036 14.7437 72.1714 14.4118C72.7475 14.592 73.4085 14.611 73.9467 14.2981C74.721 13.8429 75.212 12.8853 75.0326 11.9845C74.9004 11.3113 74.4188 10.7708 73.8617 10.401C73.229 9.97431 72.4264 9.67089 71.6615 9.87949C71.1044 10.0122 70.6795 10.4484 70.3773 10.9225C69.6219 12.1077 68.8381 13.274 68.1016 14.4782C68.3943 14.6489 68.6587 14.8954 68.9892 14.9902ZM70.9911 11.956C71.2555 11.4156 71.5765 10.7992 72.1714 10.5717C72.5869 10.4105 73.0402 10.5527 73.4085 10.7708C73.8239 11.0173 74.1922 11.4345 74.2017 11.9371C74.2205 12.4586 73.8995 12.9137 73.5973 13.3214C73.2857 13.7291 72.7286 13.9852 72.2281 13.8145C71.4632 13.6059 70.6795 12.8094 70.9911 11.956Z" fill="white"/>
<path d="M73.0039 17.7311C73.2211 17.9871 73.5044 18.1768 73.7499 18.3948C74.392 17.6742 74.9964 16.9252 75.6385 16.214C76.3845 16.8683 77.1399 17.5035 77.8764 18.1768C77.2626 18.8974 76.6583 19.618 76.0162 20.3102C76.2239 20.5852 76.5072 20.7938 76.7716 21.0119C76.9321 20.8981 77.0455 20.7274 77.1682 20.5852C77.9709 19.6559 78.7735 18.7267 79.5761 17.788C79.9539 17.3518 80.1994 16.7734 80.1522 16.1856C80.1144 15.5123 79.7083 14.9245 79.2173 14.4883C78.6885 14.0332 78.037 13.6444 77.3193 13.6729C76.7244 13.6729 76.1673 14.0142 75.7801 14.4504C74.9114 15.446 74.0615 16.4511 73.1739 17.4372C73.1267 17.5415 73.0039 17.6173 73.0039 17.7311ZM77.3476 14.5073C78.1219 14.2133 78.9624 14.7917 79.2834 15.4934C79.5384 16.0244 79.2834 16.6312 78.9057 17.0295C78.6507 17.2949 78.443 17.6173 78.1503 17.8449C77.4232 17.1812 76.6489 16.5554 75.9312 15.8821C76.3939 15.4175 76.7244 14.7728 77.3476 14.5073Z" fill="white"/>
<path d="M44.3454 14.2049C40.7477 14.5178 37.1216 15.2858 33.8922 16.9546C32.5796 17.6563 31.3143 18.5191 30.3889 19.7044C29.7373 20.5388 29.2841 21.5818 29.3407 22.6627C29.3785 23.8669 30.0489 24.9574 30.8893 25.7823C32.2397 27.0813 33.9677 27.9157 35.7241 28.5226C39.5296 29.8121 43.5994 30.1345 47.5938 29.8974C49.9262 29.7457 52.2491 29.3854 54.506 28.7406C56.2623 28.2286 57.9904 27.5649 59.5485 26.6072C60.7099 25.8961 61.8147 25.0048 62.5513 23.8385C63.1651 22.8808 63.42 21.6671 63.099 20.5577C62.7401 19.2303 61.7392 18.1967 60.6533 17.4192C59.0952 16.3193 57.2916 15.6082 55.4691 15.1151C51.8525 14.1385 48.0659 13.9204 44.3454 14.2049ZM53.5617 20.1974C52.9384 21.0698 51.9658 21.6008 51.0027 21.9895C48.963 22.7765 46.7439 23.0136 44.5721 22.8713C43.1367 22.7575 41.692 22.4731 40.3889 21.8378C39.7279 21.5059 39.0858 21.0508 38.708 20.3966C38.4059 19.8845 38.387 19.2208 38.6608 18.6993C39.0291 17.9597 39.7184 17.4572 40.4172 17.0589C41.9753 16.2245 43.7316 15.8547 45.4786 15.7125C47.5843 15.5987 49.7562 15.7599 51.7109 16.6133C52.4757 16.9546 53.2312 17.4287 53.675 18.1588C54.0621 18.7846 53.9772 19.619 53.5617 20.1974Z" fill="white"/>
<path d="M20.2551 21.6372C20.5289 21.4381 20.7556 21.1821 21.0011 20.945C20.3779 20.2244 19.6791 19.5702 19.037 18.8685C19.5658 18.2806 20.189 17.7876 20.7084 17.1902C20.6045 17.0954 20.5101 17.01 20.4156 16.9152C19.8491 17.4557 19.2919 18.0057 18.7254 18.5461C18.4137 18.2427 18.1116 17.9108 17.8094 17.5979C17.4789 17.2376 17.29 16.6971 17.4978 16.223C17.6866 15.711 18.1777 15.4076 18.4987 15.0094C18.3949 14.8671 18.2721 14.7439 18.1493 14.6206C17.6111 15.1516 16.9784 15.6636 16.7424 16.4222C16.478 17.1712 16.7518 18.0246 17.2995 18.5746C18.2815 19.5891 19.273 20.6037 20.2551 21.6372Z" fill="white"/>
<path d="M79.3009 24.0746C81.5483 23.4014 83.8051 22.7377 86.0525 22.0644C85.9486 21.8748 85.807 21.6946 85.6654 21.5335C83.9373 22.0265 82.2376 22.6334 80.5001 23.098C81.3216 21.505 82.2659 19.9879 83.0969 18.3949C82.9269 18.0157 82.5775 17.7217 82.332 17.3804C81.8504 18.1958 81.4538 19.0587 81.01 19.8931C80.3774 21.1257 79.7352 22.3489 79.1026 23.5815C78.9515 23.7712 79.197 23.9324 79.3009 24.0746Z" fill="white"/>
<path d="M13.2857 23.8291C13.8145 24.2369 14.3339 24.673 14.8816 25.0618C15.3915 25.4031 16.0525 25.5454 16.6474 25.3463C17.4217 25.0902 18.0071 24.455 18.3943 23.7628C18.7815 23.0801 18.8098 22.1698 18.3471 21.5061C17.8655 20.8518 17.129 20.4536 16.5246 19.9226C15.9486 19.4106 15.1837 19.0218 14.4 19.202C13.7862 19.3347 13.2763 19.7519 12.8986 20.245C12.4642 20.7949 12.1526 21.4871 12.2281 22.1983C12.2659 22.881 12.7569 23.4404 13.2857 23.8291ZM12.9174 21.525C12.993 20.8898 13.4179 20.3019 14.0128 20.0459C14.4661 19.8467 14.9854 20.0269 15.3537 20.3208C16.0147 20.8329 16.6663 21.3544 17.3273 21.8664C17.6483 22.1034 17.9222 22.4448 17.9694 22.8525C18.0355 23.7343 17.2423 24.673 16.3358 24.6161C15.958 24.5877 15.6464 24.3507 15.3537 24.1231C14.7399 23.63 14.1167 23.1559 13.5029 22.6629C13.1441 22.3974 12.8797 21.9802 12.9174 21.525Z" fill="white"/>
<path d="M82.2199 27.1278C82.1349 27.839 82.4276 28.5406 82.8053 29.1285C83.0981 29.5741 83.3152 30.0672 83.6552 30.4749C83.7874 30.3896 83.929 30.3042 84.0612 30.2189C83.7968 29.7069 83.4663 29.2328 83.183 28.7302C82.8809 28.2751 82.7109 27.6493 83.0225 27.1563C83.4286 26.5589 84.1462 26.3218 84.7128 25.9236C85.1566 26.5779 85.5249 27.27 85.9498 27.9433C86.0726 27.8769 86.1859 27.8105 86.3086 27.7536C85.9498 27.0425 85.4965 26.3882 85.1094 25.696C85.6665 25.3831 86.1859 24.9754 86.7808 24.7573C87.0735 24.6341 87.3285 24.8901 87.4512 25.1271C87.8856 25.8762 88.3483 26.6063 88.7732 27.3554C88.9243 27.2795 89.0754 27.2037 89.217 27.1088C88.4805 25.8572 87.7345 24.5961 86.9696 23.354C85.7515 24.0841 84.5334 24.8237 83.3152 25.5538C82.7581 25.8952 82.3049 26.4546 82.2199 27.1278Z" fill="white"/>
<path d="M8.95105 32.8354C9.98977 33.3285 11.0002 33.869 12.0578 34.3336C12.1994 34.0302 12.3694 33.7267 12.4827 33.4044C11.2551 32.826 10.0464 32.2191 8.82829 31.6218C8.40336 31.4131 7.93122 31.2045 7.71403 30.7589C7.39298 30.0857 7.73292 29.2418 8.28061 28.7961C8.66776 28.4832 9.23434 28.4927 9.66871 28.7013C11.0474 29.3745 12.426 30.0478 13.8047 30.721C13.9558 30.4175 14.1069 30.1046 14.2485 29.7917C13.002 29.1754 11.7461 28.5686 10.4997 27.9522C9.92366 27.6583 9.21545 27.5445 8.61111 27.81C7.86512 28.1229 7.39298 28.853 7.12858 29.5926C6.88306 30.2848 6.86417 31.1192 7.31743 31.7355C7.69515 32.3045 8.37503 32.5225 8.95105 32.8354Z" fill="white"/>
<path d="M85.0605 31.0729C84.6167 31.7082 84.6545 32.5616 84.9189 33.2537C85.1833 33.908 85.4854 34.5433 85.7687 35.1786C85.9104 35.1217 86.052 35.0648 86.1842 34.9794C85.9292 34.2588 85.5138 33.6046 85.3155 32.8745C85.1644 32.2581 85.5421 31.6228 86.1087 31.3858C87.5251 30.741 88.951 30.1057 90.3768 29.4704C90.2635 29.1481 90.1219 28.8446 89.9802 28.5317C88.7904 29.0248 87.629 29.5842 86.4392 30.0963C85.9198 30.3143 85.3721 30.5798 85.0605 31.0729Z" fill="white"/>
<path d="M6.14864 38.942C6.79076 39.1317 7.44232 39.3118 8.08443 39.5015C8.7171 39.6816 9.46309 39.6722 10.0202 39.2644C10.6907 38.7809 11.0117 37.9559 11.1345 37.1689C11.2667 36.4293 11.0495 35.5949 10.4451 35.1113C9.92579 34.6752 9.2459 34.5804 8.62267 34.3812C7.8578 34.1726 7.0646 33.8123 6.2714 34.0778C5.64817 34.2675 5.17603 34.7795 4.93051 35.3768C4.6189 36.107 4.46781 36.9603 4.76054 37.7189C4.98717 38.3257 5.53486 38.7619 6.14864 38.942ZM6.15808 34.9976C6.61134 34.8459 7.08349 35.0165 7.51786 35.1398C8.24496 35.3674 8.9815 35.538 9.69916 35.7846C10.1996 35.9552 10.5962 36.4293 10.5773 36.9698C10.5962 37.6335 10.2563 38.3921 9.58585 38.6197C8.94373 38.8093 8.32995 38.4585 7.7256 38.3257C7.08349 38.1076 6.39416 38.0223 5.79926 37.6999C4.76998 37.112 5.10993 35.3579 6.15808 34.9976Z" fill="white"/>
<path d="M10.0002 41.9964C10.0852 41.6835 10.1324 41.3516 10.1702 41.0197C8.03613 40.65 5.90204 40.2422 3.75851 39.9009C3.68296 40.2327 3.60742 40.5646 3.60742 40.9154C5.68485 41.2663 7.75284 41.655 9.83027 42.0059C9.86804 42.0059 9.95303 42.0059 10.0002 41.9964Z" fill="white"/>
<path d="M3.53209 47.5416C3.5982 46.8115 3.6643 46.0909 3.7304 45.3608C5.67563 45.503 7.61141 45.7211 9.55665 45.8444C9.58498 45.503 9.62275 45.1617 9.6133 44.8203C7.68696 44.6876 5.76061 44.4884 3.83427 44.3273C3.87204 43.5971 3.94758 42.8765 4.01368 42.1559C3.78705 42.118 3.56042 42.0895 3.33379 42.099C3.17327 43.7109 3.09772 45.3418 2.87109 46.9443C2.89942 47.1339 2.93719 47.3235 2.93719 47.5132C3.14494 47.5132 3.34324 47.5227 3.53209 47.5416Z" fill="white"/>
<path d="M4.14588 53.6773C4.50471 53.848 4.90131 53.9049 5.28847 53.8859C6.7049 53.8195 8.12133 53.7247 9.54721 53.6868C9.53776 53.336 9.51888 52.9946 9.50943 52.6438C8.54626 52.6533 7.58309 52.7576 6.61992 52.7765C6.60103 51.7809 6.48772 50.7853 6.48772 49.7897C7.432 49.7328 8.38573 49.676 9.33002 49.638C9.32058 49.3156 9.33002 49.0027 9.30169 48.6804C9.28281 48.6614 9.23559 48.6235 9.20726 48.6045C8.12133 48.6519 7.0354 48.7183 5.94947 48.7752C5.5151 48.7941 5.07128 48.8036 4.63691 48.87C4.09867 48.9648 3.58875 49.2777 3.28658 49.7423C3.05995 50.0837 2.97497 50.5009 2.86165 50.8991C2.76722 51.3542 2.9372 51.7999 3.03162 52.2456C3.17327 52.8524 3.56987 53.4118 4.14588 53.6773ZM3.80594 50.2828C4.3914 49.7044 5.29791 49.8846 6.0439 49.8087C6.07223 50.8043 6.15721 51.7999 6.18554 52.805C5.45844 52.805 4.62747 53.061 3.98535 52.6059C3.32435 52.0654 3.24881 50.9276 3.80594 50.2828Z" fill="white"/>
<path d="M92.4458 52.2068C91.0293 52.0361 89.6223 51.8559 88.2059 51.6758C88.1587 52.0171 88.1209 52.368 88.0831 52.7093C89.0274 52.8231 89.9717 52.9464 90.916 53.0412C90.8499 54.0368 90.6894 55.0324 90.5666 56.028C89.6129 55.9332 88.6592 55.7909 87.7054 55.6961C87.6771 56.009 87.6204 56.3124 87.6016 56.6253C87.6204 56.6538 87.6582 56.7012 87.6771 56.7202C89.0085 56.8814 90.3494 57.0425 91.6809 57.2132C92.1719 57.2701 92.6913 57.2606 93.1445 57.0331C93.7583 56.7391 94.1455 56.1133 94.2966 55.4591C94.476 54.691 94.476 53.8092 94.0322 53.1265C93.7017 52.5766 93.069 52.2826 92.4458 52.2068ZM92.729 56.2366C92.153 56.2935 91.5676 56.1607 91.001 56.0754C91.1332 55.0893 91.2465 54.1032 91.3693 53.117C91.9453 53.1929 92.5496 53.1834 93.0973 53.4015C94.2966 53.9135 94.0322 56.0564 92.729 56.2366Z" fill="white"/>
<path d="M9.7737 54.6353C9.63206 54.6353 9.49986 54.6447 9.35821 54.6542C7.34688 54.9766 5.33555 55.3085 3.32422 55.6024C3.35255 55.9438 3.4092 56.2851 3.4753 56.6265C5.61884 56.2851 7.76237 55.9438 9.9059 55.6024C9.85869 55.2895 9.81147 54.9576 9.7737 54.6353Z" fill="white"/>
<path d="M9.557 62.0304C10.2558 61.452 10.624 60.5417 10.6335 59.6409C10.6807 58.5316 10.2558 57.4222 9.51923 56.6067C9.30205 56.5309 9.06598 56.6541 8.84879 56.6921C9.12263 57.0334 9.43425 57.3558 9.61366 57.7635C10.0291 58.6453 10.0291 59.7737 9.43425 60.5702C8.91489 61.2908 8.0367 61.6796 7.1774 61.7649C6.44086 61.8313 5.64766 61.5942 5.16607 61.0063C4.74114 60.4943 4.61838 59.8116 4.57117 59.1668C4.5334 58.6738 4.69393 58.1902 4.76947 57.7066C4.51451 57.7161 4.269 57.7446 4.01404 57.7825C3.95738 58.7022 3.98571 59.6504 4.27844 60.5322C4.54284 61.3192 5.07164 62.0304 5.79874 62.4381C6.9791 63.0924 8.52773 62.8648 9.557 62.0304Z" fill="white"/>
<path d="M91.3237 58.9679C90.4077 58.4654 89.284 58.2663 88.2736 58.5697C86.9139 58.9869 86.1018 60.5894 86.4984 61.9453C85.8185 61.7841 85.1575 61.5565 84.4871 61.3764C84.3832 61.7082 84.2793 62.0306 84.2227 62.372C85.8374 62.7986 87.4332 63.3296 89.0574 63.7279C89.1518 63.415 89.2463 63.0926 89.3218 62.7797C88.5569 62.5331 87.7637 62.372 87.0177 62.078C86.9328 61.3289 87.065 60.4661 87.6882 59.973C88.4247 59.4136 89.4257 59.5084 90.2566 59.7739C91.0593 60.0299 91.9186 60.4945 92.2019 61.3384C92.4096 61.9073 92.1641 62.4952 91.9469 63.0262C91.7675 63.4529 91.4181 63.7563 91.1443 64.1071C91.3898 64.183 91.6353 64.2494 91.8903 64.3063C92.4285 63.415 92.9951 62.4383 92.9195 61.3574C92.8629 60.3333 92.1924 59.442 91.3237 58.9679Z" fill="white"/>
<path d="M12.635 67.7775C13.1449 67.2086 13.1921 66.3647 12.9843 65.663C12.7672 64.9424 12.3706 64.2123 11.7096 63.8235C11.2752 63.5581 10.7369 63.5106 10.2459 63.6055C9.49049 63.8236 8.79171 64.2218 8.06461 64.5157C7.40361 64.7717 6.78982 65.2838 6.60097 66.0044C6.40267 66.8104 6.67651 67.6637 7.10144 68.3464C7.46971 68.9248 8.07405 69.4179 8.79171 69.4463C9.5377 69.5127 10.1893 69.0955 10.8503 68.8205C11.4735 68.5171 12.1817 68.318 12.635 67.7775ZM7.82854 68.2895C7.41305 67.9387 7.16754 67.3982 7.14865 66.8578C7.1581 66.2794 7.61135 65.8242 8.12127 65.6251C8.98057 65.2553 9.81154 64.8286 10.6897 64.5062C11.974 64.108 13.0127 65.9854 12.1723 66.9431C11.9267 67.2276 11.5679 67.3698 11.2374 67.5215C10.5575 67.8154 9.89653 68.1283 9.21664 68.4223C8.78227 68.6119 8.2157 68.6119 7.82854 68.2895Z" fill="white"/>
<path d="M86.4972 64.402C85.7418 64.364 85.0525 64.8571 84.6842 65.4924C84.2876 66.194 84.0138 66.9526 83.6738 67.6827C83.8344 67.7585 83.9949 67.8344 84.1743 67.8723C84.4198 67.2655 84.6842 66.6586 84.9675 66.0613C85.2319 65.4924 85.8929 65.1321 86.5067 65.3312C87.026 65.5019 87.5171 65.7579 88.0175 65.9854C87.7154 66.7155 87.3754 67.4267 87.0733 68.1473C87.196 68.2042 87.3282 68.2611 87.4604 68.318C87.7909 67.6068 88.1025 66.8862 88.4142 66.1656C88.8391 66.3173 89.2357 66.5164 89.6512 66.6966C89.8967 66.8198 90.1705 66.9336 90.3122 67.1802C90.3972 67.3888 90.2933 67.6163 90.2177 67.806C89.8872 68.5266 89.5756 69.2567 89.2546 69.9773C89.094 70.2049 89.5001 70.3376 89.6606 70.2997C90.265 69.0007 90.8126 67.6732 91.417 66.3742C90.3688 65.8622 89.2829 65.4165 88.2253 64.9235C87.6587 64.7054 87.111 64.3735 86.4972 64.402Z" fill="white"/>
<path d="M86.0335 70.2608C85.0987 69.6634 84.1827 69.0281 83.229 68.4497C83.0496 68.7342 82.8607 69.0091 82.7002 69.3031C83.9655 70.1659 85.2686 70.9719 86.5434 71.8253C86.9778 72.1097 87.2894 72.6597 87.1478 73.1812C87.0061 73.7975 86.5623 74.4043 85.9297 74.5466C85.4481 74.6509 84.9948 74.4044 84.6171 74.1389C83.5312 73.4182 82.4358 72.7166 81.3593 72.0054C81.2554 71.9485 81.161 71.8632 81.0382 71.8727C80.8399 72.1192 80.6889 72.4037 80.5 72.6597C81.6143 73.4562 82.7852 74.1578 83.9278 74.9259C84.4754 75.3051 85.1648 75.5422 85.8258 75.3525C86.6379 75.1345 87.2139 74.4328 87.5727 73.7027C87.9032 73.039 87.9788 72.2045 87.5822 71.5503C87.2328 70.9434 86.5812 70.64 86.0335 70.2608Z" fill="white"/>
<path d="M13.2766 74.0251C13.5315 73.3519 13.286 72.6313 13.1349 71.9675C13.0499 71.5693 12.8894 71.171 12.9838 70.7633C13.1066 70.3272 13.4465 69.9384 13.8904 69.8056C14.2397 69.7013 14.5891 69.9099 14.7969 70.1754C15.3257 70.8581 15.7223 71.7115 15.609 72.5933C15.845 72.4795 16.0811 72.3847 16.3266 72.2899C16.2039 71.6925 15.9867 71.1236 15.7317 70.5832C15.4768 70.0522 15.1274 69.5496 14.6175 69.2462C14.0887 68.9143 13.3804 68.8764 12.8422 69.2083C12.2662 69.5496 11.9074 70.2418 11.9829 70.915C12.0679 71.5503 12.2284 72.1761 12.304 72.8209C12.3417 73.1717 12.3323 73.5415 12.1812 73.8639C12.0018 74.2147 11.5013 74.2906 11.1803 74.1104C10.9064 73.9682 10.6609 73.7501 10.5098 73.4752C10.2076 72.8304 9.95268 72.1382 9.96212 71.4081C9.72605 71.4934 9.48054 71.5977 9.25391 71.6925C9.40499 72.6692 9.83936 73.5984 10.472 74.3475C10.8025 74.7362 11.2652 75.0776 11.8035 75.0491C12.4267 75.0207 13.0688 74.6414 13.2766 74.0251Z" fill="white"/>
<path d="M19.0377 76.8699C19.2643 76.7276 19.491 76.5854 19.7081 76.4337C19.3493 75.6372 18.9622 74.8407 18.3484 74.2149C17.9234 73.7882 17.3285 73.4848 16.7147 73.5322C15.9782 73.5891 15.3361 74.177 15.1944 74.8976C15.0717 75.3812 15.2322 75.8648 15.3927 76.3199C15.6099 77.0216 15.9593 77.7327 15.8366 78.4818C15.7799 78.8516 15.3644 79.0791 15.015 79.0128C14.6845 78.9559 14.3824 78.7568 14.1557 78.5102C13.7025 77.9129 13.4097 77.2112 13.2398 76.4811C13.0131 76.6044 12.8054 76.7371 12.5977 76.8888C12.947 77.9034 13.5514 78.8421 14.4012 79.4963C14.7695 79.7618 15.2417 79.9325 15.6855 79.8187C16.2898 79.6575 16.8658 79.1645 16.9319 78.5007C17.0452 77.7896 16.6864 77.1354 16.4503 76.4906C16.3181 76.1397 16.1104 75.7794 16.1765 75.3907C16.2615 74.9071 16.6014 74.4235 17.0925 74.3003C17.3852 74.2434 17.659 74.4046 17.8762 74.5847C18.5183 75.1821 19.0188 75.9786 19.0377 76.8699Z" fill="white"/>
<path d="M83.0692 78.7196C82.0305 77.8852 81.0484 76.9655 80.0286 76.0932C79.547 75.7044 79.1221 75.2493 78.6122 74.8984C78.4233 75.1829 78.1211 75.3915 78.0078 75.7139C79.4809 76.9465 80.8973 78.2455 82.3704 79.4877C81.936 80.0756 81.4167 80.6065 80.954 81.166C81.1145 81.3272 81.2939 81.4694 81.4733 81.6116C82.6443 80.2273 83.8718 78.8998 85.005 77.487C84.835 77.3353 84.665 77.2025 84.4762 77.0698C84.0135 77.6387 83.5319 78.1792 83.0692 78.7196Z" fill="white"/>
<path d="M23.6644 79.5539C23.0506 80.284 22.4274 81.0141 21.7947 81.7252C21.0771 81.0994 20.35 80.4736 19.6418 79.8478C19.5096 79.7719 19.6229 79.6676 19.6795 79.6013C20.2555 78.9186 20.8599 78.2643 21.4265 77.5721C21.1621 77.3446 20.9165 77.1075 20.6427 76.8989C19.7079 77.9988 18.7541 79.0798 17.8193 80.1892C17.4604 80.6158 17.2338 81.1658 17.2621 81.7347C17.3188 82.4458 17.7437 83.0622 18.2725 83.5078C18.7541 83.9345 19.3679 84.2569 20.0289 84.2664C20.6333 84.2853 21.2093 83.963 21.6153 83.5268C22.569 82.4458 23.485 81.327 24.4671 80.2745C24.231 79.99 23.9477 79.7625 23.6644 79.5539ZM20.5672 83.1285C20.2083 83.4889 19.6418 83.6311 19.1791 83.432C18.5558 83.1665 17.9704 82.5501 18.0648 81.82C18.1498 81.2037 18.6691 80.815 19.028 80.3503C19.113 80.2555 19.2452 80.028 19.3868 80.1892C20.095 80.8055 20.7938 81.4313 21.5114 82.0381C21.2187 82.4174 20.8977 82.7872 20.5672 83.1285Z" fill="white"/>
<path d="M78.3017 80.891C77.4235 80.7867 76.6398 81.2987 75.8371 81.5642C75.2139 81.8487 74.449 81.4504 74.1846 80.8436C74.0524 80.4928 74.2318 80.1324 74.4773 79.8859C75.0628 79.2791 75.8371 78.8145 76.7059 78.7765C76.5737 78.549 76.4415 78.3309 76.2998 78.1128C75.3272 78.5395 74.2979 79.042 73.6936 79.9618C73.3064 80.5591 73.2686 81.403 73.7219 81.9719C74.1185 82.5408 74.8834 82.7874 75.5538 82.6357C76.2904 82.446 76.9891 82.1047 77.7446 81.9814C78.0656 81.953 78.4622 81.9245 78.6983 82.19C79.0855 82.6926 78.7361 83.3942 78.3017 83.7261C77.7068 84.1338 77.0364 84.4562 76.3187 84.57C76.4509 84.7881 76.5831 85.0156 76.7247 85.2337C77.8296 84.8544 78.906 84.1717 79.5198 83.1382C80.0203 82.2469 79.3121 80.9858 78.3017 80.891Z" fill="white"/>
<path d="M25.3358 23.061C22.7579 24.4359 20.2933 26.209 18.6031 28.6364C17.4794 30.2483 16.8089 32.2585 17.0544 34.2402C17.2811 36.3736 18.4898 38.2795 20.0006 39.7492C22.0592 41.7499 24.6371 43.1343 27.2716 44.1962C31.0204 45.6754 34.9959 46.5098 38.9902 46.927C43.5511 47.3916 48.1593 47.3158 52.7013 46.7279C57.2527 46.1211 61.7759 45.0022 65.9685 43.0963C68.8108 41.7878 71.5587 40.1095 73.6361 37.7201C74.7126 36.4779 75.5719 35.0083 75.9118 33.3774C76.2612 31.7465 76.0252 30.0018 75.2981 28.5037C74.6087 27.0434 73.5134 25.8108 72.2952 24.7773C70.7749 23.4877 69.028 22.4921 67.215 21.6577C67.4416 21.9232 67.7343 22.1318 67.9798 22.3878C68.9902 23.3834 69.8023 24.6445 70.0289 26.0668C70.265 27.4322 69.8873 28.845 69.1696 30.0018C68.2537 31.481 66.9033 32.6378 65.468 33.586C63.7589 34.7048 61.8892 35.5582 59.9723 36.2314C55.7796 37.7011 51.3509 38.4028 46.9222 38.564C42.1253 38.7346 37.2716 38.2795 32.6729 36.8762C30.2178 36.1082 27.8004 35.0651 25.7891 33.4437C24.7598 32.5998 23.8344 31.5758 23.3056 30.3337C22.7296 29.0346 22.7202 27.5175 23.1829 26.1901C23.5983 24.9764 24.4388 23.9618 25.3358 23.061Z" fill="white"/>
<path d="M76.4131 66.0896C78.33 63.7666 79.6426 60.8461 79.6992 57.793C78.5755 60.0117 76.7625 61.7754 74.77 63.2166C72.4282 64.9044 69.822 66.1939 67.1402 67.2275C63.5614 68.6024 59.8314 69.5411 56.0543 70.1479C52.0127 70.7927 47.9051 71.0487 43.8163 70.9444C39.0854 70.8116 34.364 70.2332 29.7937 68.9911C26.5548 68.0998 23.3819 66.8956 20.5208 65.1035C18.9532 64.1079 17.4896 62.9132 16.3281 61.4435C16.602 62.8089 17.1497 64.1079 17.8579 65.3026C19.4254 67.9291 21.7767 69.9962 24.3546 71.5986C27.5274 73.5519 31.059 74.8509 34.6662 75.7138C39.1421 76.7758 43.7597 77.155 48.3489 77.0128C52.3338 76.8801 56.3092 76.3586 60.1619 75.344C63.2686 74.538 66.2998 73.4097 69.1232 71.8831C71.8616 70.3944 74.4207 68.5075 76.4131 66.0896Z" fill="white"/>
<path d="M55.1378 79.2032C51.0302 79.8859 46.847 80.085 42.6921 79.7531C38.9244 79.4402 35.1567 78.7006 31.6439 77.2689C31.1907 77.0982 30.7752 76.8517 30.3125 76.7094C32.4277 78.6817 35.0717 79.9712 37.8007 80.8246C41.5306 81.9814 45.4872 82.3512 49.3777 82.1141C53.0226 81.8771 56.6487 81.0901 59.9914 79.6014C62.135 78.6248 64.1935 77.3732 65.8177 75.6475C65.4872 75.7802 65.185 75.9698 64.864 76.131C61.8328 77.6956 58.4995 78.6248 55.1378 79.2032Z" fill="white"/>
<path d="M30.5566 90.6571C31.2743 90.9415 32.0014 91.1881 32.7379 91.4156C33.1345 90.7045 33.5217 89.9744 33.9655 89.2917C34.3149 89.9175 34.6643 90.5243 35.0231 91.1501C35.2592 91.482 35.3819 91.8897 35.2403 92.2975C35.958 92.5724 36.6851 92.8095 37.4122 93.056C37.6766 90.5718 37.9598 88.0875 38.2243 85.6032C36.9778 85.1671 35.7313 84.7498 34.4943 84.3042C33.1629 86.4092 31.8692 88.5426 30.5566 90.6571ZM35.6747 89.4718C35.1553 89.2727 34.6265 89.102 34.1072 88.9219C34.8437 87.6608 35.5802 86.3997 36.3262 85.1481C36.0902 86.5893 35.9107 88.0401 35.6747 89.4718Z" fill="white"/>
<path d="M58.1484 85.906C58.3562 88.3998 58.4884 90.8935 58.7339 93.3873C59.4516 93.1502 60.1787 92.9416 60.8963 92.714C60.8113 91.8891 60.7263 91.0737 60.6319 90.2487C61.3873 90.5522 62.1144 90.9125 62.8604 91.2443C63.1626 91.3581 63.3231 91.6426 63.4459 91.927C64.1824 91.7184 64.9095 91.4719 65.6366 91.2633C64.4185 89.0825 63.172 86.9111 61.935 84.7397C60.6791 85.1285 59.4138 85.5173 58.1484 85.906ZM60.5658 89.8695C60.4147 88.4472 60.2731 87.0154 60.1598 85.5836C60.8397 86.8352 61.5007 88.1058 62.1522 89.3859C61.6234 89.5376 61.0946 89.6988 60.5658 89.8695Z" fill="white"/>
<path d="M55.3819 86.4282C53.4367 86.6463 51.482 86.8549 49.5273 87.0445C49.5557 87.3859 49.5934 87.7272 49.6218 88.0781C50.2261 88.0307 50.8305 87.9453 51.4348 87.8979C51.652 89.946 51.8597 91.9941 52.0769 94.0517C52.313 94.0706 52.5491 94.137 52.7851 94.0896C53.295 93.9948 53.8144 93.9663 54.3338 93.9095C54.1827 92.4113 54.0222 90.9226 53.8711 89.4245C53.8522 89.1969 53.7389 88.9789 53.5595 88.8366C53.1062 88.4858 52.6152 88.1729 52.1619 87.8221C53.2762 87.6893 54.3904 87.585 55.5047 87.4618C55.4764 87.1204 55.4575 86.7696 55.3819 86.4282Z" fill="white"/>
<path d="M46.7795 87.025C45.8919 86.7121 44.9382 86.6647 44.0033 86.5604C43.3612 86.513 42.6813 86.4466 42.077 86.7121C41.6048 86.9112 41.3593 87.4232 41.3121 87.9163C41.1516 89.3955 41.0005 90.8841 40.8494 92.3633C40.7927 92.8943 41.1705 93.3684 41.6332 93.5865C42.6435 94.0796 43.805 94.0227 44.9004 94.1554H45.4103C45.9013 94.108 46.4679 94.0511 46.7984 93.6339C47.1572 93.1029 47.0817 92.4202 47.1761 91.8134C46.4585 91.728 45.7502 91.6711 45.0326 91.5763C44.9476 92.0789 44.957 92.5909 44.8343 93.084C44.6265 93.4158 44.1733 93.4063 43.8333 93.34C43.5217 93.2736 43.1251 93.065 43.1723 92.6857C43.3801 90.6945 43.5784 88.7033 43.805 86.7121C44.2772 87.1767 44.7304 87.6698 45.1648 88.1628C45.4103 88.4094 45.297 88.7697 45.2781 89.0826C45.9958 89.1584 46.704 89.2438 47.4216 89.3007C47.4594 88.8361 47.5444 88.3714 47.5538 87.8973C47.5538 87.4517 47.1572 87.1578 46.7795 87.025Z" fill="white"/>
<path d="M81.4727 37.4733C82.9836 38.2697 84.5228 39.0093 86.0431 39.7774C85.7315 40.1472 85.3349 40.4316 84.9761 40.754C82.3604 42.9728 79.5086 44.8976 76.553 46.6233C73.4558 48.4249 70.2169 49.9989 66.893 51.3358C61.3217 53.5451 55.4671 55.1665 49.4709 55.5173C44.5039 55.7354 39.4992 55.5079 34.5983 54.664C30.9912 54.0382 27.4218 53.0805 24.0601 51.6013C21.1139 50.2833 18.2811 48.5481 16.147 46.1018C15.5426 45.3907 15.0044 44.6321 14.57 43.8072C14.3151 43.3331 14.1356 42.8305 13.909 42.3375C12.7287 44.4425 12.3132 46.9362 12.5398 49.3351C12.757 51.3074 13.6352 53.1564 14.8344 54.7209C16.7985 57.262 19.4709 59.1394 22.2848 60.5997C25.5143 62.2495 28.9798 63.3968 32.5115 64.1649C36.9213 65.1415 41.4633 65.5587 45.9864 65.5492C47.7523 65.5303 49.5275 65.4828 51.2839 65.2742C55.7598 64.7717 60.1413 63.6054 64.3812 62.0978C70.5568 59.8601 76.4775 56.8638 81.8599 53.09C84.6456 51.0893 87.3368 48.8895 89.4897 46.1871C90.3018 47.6758 91.0384 49.2119 91.8788 50.6816C92.6342 48.4628 93.3047 46.2156 94.0318 43.9779C94.8911 41.266 95.7504 38.5637 96.6097 35.8519C96.7985 35.3209 96.9118 34.7614 97.1574 34.2589V34.0503C91.9449 35.2166 86.6947 36.2975 81.4727 37.4733Z" fill="white"/>
</svg>
