<svg width="167" height="41" viewBox="0 0 167 41" fill="none" xmlns="http://www.w3.org/2000/svg">
<g clip-path="url(#clip0_63_620)">
<path d="M24.4037 28.4524H24.384L17.0195 15.7344L24.4037 28.4524Z" fill="white"/>
<path d="M37.1054 40.0096H22.8437C21.6161 40.0091 20.4096 39.6893 19.3425 39.0814C18.2753 38.4735 17.3841 37.5983 16.756 36.5416L7.37109 20.3689C7.37109 20.3689 13.0639 19.8217 16.9206 26.4938L20.8101 33.1792C21.6722 34.6626 22.258 35.0912 24.0349 35.0912H28.2535L14.1169 10.7628C14.1169 10.7628 19.8097 10.2156 23.6664 16.8878L37.1054 40.0096Z" fill="white"/>
<path d="M12.4977 40.0111H6.47581L0.651367 29.9765C0.651367 29.9765 6.43633 29.6073 10.1942 36.108L12.4977 40.0111Z" fill="white"/>
<path d="M56.0198 40.0105H47.5168C46.294 40.0036 45.0937 39.6808 44.0319 39.0733C42.9701 38.4657 42.0827 37.5941 41.4554 36.5425L20.8691 1.08516C20.8691 1.08516 26.562 0.537936 30.4186 7.21669L45.4832 33.1801C46.3453 34.6635 46.9311 35.0921 48.708 35.0921H52.9266L40.2445 13.2098C37.4672 8.40344 40.6459 2.85209 44.088 1.19724C47.6682 -0.530137 53.4663 -0.444428 56.5924 5.30471C58.0666 8.02104 56.7306 11.7 56.7306 11.7L57.9087 15.0822C57.9087 15.0822 58.2443 16.203 57.5928 16.4008C56.9412 16.5986 56.4739 15.7876 56.4739 15.7876L51.4919 7.09142C50.9642 6.26945 50.1439 5.6797 49.1976 5.4421C48.2513 5.2045 47.2503 5.3369 46.398 5.81237C44.8843 6.69584 43.6536 8.70012 44.9172 10.9022L58.4747 34.3339C60.2385 37.3139 59.6856 40.0105 56.0198 40.0105Z" fill="white"/>
<path d="M67.7812 19.81L69.7556 18.0167C70.1697 18.5473 70.702 18.9733 71.3101 19.2607C71.9181 19.5481 72.5848 19.6888 73.2569 19.6715C74.5731 19.6715 75.7315 19.2232 75.7315 18.2145C75.7315 15.3926 68.3407 16.6849 68.3407 11.8851C68.3407 9.19519 70.7033 7.92932 73.428 7.92932C74.3869 7.90765 75.3378 8.1082 76.2065 8.51534C77.0753 8.92248 77.8384 9.52518 78.4364 10.2764L76.5475 12.0829C76.1716 11.6014 75.6927 11.2104 75.1459 10.9389C74.5992 10.6673 73.9987 10.5221 73.3885 10.5138C72.1446 10.5138 71.1311 10.9423 71.1311 11.8654C71.1311 14.1268 78.5219 13.184 78.5219 17.9969C78.5219 20.9704 75.9684 22.2626 73.303 22.2626C70.7889 22.2626 69.0317 21.5044 67.8076 19.7836" fill="white"/>
<path d="M80.0879 8.12695H82.9902L85.9781 18.8407L89.1109 8.12695H92.1843L95.2973 18.8407L98.3049 8.12695H101.141L96.9755 22.091H93.5993L90.618 12.1289L87.6301 22.091H84.2539L80.0879 8.12695Z" fill="white"/>
<path d="M111.151 19.5725H105.413L104.577 22.091H101.589L106.485 8.12695H109.901L114.824 22.091H112.033L111.151 19.5725ZM106.295 16.9946H110.243L108.269 11.2916L106.295 16.9946Z" fill="white"/>
<path d="M117.482 8.12695H120.062L127.15 17.4429V8.12695H129.921V22.091H127.341L120.26 12.7553V22.091H117.482V8.12695Z" fill="white"/>
<path d="M68.9189 26.0605H71.7094V31.6317H77.1258V26.0605H79.9163V40.0246H77.1258V34.2557H71.7094V40.0246H68.9189V26.0605Z" fill="white"/>
<path d="M83.9766 26.0605H92.5257V28.6846H86.7275V31.6778H91.986V34.2557H86.7275V37.3808H92.6112V40.0246H83.9766V26.0605Z" fill="white"/>
<path d="M96.0469 26.0605H99.1006V37.3347H104.701V40.0246H96.0469V26.0605Z" fill="white"/>
<path d="M107.498 26.0605H110.545V37.3347H116.152V40.0246H107.498V26.0605Z" fill="white"/>
<path d="M118.943 26.0605H127.492V28.6846H121.694V31.6778H126.959V34.2557H121.694V37.3808H127.578V40.0246H118.943V26.0605Z" fill="white"/>
<path d="M131.014 26.0605H133.594L140.682 35.3765V26.0605H143.452V40.0246H140.872L133.784 30.6889V40.0246H131.014V26.0605Z" fill="white"/>
<path d="M150.304 26.0605H147.514V40.0246H150.304V26.0605Z" fill="white"/>
<path d="M160.742 25.8415C161.911 25.8206 163.067 26.0954 164.102 26.6405C165.138 27.1855 166.019 27.9833 166.665 28.96L164.302 30.4237C163.933 29.8143 163.412 29.3116 162.79 28.9649C162.168 28.6182 161.467 28.4393 160.755 28.4458C159.547 28.4458 158.389 28.9265 157.535 29.7821C156.681 30.6377 156.201 31.7981 156.201 33.0082C156.201 34.2182 156.681 35.3786 157.535 36.2343C158.389 37.0899 159.547 37.5705 160.755 37.5705C161.467 37.5771 162.168 37.3982 162.79 37.0514C163.412 36.7047 163.933 36.202 164.302 35.5926L166.665 37.0563C165.794 38.3191 164.544 39.2705 163.095 39.7723C161.647 40.2741 160.077 40.3 158.614 39.8462C157.15 39.3925 155.869 38.4828 154.957 37.2494C154.044 36.0161 153.549 34.5233 153.542 32.9884C153.514 32.0315 153.683 31.0791 154.038 30.1903C154.393 29.3014 154.926 28.4951 155.605 27.8213C156.284 27.1475 157.093 26.6205 157.984 26.2732C158.874 25.9258 159.827 25.7654 160.781 25.802" fill="white"/>
</g>
<defs>
<clipPath id="clip0_63_620">
<rect width="166" height="40" fill="white" transform="translate(0.651367 0.214844)"/>
</clipPath>
</defs>
</svg>
