<svg width="66" height="45" viewBox="0 0 66 45" fill="none" xmlns="http://www.w3.org/2000/svg">
<path d="M61.868 44.2146H52.4667C51.1147 44.2069 49.7876 43.85 48.6136 43.1783C47.4396 42.5067 46.4585 41.5429 45.765 40.3803L23.0039 1.1771C23.0039 1.1771 29.2981 0.572068 33.5622 7.95638L50.2182 36.6626C51.1715 38.3028 51.8191 38.7766 53.7837 38.7766H58.448L44.4261 14.5826C41.3554 9.2685 44.87 3.1307 48.6756 1.30102C52.634 -0.608838 59.0447 -0.514075 62.5011 5.84241C64.131 8.8457 62.6539 12.9133 62.6539 12.9133L63.9564 16.6528C63.9564 16.6528 64.3275 17.892 63.6071 18.1107C62.8867 18.3294 62.3701 17.4328 62.3701 17.4328L56.8617 7.81788C56.2783 6.90908 55.3713 6.25702 54.325 5.99432C53.2788 5.73162 52.172 5.878 51.2297 6.40371C49.5561 7.38051 48.1953 9.59653 49.5924 12.0312L64.5822 37.9383C66.5323 41.2332 65.921 44.2146 61.868 44.2146Z" fill="white"/>
<path d="M13.7492 44.2161H7.09112L0.651367 33.1214C0.651367 33.1214 7.04746 32.7132 11.2024 39.9007L13.7492 44.2161Z" fill="white"/>
<path d="M40.9556 44.2137H25.1873C23.83 44.2132 22.496 43.8596 21.3161 43.1874C20.1363 42.5153 19.1509 41.5477 18.4564 40.3794L8.08008 22.4981C8.08008 22.4981 14.3743 21.8931 18.6384 29.2701L22.9388 36.6617C23.892 38.3019 24.5396 38.7757 26.5043 38.7757H31.1686L15.5385 11.8772C15.5385 11.8772 21.8328 11.2722 26.0968 18.6492L40.9556 44.2137Z" fill="white"/>
</svg>
