<?xml version="1.0" standalone="no"?>
<!DOCTYPE svg PUBLIC "-//W3C//DTD SVG 20010904//EN"
 "http://www.w3.org/TR/2001/REC-SVG-20010904/DTD/svg10.dtd">
<svg version="1.0" xmlns="http://www.w3.org/2000/svg"
 width="1056.000000pt" height="1056.000000pt" viewBox="0 0 1056.000000 1056.000000"
 preserveAspectRatio="xMidYMid meet">
<metadata>
Created by potrace 1.14, written by Peter Selinger 2001-2017
</metadata>
<g transform="translate(0.000000,1056.000000) scale(0.100000,-0.100000)"
fill="#000000" stroke="none">
<path d="M8447 8844 c-1 -1 -36 -5 -76 -8 -41 -4 -77 -9 -80 -11 -4 -2 -31 -6
-61 -10 -30 -4 -62 -11 -70 -15 -8 -4 -19 -8 -25 -8 -9 -1 -74 -13 -85 -17 -3
-1 -12 -4 -20 -8 -8 -3 -49 -17 -90 -32 -89 -33 -220 -94 -238 -112 -7 -7 -18
-13 -23 -13 -19 0 -186 -135 -259 -209 -114 -116 -175 -194 -255 -325 -38 -64
-125 -233 -130 -256 -10 -38 -19 -67 -26 -75 -4 -6 -17 -46 -29 -90 -26 -97
-25 -88 -46 -220 -3 -16 -7 -69 -8 -118 -2 -48 -6 -90 -9 -94 -4 -3 -2 -13 3
-23 5 -10 7 -19 5 -22 -6 -6 14 -177 30 -243 28 -125 94 -289 155 -390 20 -34
39 -68 43 -75 4 -8 17 -31 28 -50 12 -19 33 -55 47 -80 14 -25 42 -74 64 -109
21 -34 38 -64 38 -66 0 -1 58 -102 129 -224 71 -121 127 -221 123 -221 -4 0
-2 -4 4 -8 12 -8 304 -510 304 -523 0 -5 5 -9 10 -9 6 0 10 -5 10 -10 0 -6 11
-27 23 -48 13 -20 35 -58 49 -83 37 -65 277 -479 296 -509 9 -14 17 -27 17
-30 0 -3 10 -21 21 -40 75 -123 374 -643 374 -651 0 -5 5 -9 10 -9 6 0 10 -6
10 -14 0 -7 7 -19 15 -26 9 -7 14 -15 11 -17 -2 -3 18 -40 45 -84 27 -43 49
-81 49 -84 0 -3 16 -31 35 -61 19 -30 35 -56 35 -59 0 -2 25 -45 55 -95 30
-50 55 -95 55 -100 0 -6 4 -10 10 -10 5 0 9 -3 8 -7 -1 -5 5 -19 13 -33 27
-42 119 -202 119 -206 0 -2 12 -23 27 -47 15 -23 32 -51 38 -62 46 -82 82
-145 101 -177 13 -20 20 -39 16 -41 -13 -6 -846 0 -892 7 -138 22 -221 68
-308 170 -31 37 -112 164 -112 176 0 6 -4 10 -10 10 -5 0 -10 6 -10 13 0 7 -6
19 -12 26 -7 6 -13 15 -13 19 -1 6 -100 178 -169 292 -31 52 -65 112 -79 140
-6 14 -14 27 -18 30 -3 3 -16 25 -30 50 -13 25 -27 47 -31 48 -5 2 -8 8 -8 13
0 5 -11 26 -23 47 -13 20 -35 57 -49 82 -14 25 -36 63 -48 85 -13 22 -30 51
-37 65 -8 14 -23 39 -33 55 -11 17 -27 47 -37 67 -10 21 -21 38 -25 38 -5 0
-8 4 -8 9 0 7 -31 63 -90 161 -40 66 -90 153 -90 155 0 1 -58 103 -130 225
-71 122 -130 223 -130 225 0 1 -25 44 -55 94 -30 51 -55 94 -55 97 0 3 -16 30
-35 60 -19 30 -35 57 -35 60 0 3 -13 25 -30 49 -16 24 -30 46 -30 49 0 2 -23
44 -51 93 -60 102 -52 89 -199 343 -62 107 -121 207 -131 222 -11 15 -19 29
-19 32 0 2 -27 50 -60 105 -33 56 -60 104 -60 106 0 3 -11 22 -24 43 -13 20
-49 82 -81 137 -32 55 -79 136 -105 180 -26 44 -56 96 -67 115 -11 19 -62 107
-113 195 -51 88 -104 180 -118 205 -14 25 -52 89 -84 143 -32 53 -58 100 -58
102 0 3 -16 29 -35 59 -19 30 -35 57 -35 60 0 11 -202 341 -211 344 -5 2 -9 8
-9 14 0 20 -155 212 -255 316 -202 211 -439 372 -695 472 -58 22 -114 42 -125
45 -11 2 -56 13 -100 24 -138 34 -269 49 -377 42 -14 -1 -5 -21 40 -98 32 -54
61 -105 65 -113 4 -8 15 -28 26 -45 19 -31 54 -91 78 -135 8 -14 23 -38 33
-55 10 -16 25 -41 33 -55 38 -68 74 -132 114 -198 24 -41 43 -77 43 -82 0 -5
3 -10 8 -12 4 -1 18 -23 31 -48 14 -25 27 -47 30 -50 3 -3 21 -34 40 -70 19
-36 37 -67 40 -70 3 -3 15 -21 25 -40 10 -19 33 -60 51 -90 50 -85 176 -302
195 -335 34 -59 125 -217 144 -248 10 -18 26 -45 35 -62 9 -16 24 -41 32 -55
9 -14 59 -99 111 -190 53 -91 105 -181 117 -200 11 -19 24 -42 28 -50 3 -8 14
-26 23 -40 10 -14 29 -45 42 -70 14 -25 38 -67 54 -95 15 -27 32 -53 37 -56 5
-3 7 -8 6 -10 -3 -4 47 -94 127 -227 24 -40 44 -75 44 -78 0 -2 12 -23 27 -47
15 -23 33 -51 39 -62 38 -69 60 -106 90 -156 19 -31 34 -62 34 -68 0 -6 4 -11
10 -11 5 0 12 -11 16 -25 3 -14 10 -25 15 -25 5 0 9 -4 9 -10 0 -5 17 -38 38
-72 21 -35 41 -70 45 -78 4 -8 18 -33 32 -55 14 -22 28 -47 32 -55 4 -7 24
-42 45 -77 21 -34 38 -67 38 -73 0 -5 4 -10 8 -10 4 0 13 -12 19 -27 11 -28
43 -83 53 -93 3 -3 16 -25 29 -50 13 -25 31 -53 39 -62 8 -10 12 -18 8 -18 -4
0 7 -20 24 -44 16 -25 30 -47 30 -49 0 -3 18 -35 40 -71 22 -36 40 -70 40 -76
0 -5 5 -10 10 -10 6 0 10 -4 10 -10 0 -8 144 -260 189 -330 8 -14 14 -28 13
-32 -1 -5 3 -8 8 -8 6 0 10 -4 10 -9 0 -12 83 -155 92 -159 5 -2 8 -12 8 -23
0 -10 4 -19 8 -19 5 0 15 -12 23 -27 31 -60 309 -539 318 -550 6 -7 11 -15 11
-18 0 -3 18 -35 40 -71 22 -36 40 -67 40 -69 0 -2 27 -49 60 -105 33 -56 60
-106 60 -111 0 -5 5 -9 10 -9 6 0 10 -4 10 -9 0 -5 19 -42 43 -83 24 -40 55
-93 69 -118 81 -144 207 -354 247 -410 108 -153 320 -325 491 -399 41 -18 84
-37 95 -41 11 -5 40 -14 65 -21 25 -6 52 -14 60 -17 34 -12 90 -21 180 -29 98
-9 1680 -9 1745 0 67 9 106 16 130 24 11 4 26 8 33 9 21 4 123 55 145 73 72
58 139 155 153 221 22 108 23 141 10 245 -7 56 -40 172 -63 225 -34 79 -108
222 -120 232 -7 6 -13 14 -13 19 0 5 -11 26 -23 47 -20 31 -54 91 -101 177 -6
11 -14 22 -17 25 -3 3 -19 30 -35 60 -47 85 -85 151 -111 192 -12 21 -23 42
-23 48 0 5 -4 10 -10 10 -5 0 -10 4 -10 10 0 5 -14 33 -31 62 -30 50 -40 68
-90 156 -12 20 -30 51 -40 67 -11 17 -22 37 -26 45 -4 8 -31 55 -60 104 -29
49 -53 90 -53 92 0 3 -11 21 -23 42 -13 20 -35 57 -49 82 -14 25 -48 84 -77
132 -28 48 -51 89 -51 92 0 3 -18 34 -40 68 -22 35 -40 69 -40 76 0 6 -3 12
-8 12 -7 0 -13 10 -42 66 -8 16 -17 31 -20 34 -6 6 -39 66 -59 108 -8 17 -19
32 -23 32 -4 0 -8 4 -8 9 0 4 -51 96 -114 204 -62 107 -133 230 -157 272 -24
42 -49 84 -54 93 -6 10 -26 45 -45 80 -19 34 -38 62 -42 62 -5 0 -8 5 -8 12 0
6 -20 45 -44 87 -24 42 -53 90 -63 108 -10 17 -34 57 -53 90 -19 32 -34 60
-35 63 0 3 -8 16 -17 30 -16 26 -74 125 -116 200 -14 25 -44 77 -67 115 -22
39 -44 77 -48 85 -4 8 -13 24 -20 35 -50 82 -87 147 -87 154 0 4 -5 12 -12 19
-14 14 -72 114 -90 155 -7 15 -16 27 -20 27 -4 0 -8 5 -8 11 0 6 -27 56 -60
111 -33 54 -60 101 -60 104 0 2 -12 23 -27 47 -90 143 -132 260 -138 383 -7
178 58 336 197 476 90 91 162 138 270 174 56 19 61 20 121 27 21 2 40 7 44 10
3 4 13 2 22 -3 10 -5 23 -5 31 0 7 4 23 4 36 0 12 -5 24 -7 27 -4 17 17 287
-75 287 -98 0 -4 6 -8 13 -8 19 0 114 -83 157 -138 31 -38 130 -196 130 -206
0 -3 155 -273 170 -296 6 -8 18 -31 28 -50 9 -19 20 -36 25 -38 4 -2 7 -7 7
-12 0 -4 29 -57 64 -118 36 -61 76 -131 89 -154 13 -24 74 -130 136 -236 61
-107 111 -198 111 -203 0 -5 5 -9 12 -9 6 0 8 -3 5 -7 -4 -3 -1 -13 6 -22 8
-9 47 -74 87 -146 99 -174 143 -215 228 -215 69 1 102 51 97 150 -2 62 -6 79
-25 125 -5 11 -18 49 -30 85 -12 36 -25 74 -30 85 -21 48 -79 225 -73 225 3 0
1 6 -5 13 -21 25 -59 154 -51 170 5 8 10 23 12 33 2 11 9 38 16 62 7 24 14 55
16 70 2 15 8 47 13 72 37 163 45 446 16 572 -3 13 -7 36 -10 51 -2 15 -8 35
-13 45 -5 9 -10 22 -10 27 -8 56 -78 203 -141 298 -22 33 -40 61 -40 64 0 5
-58 82 -70 93 -3 3 -17 21 -32 41 -57 77 -233 243 -318 299 -12 8 -33 23 -45
33 -13 9 -28 17 -33 17 -6 0 -12 4 -14 8 -3 8 -197 105 -243 122 -11 4 -33 13
-49 19 -81 33 -287 74 -378 75 -27 1 -48 3 -48 6 0 4 -208 8 -213 4z"/>
<path d="M2503 6983 c-13 -5 7 -48 67 -148 17 -27 33 -57 37 -65 4 -8 9 -17
13 -20 3 -3 14 -21 24 -40 9 -19 39 -71 66 -115 27 -44 56 -97 66 -117 9 -21
20 -38 25 -38 5 0 9 -4 9 -10 0 -5 14 -33 31 -62 35 -59 60 -101 97 -168 14
-25 36 -62 49 -82 12 -21 23 -42 23 -48 0 -5 5 -10 10 -10 6 0 10 -4 10 -9 0
-5 50 -93 110 -196 61 -103 110 -192 110 -196 0 -5 5 -9 11 -9 5 0 8 -4 4 -9
-3 -5 -1 -12 4 -15 5 -3 35 -52 67 -108 32 -57 63 -111 69 -120 59 -100 105
-182 105 -189 0 -5 5 -9 10 -9 6 0 10 -5 10 -10 0 -6 20 -43 44 -83 24 -39 53
-88 63 -107 84 -149 127 -221 134 -226 5 -3 9 -14 9 -25 0 -10 4 -19 9 -19 5
0 18 -17 28 -37 11 -21 28 -54 38 -73 10 -19 21 -37 24 -40 3 -3 12 -16 19
-29 8 -13 22 -38 32 -56 10 -18 85 -147 166 -286 81 -140 153 -263 159 -274 6
-11 43 -76 84 -145 40 -69 100 -172 134 -230 33 -58 77 -133 99 -168 21 -35
38 -65 38 -66 0 -6 219 -381 230 -393 5 -7 10 -14 10 -16 0 -3 29 -55 65 -118
36 -62 65 -115 65 -118 0 -9 -816 -5 -890 4 -116 13 -197 51 -276 129 -42 43
-144 187 -144 206 0 5 -4 10 -10 10 -5 0 -10 4 -10 10 0 5 -22 47 -50 94 -27
47 -50 89 -50 95 0 6 -4 11 -10 11 -5 0 -10 4 -10 10 0 8 -56 107 -90 160 -6
8 -16 26 -23 40 -6 14 -16 30 -20 35 -12 14 -233 393 -254 435 -9 19 -38 69
-63 110 -25 41 -49 82 -53 90 -4 8 -18 33 -32 55 -14 22 -28 47 -32 55 -4 8
-26 43 -50 78 -24 35 -43 65 -43 68 0 8 -141 189 -198 253 -48 54 -112 118
-212 211 -8 8 -34 28 -55 44 -22 17 -42 32 -45 36 -13 14 -160 110 -169 110
-6 0 -11 5 -11 10 0 6 -6 10 -14 10 -7 0 -26 10 -42 23 -16 12 -30 21 -31 19
-2 -1 -40 15 -86 36 -86 41 -282 108 -339 116 -18 3 -44 7 -58 10 -144 32
-357 36 -313 7 9 -6 86 -133 141 -231 13 -25 28 -49 32 -55 4 -5 19 -30 32
-55 14 -25 55 -96 92 -158 36 -62 77 -132 90 -155 13 -23 47 -82 76 -132 29
-49 66 -115 83 -145 17 -30 38 -66 49 -79 10 -13 18 -28 18 -33 0 -6 14 -30
30 -55 17 -24 30 -46 30 -49 0 -2 12 -23 27 -47 15 -23 28 -44 28 -47 0 -3 5
-12 10 -20 18 -28 45 -75 57 -100 7 -14 17 -29 21 -35 15 -19 187 -320 193
-337 3 -10 10 -18 15 -18 5 0 9 -4 9 -10 0 -5 27 -55 60 -111 33 -55 60 -102
60 -104 0 -2 19 -34 42 -71 23 -38 55 -94 71 -124 16 -30 36 -62 43 -71 8 -8
14 -18 14 -22 0 -15 374 -644 416 -699 137 -180 352 -338 559 -412 28 -10 57
-21 65 -24 45 -16 129 -34 220 -48 45 -7 2592 -12 2642 -6 20 3 25 8 21 21 -4
9 -9 18 -12 21 -7 6 -71 110 -71 115 0 2 -26 47 -58 102 -32 54 -74 125 -92
158 -18 33 -36 62 -39 65 -6 5 -32 52 -70 125 -9 17 -19 32 -23 33 -5 2 -8 8
-8 12 0 5 -27 55 -61 112 -33 57 -64 110 -69 118 -5 8 -57 98 -117 199 -59
102 -111 192 -116 200 -4 9 -18 34 -32 56 -14 22 -31 51 -38 65 -6 14 -15 27
-19 30 -4 3 -12 17 -17 30 -6 14 -20 39 -30 55 -16 26 -130 221 -182 312 -10
17 -29 50 -43 72 -15 22 -26 42 -26 44 0 2 -52 92 -115 201 -63 108 -115 199
-115 202 0 3 -5 10 -10 17 -19 21 -170 286 -170 297 0 5 -4 10 -9 10 -5 0 -11
8 -14 18 -4 9 -17 35 -30 57 -78 129 -117 197 -117 203 0 3 -6 13 -14 21 -7 9
-24 36 -37 61 -13 25 -29 52 -35 60 -6 8 -26 42 -43 74 -17 33 -35 64 -40 70
-4 6 -20 31 -33 56 -14 25 -62 108 -107 184 -44 76 -81 143 -81 147 0 5 -4 9
-10 9 -5 0 -10 5 -10 11 0 8 -179 321 -229 399 -8 14 -14 28 -13 33 1 4 -2 7
-8 7 -5 0 -10 5 -10 10 0 6 -30 57 -67 113 -38 56 -70 107 -72 112 -2 6 -7 12
-11 15 -4 3 -31 37 -60 75 -29 39 -62 78 -73 88 -11 9 -17 17 -14 17 3 0 -41
47 -99 105 -280 279 -627 468 -974 531 -19 4 -44 8 -55 11 -11 2 -63 6 -115 9
-52 3 -99 6 -105 8 -5 2 -16 1 -22 -1z"/>
<path d="M110 3576 c0 -4 32 -61 72 -129 39 -67 76 -132 82 -144 6 -13 14 -23
19 -23 4 0 7 -4 7 -10 0 -5 87 -159 193 -342 107 -183 205 -353 219 -378 14
-25 90 -155 168 -290 79 -135 151 -258 160 -275 10 -16 37 -64 61 -105 l44
-75 520 1 c286 1 525 2 532 3 6 1 -43 92 -109 204 -66 111 -130 218 -141 237
-11 19 -28 49 -39 65 -10 17 -21 38 -24 48 -4 9 -10 17 -15 17 -5 0 -9 4 -9 9
0 22 -150 261 -235 376 -102 138 -300 340 -411 420 -15 11 -39 29 -53 40 -25
19 -49 36 -148 98 -24 15 -47 27 -52 27 -5 0 -11 3 -13 8 -10 24 -360 162
-445 175 -17 3 -36 7 -40 10 -5 3 -27 8 -49 11 -21 3 -50 8 -64 11 -39 9 -230
18 -230 11z"/>
</g>
</svg>
