<svg width="32" height="232" viewBox="0 0 32 232" fill="none" xmlns="http://www.w3.org/2000/svg">
<circle cx="16" cy="16" r="16" fill="#92C7D0" fill-opacity="0.5"/>
<path d="M16 226.667C21.891 226.667 26.6667 221.891 26.6667 216C26.6667 210.109 21.891 205.333 16 205.333C10.109 205.333 5.33333 210.109 5.33333 216C5.33333 221.891 10.109 226.667 16 226.667ZM16 26.6667C21.891 26.6667 26.6667 21.891 26.6667 16C26.6667 10.109 21.891 5.33333 16 5.33333C10.109 5.33333 5.33333 10.109 5.33333 16C5.33333 21.891 10.109 26.6667 16 26.6667ZM18 216V211H14V216H18ZM18 201L18 191H14L14 201H18ZM18 181L18 171H14L14 181H18ZM18 161V151H14V161H18ZM18 141L18 131H14L14 141H18ZM18 121L18 111H14L14 121H18ZM18 101V91H14V101H18ZM18 81L18 71H14L14 81H18ZM18 61V51H14L14 61H18ZM18 41V31H14V41H18ZM18 21L18 16H14V21H18Z" fill="#92C7D0"/>
<circle cx="16" cy="16" r="6" fill="white"/>
<circle cx="16" cy="216" r="16" fill="#92C7D0" fill-opacity="0.5"/>
<circle cx="16" cy="216" r="6" fill="white"/>
</svg>
