<svg width="25" height="25" viewBox="0 0 25 25" fill="none" xmlns="http://www.w3.org/2000/svg">
<path d="M7.15852 6.35415C7.49191 6.35415 7.7624 6.08395 7.7624 5.75056V3.8184C7.7624 3.48505 7.49191 3.21484 7.15852 3.21484C6.82518 3.21484 6.55469 3.48505 6.55469 3.81843V5.7506C6.55469 6.08395 6.82518 6.35415 7.15852 6.35415Z" fill="white"/>
<path d="M11.9876 6.35415C12.321 6.35415 12.5915 6.08395 12.5915 5.75056V3.8184C12.5915 3.48505 12.321 3.21484 11.9876 3.21484C11.6543 3.21484 11.3838 3.48505 11.3838 3.81843V5.7506C11.3838 6.08395 11.6543 6.35415 11.9876 6.35415Z" fill="white"/>
<path d="M16.8168 6.35415C17.1501 6.35415 17.4206 6.08395 17.4206 5.75056V3.8184C17.4206 3.48505 17.1501 3.21484 16.8168 3.21484C16.4834 3.21484 16.2129 3.48505 16.2129 3.81843V5.7506C16.2129 6.08395 16.4834 6.35415 16.8168 6.35415Z" fill="white"/>
<path d="M17.9997 4.79297H17.9043V5.75023C17.9043 6.34921 17.4169 6.83675 16.8175 6.83675C16.2185 6.83675 15.7307 6.34918 15.7307 5.75023V4.79297H13.0746V5.75023C13.0746 6.34921 12.5867 6.83675 11.9877 6.83675C11.3887 6.83675 10.9009 6.34918 10.9009 5.75023V4.79297H8.24483V5.75023C8.24483 6.34921 7.75697 6.83675 7.15802 6.83675C6.55907 6.83675 6.07118 6.34921 6.07118 5.75023V4.79297H5.97633C4.67268 4.79297 3.61621 5.84968 3.61621 7.15308V18.8542C3.61621 20.1575 4.67264 21.2143 5.97633 21.2143H17.9997C19.3028 21.2143 20.3598 20.1576 20.3598 18.8542V7.15308C20.3598 5.84972 19.3028 4.79297 17.9997 4.79297ZM18.8382 18.675C18.8382 19.2366 18.3813 19.6933 17.8203 19.6933H6.15576C5.59418 19.6933 5.13723 19.2366 5.13723 18.675V9.91106H18.8383V18.675H18.8382Z" fill="white"/>
</svg>
