<svg width="19" height="19" viewBox="0 0 19 19" fill="none" xmlns="http://www.w3.org/2000/svg">
<g clip-path="url(#clip0_64_4074)">
<path d="M3.99951 16.592C4.79273 17.1471 5.67894 17.5768 6.63103 17.8541V13.9609L3.99951 16.592Z" fill="#29337A"/>
<path d="M0.550781 11.8711C0.848362 12.835 1.30437 13.7293 1.88714 14.5248L4.54082 11.8711H0.550781Z" fill="#29337A"/>
<path d="M1.73665 4.11523C1.15627 4.95762 0.7152 5.90349 0.447754 6.92011H4.54168L1.73665 4.11523Z" fill="#29337A"/>
<path d="M6.63105 0.574219C5.5941 0.876207 4.63375 1.35809 3.78809 1.98662L6.63105 4.82957V0.574219Z" fill="#29337A"/>
<path d="M3.79053 16.4449C3.859 16.496 3.92938 16.5445 3.99926 16.5934L6.63079 13.9622V17.8554C6.8836 17.9293 7.14037 17.9931 7.40159 18.0444V12.834L3.79053 16.4449Z" fill="white"/>
<path d="M0.350586 11.1016C0.406446 11.3627 0.472377 11.62 0.550392 11.8724H4.54047L1.88679 14.526C2.1754 14.9204 2.49544 15.2904 2.84318 15.6326L7.37419 11.1016H0.350586Z" fill="white"/>
<path d="M1.88474 3.90625C1.83443 3.97503 1.78484 4.0448 1.73623 4.11529L4.54127 6.92017H0.447338C0.380989 7.17268 0.326839 7.43006 0.282227 7.69097H5.66976L1.88474 3.90625Z" fill="white"/>
<path d="M6.63069 0.575732V4.83109L3.7877 1.98828C3.39576 2.27974 3.0294 2.60332 2.68994 2.9536L7.40134 7.665V0.386719C7.14028 0.438323 6.88351 0.502278 6.63069 0.575732Z" fill="white"/>
<path d="M6.63053 11.8438L6.60352 11.8709H6.63053V11.8438Z" fill="#EA8790"/>
<path d="M7.37451 11.1014H7.40149V11.0742L7.37451 11.1014Z" fill="#EA8790"/>
<path d="M10.8375 7.68945H10.8115V7.7156L10.8375 7.68945Z" fill="#EA8790"/>
<path d="M7.40137 7.66406V7.69066H7.42797L7.40137 7.66406Z" fill="#EA8790"/>
<path d="M6.65693 6.91929L6.63037 6.89258V6.91929H6.65693Z" fill="#EA8790"/>
<path d="M11.583 15.862V17.8795C12.5475 17.6095 13.4467 17.1839 14.251 16.6294L12.065 14.4434C11.8904 15.0571 11.8264 15.3744 11.583 15.862Z" fill="#252F6C"/>
<path d="M16.379 14.5792C16.9799 13.7707 17.4483 12.8581 17.7526 11.873H13.6729L16.379 14.5792Z" fill="#252F6C"/>
<path d="M12.0766 4.33763L14.4629 1.95125C13.6056 1.3234 12.633 0.844942 11.583 0.550781V2.62324C11.8637 3.18527 11.8873 3.61232 12.0766 4.33763Z" fill="#252F6C"/>
<path d="M17.8551 6.92177C17.582 5.88368 17.1277 4.92007 16.529 4.06445L13.6714 6.92177H17.8551Z" fill="#252F6C"/>
<path d="M10.8125 17.0237V18.0604C11.0737 18.0118 11.3306 17.9515 11.5833 17.8808V15.8633C11.3562 16.3183 11.0991 16.7132 10.8125 17.0237Z" fill="#E7E7E7"/>
<path d="M12.6016 11.2559L13.22 11.8743L16.1804 14.8347C16.2476 14.7505 16.3143 14.6667 16.3786 14.5804L13.6725 11.8743H17.7522C17.83 11.6221 17.896 11.3647 17.9517 11.1035H12.6594C12.6507 11.2128 12.6119 11.1473 12.6016 11.2559Z" fill="#E7E7E7"/>
<path d="M11.9346 14.3146L14.2508 16.6311C14.636 16.3657 14.9988 16.0704 15.3373 15.7499L12.2907 12.7031C12.1935 13.2666 12.0781 13.8108 11.9346 14.3146Z" fill="#E7E7E7"/>
<path d="M11.983 4.78889L14.6661 2.10549C14.5989 2.05335 14.5315 2.00148 14.4629 1.95117L12.0765 4.33756C12.1012 4.43191 11.96 4.69225 11.983 4.78889Z" fill="#E7E7E7"/>
<path d="M12.5412 7.69213H18.0206C17.9761 7.43122 17.9219 7.17399 17.8555 6.92133H13.6717L16.5294 4.06401C16.2484 3.66268 15.9362 3.28526 15.5952 2.93555L12.3765 6.15395C12.4631 6.73775 12.5019 7.07679 12.5412 7.69213Z" fill="#E7E7E7"/>
<path d="M11.5828 2.4575V0.550721C11.3303 0.479965 11.0732 0.42 10.812 0.371094V1.30119C11.0988 1.61211 11.3559 2.00264 11.5828 2.4575Z" fill="#E7E7E7"/>
<path d="M12.6014 11.2539C12.5514 11.7857 12.3772 12.2 12.2905 12.7017L15.3371 15.7483C15.6385 15.4626 15.9203 15.1571 16.1801 14.8327L13.2199 11.8722L12.6014 11.2539Z" fill="#EE8388"/>
<path d="M18.0201 7.69141H12.6118C12.6834 8.82017 12.6748 9.98089 12.5859 11.1019H17.9516C18.0815 10.4933 18.1511 9.86263 18.1511 9.21549C18.1511 8.69564 18.1048 8.1872 18.0201 7.69141Z" fill="#EE8388"/>
<path d="M12.3762 6.15349L15.5946 2.93509C15.3048 2.63751 14.9942 2.36057 14.6656 2.10547L12.1367 4.63481C12.2491 5.10461 12.3002 5.64235 12.3762 6.15349Z" fill="#EE8388"/>
<path d="M11.583 16.2507C11.8264 15.763 12.0352 15.2015 12.21 14.5879L11.583 13.9609V16.2507Z" fill="#29337A"/>
<path d="M12.288 4.12446C12.0984 3.39915 11.8637 2.73976 11.583 2.17773V4.82914L12.288 4.12446Z" fill="#29337A"/>
<path d="M9.15093 18.2145C9.00129 18.2145 8.85179 18.2104 8.70215 18.2031C8.85096 18.2107 9.00045 18.2145 9.15093 18.2145Z" fill="#EA8790"/>
<path d="M9.15137 18.2139C9.71921 18.2139 10.2737 18.1589 10.8123 18.0581V17.0215C10.3395 17.5339 9.78647 18.2139 9.15137 18.2139Z" fill="#EA8790"/>
<path d="M8.70215 0.22594C8.8521 0.218682 9.00159 0.214844 9.1512 0.214844C9.00072 0.214844 8.85096 0.218682 8.70215 0.22594Z" fill="#EA8790"/>
<path d="M10.8123 1.36717V0.370303C10.2739 0.26983 9.7194 0.214844 9.15137 0.214844C9.78647 0.214844 10.3395 0.854885 10.8123 1.36717Z" fill="#EA8790"/>
<path d="M12.7767 11.4286C12.7869 11.32 12.7962 11.211 12.805 11.1016H12.4497L12.7767 11.4286Z" fill="white"/>
<path d="M10.8125 17.4072C11.0993 17.0963 11.3562 16.7058 11.5833 16.2509V13.9612L12.2103 14.5882C12.3541 14.0841 12.4747 13.5457 12.5722 12.9822L10.8125 11.2227L10.8125 17.4072Z" fill="white"/>
<path d="M11.5828 4.82935V2.1778C11.3557 1.72293 11.0988 1.33214 10.812 1.02148V5.95796L12.36 4.41001C12.3367 4.31338 12.3122 4.21872 12.2878 4.12436L11.5828 4.82935Z" fill="white"/>
<path d="M10.8384 7.69105H12.8307C12.7916 7.07575 12.7294 6.47037 12.6428 5.88672L10.8384 7.69105Z" fill="white"/>
<path d="M10.8122 17.4074V11.2228L12.5717 12.9825C12.6583 12.4807 12.7264 11.9603 12.7762 11.4284L12.4492 11.1014H12.8045C12.8933 9.98036 12.902 8.81964 12.8304 7.69092H10.8381L12.6424 5.88658C12.5663 5.37529 12.4723 4.88075 12.3599 4.4108L10.8122 5.95875V1.02227C10.3394 0.50984 9.78631 0.214844 9.15122 0.214844C9.00157 0.214844 8.85208 0.218682 8.70216 0.22594C8.2595 0.248094 7.82538 0.302549 7.4016 0.386111V7.66435L2.69009 2.95296C2.40061 3.25168 2.13134 3.56997 1.8849 3.90635L4.89883 6.92027L5.66989 7.69107H0.282392C0.197994 8.18671 0.151367 8.69515 0.151367 9.215C0.151367 9.86229 0.221288 10.4928 0.350869 11.1014H7.37462L2.84358 15.6325C3.14028 15.924 3.45618 16.1954 3.79058 16.4438L7.40149 12.8329V18.0433C7.82523 18.1269 8.25965 18.1813 8.70232 18.2035C8.85196 18.2107 9.00146 18.2148 9.1511 18.2148C9.78631 18.2148 10.3394 17.9198 10.8122 17.4074Z" fill="#E26171"/>
</g>
<defs>
<clipPath id="clip0_64_4074">
<rect width="18" height="18" fill="white" transform="translate(0.151367 0.214844)"/>
</clipPath>
</defs>
</svg>
