<svg width="25" height="25" viewBox="0 0 25 25" fill="none" xmlns="http://www.w3.org/2000/svg">
<path fill-rule="evenodd" clip-rule="evenodd" d="M13.7015 19.0989C15.6065 16.06 18.1514 11.865 18.1514 9.64341C18.1514 6.09302 15.2412 3.21484 11.6514 3.21484C8.06152 3.21484 5.15137 6.09302 5.15137 9.64341C5.15137 11.865 7.69629 16.06 9.60127 19.0989C10.4857 20.5095 10.9278 21.2148 11.6514 21.2148C12.3749 21.2148 12.8171 20.5095 13.7015 19.0989ZM11.6514 12.8577C13.4463 12.8577 14.9014 11.4186 14.9014 9.64341C14.9014 7.86822 13.4463 6.42913 11.6514 6.42913C9.85646 6.42913 8.40137 7.86822 8.40137 9.64341C8.40137 11.4186 9.85646 12.8577 11.6514 12.8577Z" fill="white"/>
</svg>
