<svg width="25" height="25" viewBox="0 0 25 25" fill="none" xmlns="http://www.w3.org/2000/svg">
<path d="M3.4203 4.26989C3.15474 4.33628 2.91652 4.46515 2.70954 4.65651C2.44008 4.90644 2.37369 5.07827 2.47132 5.28525C2.49475 5.33993 3.36953 6.10926 4.41223 6.99576C6.92332 9.12803 9.94599 11.7172 10.9301 12.5803C11.6174 13.1817 11.7541 13.2832 11.9377 13.3379C12.129 13.3926 12.1681 13.3926 12.3555 13.3379C12.582 13.2715 12.5742 13.2793 13.6716 12.3186C14.5932 11.5102 17.3074 9.18661 19.8849 6.99576C20.9276 6.10926 21.8024 5.33993 21.8258 5.28525C21.9234 5.07827 21.857 4.90644 21.5876 4.65651C21.3728 4.45734 21.1033 4.31675 20.826 4.25817C20.5136 4.19178 3.68976 4.2035 3.4203 4.26989Z" fill="white"/>
<path d="M2.33496 7.71996C2.1436 7.83321 2.15141 7.5989 2.15141 13.3123C2.15141 16.7294 2.16703 18.7133 2.19046 18.846C2.31543 19.5099 2.85436 20.0489 3.51435 20.1738C3.80334 20.2285 20.4944 20.2285 20.7834 20.1738C21.4434 20.0489 21.9823 19.5099 22.1073 18.846C22.1307 18.7133 22.1463 16.7294 22.1463 13.3123C22.1463 7.57156 22.1542 7.8254 21.955 7.71606C21.8456 7.65748 21.5918 7.66919 21.4981 7.73168C21.3692 7.8215 16.1557 12.2657 14.9255 13.3357C14.3163 13.8629 13.6563 14.4331 13.461 14.6049C12.9065 15.0853 12.434 15.261 11.9185 15.179C11.4303 15.1009 11.2936 15.0111 10.2353 14.0816C9.01686 13.0116 3.20974 8.05191 2.83874 7.76292C2.71767 7.66919 2.45993 7.64576 2.33496 7.71996Z" fill="white"/>
</svg>
