<svg width="25" height="25" viewBox="0 0 25 25" fill="none" xmlns="http://www.w3.org/2000/svg">
<path d="M10.7512 16.2148C10.7512 14.8648 10.8722 13.8938 11.1142 13.3018C11.3562 12.7098 11.8685 12.0642 12.6512 11.3648C13.3345 10.7648 13.8555 10.2438 14.2142 9.80184C14.5728 9.35984 14.7518 8.85584 14.7512 8.28984C14.7512 7.60651 14.5222 7.03984 14.0642 6.58984C13.6062 6.13984 12.9685 5.91484 12.1512 5.91484C11.3012 5.91484 10.6552 6.17318 10.2132 6.68984C9.77117 7.20651 9.45917 7.73151 9.27717 8.26484L6.70117 7.16484C7.05117 6.09818 7.69284 5.17318 8.62617 4.38984C9.55951 3.60651 10.7345 3.21484 12.1512 3.21484C13.9012 3.21484 15.2472 3.70251 16.1892 4.67784C17.1312 5.65318 17.6018 6.82384 17.6012 8.18984C17.6012 9.02318 17.4222 9.73584 17.0642 10.3278C16.7062 10.9198 16.1435 11.5905 15.3762 12.3398C14.5595 13.1232 14.0638 13.7192 13.8892 14.1278C13.7145 14.5365 13.6268 15.2322 13.6262 16.2148H10.7512ZM12.1512 22.2148C11.6012 22.2148 11.1305 22.0188 10.7392 21.6268C10.3478 21.2348 10.1518 20.7642 10.1512 20.2148C10.1512 19.6648 10.3472 19.1938 10.7392 18.8018C11.1312 18.4098 11.6018 18.2142 12.1512 18.2148C12.7012 18.2148 13.1722 18.4108 13.5642 18.8028C13.9562 19.1948 14.1518 19.6655 14.1512 20.2148C14.1512 20.7648 13.9552 21.2358 13.5632 21.6278C13.1712 22.0198 12.7005 22.2155 12.1512 22.2148Z" fill="white"/>
</svg>
