<svg width="24" height="25" viewBox="0 0 24 25" fill="none" xmlns="http://www.w3.org/2000/svg">
<path d="M24 18.1051C24 18.8124 23.719 19.4907 23.219 19.9908C22.7189 20.4909 22.0406 20.7718 21.3333 20.7718H2.66667C1.95942 20.7718 1.28115 20.4909 0.781049 19.9908C0.280952 19.4907 0 18.8124 0 18.1051V15.4385H24V18.1051Z" fill="#CE2028"/>
<path d="M0 8.77246H24V15.4391H0V8.77246Z" fill="#22408C"/>
<path d="M21.3333 3.43848H2.66667C1.95942 3.43848 1.28115 3.71943 0.781049 4.21953C0.280952 4.71962 0 5.3979 0 6.10514L0 8.77181H24V6.10514C24 5.3979 23.719 4.71962 23.219 4.21953C22.7189 3.71943 22.0406 3.43848 21.3333 3.43848Z" fill="#EEEEEE"/>
</svg>
