<svg width="25" height="25" viewBox="0 0 25 25" fill="none" xmlns="http://www.w3.org/2000/svg">
<path d="M19.8585 16.922C20.249 16.5314 20.249 15.8983 19.8585 15.5077L13.4945 9.14378C13.104 8.75325 12.4708 8.75325 12.0803 9.14378C11.6898 9.5343 11.6898 10.1675 12.0803 10.558L17.7372 16.2148L12.0803 21.8717C11.6898 22.2622 11.6898 22.8954 12.0803 23.2859C12.4708 23.6764 13.104 23.6764 13.4945 23.2859L19.8585 16.922ZM4.15137 3.21484V14.2148H6.15137V3.21484H4.15137ZM7.15137 17.2148H19.1514V15.2148H7.15137V17.2148ZM4.15137 14.2148C4.15137 15.8717 5.49451 17.2148 7.15137 17.2148V15.2148C6.59908 15.2148 6.15137 14.7671 6.15137 14.2148H4.15137Z" fill="white"/>
</svg>
