<svg width="25" height="25" viewBox="0 0 25 25" fill="none" xmlns="http://www.w3.org/2000/svg">
<path d="M10.8216 3.24062C10.6137 3.29258 10.2456 3.50911 10.1287 3.64769C9.89053 3.9335 9.79526 4.19333 9.77361 4.63505L9.75195 5.05078L10.1374 4.99448C10.9255 4.87756 11.809 4.83425 12.5062 4.88622C12.8656 4.91653 13.3376 4.96417 13.5498 4.99448L13.9353 5.05078L13.9136 4.63505C13.8833 3.99846 13.6711 3.63903 13.1774 3.37053L12.9046 3.22329L11.9302 3.21463C11.3932 3.2103 10.8952 3.22329 10.8216 3.24062Z" fill="white"/>
<path d="M10.982 6.28492C10.3887 6.32822 10.1159 6.37586 8.89903 6.63136C8.21047 6.7786 7.82505 6.88253 7.70813 6.95182C7.46129 7.09473 7.23177 7.35023 7.11484 7.6014C7.01957 7.80927 7.01524 7.87422 7.00225 8.97418L6.98926 10.1348L7.15382 10.0741C8.87737 9.45054 10.5706 8.86159 10.7958 8.80096C11.2418 8.68837 12.528 8.70136 12.9697 8.82261C13.2296 8.89623 16.0617 9.88792 16.5771 10.0871L16.6983 10.1348L16.6853 8.97418C16.6723 7.87422 16.668 7.80927 16.5727 7.6014C16.4558 7.35023 16.2263 7.09473 15.9795 6.95182C15.6633 6.76561 13.6193 6.35853 12.6449 6.28492C11.9737 6.23295 11.6489 6.23295 10.982 6.28492Z" fill="white"/>
<path fill-rule="evenodd" clip-rule="evenodd" d="M5.16625 12.2555C6.40911 11.7835 10.9302 10.1985 11.1511 10.1552L11.0904 18.1277C10.4798 17.7206 9.93417 17.4954 9.22396 17.3395C8.8039 17.2529 7.79489 17.2399 7.38348 17.3179C6.82051 17.4261 6.08865 17.7033 5.69024 17.9545L5.53434 18.0541L5.47805 17.9372C4.86311 16.5904 4.17455 14.1176 4.23518 13.455C4.28282 12.9354 4.6639 12.4417 5.16625 12.2555ZM12.6018 18.1277L12.5022 10.1508C12.8659 10.2201 18.4913 12.2122 18.7555 12.3637C19.1409 12.5889 19.4137 13.0177 19.4527 13.4637C19.5133 14.1133 18.8204 16.6033 18.2098 17.9372L18.1579 18.0497L17.9543 17.9285C17.4477 17.6167 16.6422 17.3525 15.9493 17.2789C14.793 17.149 13.5762 17.4565 12.6018 18.1277Z" fill="white"/>
<path d="M7.77309 18.6645C7.15815 18.7512 6.69912 18.9287 6.14481 19.2925C5.4779 19.7385 5.09249 19.8598 4.50353 19.8208C4.05316 19.7905 3.79765 19.7082 3.39924 19.4657C2.9965 19.2275 2.84927 19.1929 2.59376 19.2925C2.35558 19.3834 2.18236 19.5999 2.15638 19.8468C2.11307 20.2279 2.34692 20.505 2.99217 20.8255C4.17008 21.4144 5.59483 21.3235 6.69479 20.5873C7.18847 20.2582 7.43098 20.1413 7.79041 20.0633C8.39669 19.9334 9.02895 20.0763 9.60491 20.4704C10.2848 20.9381 10.8997 21.1589 11.6229 21.2066C12.489 21.2629 13.2599 21.0334 14.087 20.4661C14.6673 20.072 15.2866 19.9334 15.8972 20.0633C16.2566 20.1413 16.4991 20.2582 16.9928 20.5873C17.794 21.1243 18.7423 21.3192 19.7037 21.1546C20.1974 21.068 20.6781 20.8775 21.0462 20.622C21.4489 20.3448 21.5226 20.2365 21.5226 19.9247C21.5226 19.6086 21.3796 19.4007 21.0938 19.2925C20.8383 19.1929 20.6911 19.2275 20.2883 19.4657C19.8813 19.7125 19.6301 19.7905 19.1624 19.8208C18.5778 19.8598 18.1577 19.7212 17.5428 19.2925C16.9149 18.8508 16.2393 18.6472 15.4165 18.6516C14.598 18.6559 13.9095 18.8854 13.1863 19.3964C12.7402 19.7082 12.4068 19.8121 11.8438 19.8121C11.2678 19.8121 11.008 19.7299 10.484 19.3834C9.986 19.0586 9.57026 18.8594 9.15453 18.7555C8.75612 18.6559 8.14985 18.6126 7.77309 18.6645Z" fill="white"/>
</svg>
